M48
; DRILL file {KiCad 7.0.1} date Sun Aug 11 10:53:14 2024
; FORMAT={-:-/ absolute / inch / decimal}
; #@! TF.CreationDate,2024-08-11T10:53:14-07:00
; #@! TF.GenerationSoftware,Kicad,Pcbnew,7.0.1
; #@! TF.FileFunction,Plated,1,4,PTH
FMAT,2
INCH
; #@! TA.AperFunction,Plated,PTH,ViaDrill
T1C0.0118
; #@! TA.AperFunction,Plated,PTH,ComponentDrill
T2C0.0118
; #@! TA.AperFunction,Plated,PTH,ViaDrill
T3C0.0157
; #@! TA.AperFunction,Plated,PTH,ComponentDrill
T4C0.0236
; #@! TA.AperFunction,Plated,PTH,ComponentDrill
T5C0.0394
%
G90
G05
T1
X4.2756Y-4.6043
X4.2756Y-4.6299
X4.2756Y-4.6575
X4.2756Y-4.8307
X4.2992Y-4.8307
X4.3071Y-4.6043
X4.3071Y-4.6299
X4.3593Y-4.9134
X4.3593Y-4.937
X4.3661Y-4.2756
X4.3858Y-4.6929
X4.3917Y-4.124
X4.4055Y-4.935
X4.4094Y-4.5669
X4.4173Y-4.6929
X4.4331Y-4.5472
X4.4331Y-4.5866
X4.435Y-4.1058
X4.4488Y-4.6929
X4.4567Y-4.7669
X4.4606Y-4.3957
X4.4606Y-4.4272
X4.4724Y-4.0827
X4.4764Y-4.9626
X4.4803Y-4.6929
X4.4902Y-4.4272
X4.4941Y-4.9941
X4.5039Y-4.811
X4.5098Y-4.8799
X4.5098Y-5.0157
X4.5159Y-4.0737
X4.5413Y-4.8957
X4.5472Y-4.0472
X4.5501Y-4.9872
X4.563Y-4.876
X4.5825Y-4.9874
X4.6123Y-5.0122
X4.6133Y-4.0226
X4.6314Y-5.0793
X4.6535Y-4.0453
X4.6732Y-4.815
X4.6732Y-4.939
X4.7047Y-4.6024
X4.7087Y-4.815
X4.7185Y-5.0256
X4.7323Y-5.0453
X4.7362Y-4.5984
X4.7402Y-4.0
X4.748Y-4.8386
X4.7598Y-4.6142
X4.7717Y-4.8622
X4.7835Y-4.3386
X4.7835Y-4.5984
X4.7835Y-4.7441
X4.7894Y-4.0374
X4.7953Y-4.8386
X4.7992Y-4.9724
X4.82Y-4.168
X4.8524Y-4.6102
X4.8681Y-4.0236
X4.9016Y-3.9941
X4.9154Y-4.75
X4.9571Y-3.9646
X4.9665Y-5.1319
X4.9803Y-3.9902
X5.002Y-4.3327
X5.0118Y-4.9449
X5.0217Y-3.9567
X5.0236Y-4.3071
X5.0548Y-4.1686
X5.0689Y-3.935
X5.0807Y-5.1122
X5.1063Y-4.0433
X5.1075Y-4.3138
X5.1122Y-3.9587
X5.1461Y-4.3128
X5.1496Y-4.9646
X5.1555Y-3.9272
X5.1575Y-3.9665
X5.1673Y-3.8228
X5.1772Y-4.3406
X5.1831Y-3.9035
X5.1876Y-4.4975
X5.2067Y-3.8031
X5.2382Y-3.7677
X5.2461Y-5.0472
X5.2677Y-5.0866
X5.2736Y-5.0276
X5.2972Y-3.7264
X5.2972Y-5.0866
X5.2992Y-5.1752
X5.311Y-4.5531
X5.311Y-4.7894
X5.3389Y-4.48
X5.3445Y-3.7126
X5.3701Y-4.7402
X5.3801Y-4.4684
X5.3898Y-3.7047
X5.3944Y-4.4914
X5.3996Y-4.9154
X5.4208Y-4.4906
X5.4213Y-5.0059
X5.4232Y-3.7028
X5.4232Y-4.5768
X5.4272Y-4.5161
X5.4368Y-4.8762
X5.4409Y-4.9154
X5.4467Y-5.1654
X5.4497Y-4.5343
X5.4508Y-4.561
X5.4567Y-3.7126
X5.4705Y-4.1516
X5.4803Y-4.8681
X5.4911Y-4.9114
X5.5032Y-4.5484
X5.506Y-4.8385
X5.5177Y-4.8091
X5.5242Y-4.872
X5.5276Y-4.1634
X5.5287Y-4.5526
X5.5581Y-4.5526
X5.5591Y-4.3799
X5.5591Y-4.8602
X5.5787Y-4.8898
X5.5866Y-4.5541
X5.5947Y-4.5962
X5.5984Y-4.811
X5.5999Y-4.3839
X5.6024Y-5.1604
X5.607Y-4.5714
X5.6171Y-4.9035
X5.6353Y-4.874
X5.6381Y-4.3878
X5.6575Y-4.9016
X5.6585Y-4.6516
X5.6969Y-4.4134
X5.6978Y-5.0157
X5.7126Y-4.4528
X5.7146Y-4.9035
X5.7165Y-4.3799
X5.7224Y-4.4134
X5.7343Y-4.8091
X5.737Y-4.9158
X5.7421Y-4.6535
X5.75Y-4.4134
X5.7576Y-4.8327
X5.7756Y-4.437
X5.7795Y-4.122
X5.7944Y-4.9142
X5.7953Y-4.4154
X5.8086Y-5.1659
X5.815Y-5.0039
X5.8288Y-4.4134
X5.8307Y-4.4587
X5.8331Y-4.3819
X5.8346Y-4.9134
X5.8543Y-4.4134
X5.8543Y-5.0039
X5.871Y-4.9191
X5.8755Y-4.372
X5.8799Y-4.563
X5.8819Y-4.4744
X5.8937Y-4.4134
X5.8937Y-5.0039
X5.9075Y-4.4469
X5.9119Y-4.9114
X5.9134Y-4.3819
X5.9134Y-5.0481
X5.9301Y-5.0059
X5.9321Y-4.5124
X5.9331Y-4.4134
X5.9528Y-4.874
X5.9587Y-4.5669
X5.9724Y-4.4134
X5.9724Y-5.0039
X5.9823Y-4.8435
X5.9921Y-5.0276
X5.9921Y-5.1398
X6.003Y-4.8652
X6.003Y-4.4596
X6.0039Y-3.4985
X6.0177Y-4.6043
X6.0177Y-4.6339
X6.0286Y-5.0168
X6.0354Y-4.8268
X6.0492Y-4.6043
X6.0492Y-4.6339
X6.0508Y-5.0295
X6.0571Y-4.5354
X6.0571Y-4.7579
X6.0571Y-4.7874
X6.0705Y-5.0116
X6.0732Y-4.2908
X6.0827Y-5.0492
X6.0827Y-5.0827
X6.1142Y-5.0492
X6.1142Y-5.0827
X6.1174Y-5.0227
X6.1358Y-4.9892
X6.1378Y-2.555
X6.1378Y-2.5817
X6.1378Y-2.6085
X6.1378Y-2.6352
X6.1378Y-2.662
X6.1378Y-2.6887
X6.1378Y-2.7155
X6.1378Y-2.7422
X6.1378Y-2.7697
X6.1378Y-2.7957
X6.1417Y-2.0551
X6.1437Y-2.2904
X6.1437Y-2.4035
X6.1437Y-2.4331
X6.1476Y-4.3012
X6.1496Y-1.9272
X6.1496Y-1.9606
X6.1535Y-2.8504
X6.1535Y-2.878
X6.1535Y-5.186
X6.1608Y-2.5404
X6.1651Y-2.6629
X6.1723Y-2.8957
X6.1732Y-2.4035
X6.1732Y-2.4331
X6.1752Y-2.065
X6.1762Y-4.9419
X6.1778Y-2.5643
X6.1791Y-4.5669
X6.1811Y-4.3209
X6.1811Y-4.6535
X6.1831Y-1.9272
X6.1831Y-1.9606
X6.1833Y-2.8701
X6.188Y-2.5235
X6.1888Y-2.8389
X6.1969Y-2.1398
X6.1988Y-4.7729
X6.1988Y-4.8031
X6.2036Y-4.3376
X6.2047Y-2.8189
X6.2047Y-4.3632
X6.2099Y-2.5047
X6.2146Y-4.5709
X6.2322Y-4.844
X6.2343Y-2.4843
X6.2441Y-2.1693
X6.2441Y-2.2047
X6.2461Y-2.2421
X6.253Y-2.4596
X6.253Y-4.3986
X6.253Y-4.4592
X6.2894Y-2.3996
X6.3189Y-4.7559
X6.3228Y-4.1457
X6.3307Y-2.3415
X6.3346Y-4.7756
X6.3366Y-4.6673
X6.3366Y-4.8386
X6.3415Y-1.9596
X6.3612Y-3.7077
X6.3622Y-3.6752
X6.3652Y-4.9331
X6.3701Y-3.6251
X6.378Y-4.2047
X6.378Y-4.2657
X6.378Y-4.2972
X6.3839Y-1.9272
X6.3839Y-1.9606
X6.3839Y-4.6831
X6.3888Y-4.872
X6.3917Y-2.122
X6.3929Y-2.2766
X6.3967Y-4.1614
X6.3976Y-2.3071
X6.4036Y-3.3199
X6.4036Y-3.3455
X6.4104Y-4.2657
X6.4104Y-4.2972
X6.4106Y-3.1457
X6.4173Y-1.9272
X6.4173Y-1.9606
X6.4193Y-4.2283
X6.4213Y-3.2047
X6.4213Y-3.2402
X6.4213Y-3.2776
X6.4232Y-2.4469
X6.4232Y-2.5039
X6.4232Y-2.565
X6.4232Y-2.624
X6.4272Y-3.0965
T2
X4.3996Y-4.8346
X4.3996Y-4.8661
X4.4311Y-4.8346
X4.4311Y-4.8661
X4.6004Y-4.6181
X4.6004Y-4.6772
X4.6201Y-4.6476
X4.6398Y-4.6181
X4.6398Y-4.6772
T3
X4.3484Y-3.6752
X4.3484Y-3.7205
X4.3937Y-3.6752
X4.3957Y-3.7205
X4.8524Y-4.6811
X4.8543Y-5.1713
X4.8898Y-4.7185
X4.9016Y-5.1713
X5.3622Y-3.9311
X5.3622Y-3.9764
X5.3976Y-4.5433
X5.4075Y-3.9311
X5.4094Y-3.9764
X5.6654Y-4.0197
X5.6654Y-4.0689
X5.6654Y-4.1181
X6.3346Y-3.8386
X6.3346Y-3.8839
X6.3799Y-3.8386
X6.3819Y-3.8839
T5
X5.4803Y-5.0315
X5.4803Y-5.1102
X5.5591Y-5.0315
X5.5591Y-5.1102
X5.6378Y-5.0315
X5.6378Y-5.1102
T4
G00X4.8252Y-5.0441
M15
G01X4.8252Y-5.0874
M16
G05
G00X4.8252Y-5.2146
M15
G01X4.8252Y-5.2461
M16
G05
G00X5.1654Y-5.0441
M15
G01X5.1654Y-5.0874
M16
G05
G00X5.1654Y-5.2146
M15
G01X5.1654Y-5.2461
M16
G05
T5
G00X5.3819Y-5.0787
M15
G01X5.3819Y-5.1102
M16
G05
G00X5.7362Y-5.0787
M15
G01X5.7362Y-5.1102
M16
G05
T0
M30
