%TF.GenerationSoftware,KiCad,Pcbnew,7.0.1*%
%TF.CreationDate,2024-08-11T10:53:17-07:00*%
%TF.ProjectId,agbc,61676263-2e6b-4696-9361-645f70636258,X4/X5*%
%TF.SameCoordinates,Original*%
%TF.FileFunction,Paste,Top*%
%TF.FilePolarity,Positive*%
%FSLAX46Y46*%
G04 Gerber Fmt 4.6, Leading zero omitted, Abs format (unit mm)*
G04 Created by KiCad (PCBNEW 7.0.1) date 2024-08-11 10:53:17*
%MOMM*%
%LPD*%
G01*
G04 APERTURE LIST*
G04 Aperture macros list*
%AMRoundRect*
0 Rectangle with rounded corners*
0 $1 Rounding radius*
0 $2 $3 $4 $5 $6 $7 $8 $9 X,Y pos of 4 corners*
0 Add a 4 corners polygon primitive as box body*
4,1,4,$2,$3,$4,$5,$6,$7,$8,$9,$2,$3,0*
0 Add four circle primitives for the rounded corners*
1,1,$1+$1,$2,$3*
1,1,$1+$1,$4,$5*
1,1,$1+$1,$6,$7*
1,1,$1+$1,$8,$9*
0 Add four rect primitives between the rounded corners*
20,1,$1+$1,$2,$3,$4,$5,0*
20,1,$1+$1,$4,$5,$6,$7,0*
20,1,$1+$1,$6,$7,$8,$9,0*
20,1,$1+$1,$8,$9,$2,$3,0*%
G04 Aperture macros list end*
%ADD10RoundRect,0.140000X0.140000X0.170000X-0.140000X0.170000X-0.140000X-0.170000X0.140000X-0.170000X0*%
%ADD11R,0.450000X1.400000*%
%ADD12RoundRect,0.135000X0.185000X-0.135000X0.185000X0.135000X-0.185000X0.135000X-0.185000X-0.135000X0*%
%ADD13R,1.250000X0.600000*%
%ADD14RoundRect,0.225000X-0.225000X-0.250000X0.225000X-0.250000X0.225000X0.250000X-0.225000X0.250000X0*%
%ADD15RoundRect,0.140000X-0.140000X-0.170000X0.140000X-0.170000X0.140000X0.170000X-0.140000X0.170000X0*%
%ADD16RoundRect,0.135000X-0.185000X0.135000X-0.185000X-0.135000X0.185000X-0.135000X0.185000X0.135000X0*%
%ADD17R,0.600000X1.150000*%
%ADD18R,0.300000X1.150000*%
%ADD19RoundRect,0.225000X0.250000X-0.225000X0.250000X0.225000X-0.250000X0.225000X-0.250000X-0.225000X0*%
%ADD20RoundRect,0.218750X-0.218750X-0.256250X0.218750X-0.256250X0.218750X0.256250X-0.218750X0.256250X0*%
%ADD21RoundRect,0.140000X0.170000X-0.140000X0.170000X0.140000X-0.170000X0.140000X-0.170000X-0.140000X0*%
%ADD22RoundRect,0.135000X0.135000X0.185000X-0.135000X0.185000X-0.135000X-0.185000X0.135000X-0.185000X0*%
%ADD23RoundRect,0.250000X0.325000X0.650000X-0.325000X0.650000X-0.325000X-0.650000X0.325000X-0.650000X0*%
%ADD24RoundRect,0.225000X0.225000X0.250000X-0.225000X0.250000X-0.225000X-0.250000X0.225000X-0.250000X0*%
%ADD25R,3.400000X1.000000*%
%ADD26R,0.650000X1.100000*%
%ADD27R,0.750000X1.800000*%
%ADD28R,0.600000X1.800000*%
%ADD29R,1.300000X0.900000*%
%ADD30R,1.100000X1.300000*%
%ADD31R,0.300000X1.206500*%
%ADD32R,0.800000X0.300000*%
%ADD33R,0.300000X0.800000*%
%ADD34R,1.750000X1.750000*%
%ADD35R,0.550000X1.050000*%
%ADD36RoundRect,0.140000X-0.170000X0.140000X-0.170000X-0.140000X0.170000X-0.140000X0.170000X0.140000X0*%
%ADD37R,0.230000X0.230000*%
%ADD38O,0.800000X0.230000*%
%ADD39R,0.680000X1.050000*%
%ADD40R,0.260000X0.500000*%
%ADD41R,0.700000X0.900000*%
%ADD42R,0.750000X0.900000*%
%ADD43RoundRect,0.075000X0.675000X-0.075000X0.675000X0.075000X-0.675000X0.075000X-0.675000X-0.075000X0*%
%ADD44RoundRect,0.075000X0.075000X-0.675000X0.075000X0.675000X-0.075000X0.675000X-0.075000X-0.675000X0*%
%ADD45RoundRect,0.135000X-0.135000X-0.185000X0.135000X-0.185000X0.135000X0.185000X-0.135000X0.185000X0*%
%ADD46RoundRect,0.250000X-0.625000X0.375000X-0.625000X-0.375000X0.625000X-0.375000X0.625000X0.375000X0*%
G04 APERTURE END LIST*
D10*
%TO.C,C7*%
X110860000Y-107800000D03*
X109900000Y-107800000D03*
%TD*%
D11*
%TO.C,U8*%
X158975000Y-124050000D03*
X159625000Y-124050000D03*
X160275000Y-124050000D03*
X160925000Y-124050000D03*
X160925000Y-119650000D03*
X160275000Y-119650000D03*
X159625000Y-119650000D03*
X158975000Y-119650000D03*
%TD*%
D12*
%TO.C,R1*%
X150200000Y-130300000D03*
X150200000Y-129280000D03*
%TD*%
D13*
%TO.C,U6*%
X119150000Y-121200000D03*
X119150000Y-123100000D03*
X121250000Y-122150000D03*
%TD*%
D14*
%TO.C,C19*%
X115800000Y-121150000D03*
X117350000Y-121150000D03*
%TD*%
D15*
%TO.C,C20*%
X116160000Y-115300000D03*
X115200000Y-115300000D03*
%TD*%
%TO.C,C11*%
X126700000Y-126350000D03*
X127660000Y-126350000D03*
%TD*%
D16*
%TO.C,R6*%
X108650000Y-121100000D03*
X108650000Y-122120000D03*
%TD*%
D17*
%TO.C,J5*%
X123680000Y-128095000D03*
X124480000Y-128095000D03*
D18*
X125630000Y-128095000D03*
X126630000Y-128095000D03*
X127130000Y-128095000D03*
X128130000Y-128095000D03*
D17*
X130080000Y-128095000D03*
X129280000Y-128095000D03*
D18*
X128630000Y-128095000D03*
X127630000Y-128095000D03*
X126130000Y-128095000D03*
X125130000Y-128095000D03*
%TD*%
D19*
%TO.C,C14*%
X108900000Y-125025000D03*
X108900000Y-123475000D03*
%TD*%
D20*
%TO.C,F2*%
X122875000Y-126350000D03*
X124450000Y-126350000D03*
%TD*%
D21*
%TO.C,C15*%
X120900000Y-130260000D03*
X120900000Y-129300000D03*
%TD*%
D22*
%TO.C,R14*%
X163225000Y-122900000D03*
X162205000Y-122900000D03*
%TD*%
D23*
%TO.C,C21*%
X113650000Y-116000000D03*
X110700000Y-116000000D03*
%TD*%
D24*
%TO.C,C13*%
X117350000Y-122950000D03*
X115800000Y-122950000D03*
%TD*%
D12*
%TO.C,R7*%
X109700000Y-120050000D03*
X109700000Y-119030000D03*
%TD*%
D10*
%TO.C,C23*%
X163225000Y-119675000D03*
X162265000Y-119675000D03*
%TD*%
D25*
%TO.C,L1*%
X112650000Y-120150000D03*
X112650000Y-118050000D03*
%TD*%
D10*
%TO.C,C5*%
X158850000Y-112525000D03*
X157890000Y-112525000D03*
%TD*%
D21*
%TO.C,C10*%
X157875000Y-115175000D03*
X157875000Y-114215000D03*
%TD*%
D12*
%TO.C,R3*%
X156875000Y-127385000D03*
X156875000Y-126365000D03*
%TD*%
D26*
%TO.C,Q1*%
X118940000Y-127900000D03*
X120860000Y-127900000D03*
X119900000Y-125800000D03*
%TD*%
D13*
%TO.C,U1*%
X152200000Y-129650000D03*
X152200000Y-131550000D03*
X154300000Y-130600000D03*
%TD*%
D21*
%TO.C,C22*%
X157450000Y-120060000D03*
X157450000Y-119100000D03*
%TD*%
D27*
%TO.C,S1*%
X115925000Y-130150000D03*
D28*
X117150000Y-130150000D03*
D27*
X118375000Y-130150000D03*
D29*
X115300000Y-132100000D03*
X119000000Y-132100000D03*
%TD*%
D22*
%TO.C,R13*%
X163220000Y-121325000D03*
X162200000Y-121325000D03*
%TD*%
D30*
%TO.C,X1*%
X162000000Y-112650000D03*
X162000000Y-110550000D03*
X160350000Y-110550000D03*
X160350000Y-112650000D03*
%TD*%
D31*
%TO.C,U3*%
X122967800Y-124500000D03*
X123526600Y-124500000D03*
X124085400Y-124500000D03*
X124644200Y-124500000D03*
X125203000Y-124500000D03*
X125761800Y-124500000D03*
X126320600Y-124500000D03*
X126879400Y-124500000D03*
X127438200Y-124500000D03*
X127997000Y-124500000D03*
X128555800Y-124500000D03*
X129114600Y-124500000D03*
X129673400Y-124500000D03*
X130232200Y-124500000D03*
X130232200Y-111380900D03*
X129673400Y-111380900D03*
X129114600Y-111380900D03*
X128555800Y-111380900D03*
X127997000Y-111380900D03*
X127438200Y-111380900D03*
X126879400Y-111380900D03*
X126320600Y-111380900D03*
X125761800Y-111380900D03*
X125203000Y-111380900D03*
X124644200Y-111380900D03*
X124085400Y-111380900D03*
X123526600Y-111380900D03*
X122967800Y-111380900D03*
%TD*%
D32*
%TO.C,U4*%
X110650000Y-122450000D03*
X110650000Y-122950000D03*
X110650000Y-123450000D03*
X110650000Y-123950000D03*
D33*
X111400000Y-124700000D03*
X111900000Y-124700000D03*
X112400000Y-124700000D03*
X112900000Y-124700000D03*
D32*
X113650000Y-123950000D03*
X113650000Y-123450000D03*
X113650000Y-122950000D03*
X113650000Y-122450000D03*
D33*
X112900000Y-121700000D03*
X112400000Y-121700000D03*
X111900000Y-121700000D03*
X111400000Y-121700000D03*
D34*
X112150000Y-123200000D03*
%TD*%
D10*
%TO.C,C17*%
X121500000Y-119750000D03*
X120540000Y-119750000D03*
%TD*%
D35*
%TO.C,U5*%
X115300000Y-128125000D03*
X116250000Y-128125000D03*
X117200000Y-128125000D03*
X117200000Y-125625000D03*
X116250000Y-125625000D03*
X115300000Y-125625000D03*
%TD*%
D36*
%TO.C,C8*%
X147500000Y-128250000D03*
X147500000Y-129210000D03*
%TD*%
D37*
%TO.C,U7*%
X115590000Y-117050000D03*
D38*
X115875000Y-117050000D03*
D37*
X115590000Y-117550000D03*
D38*
X115875000Y-117550000D03*
D37*
X115590000Y-118050000D03*
D38*
X115875000Y-118050000D03*
D37*
X115590000Y-118550000D03*
D38*
X115875000Y-118550000D03*
D37*
X115590000Y-119050000D03*
D38*
X115875000Y-119050000D03*
X118825000Y-119050000D03*
D37*
X119110000Y-119050000D03*
D38*
X118825000Y-118550000D03*
D37*
X119110000Y-118550000D03*
D38*
X118825000Y-118050000D03*
D37*
X119110000Y-118050000D03*
D38*
X118825000Y-117550000D03*
D37*
X119110000Y-117550000D03*
D38*
X118825000Y-117050000D03*
D37*
X119110000Y-117050000D03*
D39*
X116900000Y-117415000D03*
X116900000Y-118685000D03*
D40*
X117100000Y-116420000D03*
X117100000Y-119680000D03*
X117600000Y-116420000D03*
X117600000Y-119680000D03*
D39*
X117800000Y-117415000D03*
X117800000Y-118685000D03*
%TD*%
D41*
%TO.C,J4*%
X116975000Y-110025000D03*
X118175000Y-110025000D03*
D42*
X115800000Y-113775000D03*
X119350000Y-113775000D03*
%TD*%
D22*
%TO.C,R8*%
X133710000Y-130100000D03*
X132690000Y-130100000D03*
%TD*%
%TO.C,R11*%
X133710000Y-131450000D03*
X132690000Y-131450000D03*
%TD*%
D43*
%TO.C,U2*%
X133400000Y-124200000D03*
X133400000Y-123700000D03*
X133400000Y-123200000D03*
X133400000Y-122700000D03*
X133400000Y-122200000D03*
X133400000Y-121700000D03*
X133400000Y-121200000D03*
X133400000Y-120700000D03*
X133400000Y-120200000D03*
X133400000Y-119700000D03*
X133400000Y-119200000D03*
X133400000Y-118700000D03*
X133400000Y-118200000D03*
X133400000Y-117700000D03*
X133400000Y-117200000D03*
X133400000Y-116700000D03*
X133400000Y-116200000D03*
X133400000Y-115700000D03*
X133400000Y-115200000D03*
X133400000Y-114700000D03*
X133400000Y-114200000D03*
X133400000Y-113700000D03*
X133400000Y-113200000D03*
X133400000Y-112700000D03*
X133400000Y-112200000D03*
X133400000Y-111700000D03*
D44*
X135200000Y-109900000D03*
X135700000Y-109900000D03*
X136200000Y-109900000D03*
X136700000Y-109900000D03*
X137200000Y-109900000D03*
X137700000Y-109900000D03*
X138200000Y-109900000D03*
X138700000Y-109900000D03*
X139200000Y-109900000D03*
X139700000Y-109900000D03*
X140200000Y-109900000D03*
X140700000Y-109900000D03*
X141200000Y-109900000D03*
X141700000Y-109900000D03*
X142200000Y-109900000D03*
X142700000Y-109900000D03*
X143200000Y-109900000D03*
X143700000Y-109900000D03*
X144200000Y-109900000D03*
X144700000Y-109900000D03*
X145200000Y-109900000D03*
X145700000Y-109900000D03*
X146200000Y-109900000D03*
X146700000Y-109900000D03*
X147200000Y-109900000D03*
X147700000Y-109900000D03*
X148200000Y-109900000D03*
X148700000Y-109900000D03*
X149200000Y-109900000D03*
X149700000Y-109900000D03*
X150200000Y-109900000D03*
X150700000Y-109900000D03*
X151200000Y-109900000D03*
X151700000Y-109900000D03*
X152200000Y-109900000D03*
X152700000Y-109900000D03*
X153200000Y-109900000D03*
X153700000Y-109900000D03*
D43*
X155500000Y-111700000D03*
X155500000Y-112200000D03*
X155500000Y-112700000D03*
X155500000Y-113200000D03*
X155500000Y-113700000D03*
X155500000Y-114200000D03*
X155500000Y-114700000D03*
X155500000Y-115200000D03*
X155500000Y-115700000D03*
X155500000Y-116200000D03*
X155500000Y-116700000D03*
X155500000Y-117200000D03*
X155500000Y-117700000D03*
X155500000Y-118200000D03*
X155500000Y-118700000D03*
X155500000Y-119200000D03*
X155500000Y-119700000D03*
X155500000Y-120200000D03*
X155500000Y-120700000D03*
X155500000Y-121200000D03*
X155500000Y-121700000D03*
X155500000Y-122200000D03*
X155500000Y-122700000D03*
X155500000Y-123200000D03*
X155500000Y-123700000D03*
X155500000Y-124200000D03*
D44*
X153700000Y-126000000D03*
X153200000Y-126000000D03*
X152700000Y-126000000D03*
X152200000Y-126000000D03*
X151700000Y-126000000D03*
X151200000Y-126000000D03*
X150700000Y-126000000D03*
X150200000Y-126000000D03*
X149700000Y-126000000D03*
X149200000Y-126000000D03*
X148700000Y-126000000D03*
X148200000Y-126000000D03*
X147700000Y-126000000D03*
X147200000Y-126000000D03*
X146700000Y-126000000D03*
X146200000Y-126000000D03*
X145700000Y-126000000D03*
X145200000Y-126000000D03*
X144700000Y-126000000D03*
X144200000Y-126000000D03*
X143700000Y-126000000D03*
X143200000Y-126000000D03*
X142700000Y-126000000D03*
X142200000Y-126000000D03*
X141700000Y-126000000D03*
X141200000Y-126000000D03*
X140700000Y-126000000D03*
X140200000Y-126000000D03*
X139700000Y-126000000D03*
X139200000Y-126000000D03*
X138700000Y-126000000D03*
X138200000Y-126000000D03*
X137700000Y-126000000D03*
X137200000Y-126000000D03*
X136700000Y-126000000D03*
X136200000Y-126000000D03*
X135700000Y-126000000D03*
X135200000Y-126000000D03*
%TD*%
D10*
%TO.C,C24*%
X163225000Y-124525000D03*
X162265000Y-124525000D03*
%TD*%
D12*
%TO.C,R4*%
X108650000Y-120050000D03*
X108650000Y-119030000D03*
%TD*%
D45*
%TO.C,R10*%
X116600000Y-124350000D03*
X117620000Y-124350000D03*
%TD*%
D46*
%TO.C,F1*%
X120950000Y-115400000D03*
X120950000Y-118200000D03*
%TD*%
D36*
%TO.C,C25*%
X157450000Y-123640000D03*
X157450000Y-124600000D03*
%TD*%
D10*
%TO.C,C18*%
X119650000Y-124450000D03*
X118690000Y-124450000D03*
%TD*%
D15*
%TO.C,C1*%
X149270000Y-131900000D03*
X150230000Y-131900000D03*
%TD*%
M02*
