%TF.GenerationSoftware,KiCad,Pcbnew,7.0.1*%
%TF.CreationDate,2024-08-11T10:53:17-07:00*%
%TF.ProjectId,agbc,61676263-2e6b-4696-9361-645f70636258,X4/X5*%
%TF.SameCoordinates,Original*%
%TF.FileFunction,Legend,Top*%
%TF.FilePolarity,Positive*%
%FSLAX46Y46*%
G04 Gerber Fmt 4.6, Leading zero omitted, Abs format (unit mm)*
G04 Created by KiCad (PCBNEW 7.0.1) date 2024-08-11 10:53:17*
%MOMM*%
%LPD*%
G01*
G04 APERTURE LIST*
%ADD10C,0.150000*%
%ADD11C,0.100000*%
%ADD12C,0.254000*%
%ADD13C,0.120000*%
%ADD14C,0.200000*%
%ADD15C,0.250000*%
%ADD16C,0.127000*%
G04 APERTURE END LIST*
D10*
X125934523Y-117362380D02*
X125886904Y-117410000D01*
X125886904Y-117410000D02*
X125744047Y-117457619D01*
X125744047Y-117457619D02*
X125648809Y-117457619D01*
X125648809Y-117457619D02*
X125505952Y-117410000D01*
X125505952Y-117410000D02*
X125410714Y-117314761D01*
X125410714Y-117314761D02*
X125363095Y-117219523D01*
X125363095Y-117219523D02*
X125315476Y-117029047D01*
X125315476Y-117029047D02*
X125315476Y-116886190D01*
X125315476Y-116886190D02*
X125363095Y-116695714D01*
X125363095Y-116695714D02*
X125410714Y-116600476D01*
X125410714Y-116600476D02*
X125505952Y-116505238D01*
X125505952Y-116505238D02*
X125648809Y-116457619D01*
X125648809Y-116457619D02*
X125744047Y-116457619D01*
X125744047Y-116457619D02*
X125886904Y-116505238D01*
X125886904Y-116505238D02*
X125934523Y-116552857D01*
X126886904Y-116505238D02*
X126791666Y-116457619D01*
X126791666Y-116457619D02*
X126648809Y-116457619D01*
X126648809Y-116457619D02*
X126505952Y-116505238D01*
X126505952Y-116505238D02*
X126410714Y-116600476D01*
X126410714Y-116600476D02*
X126363095Y-116695714D01*
X126363095Y-116695714D02*
X126315476Y-116886190D01*
X126315476Y-116886190D02*
X126315476Y-117029047D01*
X126315476Y-117029047D02*
X126363095Y-117219523D01*
X126363095Y-117219523D02*
X126410714Y-117314761D01*
X126410714Y-117314761D02*
X126505952Y-117410000D01*
X126505952Y-117410000D02*
X126648809Y-117457619D01*
X126648809Y-117457619D02*
X126744047Y-117457619D01*
X126744047Y-117457619D02*
X126886904Y-117410000D01*
X126886904Y-117410000D02*
X126934523Y-117362380D01*
X126934523Y-117362380D02*
X126934523Y-117029047D01*
X126934523Y-117029047D02*
X126744047Y-117029047D01*
X127696428Y-116933809D02*
X127839285Y-116981428D01*
X127839285Y-116981428D02*
X127886904Y-117029047D01*
X127886904Y-117029047D02*
X127934523Y-117124285D01*
X127934523Y-117124285D02*
X127934523Y-117267142D01*
X127934523Y-117267142D02*
X127886904Y-117362380D01*
X127886904Y-117362380D02*
X127839285Y-117410000D01*
X127839285Y-117410000D02*
X127744047Y-117457619D01*
X127744047Y-117457619D02*
X127363095Y-117457619D01*
X127363095Y-117457619D02*
X127363095Y-116457619D01*
X127363095Y-116457619D02*
X127696428Y-116457619D01*
X127696428Y-116457619D02*
X127791666Y-116505238D01*
X127791666Y-116505238D02*
X127839285Y-116552857D01*
X127839285Y-116552857D02*
X127886904Y-116648095D01*
X127886904Y-116648095D02*
X127886904Y-116743333D01*
X127886904Y-116743333D02*
X127839285Y-116838571D01*
X127839285Y-116838571D02*
X127791666Y-116886190D01*
X127791666Y-116886190D02*
X127696428Y-116933809D01*
X127696428Y-116933809D02*
X127363095Y-116933809D01*
X125934523Y-119077619D02*
X125601190Y-118601428D01*
X125363095Y-119077619D02*
X125363095Y-118077619D01*
X125363095Y-118077619D02*
X125744047Y-118077619D01*
X125744047Y-118077619D02*
X125839285Y-118125238D01*
X125839285Y-118125238D02*
X125886904Y-118172857D01*
X125886904Y-118172857D02*
X125934523Y-118268095D01*
X125934523Y-118268095D02*
X125934523Y-118410952D01*
X125934523Y-118410952D02*
X125886904Y-118506190D01*
X125886904Y-118506190D02*
X125839285Y-118553809D01*
X125839285Y-118553809D02*
X125744047Y-118601428D01*
X125744047Y-118601428D02*
X125363095Y-118601428D01*
X126315476Y-118791904D02*
X126791666Y-118791904D01*
X126220238Y-119077619D02*
X126553571Y-118077619D01*
X126553571Y-118077619D02*
X126886904Y-119077619D01*
X127220238Y-119077619D02*
X127220238Y-118077619D01*
X127220238Y-118077619D02*
X127553571Y-118791904D01*
X127553571Y-118791904D02*
X127886904Y-118077619D01*
X127886904Y-118077619D02*
X127886904Y-119077619D01*
X142429761Y-116942380D02*
X142382142Y-116990000D01*
X142382142Y-116990000D02*
X142239285Y-117037619D01*
X142239285Y-117037619D02*
X142144047Y-117037619D01*
X142144047Y-117037619D02*
X142001190Y-116990000D01*
X142001190Y-116990000D02*
X141905952Y-116894761D01*
X141905952Y-116894761D02*
X141858333Y-116799523D01*
X141858333Y-116799523D02*
X141810714Y-116609047D01*
X141810714Y-116609047D02*
X141810714Y-116466190D01*
X141810714Y-116466190D02*
X141858333Y-116275714D01*
X141858333Y-116275714D02*
X141905952Y-116180476D01*
X141905952Y-116180476D02*
X142001190Y-116085238D01*
X142001190Y-116085238D02*
X142144047Y-116037619D01*
X142144047Y-116037619D02*
X142239285Y-116037619D01*
X142239285Y-116037619D02*
X142382142Y-116085238D01*
X142382142Y-116085238D02*
X142429761Y-116132857D01*
X142858333Y-117037619D02*
X142858333Y-116037619D01*
X142858333Y-116037619D02*
X143239285Y-116037619D01*
X143239285Y-116037619D02*
X143334523Y-116085238D01*
X143334523Y-116085238D02*
X143382142Y-116132857D01*
X143382142Y-116132857D02*
X143429761Y-116228095D01*
X143429761Y-116228095D02*
X143429761Y-116370952D01*
X143429761Y-116370952D02*
X143382142Y-116466190D01*
X143382142Y-116466190D02*
X143334523Y-116513809D01*
X143334523Y-116513809D02*
X143239285Y-116561428D01*
X143239285Y-116561428D02*
X142858333Y-116561428D01*
X143858333Y-116037619D02*
X143858333Y-116847142D01*
X143858333Y-116847142D02*
X143905952Y-116942380D01*
X143905952Y-116942380D02*
X143953571Y-116990000D01*
X143953571Y-116990000D02*
X144048809Y-117037619D01*
X144048809Y-117037619D02*
X144239285Y-117037619D01*
X144239285Y-117037619D02*
X144334523Y-116990000D01*
X144334523Y-116990000D02*
X144382142Y-116942380D01*
X144382142Y-116942380D02*
X144429761Y-116847142D01*
X144429761Y-116847142D02*
X144429761Y-116037619D01*
X146239285Y-116942380D02*
X146191666Y-116990000D01*
X146191666Y-116990000D02*
X146048809Y-117037619D01*
X146048809Y-117037619D02*
X145953571Y-117037619D01*
X145953571Y-117037619D02*
X145810714Y-116990000D01*
X145810714Y-116990000D02*
X145715476Y-116894761D01*
X145715476Y-116894761D02*
X145667857Y-116799523D01*
X145667857Y-116799523D02*
X145620238Y-116609047D01*
X145620238Y-116609047D02*
X145620238Y-116466190D01*
X145620238Y-116466190D02*
X145667857Y-116275714D01*
X145667857Y-116275714D02*
X145715476Y-116180476D01*
X145715476Y-116180476D02*
X145810714Y-116085238D01*
X145810714Y-116085238D02*
X145953571Y-116037619D01*
X145953571Y-116037619D02*
X146048809Y-116037619D01*
X146048809Y-116037619D02*
X146191666Y-116085238D01*
X146191666Y-116085238D02*
X146239285Y-116132857D01*
X147191666Y-116085238D02*
X147096428Y-116037619D01*
X147096428Y-116037619D02*
X146953571Y-116037619D01*
X146953571Y-116037619D02*
X146810714Y-116085238D01*
X146810714Y-116085238D02*
X146715476Y-116180476D01*
X146715476Y-116180476D02*
X146667857Y-116275714D01*
X146667857Y-116275714D02*
X146620238Y-116466190D01*
X146620238Y-116466190D02*
X146620238Y-116609047D01*
X146620238Y-116609047D02*
X146667857Y-116799523D01*
X146667857Y-116799523D02*
X146715476Y-116894761D01*
X146715476Y-116894761D02*
X146810714Y-116990000D01*
X146810714Y-116990000D02*
X146953571Y-117037619D01*
X146953571Y-117037619D02*
X147048809Y-117037619D01*
X147048809Y-117037619D02*
X147191666Y-116990000D01*
X147191666Y-116990000D02*
X147239285Y-116942380D01*
X147239285Y-116942380D02*
X147239285Y-116609047D01*
X147239285Y-116609047D02*
X147048809Y-116609047D01*
X148001190Y-116513809D02*
X148144047Y-116561428D01*
X148144047Y-116561428D02*
X148191666Y-116609047D01*
X148191666Y-116609047D02*
X148239285Y-116704285D01*
X148239285Y-116704285D02*
X148239285Y-116847142D01*
X148239285Y-116847142D02*
X148191666Y-116942380D01*
X148191666Y-116942380D02*
X148144047Y-116990000D01*
X148144047Y-116990000D02*
X148048809Y-117037619D01*
X148048809Y-117037619D02*
X147667857Y-117037619D01*
X147667857Y-117037619D02*
X147667857Y-116037619D01*
X147667857Y-116037619D02*
X148001190Y-116037619D01*
X148001190Y-116037619D02*
X148096428Y-116085238D01*
X148096428Y-116085238D02*
X148144047Y-116132857D01*
X148144047Y-116132857D02*
X148191666Y-116228095D01*
X148191666Y-116228095D02*
X148191666Y-116323333D01*
X148191666Y-116323333D02*
X148144047Y-116418571D01*
X148144047Y-116418571D02*
X148096428Y-116466190D01*
X148096428Y-116466190D02*
X148001190Y-116513809D01*
X148001190Y-116513809D02*
X147667857Y-116513809D01*
X141858333Y-118371904D02*
X142334523Y-118371904D01*
X141763095Y-118657619D02*
X142096428Y-117657619D01*
X142096428Y-117657619D02*
X142429761Y-118657619D01*
X143001190Y-118990952D02*
X143001190Y-117562380D01*
X144048809Y-118133809D02*
X144191666Y-118181428D01*
X144191666Y-118181428D02*
X144239285Y-118229047D01*
X144239285Y-118229047D02*
X144286904Y-118324285D01*
X144286904Y-118324285D02*
X144286904Y-118467142D01*
X144286904Y-118467142D02*
X144239285Y-118562380D01*
X144239285Y-118562380D02*
X144191666Y-118610000D01*
X144191666Y-118610000D02*
X144096428Y-118657619D01*
X144096428Y-118657619D02*
X143715476Y-118657619D01*
X143715476Y-118657619D02*
X143715476Y-117657619D01*
X143715476Y-117657619D02*
X144048809Y-117657619D01*
X144048809Y-117657619D02*
X144144047Y-117705238D01*
X144144047Y-117705238D02*
X144191666Y-117752857D01*
X144191666Y-117752857D02*
X144239285Y-117848095D01*
X144239285Y-117848095D02*
X144239285Y-117943333D01*
X144239285Y-117943333D02*
X144191666Y-118038571D01*
X144191666Y-118038571D02*
X144144047Y-118086190D01*
X144144047Y-118086190D02*
X144048809Y-118133809D01*
X144048809Y-118133809D02*
X143715476Y-118133809D01*
X144953571Y-118990952D02*
X144953571Y-117562380D01*
X146239285Y-118562380D02*
X146191666Y-118610000D01*
X146191666Y-118610000D02*
X146048809Y-118657619D01*
X146048809Y-118657619D02*
X145953571Y-118657619D01*
X145953571Y-118657619D02*
X145810714Y-118610000D01*
X145810714Y-118610000D02*
X145715476Y-118514761D01*
X145715476Y-118514761D02*
X145667857Y-118419523D01*
X145667857Y-118419523D02*
X145620238Y-118229047D01*
X145620238Y-118229047D02*
X145620238Y-118086190D01*
X145620238Y-118086190D02*
X145667857Y-117895714D01*
X145667857Y-117895714D02*
X145715476Y-117800476D01*
X145715476Y-117800476D02*
X145810714Y-117705238D01*
X145810714Y-117705238D02*
X145953571Y-117657619D01*
X145953571Y-117657619D02*
X146048809Y-117657619D01*
X146048809Y-117657619D02*
X146191666Y-117705238D01*
X146191666Y-117705238D02*
X146239285Y-117752857D01*
X146905952Y-118990952D02*
X146905952Y-117562380D01*
X147620238Y-118657619D02*
X147620238Y-117657619D01*
X147620238Y-117657619D02*
X147858333Y-117657619D01*
X147858333Y-117657619D02*
X148001190Y-117705238D01*
X148001190Y-117705238D02*
X148096428Y-117800476D01*
X148096428Y-117800476D02*
X148144047Y-117895714D01*
X148144047Y-117895714D02*
X148191666Y-118086190D01*
X148191666Y-118086190D02*
X148191666Y-118229047D01*
X148191666Y-118229047D02*
X148144047Y-118419523D01*
X148144047Y-118419523D02*
X148096428Y-118514761D01*
X148096428Y-118514761D02*
X148001190Y-118610000D01*
X148001190Y-118610000D02*
X147858333Y-118657619D01*
X147858333Y-118657619D02*
X147620238Y-118657619D01*
X143382143Y-120277619D02*
X143382143Y-119277619D01*
X143382143Y-119277619D02*
X143953571Y-120277619D01*
X143953571Y-120277619D02*
X143953571Y-119277619D01*
X144620238Y-119277619D02*
X144810714Y-119277619D01*
X144810714Y-119277619D02*
X144905952Y-119325238D01*
X144905952Y-119325238D02*
X145001190Y-119420476D01*
X145001190Y-119420476D02*
X145048809Y-119610952D01*
X145048809Y-119610952D02*
X145048809Y-119944285D01*
X145048809Y-119944285D02*
X145001190Y-120134761D01*
X145001190Y-120134761D02*
X144905952Y-120230000D01*
X144905952Y-120230000D02*
X144810714Y-120277619D01*
X144810714Y-120277619D02*
X144620238Y-120277619D01*
X144620238Y-120277619D02*
X144525000Y-120230000D01*
X144525000Y-120230000D02*
X144429762Y-120134761D01*
X144429762Y-120134761D02*
X144382143Y-119944285D01*
X144382143Y-119944285D02*
X144382143Y-119610952D01*
X144382143Y-119610952D02*
X144429762Y-119420476D01*
X144429762Y-119420476D02*
X144525000Y-119325238D01*
X144525000Y-119325238D02*
X144620238Y-119277619D01*
X146239286Y-119753809D02*
X146572619Y-119753809D01*
X146715476Y-120277619D02*
X146239286Y-120277619D01*
X146239286Y-120277619D02*
X146239286Y-119277619D01*
X146239286Y-119277619D02*
X146715476Y-119277619D01*
X114825000Y-114725000D02*
X114525000Y-114425000D01*
X115125000Y-114425000D01*
X114825000Y-114725000D01*
G36*
X114825000Y-114725000D02*
G01*
X114525000Y-114425000D01*
X115125000Y-114425000D01*
X114825000Y-114725000D01*
G37*
X114425000Y-126625000D02*
X114125000Y-126925000D01*
X114125000Y-126325000D01*
X114425000Y-126625000D01*
G36*
X114425000Y-126625000D02*
G01*
X114125000Y-126925000D01*
X114125000Y-126325000D01*
X114425000Y-126625000D01*
G37*
X114150000Y-124875000D02*
X113550000Y-124875000D01*
X113850000Y-124575000D01*
X114150000Y-124875000D01*
G36*
X114150000Y-124875000D02*
G01*
X113550000Y-124875000D01*
X113850000Y-124575000D01*
X114150000Y-124875000D01*
G37*
X156190476Y-54252095D02*
X156190476Y-53452095D01*
X156190476Y-53452095D02*
X156380952Y-53452095D01*
X156380952Y-53452095D02*
X156495238Y-53490190D01*
X156495238Y-53490190D02*
X156571428Y-53566380D01*
X156571428Y-53566380D02*
X156609523Y-53642571D01*
X156609523Y-53642571D02*
X156647619Y-53794952D01*
X156647619Y-53794952D02*
X156647619Y-53909238D01*
X156647619Y-53909238D02*
X156609523Y-54061619D01*
X156609523Y-54061619D02*
X156571428Y-54137809D01*
X156571428Y-54137809D02*
X156495238Y-54214000D01*
X156495238Y-54214000D02*
X156380952Y-54252095D01*
X156380952Y-54252095D02*
X156190476Y-54252095D01*
X156914285Y-53452095D02*
X157409523Y-53452095D01*
X157409523Y-53452095D02*
X157142857Y-53756857D01*
X157142857Y-53756857D02*
X157257142Y-53756857D01*
X157257142Y-53756857D02*
X157333333Y-53794952D01*
X157333333Y-53794952D02*
X157371428Y-53833047D01*
X157371428Y-53833047D02*
X157409523Y-53909238D01*
X157409523Y-53909238D02*
X157409523Y-54099714D01*
X157409523Y-54099714D02*
X157371428Y-54175904D01*
X157371428Y-54175904D02*
X157333333Y-54214000D01*
X157333333Y-54214000D02*
X157257142Y-54252095D01*
X157257142Y-54252095D02*
X157028571Y-54252095D01*
X157028571Y-54252095D02*
X156952380Y-54214000D01*
X156952380Y-54214000D02*
X156914285Y-54175904D01*
X157790476Y-54214000D02*
X157790476Y-54252095D01*
X157790476Y-54252095D02*
X157752381Y-54328285D01*
X157752381Y-54328285D02*
X157714285Y-54366380D01*
X158590476Y-54252095D02*
X158323809Y-53871142D01*
X158133333Y-54252095D02*
X158133333Y-53452095D01*
X158133333Y-53452095D02*
X158438095Y-53452095D01*
X158438095Y-53452095D02*
X158514285Y-53490190D01*
X158514285Y-53490190D02*
X158552380Y-53528285D01*
X158552380Y-53528285D02*
X158590476Y-53604476D01*
X158590476Y-53604476D02*
X158590476Y-53718761D01*
X158590476Y-53718761D02*
X158552380Y-53794952D01*
X158552380Y-53794952D02*
X158514285Y-53833047D01*
X158514285Y-53833047D02*
X158438095Y-53871142D01*
X158438095Y-53871142D02*
X158133333Y-53871142D01*
X159352380Y-54252095D02*
X158895237Y-54252095D01*
X159123809Y-54252095D02*
X159123809Y-53452095D01*
X159123809Y-53452095D02*
X159047618Y-53566380D01*
X159047618Y-53566380D02*
X158971428Y-53642571D01*
X158971428Y-53642571D02*
X158895237Y-53680666D01*
X159809523Y-53794952D02*
X159733333Y-53756857D01*
X159733333Y-53756857D02*
X159695238Y-53718761D01*
X159695238Y-53718761D02*
X159657142Y-53642571D01*
X159657142Y-53642571D02*
X159657142Y-53604476D01*
X159657142Y-53604476D02*
X159695238Y-53528285D01*
X159695238Y-53528285D02*
X159733333Y-53490190D01*
X159733333Y-53490190D02*
X159809523Y-53452095D01*
X159809523Y-53452095D02*
X159961904Y-53452095D01*
X159961904Y-53452095D02*
X160038095Y-53490190D01*
X160038095Y-53490190D02*
X160076190Y-53528285D01*
X160076190Y-53528285D02*
X160114285Y-53604476D01*
X160114285Y-53604476D02*
X160114285Y-53642571D01*
X160114285Y-53642571D02*
X160076190Y-53718761D01*
X160076190Y-53718761D02*
X160038095Y-53756857D01*
X160038095Y-53756857D02*
X159961904Y-53794952D01*
X159961904Y-53794952D02*
X159809523Y-53794952D01*
X159809523Y-53794952D02*
X159733333Y-53833047D01*
X159733333Y-53833047D02*
X159695238Y-53871142D01*
X159695238Y-53871142D02*
X159657142Y-53947333D01*
X159657142Y-53947333D02*
X159657142Y-54099714D01*
X159657142Y-54099714D02*
X159695238Y-54175904D01*
X159695238Y-54175904D02*
X159733333Y-54214000D01*
X159733333Y-54214000D02*
X159809523Y-54252095D01*
X159809523Y-54252095D02*
X159961904Y-54252095D01*
X159961904Y-54252095D02*
X160038095Y-54214000D01*
X160038095Y-54214000D02*
X160076190Y-54175904D01*
X160076190Y-54175904D02*
X160114285Y-54099714D01*
X160114285Y-54099714D02*
X160114285Y-53947333D01*
X160114285Y-53947333D02*
X160076190Y-53871142D01*
X160076190Y-53871142D02*
X160038095Y-53833047D01*
X160038095Y-53833047D02*
X159961904Y-53794952D01*
X160457143Y-54175904D02*
X160495238Y-54214000D01*
X160495238Y-54214000D02*
X160457143Y-54252095D01*
X160457143Y-54252095D02*
X160419047Y-54214000D01*
X160419047Y-54214000D02*
X160457143Y-54175904D01*
X160457143Y-54175904D02*
X160457143Y-54252095D01*
X160457143Y-53756857D02*
X160495238Y-53794952D01*
X160495238Y-53794952D02*
X160457143Y-53833047D01*
X160457143Y-53833047D02*
X160419047Y-53794952D01*
X160419047Y-53794952D02*
X160457143Y-53756857D01*
X160457143Y-53756857D02*
X160457143Y-53833047D01*
X161219047Y-54252095D02*
X160838095Y-54252095D01*
X160838095Y-54252095D02*
X160838095Y-53452095D01*
X161638095Y-53452095D02*
X161790476Y-53452095D01*
X161790476Y-53452095D02*
X161866666Y-53490190D01*
X161866666Y-53490190D02*
X161942857Y-53566380D01*
X161942857Y-53566380D02*
X161980952Y-53718761D01*
X161980952Y-53718761D02*
X161980952Y-53985428D01*
X161980952Y-53985428D02*
X161942857Y-54137809D01*
X161942857Y-54137809D02*
X161866666Y-54214000D01*
X161866666Y-54214000D02*
X161790476Y-54252095D01*
X161790476Y-54252095D02*
X161638095Y-54252095D01*
X161638095Y-54252095D02*
X161561904Y-54214000D01*
X161561904Y-54214000D02*
X161485714Y-54137809D01*
X161485714Y-54137809D02*
X161447618Y-53985428D01*
X161447618Y-53985428D02*
X161447618Y-53718761D01*
X161447618Y-53718761D02*
X161485714Y-53566380D01*
X161485714Y-53566380D02*
X161561904Y-53490190D01*
X161561904Y-53490190D02*
X161638095Y-53452095D01*
X162247618Y-53452095D02*
X162438094Y-54252095D01*
X162438094Y-54252095D02*
X162590475Y-53680666D01*
X162590475Y-53680666D02*
X162742856Y-54252095D01*
X162742856Y-54252095D02*
X162933333Y-53452095D01*
X156190476Y-51452095D02*
X156190476Y-50652095D01*
X156190476Y-50652095D02*
X156380952Y-50652095D01*
X156380952Y-50652095D02*
X156495238Y-50690190D01*
X156495238Y-50690190D02*
X156571428Y-50766380D01*
X156571428Y-50766380D02*
X156609523Y-50842571D01*
X156609523Y-50842571D02*
X156647619Y-50994952D01*
X156647619Y-50994952D02*
X156647619Y-51109238D01*
X156647619Y-51109238D02*
X156609523Y-51261619D01*
X156609523Y-51261619D02*
X156571428Y-51337809D01*
X156571428Y-51337809D02*
X156495238Y-51414000D01*
X156495238Y-51414000D02*
X156380952Y-51452095D01*
X156380952Y-51452095D02*
X156190476Y-51452095D01*
X157409523Y-51452095D02*
X156952380Y-51452095D01*
X157180952Y-51452095D02*
X157180952Y-50652095D01*
X157180952Y-50652095D02*
X157104761Y-50766380D01*
X157104761Y-50766380D02*
X157028571Y-50842571D01*
X157028571Y-50842571D02*
X156952380Y-50880666D01*
X157790476Y-51414000D02*
X157790476Y-51452095D01*
X157790476Y-51452095D02*
X157752381Y-51528285D01*
X157752381Y-51528285D02*
X157714285Y-51566380D01*
X158590476Y-51452095D02*
X158323809Y-51071142D01*
X158133333Y-51452095D02*
X158133333Y-50652095D01*
X158133333Y-50652095D02*
X158438095Y-50652095D01*
X158438095Y-50652095D02*
X158514285Y-50690190D01*
X158514285Y-50690190D02*
X158552380Y-50728285D01*
X158552380Y-50728285D02*
X158590476Y-50804476D01*
X158590476Y-50804476D02*
X158590476Y-50918761D01*
X158590476Y-50918761D02*
X158552380Y-50994952D01*
X158552380Y-50994952D02*
X158514285Y-51033047D01*
X158514285Y-51033047D02*
X158438095Y-51071142D01*
X158438095Y-51071142D02*
X158133333Y-51071142D01*
X158971428Y-51452095D02*
X159123809Y-51452095D01*
X159123809Y-51452095D02*
X159199999Y-51414000D01*
X159199999Y-51414000D02*
X159238095Y-51375904D01*
X159238095Y-51375904D02*
X159314285Y-51261619D01*
X159314285Y-51261619D02*
X159352380Y-51109238D01*
X159352380Y-51109238D02*
X159352380Y-50804476D01*
X159352380Y-50804476D02*
X159314285Y-50728285D01*
X159314285Y-50728285D02*
X159276190Y-50690190D01*
X159276190Y-50690190D02*
X159199999Y-50652095D01*
X159199999Y-50652095D02*
X159047618Y-50652095D01*
X159047618Y-50652095D02*
X158971428Y-50690190D01*
X158971428Y-50690190D02*
X158933333Y-50728285D01*
X158933333Y-50728285D02*
X158895237Y-50804476D01*
X158895237Y-50804476D02*
X158895237Y-50994952D01*
X158895237Y-50994952D02*
X158933333Y-51071142D01*
X158933333Y-51071142D02*
X158971428Y-51109238D01*
X158971428Y-51109238D02*
X159047618Y-51147333D01*
X159047618Y-51147333D02*
X159199999Y-51147333D01*
X159199999Y-51147333D02*
X159276190Y-51109238D01*
X159276190Y-51109238D02*
X159314285Y-51071142D01*
X159314285Y-51071142D02*
X159352380Y-50994952D01*
X159695238Y-51375904D02*
X159733333Y-51414000D01*
X159733333Y-51414000D02*
X159695238Y-51452095D01*
X159695238Y-51452095D02*
X159657142Y-51414000D01*
X159657142Y-51414000D02*
X159695238Y-51375904D01*
X159695238Y-51375904D02*
X159695238Y-51452095D01*
X159695238Y-50956857D02*
X159733333Y-50994952D01*
X159733333Y-50994952D02*
X159695238Y-51033047D01*
X159695238Y-51033047D02*
X159657142Y-50994952D01*
X159657142Y-50994952D02*
X159695238Y-50956857D01*
X159695238Y-50956857D02*
X159695238Y-51033047D01*
X160533333Y-51375904D02*
X160495237Y-51414000D01*
X160495237Y-51414000D02*
X160380952Y-51452095D01*
X160380952Y-51452095D02*
X160304761Y-51452095D01*
X160304761Y-51452095D02*
X160190475Y-51414000D01*
X160190475Y-51414000D02*
X160114285Y-51337809D01*
X160114285Y-51337809D02*
X160076190Y-51261619D01*
X160076190Y-51261619D02*
X160038094Y-51109238D01*
X160038094Y-51109238D02*
X160038094Y-50994952D01*
X160038094Y-50994952D02*
X160076190Y-50842571D01*
X160076190Y-50842571D02*
X160114285Y-50766380D01*
X160114285Y-50766380D02*
X160190475Y-50690190D01*
X160190475Y-50690190D02*
X160304761Y-50652095D01*
X160304761Y-50652095D02*
X160380952Y-50652095D01*
X160380952Y-50652095D02*
X160495237Y-50690190D01*
X160495237Y-50690190D02*
X160533333Y-50728285D01*
X160876190Y-51452095D02*
X160876190Y-50652095D01*
X160876190Y-51033047D02*
X161333333Y-51033047D01*
X161333333Y-51452095D02*
X161333333Y-50652095D01*
X162133332Y-50690190D02*
X162057142Y-50652095D01*
X162057142Y-50652095D02*
X161942856Y-50652095D01*
X161942856Y-50652095D02*
X161828570Y-50690190D01*
X161828570Y-50690190D02*
X161752380Y-50766380D01*
X161752380Y-50766380D02*
X161714285Y-50842571D01*
X161714285Y-50842571D02*
X161676189Y-50994952D01*
X161676189Y-50994952D02*
X161676189Y-51109238D01*
X161676189Y-51109238D02*
X161714285Y-51261619D01*
X161714285Y-51261619D02*
X161752380Y-51337809D01*
X161752380Y-51337809D02*
X161828570Y-51414000D01*
X161828570Y-51414000D02*
X161942856Y-51452095D01*
X161942856Y-51452095D02*
X162019047Y-51452095D01*
X162019047Y-51452095D02*
X162133332Y-51414000D01*
X162133332Y-51414000D02*
X162171428Y-51375904D01*
X162171428Y-51375904D02*
X162171428Y-51109238D01*
X162171428Y-51109238D02*
X162019047Y-51109238D01*
X156190476Y-52902095D02*
X156190476Y-52102095D01*
X156190476Y-52102095D02*
X156380952Y-52102095D01*
X156380952Y-52102095D02*
X156495238Y-52140190D01*
X156495238Y-52140190D02*
X156571428Y-52216380D01*
X156571428Y-52216380D02*
X156609523Y-52292571D01*
X156609523Y-52292571D02*
X156647619Y-52444952D01*
X156647619Y-52444952D02*
X156647619Y-52559238D01*
X156647619Y-52559238D02*
X156609523Y-52711619D01*
X156609523Y-52711619D02*
X156571428Y-52787809D01*
X156571428Y-52787809D02*
X156495238Y-52864000D01*
X156495238Y-52864000D02*
X156380952Y-52902095D01*
X156380952Y-52902095D02*
X156190476Y-52902095D01*
X156952380Y-52178285D02*
X156990476Y-52140190D01*
X156990476Y-52140190D02*
X157066666Y-52102095D01*
X157066666Y-52102095D02*
X157257142Y-52102095D01*
X157257142Y-52102095D02*
X157333333Y-52140190D01*
X157333333Y-52140190D02*
X157371428Y-52178285D01*
X157371428Y-52178285D02*
X157409523Y-52254476D01*
X157409523Y-52254476D02*
X157409523Y-52330666D01*
X157409523Y-52330666D02*
X157371428Y-52444952D01*
X157371428Y-52444952D02*
X156914285Y-52902095D01*
X156914285Y-52902095D02*
X157409523Y-52902095D01*
X157790476Y-52864000D02*
X157790476Y-52902095D01*
X157790476Y-52902095D02*
X157752381Y-52978285D01*
X157752381Y-52978285D02*
X157714285Y-53016380D01*
X158590476Y-52902095D02*
X158323809Y-52521142D01*
X158133333Y-52902095D02*
X158133333Y-52102095D01*
X158133333Y-52102095D02*
X158438095Y-52102095D01*
X158438095Y-52102095D02*
X158514285Y-52140190D01*
X158514285Y-52140190D02*
X158552380Y-52178285D01*
X158552380Y-52178285D02*
X158590476Y-52254476D01*
X158590476Y-52254476D02*
X158590476Y-52368761D01*
X158590476Y-52368761D02*
X158552380Y-52444952D01*
X158552380Y-52444952D02*
X158514285Y-52483047D01*
X158514285Y-52483047D02*
X158438095Y-52521142D01*
X158438095Y-52521142D02*
X158133333Y-52521142D01*
X159352380Y-52902095D02*
X158895237Y-52902095D01*
X159123809Y-52902095D02*
X159123809Y-52102095D01*
X159123809Y-52102095D02*
X159047618Y-52216380D01*
X159047618Y-52216380D02*
X158971428Y-52292571D01*
X158971428Y-52292571D02*
X158895237Y-52330666D01*
X159619047Y-52102095D02*
X160152381Y-52102095D01*
X160152381Y-52102095D02*
X159809523Y-52902095D01*
X160457143Y-52825904D02*
X160495238Y-52864000D01*
X160495238Y-52864000D02*
X160457143Y-52902095D01*
X160457143Y-52902095D02*
X160419047Y-52864000D01*
X160419047Y-52864000D02*
X160457143Y-52825904D01*
X160457143Y-52825904D02*
X160457143Y-52902095D01*
X160457143Y-52406857D02*
X160495238Y-52444952D01*
X160495238Y-52444952D02*
X160457143Y-52483047D01*
X160457143Y-52483047D02*
X160419047Y-52444952D01*
X160419047Y-52444952D02*
X160457143Y-52406857D01*
X160457143Y-52406857D02*
X160457143Y-52483047D01*
X160838095Y-52902095D02*
X160838095Y-52102095D01*
X160838095Y-52483047D02*
X161295238Y-52483047D01*
X161295238Y-52902095D02*
X161295238Y-52102095D01*
X161676190Y-52902095D02*
X161676190Y-52102095D01*
X162476189Y-52140190D02*
X162399999Y-52102095D01*
X162399999Y-52102095D02*
X162285713Y-52102095D01*
X162285713Y-52102095D02*
X162171427Y-52140190D01*
X162171427Y-52140190D02*
X162095237Y-52216380D01*
X162095237Y-52216380D02*
X162057142Y-52292571D01*
X162057142Y-52292571D02*
X162019046Y-52444952D01*
X162019046Y-52444952D02*
X162019046Y-52559238D01*
X162019046Y-52559238D02*
X162057142Y-52711619D01*
X162057142Y-52711619D02*
X162095237Y-52787809D01*
X162095237Y-52787809D02*
X162171427Y-52864000D01*
X162171427Y-52864000D02*
X162285713Y-52902095D01*
X162285713Y-52902095D02*
X162361904Y-52902095D01*
X162361904Y-52902095D02*
X162476189Y-52864000D01*
X162476189Y-52864000D02*
X162514285Y-52825904D01*
X162514285Y-52825904D02*
X162514285Y-52559238D01*
X162514285Y-52559238D02*
X162361904Y-52559238D01*
X162857142Y-52902095D02*
X162857142Y-52102095D01*
X162857142Y-52483047D02*
X163314285Y-52483047D01*
X163314285Y-52902095D02*
X163314285Y-52102095D01*
%TO.C,J1*%
X140933333Y-131045095D02*
X140933333Y-131616523D01*
X140933333Y-131616523D02*
X140895238Y-131730809D01*
X140895238Y-131730809D02*
X140819047Y-131807000D01*
X140819047Y-131807000D02*
X140704762Y-131845095D01*
X140704762Y-131845095D02*
X140628571Y-131845095D01*
X141733333Y-131845095D02*
X141276190Y-131845095D01*
X141504762Y-131845095D02*
X141504762Y-131045095D01*
X141504762Y-131045095D02*
X141428571Y-131159380D01*
X141428571Y-131159380D02*
X141352381Y-131235571D01*
X141352381Y-131235571D02*
X141276190Y-131273666D01*
D11*
%TO.C,C7*%
X109133690Y-107883333D02*
X109157500Y-107907142D01*
X109157500Y-107907142D02*
X109181309Y-107978571D01*
X109181309Y-107978571D02*
X109181309Y-108026190D01*
X109181309Y-108026190D02*
X109157500Y-108097618D01*
X109157500Y-108097618D02*
X109109880Y-108145237D01*
X109109880Y-108145237D02*
X109062261Y-108169047D01*
X109062261Y-108169047D02*
X108967023Y-108192856D01*
X108967023Y-108192856D02*
X108895595Y-108192856D01*
X108895595Y-108192856D02*
X108800357Y-108169047D01*
X108800357Y-108169047D02*
X108752738Y-108145237D01*
X108752738Y-108145237D02*
X108705119Y-108097618D01*
X108705119Y-108097618D02*
X108681309Y-108026190D01*
X108681309Y-108026190D02*
X108681309Y-107978571D01*
X108681309Y-107978571D02*
X108705119Y-107907142D01*
X108705119Y-107907142D02*
X108728928Y-107883333D01*
X108681309Y-107716666D02*
X108681309Y-107383333D01*
X108681309Y-107383333D02*
X109181309Y-107597618D01*
D10*
%TO.C,U8*%
X158190476Y-125195095D02*
X158190476Y-125842714D01*
X158190476Y-125842714D02*
X158228571Y-125918904D01*
X158228571Y-125918904D02*
X158266666Y-125957000D01*
X158266666Y-125957000D02*
X158342857Y-125995095D01*
X158342857Y-125995095D02*
X158495238Y-125995095D01*
X158495238Y-125995095D02*
X158571428Y-125957000D01*
X158571428Y-125957000D02*
X158609523Y-125918904D01*
X158609523Y-125918904D02*
X158647619Y-125842714D01*
X158647619Y-125842714D02*
X158647619Y-125195095D01*
X159142856Y-125537952D02*
X159066666Y-125499857D01*
X159066666Y-125499857D02*
X159028571Y-125461761D01*
X159028571Y-125461761D02*
X158990475Y-125385571D01*
X158990475Y-125385571D02*
X158990475Y-125347476D01*
X158990475Y-125347476D02*
X159028571Y-125271285D01*
X159028571Y-125271285D02*
X159066666Y-125233190D01*
X159066666Y-125233190D02*
X159142856Y-125195095D01*
X159142856Y-125195095D02*
X159295237Y-125195095D01*
X159295237Y-125195095D02*
X159371428Y-125233190D01*
X159371428Y-125233190D02*
X159409523Y-125271285D01*
X159409523Y-125271285D02*
X159447618Y-125347476D01*
X159447618Y-125347476D02*
X159447618Y-125385571D01*
X159447618Y-125385571D02*
X159409523Y-125461761D01*
X159409523Y-125461761D02*
X159371428Y-125499857D01*
X159371428Y-125499857D02*
X159295237Y-125537952D01*
X159295237Y-125537952D02*
X159142856Y-125537952D01*
X159142856Y-125537952D02*
X159066666Y-125576047D01*
X159066666Y-125576047D02*
X159028571Y-125614142D01*
X159028571Y-125614142D02*
X158990475Y-125690333D01*
X158990475Y-125690333D02*
X158990475Y-125842714D01*
X158990475Y-125842714D02*
X159028571Y-125918904D01*
X159028571Y-125918904D02*
X159066666Y-125957000D01*
X159066666Y-125957000D02*
X159142856Y-125995095D01*
X159142856Y-125995095D02*
X159295237Y-125995095D01*
X159295237Y-125995095D02*
X159371428Y-125957000D01*
X159371428Y-125957000D02*
X159409523Y-125918904D01*
X159409523Y-125918904D02*
X159447618Y-125842714D01*
X159447618Y-125842714D02*
X159447618Y-125690333D01*
X159447618Y-125690333D02*
X159409523Y-125614142D01*
X159409523Y-125614142D02*
X159371428Y-125576047D01*
X159371428Y-125576047D02*
X159295237Y-125537952D01*
%TO.C,R1*%
X149520095Y-130208332D02*
X149139142Y-130474999D01*
X149520095Y-130665475D02*
X148720095Y-130665475D01*
X148720095Y-130665475D02*
X148720095Y-130360713D01*
X148720095Y-130360713D02*
X148758190Y-130284523D01*
X148758190Y-130284523D02*
X148796285Y-130246428D01*
X148796285Y-130246428D02*
X148872476Y-130208332D01*
X148872476Y-130208332D02*
X148986761Y-130208332D01*
X148986761Y-130208332D02*
X149062952Y-130246428D01*
X149062952Y-130246428D02*
X149101047Y-130284523D01*
X149101047Y-130284523D02*
X149139142Y-130360713D01*
X149139142Y-130360713D02*
X149139142Y-130665475D01*
X149520095Y-129446428D02*
X149520095Y-129903571D01*
X149520095Y-129674999D02*
X148720095Y-129674999D01*
X148720095Y-129674999D02*
X148834380Y-129751190D01*
X148834380Y-129751190D02*
X148910571Y-129827380D01*
X148910571Y-129827380D02*
X148948666Y-129903571D01*
D11*
%TO.C,U6*%
X121119047Y-120556309D02*
X121119047Y-120961071D01*
X121119047Y-120961071D02*
X121142857Y-121008690D01*
X121142857Y-121008690D02*
X121166666Y-121032500D01*
X121166666Y-121032500D02*
X121214285Y-121056309D01*
X121214285Y-121056309D02*
X121309523Y-121056309D01*
X121309523Y-121056309D02*
X121357142Y-121032500D01*
X121357142Y-121032500D02*
X121380952Y-121008690D01*
X121380952Y-121008690D02*
X121404761Y-120961071D01*
X121404761Y-120961071D02*
X121404761Y-120556309D01*
X121857143Y-120556309D02*
X121761905Y-120556309D01*
X121761905Y-120556309D02*
X121714286Y-120580119D01*
X121714286Y-120580119D02*
X121690476Y-120603928D01*
X121690476Y-120603928D02*
X121642857Y-120675357D01*
X121642857Y-120675357D02*
X121619048Y-120770595D01*
X121619048Y-120770595D02*
X121619048Y-120961071D01*
X121619048Y-120961071D02*
X121642857Y-121008690D01*
X121642857Y-121008690D02*
X121666667Y-121032500D01*
X121666667Y-121032500D02*
X121714286Y-121056309D01*
X121714286Y-121056309D02*
X121809524Y-121056309D01*
X121809524Y-121056309D02*
X121857143Y-121032500D01*
X121857143Y-121032500D02*
X121880952Y-121008690D01*
X121880952Y-121008690D02*
X121904762Y-120961071D01*
X121904762Y-120961071D02*
X121904762Y-120842023D01*
X121904762Y-120842023D02*
X121880952Y-120794404D01*
X121880952Y-120794404D02*
X121857143Y-120770595D01*
X121857143Y-120770595D02*
X121809524Y-120746785D01*
X121809524Y-120746785D02*
X121714286Y-120746785D01*
X121714286Y-120746785D02*
X121666667Y-120770595D01*
X121666667Y-120770595D02*
X121642857Y-120794404D01*
X121642857Y-120794404D02*
X121619048Y-120842023D01*
%TO.C,C19*%
X114883690Y-121521428D02*
X114907500Y-121545237D01*
X114907500Y-121545237D02*
X114931309Y-121616666D01*
X114931309Y-121616666D02*
X114931309Y-121664285D01*
X114931309Y-121664285D02*
X114907500Y-121735713D01*
X114907500Y-121735713D02*
X114859880Y-121783332D01*
X114859880Y-121783332D02*
X114812261Y-121807142D01*
X114812261Y-121807142D02*
X114717023Y-121830951D01*
X114717023Y-121830951D02*
X114645595Y-121830951D01*
X114645595Y-121830951D02*
X114550357Y-121807142D01*
X114550357Y-121807142D02*
X114502738Y-121783332D01*
X114502738Y-121783332D02*
X114455119Y-121735713D01*
X114455119Y-121735713D02*
X114431309Y-121664285D01*
X114431309Y-121664285D02*
X114431309Y-121616666D01*
X114431309Y-121616666D02*
X114455119Y-121545237D01*
X114455119Y-121545237D02*
X114478928Y-121521428D01*
X114931309Y-121045237D02*
X114931309Y-121330951D01*
X114931309Y-121188094D02*
X114431309Y-121188094D01*
X114431309Y-121188094D02*
X114502738Y-121235713D01*
X114502738Y-121235713D02*
X114550357Y-121283332D01*
X114550357Y-121283332D02*
X114574166Y-121330951D01*
X114931309Y-120807142D02*
X114931309Y-120711904D01*
X114931309Y-120711904D02*
X114907500Y-120664285D01*
X114907500Y-120664285D02*
X114883690Y-120640476D01*
X114883690Y-120640476D02*
X114812261Y-120592857D01*
X114812261Y-120592857D02*
X114717023Y-120569047D01*
X114717023Y-120569047D02*
X114526547Y-120569047D01*
X114526547Y-120569047D02*
X114478928Y-120592857D01*
X114478928Y-120592857D02*
X114455119Y-120616666D01*
X114455119Y-120616666D02*
X114431309Y-120664285D01*
X114431309Y-120664285D02*
X114431309Y-120759523D01*
X114431309Y-120759523D02*
X114455119Y-120807142D01*
X114455119Y-120807142D02*
X114478928Y-120830952D01*
X114478928Y-120830952D02*
X114526547Y-120854761D01*
X114526547Y-120854761D02*
X114645595Y-120854761D01*
X114645595Y-120854761D02*
X114693214Y-120830952D01*
X114693214Y-120830952D02*
X114717023Y-120807142D01*
X114717023Y-120807142D02*
X114740833Y-120759523D01*
X114740833Y-120759523D02*
X114740833Y-120664285D01*
X114740833Y-120664285D02*
X114717023Y-120616666D01*
X114717023Y-120616666D02*
X114693214Y-120592857D01*
X114693214Y-120592857D02*
X114645595Y-120569047D01*
D10*
%TO.C,C20*%
X113585714Y-113993904D02*
X113547618Y-114032000D01*
X113547618Y-114032000D02*
X113433333Y-114070095D01*
X113433333Y-114070095D02*
X113357142Y-114070095D01*
X113357142Y-114070095D02*
X113242856Y-114032000D01*
X113242856Y-114032000D02*
X113166666Y-113955809D01*
X113166666Y-113955809D02*
X113128571Y-113879619D01*
X113128571Y-113879619D02*
X113090475Y-113727238D01*
X113090475Y-113727238D02*
X113090475Y-113612952D01*
X113090475Y-113612952D02*
X113128571Y-113460571D01*
X113128571Y-113460571D02*
X113166666Y-113384380D01*
X113166666Y-113384380D02*
X113242856Y-113308190D01*
X113242856Y-113308190D02*
X113357142Y-113270095D01*
X113357142Y-113270095D02*
X113433333Y-113270095D01*
X113433333Y-113270095D02*
X113547618Y-113308190D01*
X113547618Y-113308190D02*
X113585714Y-113346285D01*
X113890475Y-113346285D02*
X113928571Y-113308190D01*
X113928571Y-113308190D02*
X114004761Y-113270095D01*
X114004761Y-113270095D02*
X114195237Y-113270095D01*
X114195237Y-113270095D02*
X114271428Y-113308190D01*
X114271428Y-113308190D02*
X114309523Y-113346285D01*
X114309523Y-113346285D02*
X114347618Y-113422476D01*
X114347618Y-113422476D02*
X114347618Y-113498666D01*
X114347618Y-113498666D02*
X114309523Y-113612952D01*
X114309523Y-113612952D02*
X113852380Y-114070095D01*
X113852380Y-114070095D02*
X114347618Y-114070095D01*
X114842857Y-113270095D02*
X114919047Y-113270095D01*
X114919047Y-113270095D02*
X114995238Y-113308190D01*
X114995238Y-113308190D02*
X115033333Y-113346285D01*
X115033333Y-113346285D02*
X115071428Y-113422476D01*
X115071428Y-113422476D02*
X115109523Y-113574857D01*
X115109523Y-113574857D02*
X115109523Y-113765333D01*
X115109523Y-113765333D02*
X115071428Y-113917714D01*
X115071428Y-113917714D02*
X115033333Y-113993904D01*
X115033333Y-113993904D02*
X114995238Y-114032000D01*
X114995238Y-114032000D02*
X114919047Y-114070095D01*
X114919047Y-114070095D02*
X114842857Y-114070095D01*
X114842857Y-114070095D02*
X114766666Y-114032000D01*
X114766666Y-114032000D02*
X114728571Y-113993904D01*
X114728571Y-113993904D02*
X114690476Y-113917714D01*
X114690476Y-113917714D02*
X114652380Y-113765333D01*
X114652380Y-113765333D02*
X114652380Y-113574857D01*
X114652380Y-113574857D02*
X114690476Y-113422476D01*
X114690476Y-113422476D02*
X114728571Y-113346285D01*
X114728571Y-113346285D02*
X114766666Y-113308190D01*
X114766666Y-113308190D02*
X114842857Y-113270095D01*
%TO.C,C11*%
X128760714Y-126643904D02*
X128722618Y-126682000D01*
X128722618Y-126682000D02*
X128608333Y-126720095D01*
X128608333Y-126720095D02*
X128532142Y-126720095D01*
X128532142Y-126720095D02*
X128417856Y-126682000D01*
X128417856Y-126682000D02*
X128341666Y-126605809D01*
X128341666Y-126605809D02*
X128303571Y-126529619D01*
X128303571Y-126529619D02*
X128265475Y-126377238D01*
X128265475Y-126377238D02*
X128265475Y-126262952D01*
X128265475Y-126262952D02*
X128303571Y-126110571D01*
X128303571Y-126110571D02*
X128341666Y-126034380D01*
X128341666Y-126034380D02*
X128417856Y-125958190D01*
X128417856Y-125958190D02*
X128532142Y-125920095D01*
X128532142Y-125920095D02*
X128608333Y-125920095D01*
X128608333Y-125920095D02*
X128722618Y-125958190D01*
X128722618Y-125958190D02*
X128760714Y-125996285D01*
X129522618Y-126720095D02*
X129065475Y-126720095D01*
X129294047Y-126720095D02*
X129294047Y-125920095D01*
X129294047Y-125920095D02*
X129217856Y-126034380D01*
X129217856Y-126034380D02*
X129141666Y-126110571D01*
X129141666Y-126110571D02*
X129065475Y-126148666D01*
X130284523Y-126720095D02*
X129827380Y-126720095D01*
X130055952Y-126720095D02*
X130055952Y-125920095D01*
X130055952Y-125920095D02*
X129979761Y-126034380D01*
X129979761Y-126034380D02*
X129903571Y-126110571D01*
X129903571Y-126110571D02*
X129827380Y-126148666D01*
D11*
%TO.C,R6*%
X109781309Y-122233333D02*
X109543214Y-122399999D01*
X109781309Y-122519047D02*
X109281309Y-122519047D01*
X109281309Y-122519047D02*
X109281309Y-122328571D01*
X109281309Y-122328571D02*
X109305119Y-122280952D01*
X109305119Y-122280952D02*
X109328928Y-122257142D01*
X109328928Y-122257142D02*
X109376547Y-122233333D01*
X109376547Y-122233333D02*
X109447976Y-122233333D01*
X109447976Y-122233333D02*
X109495595Y-122257142D01*
X109495595Y-122257142D02*
X109519404Y-122280952D01*
X109519404Y-122280952D02*
X109543214Y-122328571D01*
X109543214Y-122328571D02*
X109543214Y-122519047D01*
X109281309Y-121804761D02*
X109281309Y-121899999D01*
X109281309Y-121899999D02*
X109305119Y-121947618D01*
X109305119Y-121947618D02*
X109328928Y-121971428D01*
X109328928Y-121971428D02*
X109400357Y-122019047D01*
X109400357Y-122019047D02*
X109495595Y-122042856D01*
X109495595Y-122042856D02*
X109686071Y-122042856D01*
X109686071Y-122042856D02*
X109733690Y-122019047D01*
X109733690Y-122019047D02*
X109757500Y-121995237D01*
X109757500Y-121995237D02*
X109781309Y-121947618D01*
X109781309Y-121947618D02*
X109781309Y-121852380D01*
X109781309Y-121852380D02*
X109757500Y-121804761D01*
X109757500Y-121804761D02*
X109733690Y-121780952D01*
X109733690Y-121780952D02*
X109686071Y-121757142D01*
X109686071Y-121757142D02*
X109567023Y-121757142D01*
X109567023Y-121757142D02*
X109519404Y-121780952D01*
X109519404Y-121780952D02*
X109495595Y-121804761D01*
X109495595Y-121804761D02*
X109471785Y-121852380D01*
X109471785Y-121852380D02*
X109471785Y-121947618D01*
X109471785Y-121947618D02*
X109495595Y-121995237D01*
X109495595Y-121995237D02*
X109519404Y-122019047D01*
X109519404Y-122019047D02*
X109567023Y-122042856D01*
D10*
%TO.C,J5*%
X126533333Y-130770095D02*
X126533333Y-131341523D01*
X126533333Y-131341523D02*
X126495238Y-131455809D01*
X126495238Y-131455809D02*
X126419047Y-131532000D01*
X126419047Y-131532000D02*
X126304762Y-131570095D01*
X126304762Y-131570095D02*
X126228571Y-131570095D01*
X127295238Y-130770095D02*
X126914286Y-130770095D01*
X126914286Y-130770095D02*
X126876190Y-131151047D01*
X126876190Y-131151047D02*
X126914286Y-131112952D01*
X126914286Y-131112952D02*
X126990476Y-131074857D01*
X126990476Y-131074857D02*
X127180952Y-131074857D01*
X127180952Y-131074857D02*
X127257143Y-131112952D01*
X127257143Y-131112952D02*
X127295238Y-131151047D01*
X127295238Y-131151047D02*
X127333333Y-131227238D01*
X127333333Y-131227238D02*
X127333333Y-131417714D01*
X127333333Y-131417714D02*
X127295238Y-131493904D01*
X127295238Y-131493904D02*
X127257143Y-131532000D01*
X127257143Y-131532000D02*
X127180952Y-131570095D01*
X127180952Y-131570095D02*
X126990476Y-131570095D01*
X126990476Y-131570095D02*
X126914286Y-131532000D01*
X126914286Y-131532000D02*
X126876190Y-131493904D01*
D11*
%TO.C,C14*%
X110028571Y-125633690D02*
X110004762Y-125657500D01*
X110004762Y-125657500D02*
X109933333Y-125681309D01*
X109933333Y-125681309D02*
X109885714Y-125681309D01*
X109885714Y-125681309D02*
X109814286Y-125657500D01*
X109814286Y-125657500D02*
X109766667Y-125609880D01*
X109766667Y-125609880D02*
X109742857Y-125562261D01*
X109742857Y-125562261D02*
X109719048Y-125467023D01*
X109719048Y-125467023D02*
X109719048Y-125395595D01*
X109719048Y-125395595D02*
X109742857Y-125300357D01*
X109742857Y-125300357D02*
X109766667Y-125252738D01*
X109766667Y-125252738D02*
X109814286Y-125205119D01*
X109814286Y-125205119D02*
X109885714Y-125181309D01*
X109885714Y-125181309D02*
X109933333Y-125181309D01*
X109933333Y-125181309D02*
X110004762Y-125205119D01*
X110004762Y-125205119D02*
X110028571Y-125228928D01*
X110504762Y-125681309D02*
X110219048Y-125681309D01*
X110361905Y-125681309D02*
X110361905Y-125181309D01*
X110361905Y-125181309D02*
X110314286Y-125252738D01*
X110314286Y-125252738D02*
X110266667Y-125300357D01*
X110266667Y-125300357D02*
X110219048Y-125324166D01*
X110933333Y-125347976D02*
X110933333Y-125681309D01*
X110814285Y-125157500D02*
X110695238Y-125514642D01*
X110695238Y-125514642D02*
X111004761Y-125514642D01*
D10*
%TO.C,F2*%
X125651047Y-126591666D02*
X125651047Y-126858332D01*
X126070095Y-126858332D02*
X125270095Y-126858332D01*
X125270095Y-126858332D02*
X125270095Y-126477380D01*
X125346285Y-126210714D02*
X125308190Y-126172618D01*
X125308190Y-126172618D02*
X125270095Y-126096428D01*
X125270095Y-126096428D02*
X125270095Y-125905952D01*
X125270095Y-125905952D02*
X125308190Y-125829761D01*
X125308190Y-125829761D02*
X125346285Y-125791666D01*
X125346285Y-125791666D02*
X125422476Y-125753571D01*
X125422476Y-125753571D02*
X125498666Y-125753571D01*
X125498666Y-125753571D02*
X125612952Y-125791666D01*
X125612952Y-125791666D02*
X126070095Y-126248809D01*
X126070095Y-126248809D02*
X126070095Y-125753571D01*
D11*
%TO.C,C15*%
X120528571Y-131333690D02*
X120504762Y-131357500D01*
X120504762Y-131357500D02*
X120433333Y-131381309D01*
X120433333Y-131381309D02*
X120385714Y-131381309D01*
X120385714Y-131381309D02*
X120314286Y-131357500D01*
X120314286Y-131357500D02*
X120266667Y-131309880D01*
X120266667Y-131309880D02*
X120242857Y-131262261D01*
X120242857Y-131262261D02*
X120219048Y-131167023D01*
X120219048Y-131167023D02*
X120219048Y-131095595D01*
X120219048Y-131095595D02*
X120242857Y-131000357D01*
X120242857Y-131000357D02*
X120266667Y-130952738D01*
X120266667Y-130952738D02*
X120314286Y-130905119D01*
X120314286Y-130905119D02*
X120385714Y-130881309D01*
X120385714Y-130881309D02*
X120433333Y-130881309D01*
X120433333Y-130881309D02*
X120504762Y-130905119D01*
X120504762Y-130905119D02*
X120528571Y-130928928D01*
X121004762Y-131381309D02*
X120719048Y-131381309D01*
X120861905Y-131381309D02*
X120861905Y-130881309D01*
X120861905Y-130881309D02*
X120814286Y-130952738D01*
X120814286Y-130952738D02*
X120766667Y-131000357D01*
X120766667Y-131000357D02*
X120719048Y-131024166D01*
X121457142Y-130881309D02*
X121219047Y-130881309D01*
X121219047Y-130881309D02*
X121195238Y-131119404D01*
X121195238Y-131119404D02*
X121219047Y-131095595D01*
X121219047Y-131095595D02*
X121266666Y-131071785D01*
X121266666Y-131071785D02*
X121385714Y-131071785D01*
X121385714Y-131071785D02*
X121433333Y-131095595D01*
X121433333Y-131095595D02*
X121457142Y-131119404D01*
X121457142Y-131119404D02*
X121480952Y-131167023D01*
X121480952Y-131167023D02*
X121480952Y-131286071D01*
X121480952Y-131286071D02*
X121457142Y-131333690D01*
X121457142Y-131333690D02*
X121433333Y-131357500D01*
X121433333Y-131357500D02*
X121385714Y-131381309D01*
X121385714Y-131381309D02*
X121266666Y-131381309D01*
X121266666Y-131381309D02*
X121219047Y-131357500D01*
X121219047Y-131357500D02*
X121195238Y-131333690D01*
%TO.C,R14*%
X162678571Y-122381309D02*
X162511905Y-122143214D01*
X162392857Y-122381309D02*
X162392857Y-121881309D01*
X162392857Y-121881309D02*
X162583333Y-121881309D01*
X162583333Y-121881309D02*
X162630952Y-121905119D01*
X162630952Y-121905119D02*
X162654762Y-121928928D01*
X162654762Y-121928928D02*
X162678571Y-121976547D01*
X162678571Y-121976547D02*
X162678571Y-122047976D01*
X162678571Y-122047976D02*
X162654762Y-122095595D01*
X162654762Y-122095595D02*
X162630952Y-122119404D01*
X162630952Y-122119404D02*
X162583333Y-122143214D01*
X162583333Y-122143214D02*
X162392857Y-122143214D01*
X163154762Y-122381309D02*
X162869048Y-122381309D01*
X163011905Y-122381309D02*
X163011905Y-121881309D01*
X163011905Y-121881309D02*
X162964286Y-121952738D01*
X162964286Y-121952738D02*
X162916667Y-122000357D01*
X162916667Y-122000357D02*
X162869048Y-122024166D01*
X163583333Y-122047976D02*
X163583333Y-122381309D01*
X163464285Y-121857500D02*
X163345238Y-122214642D01*
X163345238Y-122214642D02*
X163654761Y-122214642D01*
D10*
%TO.C,C21*%
X110635714Y-114468904D02*
X110597618Y-114507000D01*
X110597618Y-114507000D02*
X110483333Y-114545095D01*
X110483333Y-114545095D02*
X110407142Y-114545095D01*
X110407142Y-114545095D02*
X110292856Y-114507000D01*
X110292856Y-114507000D02*
X110216666Y-114430809D01*
X110216666Y-114430809D02*
X110178571Y-114354619D01*
X110178571Y-114354619D02*
X110140475Y-114202238D01*
X110140475Y-114202238D02*
X110140475Y-114087952D01*
X110140475Y-114087952D02*
X110178571Y-113935571D01*
X110178571Y-113935571D02*
X110216666Y-113859380D01*
X110216666Y-113859380D02*
X110292856Y-113783190D01*
X110292856Y-113783190D02*
X110407142Y-113745095D01*
X110407142Y-113745095D02*
X110483333Y-113745095D01*
X110483333Y-113745095D02*
X110597618Y-113783190D01*
X110597618Y-113783190D02*
X110635714Y-113821285D01*
X110940475Y-113821285D02*
X110978571Y-113783190D01*
X110978571Y-113783190D02*
X111054761Y-113745095D01*
X111054761Y-113745095D02*
X111245237Y-113745095D01*
X111245237Y-113745095D02*
X111321428Y-113783190D01*
X111321428Y-113783190D02*
X111359523Y-113821285D01*
X111359523Y-113821285D02*
X111397618Y-113897476D01*
X111397618Y-113897476D02*
X111397618Y-113973666D01*
X111397618Y-113973666D02*
X111359523Y-114087952D01*
X111359523Y-114087952D02*
X110902380Y-114545095D01*
X110902380Y-114545095D02*
X111397618Y-114545095D01*
X112159523Y-114545095D02*
X111702380Y-114545095D01*
X111930952Y-114545095D02*
X111930952Y-113745095D01*
X111930952Y-113745095D02*
X111854761Y-113859380D01*
X111854761Y-113859380D02*
X111778571Y-113935571D01*
X111778571Y-113935571D02*
X111702380Y-113973666D01*
D11*
%TO.C,C13*%
X114883690Y-123371428D02*
X114907500Y-123395237D01*
X114907500Y-123395237D02*
X114931309Y-123466666D01*
X114931309Y-123466666D02*
X114931309Y-123514285D01*
X114931309Y-123514285D02*
X114907500Y-123585713D01*
X114907500Y-123585713D02*
X114859880Y-123633332D01*
X114859880Y-123633332D02*
X114812261Y-123657142D01*
X114812261Y-123657142D02*
X114717023Y-123680951D01*
X114717023Y-123680951D02*
X114645595Y-123680951D01*
X114645595Y-123680951D02*
X114550357Y-123657142D01*
X114550357Y-123657142D02*
X114502738Y-123633332D01*
X114502738Y-123633332D02*
X114455119Y-123585713D01*
X114455119Y-123585713D02*
X114431309Y-123514285D01*
X114431309Y-123514285D02*
X114431309Y-123466666D01*
X114431309Y-123466666D02*
X114455119Y-123395237D01*
X114455119Y-123395237D02*
X114478928Y-123371428D01*
X114931309Y-122895237D02*
X114931309Y-123180951D01*
X114931309Y-123038094D02*
X114431309Y-123038094D01*
X114431309Y-123038094D02*
X114502738Y-123085713D01*
X114502738Y-123085713D02*
X114550357Y-123133332D01*
X114550357Y-123133332D02*
X114574166Y-123180951D01*
X114431309Y-122728571D02*
X114431309Y-122419047D01*
X114431309Y-122419047D02*
X114621785Y-122585714D01*
X114621785Y-122585714D02*
X114621785Y-122514285D01*
X114621785Y-122514285D02*
X114645595Y-122466666D01*
X114645595Y-122466666D02*
X114669404Y-122442857D01*
X114669404Y-122442857D02*
X114717023Y-122419047D01*
X114717023Y-122419047D02*
X114836071Y-122419047D01*
X114836071Y-122419047D02*
X114883690Y-122442857D01*
X114883690Y-122442857D02*
X114907500Y-122466666D01*
X114907500Y-122466666D02*
X114931309Y-122514285D01*
X114931309Y-122514285D02*
X114931309Y-122657142D01*
X114931309Y-122657142D02*
X114907500Y-122704761D01*
X114907500Y-122704761D02*
X114883690Y-122728571D01*
D10*
%TO.C,R7*%
X110120095Y-117933332D02*
X109739142Y-118199999D01*
X110120095Y-118390475D02*
X109320095Y-118390475D01*
X109320095Y-118390475D02*
X109320095Y-118085713D01*
X109320095Y-118085713D02*
X109358190Y-118009523D01*
X109358190Y-118009523D02*
X109396285Y-117971428D01*
X109396285Y-117971428D02*
X109472476Y-117933332D01*
X109472476Y-117933332D02*
X109586761Y-117933332D01*
X109586761Y-117933332D02*
X109662952Y-117971428D01*
X109662952Y-117971428D02*
X109701047Y-118009523D01*
X109701047Y-118009523D02*
X109739142Y-118085713D01*
X109739142Y-118085713D02*
X109739142Y-118390475D01*
X109320095Y-117666666D02*
X109320095Y-117133332D01*
X109320095Y-117133332D02*
X110120095Y-117476190D01*
D11*
%TO.C,C23*%
X162828571Y-119033690D02*
X162804762Y-119057500D01*
X162804762Y-119057500D02*
X162733333Y-119081309D01*
X162733333Y-119081309D02*
X162685714Y-119081309D01*
X162685714Y-119081309D02*
X162614286Y-119057500D01*
X162614286Y-119057500D02*
X162566667Y-119009880D01*
X162566667Y-119009880D02*
X162542857Y-118962261D01*
X162542857Y-118962261D02*
X162519048Y-118867023D01*
X162519048Y-118867023D02*
X162519048Y-118795595D01*
X162519048Y-118795595D02*
X162542857Y-118700357D01*
X162542857Y-118700357D02*
X162566667Y-118652738D01*
X162566667Y-118652738D02*
X162614286Y-118605119D01*
X162614286Y-118605119D02*
X162685714Y-118581309D01*
X162685714Y-118581309D02*
X162733333Y-118581309D01*
X162733333Y-118581309D02*
X162804762Y-118605119D01*
X162804762Y-118605119D02*
X162828571Y-118628928D01*
X163019048Y-118628928D02*
X163042857Y-118605119D01*
X163042857Y-118605119D02*
X163090476Y-118581309D01*
X163090476Y-118581309D02*
X163209524Y-118581309D01*
X163209524Y-118581309D02*
X163257143Y-118605119D01*
X163257143Y-118605119D02*
X163280952Y-118628928D01*
X163280952Y-118628928D02*
X163304762Y-118676547D01*
X163304762Y-118676547D02*
X163304762Y-118724166D01*
X163304762Y-118724166D02*
X163280952Y-118795595D01*
X163280952Y-118795595D02*
X162995238Y-119081309D01*
X162995238Y-119081309D02*
X163304762Y-119081309D01*
X163471428Y-118581309D02*
X163780952Y-118581309D01*
X163780952Y-118581309D02*
X163614285Y-118771785D01*
X163614285Y-118771785D02*
X163685714Y-118771785D01*
X163685714Y-118771785D02*
X163733333Y-118795595D01*
X163733333Y-118795595D02*
X163757142Y-118819404D01*
X163757142Y-118819404D02*
X163780952Y-118867023D01*
X163780952Y-118867023D02*
X163780952Y-118986071D01*
X163780952Y-118986071D02*
X163757142Y-119033690D01*
X163757142Y-119033690D02*
X163733333Y-119057500D01*
X163733333Y-119057500D02*
X163685714Y-119081309D01*
X163685714Y-119081309D02*
X163542857Y-119081309D01*
X163542857Y-119081309D02*
X163495238Y-119057500D01*
X163495238Y-119057500D02*
X163471428Y-119033690D01*
%TO.C,L1*%
X110731309Y-120433333D02*
X110731309Y-120671428D01*
X110731309Y-120671428D02*
X110231309Y-120671428D01*
X110731309Y-120004761D02*
X110731309Y-120290475D01*
X110731309Y-120147618D02*
X110231309Y-120147618D01*
X110231309Y-120147618D02*
X110302738Y-120195237D01*
X110302738Y-120195237D02*
X110350357Y-120242856D01*
X110350357Y-120242856D02*
X110374166Y-120290475D01*
D10*
%TO.C,C5*%
X157966667Y-111768904D02*
X157928571Y-111807000D01*
X157928571Y-111807000D02*
X157814286Y-111845095D01*
X157814286Y-111845095D02*
X157738095Y-111845095D01*
X157738095Y-111845095D02*
X157623809Y-111807000D01*
X157623809Y-111807000D02*
X157547619Y-111730809D01*
X157547619Y-111730809D02*
X157509524Y-111654619D01*
X157509524Y-111654619D02*
X157471428Y-111502238D01*
X157471428Y-111502238D02*
X157471428Y-111387952D01*
X157471428Y-111387952D02*
X157509524Y-111235571D01*
X157509524Y-111235571D02*
X157547619Y-111159380D01*
X157547619Y-111159380D02*
X157623809Y-111083190D01*
X157623809Y-111083190D02*
X157738095Y-111045095D01*
X157738095Y-111045095D02*
X157814286Y-111045095D01*
X157814286Y-111045095D02*
X157928571Y-111083190D01*
X157928571Y-111083190D02*
X157966667Y-111121285D01*
X158690476Y-111045095D02*
X158309524Y-111045095D01*
X158309524Y-111045095D02*
X158271428Y-111426047D01*
X158271428Y-111426047D02*
X158309524Y-111387952D01*
X158309524Y-111387952D02*
X158385714Y-111349857D01*
X158385714Y-111349857D02*
X158576190Y-111349857D01*
X158576190Y-111349857D02*
X158652381Y-111387952D01*
X158652381Y-111387952D02*
X158690476Y-111426047D01*
X158690476Y-111426047D02*
X158728571Y-111502238D01*
X158728571Y-111502238D02*
X158728571Y-111692714D01*
X158728571Y-111692714D02*
X158690476Y-111768904D01*
X158690476Y-111768904D02*
X158652381Y-111807000D01*
X158652381Y-111807000D02*
X158576190Y-111845095D01*
X158576190Y-111845095D02*
X158385714Y-111845095D01*
X158385714Y-111845095D02*
X158309524Y-111807000D01*
X158309524Y-111807000D02*
X158271428Y-111768904D01*
%TO.C,C10*%
X159243904Y-115189285D02*
X159282000Y-115227381D01*
X159282000Y-115227381D02*
X159320095Y-115341666D01*
X159320095Y-115341666D02*
X159320095Y-115417857D01*
X159320095Y-115417857D02*
X159282000Y-115532143D01*
X159282000Y-115532143D02*
X159205809Y-115608333D01*
X159205809Y-115608333D02*
X159129619Y-115646428D01*
X159129619Y-115646428D02*
X158977238Y-115684524D01*
X158977238Y-115684524D02*
X158862952Y-115684524D01*
X158862952Y-115684524D02*
X158710571Y-115646428D01*
X158710571Y-115646428D02*
X158634380Y-115608333D01*
X158634380Y-115608333D02*
X158558190Y-115532143D01*
X158558190Y-115532143D02*
X158520095Y-115417857D01*
X158520095Y-115417857D02*
X158520095Y-115341666D01*
X158520095Y-115341666D02*
X158558190Y-115227381D01*
X158558190Y-115227381D02*
X158596285Y-115189285D01*
X159320095Y-114427381D02*
X159320095Y-114884524D01*
X159320095Y-114655952D02*
X158520095Y-114655952D01*
X158520095Y-114655952D02*
X158634380Y-114732143D01*
X158634380Y-114732143D02*
X158710571Y-114808333D01*
X158710571Y-114808333D02*
X158748666Y-114884524D01*
X158520095Y-113932142D02*
X158520095Y-113855952D01*
X158520095Y-113855952D02*
X158558190Y-113779761D01*
X158558190Y-113779761D02*
X158596285Y-113741666D01*
X158596285Y-113741666D02*
X158672476Y-113703571D01*
X158672476Y-113703571D02*
X158824857Y-113665476D01*
X158824857Y-113665476D02*
X159015333Y-113665476D01*
X159015333Y-113665476D02*
X159167714Y-113703571D01*
X159167714Y-113703571D02*
X159243904Y-113741666D01*
X159243904Y-113741666D02*
X159282000Y-113779761D01*
X159282000Y-113779761D02*
X159320095Y-113855952D01*
X159320095Y-113855952D02*
X159320095Y-113932142D01*
X159320095Y-113932142D02*
X159282000Y-114008333D01*
X159282000Y-114008333D02*
X159243904Y-114046428D01*
X159243904Y-114046428D02*
X159167714Y-114084523D01*
X159167714Y-114084523D02*
X159015333Y-114122619D01*
X159015333Y-114122619D02*
X158824857Y-114122619D01*
X158824857Y-114122619D02*
X158672476Y-114084523D01*
X158672476Y-114084523D02*
X158596285Y-114046428D01*
X158596285Y-114046428D02*
X158558190Y-114008333D01*
X158558190Y-114008333D02*
X158520095Y-113932142D01*
%TO.C,R3*%
X155441667Y-126770095D02*
X155175000Y-126389142D01*
X154984524Y-126770095D02*
X154984524Y-125970095D01*
X154984524Y-125970095D02*
X155289286Y-125970095D01*
X155289286Y-125970095D02*
X155365476Y-126008190D01*
X155365476Y-126008190D02*
X155403571Y-126046285D01*
X155403571Y-126046285D02*
X155441667Y-126122476D01*
X155441667Y-126122476D02*
X155441667Y-126236761D01*
X155441667Y-126236761D02*
X155403571Y-126312952D01*
X155403571Y-126312952D02*
X155365476Y-126351047D01*
X155365476Y-126351047D02*
X155289286Y-126389142D01*
X155289286Y-126389142D02*
X154984524Y-126389142D01*
X155708333Y-125970095D02*
X156203571Y-125970095D01*
X156203571Y-125970095D02*
X155936905Y-126274857D01*
X155936905Y-126274857D02*
X156051190Y-126274857D01*
X156051190Y-126274857D02*
X156127381Y-126312952D01*
X156127381Y-126312952D02*
X156165476Y-126351047D01*
X156165476Y-126351047D02*
X156203571Y-126427238D01*
X156203571Y-126427238D02*
X156203571Y-126617714D01*
X156203571Y-126617714D02*
X156165476Y-126693904D01*
X156165476Y-126693904D02*
X156127381Y-126732000D01*
X156127381Y-126732000D02*
X156051190Y-126770095D01*
X156051190Y-126770095D02*
X155822619Y-126770095D01*
X155822619Y-126770095D02*
X155746428Y-126732000D01*
X155746428Y-126732000D02*
X155708333Y-126693904D01*
D11*
%TO.C,Q1*%
X121102380Y-125928928D02*
X121054761Y-125905119D01*
X121054761Y-125905119D02*
X121007142Y-125857500D01*
X121007142Y-125857500D02*
X120935714Y-125786071D01*
X120935714Y-125786071D02*
X120888095Y-125762261D01*
X120888095Y-125762261D02*
X120840476Y-125762261D01*
X120864285Y-125881309D02*
X120816666Y-125857500D01*
X120816666Y-125857500D02*
X120769047Y-125809880D01*
X120769047Y-125809880D02*
X120745238Y-125714642D01*
X120745238Y-125714642D02*
X120745238Y-125547976D01*
X120745238Y-125547976D02*
X120769047Y-125452738D01*
X120769047Y-125452738D02*
X120816666Y-125405119D01*
X120816666Y-125405119D02*
X120864285Y-125381309D01*
X120864285Y-125381309D02*
X120959523Y-125381309D01*
X120959523Y-125381309D02*
X121007142Y-125405119D01*
X121007142Y-125405119D02*
X121054761Y-125452738D01*
X121054761Y-125452738D02*
X121078571Y-125547976D01*
X121078571Y-125547976D02*
X121078571Y-125714642D01*
X121078571Y-125714642D02*
X121054761Y-125809880D01*
X121054761Y-125809880D02*
X121007142Y-125857500D01*
X121007142Y-125857500D02*
X120959523Y-125881309D01*
X120959523Y-125881309D02*
X120864285Y-125881309D01*
X121554762Y-125881309D02*
X121269048Y-125881309D01*
X121411905Y-125881309D02*
X121411905Y-125381309D01*
X121411905Y-125381309D02*
X121364286Y-125452738D01*
X121364286Y-125452738D02*
X121316667Y-125500357D01*
X121316667Y-125500357D02*
X121269048Y-125524166D01*
D10*
%TO.C,U1*%
X155390476Y-130170095D02*
X155390476Y-130817714D01*
X155390476Y-130817714D02*
X155428571Y-130893904D01*
X155428571Y-130893904D02*
X155466666Y-130932000D01*
X155466666Y-130932000D02*
X155542857Y-130970095D01*
X155542857Y-130970095D02*
X155695238Y-130970095D01*
X155695238Y-130970095D02*
X155771428Y-130932000D01*
X155771428Y-130932000D02*
X155809523Y-130893904D01*
X155809523Y-130893904D02*
X155847619Y-130817714D01*
X155847619Y-130817714D02*
X155847619Y-130170095D01*
X156647618Y-130970095D02*
X156190475Y-130970095D01*
X156419047Y-130970095D02*
X156419047Y-130170095D01*
X156419047Y-130170095D02*
X156342856Y-130284380D01*
X156342856Y-130284380D02*
X156266666Y-130360571D01*
X156266666Y-130360571D02*
X156190475Y-130398666D01*
%TO.C,C22*%
X157410714Y-118218904D02*
X157372618Y-118257000D01*
X157372618Y-118257000D02*
X157258333Y-118295095D01*
X157258333Y-118295095D02*
X157182142Y-118295095D01*
X157182142Y-118295095D02*
X157067856Y-118257000D01*
X157067856Y-118257000D02*
X156991666Y-118180809D01*
X156991666Y-118180809D02*
X156953571Y-118104619D01*
X156953571Y-118104619D02*
X156915475Y-117952238D01*
X156915475Y-117952238D02*
X156915475Y-117837952D01*
X156915475Y-117837952D02*
X156953571Y-117685571D01*
X156953571Y-117685571D02*
X156991666Y-117609380D01*
X156991666Y-117609380D02*
X157067856Y-117533190D01*
X157067856Y-117533190D02*
X157182142Y-117495095D01*
X157182142Y-117495095D02*
X157258333Y-117495095D01*
X157258333Y-117495095D02*
X157372618Y-117533190D01*
X157372618Y-117533190D02*
X157410714Y-117571285D01*
X157715475Y-117571285D02*
X157753571Y-117533190D01*
X157753571Y-117533190D02*
X157829761Y-117495095D01*
X157829761Y-117495095D02*
X158020237Y-117495095D01*
X158020237Y-117495095D02*
X158096428Y-117533190D01*
X158096428Y-117533190D02*
X158134523Y-117571285D01*
X158134523Y-117571285D02*
X158172618Y-117647476D01*
X158172618Y-117647476D02*
X158172618Y-117723666D01*
X158172618Y-117723666D02*
X158134523Y-117837952D01*
X158134523Y-117837952D02*
X157677380Y-118295095D01*
X157677380Y-118295095D02*
X158172618Y-118295095D01*
X158477380Y-117571285D02*
X158515476Y-117533190D01*
X158515476Y-117533190D02*
X158591666Y-117495095D01*
X158591666Y-117495095D02*
X158782142Y-117495095D01*
X158782142Y-117495095D02*
X158858333Y-117533190D01*
X158858333Y-117533190D02*
X158896428Y-117571285D01*
X158896428Y-117571285D02*
X158934523Y-117647476D01*
X158934523Y-117647476D02*
X158934523Y-117723666D01*
X158934523Y-117723666D02*
X158896428Y-117837952D01*
X158896428Y-117837952D02*
X158439285Y-118295095D01*
X158439285Y-118295095D02*
X158934523Y-118295095D01*
D11*
%TO.C,S1*%
X119119048Y-129407500D02*
X119190476Y-129431309D01*
X119190476Y-129431309D02*
X119309524Y-129431309D01*
X119309524Y-129431309D02*
X119357143Y-129407500D01*
X119357143Y-129407500D02*
X119380952Y-129383690D01*
X119380952Y-129383690D02*
X119404762Y-129336071D01*
X119404762Y-129336071D02*
X119404762Y-129288452D01*
X119404762Y-129288452D02*
X119380952Y-129240833D01*
X119380952Y-129240833D02*
X119357143Y-129217023D01*
X119357143Y-129217023D02*
X119309524Y-129193214D01*
X119309524Y-129193214D02*
X119214286Y-129169404D01*
X119214286Y-129169404D02*
X119166667Y-129145595D01*
X119166667Y-129145595D02*
X119142857Y-129121785D01*
X119142857Y-129121785D02*
X119119048Y-129074166D01*
X119119048Y-129074166D02*
X119119048Y-129026547D01*
X119119048Y-129026547D02*
X119142857Y-128978928D01*
X119142857Y-128978928D02*
X119166667Y-128955119D01*
X119166667Y-128955119D02*
X119214286Y-128931309D01*
X119214286Y-128931309D02*
X119333333Y-128931309D01*
X119333333Y-128931309D02*
X119404762Y-128955119D01*
X119880952Y-129431309D02*
X119595238Y-129431309D01*
X119738095Y-129431309D02*
X119738095Y-128931309D01*
X119738095Y-128931309D02*
X119690476Y-129002738D01*
X119690476Y-129002738D02*
X119642857Y-129050357D01*
X119642857Y-129050357D02*
X119595238Y-129074166D01*
%TO.C,R13*%
X162928571Y-120756309D02*
X162761905Y-120518214D01*
X162642857Y-120756309D02*
X162642857Y-120256309D01*
X162642857Y-120256309D02*
X162833333Y-120256309D01*
X162833333Y-120256309D02*
X162880952Y-120280119D01*
X162880952Y-120280119D02*
X162904762Y-120303928D01*
X162904762Y-120303928D02*
X162928571Y-120351547D01*
X162928571Y-120351547D02*
X162928571Y-120422976D01*
X162928571Y-120422976D02*
X162904762Y-120470595D01*
X162904762Y-120470595D02*
X162880952Y-120494404D01*
X162880952Y-120494404D02*
X162833333Y-120518214D01*
X162833333Y-120518214D02*
X162642857Y-120518214D01*
X163404762Y-120756309D02*
X163119048Y-120756309D01*
X163261905Y-120756309D02*
X163261905Y-120256309D01*
X163261905Y-120256309D02*
X163214286Y-120327738D01*
X163214286Y-120327738D02*
X163166667Y-120375357D01*
X163166667Y-120375357D02*
X163119048Y-120399166D01*
X163571428Y-120256309D02*
X163880952Y-120256309D01*
X163880952Y-120256309D02*
X163714285Y-120446785D01*
X163714285Y-120446785D02*
X163785714Y-120446785D01*
X163785714Y-120446785D02*
X163833333Y-120470595D01*
X163833333Y-120470595D02*
X163857142Y-120494404D01*
X163857142Y-120494404D02*
X163880952Y-120542023D01*
X163880952Y-120542023D02*
X163880952Y-120661071D01*
X163880952Y-120661071D02*
X163857142Y-120708690D01*
X163857142Y-120708690D02*
X163833333Y-120732500D01*
X163833333Y-120732500D02*
X163785714Y-120756309D01*
X163785714Y-120756309D02*
X163642857Y-120756309D01*
X163642857Y-120756309D02*
X163595238Y-120732500D01*
X163595238Y-120732500D02*
X163571428Y-120708690D01*
D10*
%TO.C,X1*%
X160552380Y-108570095D02*
X161085714Y-109370095D01*
X161085714Y-108570095D02*
X160552380Y-109370095D01*
X161809523Y-109370095D02*
X161352380Y-109370095D01*
X161580952Y-109370095D02*
X161580952Y-108570095D01*
X161580952Y-108570095D02*
X161504761Y-108684380D01*
X161504761Y-108684380D02*
X161428571Y-108760571D01*
X161428571Y-108760571D02*
X161352380Y-108798666D01*
%TO.C,U3*%
X130840476Y-124420095D02*
X130840476Y-125067714D01*
X130840476Y-125067714D02*
X130878571Y-125143904D01*
X130878571Y-125143904D02*
X130916666Y-125182000D01*
X130916666Y-125182000D02*
X130992857Y-125220095D01*
X130992857Y-125220095D02*
X131145238Y-125220095D01*
X131145238Y-125220095D02*
X131221428Y-125182000D01*
X131221428Y-125182000D02*
X131259523Y-125143904D01*
X131259523Y-125143904D02*
X131297619Y-125067714D01*
X131297619Y-125067714D02*
X131297619Y-124420095D01*
X131602380Y-124420095D02*
X132097618Y-124420095D01*
X132097618Y-124420095D02*
X131830952Y-124724857D01*
X131830952Y-124724857D02*
X131945237Y-124724857D01*
X131945237Y-124724857D02*
X132021428Y-124762952D01*
X132021428Y-124762952D02*
X132059523Y-124801047D01*
X132059523Y-124801047D02*
X132097618Y-124877238D01*
X132097618Y-124877238D02*
X132097618Y-125067714D01*
X132097618Y-125067714D02*
X132059523Y-125143904D01*
X132059523Y-125143904D02*
X132021428Y-125182000D01*
X132021428Y-125182000D02*
X131945237Y-125220095D01*
X131945237Y-125220095D02*
X131716666Y-125220095D01*
X131716666Y-125220095D02*
X131640475Y-125182000D01*
X131640475Y-125182000D02*
X131602380Y-125143904D01*
D11*
%TO.C,U4*%
X113494047Y-125131309D02*
X113494047Y-125536071D01*
X113494047Y-125536071D02*
X113517857Y-125583690D01*
X113517857Y-125583690D02*
X113541666Y-125607500D01*
X113541666Y-125607500D02*
X113589285Y-125631309D01*
X113589285Y-125631309D02*
X113684523Y-125631309D01*
X113684523Y-125631309D02*
X113732142Y-125607500D01*
X113732142Y-125607500D02*
X113755952Y-125583690D01*
X113755952Y-125583690D02*
X113779761Y-125536071D01*
X113779761Y-125536071D02*
X113779761Y-125131309D01*
X114232143Y-125297976D02*
X114232143Y-125631309D01*
X114113095Y-125107500D02*
X113994048Y-125464642D01*
X113994048Y-125464642D02*
X114303571Y-125464642D01*
%TO.C,C17*%
X119053571Y-120008690D02*
X119029762Y-120032500D01*
X119029762Y-120032500D02*
X118958333Y-120056309D01*
X118958333Y-120056309D02*
X118910714Y-120056309D01*
X118910714Y-120056309D02*
X118839286Y-120032500D01*
X118839286Y-120032500D02*
X118791667Y-119984880D01*
X118791667Y-119984880D02*
X118767857Y-119937261D01*
X118767857Y-119937261D02*
X118744048Y-119842023D01*
X118744048Y-119842023D02*
X118744048Y-119770595D01*
X118744048Y-119770595D02*
X118767857Y-119675357D01*
X118767857Y-119675357D02*
X118791667Y-119627738D01*
X118791667Y-119627738D02*
X118839286Y-119580119D01*
X118839286Y-119580119D02*
X118910714Y-119556309D01*
X118910714Y-119556309D02*
X118958333Y-119556309D01*
X118958333Y-119556309D02*
X119029762Y-119580119D01*
X119029762Y-119580119D02*
X119053571Y-119603928D01*
X119529762Y-120056309D02*
X119244048Y-120056309D01*
X119386905Y-120056309D02*
X119386905Y-119556309D01*
X119386905Y-119556309D02*
X119339286Y-119627738D01*
X119339286Y-119627738D02*
X119291667Y-119675357D01*
X119291667Y-119675357D02*
X119244048Y-119699166D01*
X119696428Y-119556309D02*
X120029761Y-119556309D01*
X120029761Y-119556309D02*
X119815476Y-120056309D01*
%TO.C,U5*%
X113381309Y-127005952D02*
X113786071Y-127005952D01*
X113786071Y-127005952D02*
X113833690Y-126982142D01*
X113833690Y-126982142D02*
X113857500Y-126958333D01*
X113857500Y-126958333D02*
X113881309Y-126910714D01*
X113881309Y-126910714D02*
X113881309Y-126815476D01*
X113881309Y-126815476D02*
X113857500Y-126767857D01*
X113857500Y-126767857D02*
X113833690Y-126744047D01*
X113833690Y-126744047D02*
X113786071Y-126720238D01*
X113786071Y-126720238D02*
X113381309Y-126720238D01*
X113381309Y-126244047D02*
X113381309Y-126482142D01*
X113381309Y-126482142D02*
X113619404Y-126505951D01*
X113619404Y-126505951D02*
X113595595Y-126482142D01*
X113595595Y-126482142D02*
X113571785Y-126434523D01*
X113571785Y-126434523D02*
X113571785Y-126315475D01*
X113571785Y-126315475D02*
X113595595Y-126267856D01*
X113595595Y-126267856D02*
X113619404Y-126244047D01*
X113619404Y-126244047D02*
X113667023Y-126220237D01*
X113667023Y-126220237D02*
X113786071Y-126220237D01*
X113786071Y-126220237D02*
X113833690Y-126244047D01*
X113833690Y-126244047D02*
X113857500Y-126267856D01*
X113857500Y-126267856D02*
X113881309Y-126315475D01*
X113881309Y-126315475D02*
X113881309Y-126434523D01*
X113881309Y-126434523D02*
X113857500Y-126482142D01*
X113857500Y-126482142D02*
X113833690Y-126505951D01*
D10*
%TO.C,C8*%
X148591667Y-128568904D02*
X148553571Y-128607000D01*
X148553571Y-128607000D02*
X148439286Y-128645095D01*
X148439286Y-128645095D02*
X148363095Y-128645095D01*
X148363095Y-128645095D02*
X148248809Y-128607000D01*
X148248809Y-128607000D02*
X148172619Y-128530809D01*
X148172619Y-128530809D02*
X148134524Y-128454619D01*
X148134524Y-128454619D02*
X148096428Y-128302238D01*
X148096428Y-128302238D02*
X148096428Y-128187952D01*
X148096428Y-128187952D02*
X148134524Y-128035571D01*
X148134524Y-128035571D02*
X148172619Y-127959380D01*
X148172619Y-127959380D02*
X148248809Y-127883190D01*
X148248809Y-127883190D02*
X148363095Y-127845095D01*
X148363095Y-127845095D02*
X148439286Y-127845095D01*
X148439286Y-127845095D02*
X148553571Y-127883190D01*
X148553571Y-127883190D02*
X148591667Y-127921285D01*
X149048809Y-128187952D02*
X148972619Y-128149857D01*
X148972619Y-128149857D02*
X148934524Y-128111761D01*
X148934524Y-128111761D02*
X148896428Y-128035571D01*
X148896428Y-128035571D02*
X148896428Y-127997476D01*
X148896428Y-127997476D02*
X148934524Y-127921285D01*
X148934524Y-127921285D02*
X148972619Y-127883190D01*
X148972619Y-127883190D02*
X149048809Y-127845095D01*
X149048809Y-127845095D02*
X149201190Y-127845095D01*
X149201190Y-127845095D02*
X149277381Y-127883190D01*
X149277381Y-127883190D02*
X149315476Y-127921285D01*
X149315476Y-127921285D02*
X149353571Y-127997476D01*
X149353571Y-127997476D02*
X149353571Y-128035571D01*
X149353571Y-128035571D02*
X149315476Y-128111761D01*
X149315476Y-128111761D02*
X149277381Y-128149857D01*
X149277381Y-128149857D02*
X149201190Y-128187952D01*
X149201190Y-128187952D02*
X149048809Y-128187952D01*
X149048809Y-128187952D02*
X148972619Y-128226047D01*
X148972619Y-128226047D02*
X148934524Y-128264142D01*
X148934524Y-128264142D02*
X148896428Y-128340333D01*
X148896428Y-128340333D02*
X148896428Y-128492714D01*
X148896428Y-128492714D02*
X148934524Y-128568904D01*
X148934524Y-128568904D02*
X148972619Y-128607000D01*
X148972619Y-128607000D02*
X149048809Y-128645095D01*
X149048809Y-128645095D02*
X149201190Y-128645095D01*
X149201190Y-128645095D02*
X149277381Y-128607000D01*
X149277381Y-128607000D02*
X149315476Y-128568904D01*
X149315476Y-128568904D02*
X149353571Y-128492714D01*
X149353571Y-128492714D02*
X149353571Y-128340333D01*
X149353571Y-128340333D02*
X149315476Y-128264142D01*
X149315476Y-128264142D02*
X149277381Y-128226047D01*
X149277381Y-128226047D02*
X149201190Y-128187952D01*
%TO.C,U7*%
X118115476Y-114870095D02*
X118115476Y-115517714D01*
X118115476Y-115517714D02*
X118153571Y-115593904D01*
X118153571Y-115593904D02*
X118191666Y-115632000D01*
X118191666Y-115632000D02*
X118267857Y-115670095D01*
X118267857Y-115670095D02*
X118420238Y-115670095D01*
X118420238Y-115670095D02*
X118496428Y-115632000D01*
X118496428Y-115632000D02*
X118534523Y-115593904D01*
X118534523Y-115593904D02*
X118572619Y-115517714D01*
X118572619Y-115517714D02*
X118572619Y-114870095D01*
X118877380Y-114870095D02*
X119410714Y-114870095D01*
X119410714Y-114870095D02*
X119067856Y-115670095D01*
D12*
%TO.C,J4*%
X117201667Y-111367526D02*
X117201667Y-112274669D01*
X117201667Y-112274669D02*
X117141190Y-112456097D01*
X117141190Y-112456097D02*
X117020238Y-112577050D01*
X117020238Y-112577050D02*
X116838809Y-112637526D01*
X116838809Y-112637526D02*
X116717857Y-112637526D01*
X118350714Y-111790859D02*
X118350714Y-112637526D01*
X118048333Y-111307050D02*
X117745952Y-112214192D01*
X117745952Y-112214192D02*
X118532143Y-112214192D01*
D10*
%TO.C,R8*%
X134766667Y-130495095D02*
X134500000Y-130114142D01*
X134309524Y-130495095D02*
X134309524Y-129695095D01*
X134309524Y-129695095D02*
X134614286Y-129695095D01*
X134614286Y-129695095D02*
X134690476Y-129733190D01*
X134690476Y-129733190D02*
X134728571Y-129771285D01*
X134728571Y-129771285D02*
X134766667Y-129847476D01*
X134766667Y-129847476D02*
X134766667Y-129961761D01*
X134766667Y-129961761D02*
X134728571Y-130037952D01*
X134728571Y-130037952D02*
X134690476Y-130076047D01*
X134690476Y-130076047D02*
X134614286Y-130114142D01*
X134614286Y-130114142D02*
X134309524Y-130114142D01*
X135223809Y-130037952D02*
X135147619Y-129999857D01*
X135147619Y-129999857D02*
X135109524Y-129961761D01*
X135109524Y-129961761D02*
X135071428Y-129885571D01*
X135071428Y-129885571D02*
X135071428Y-129847476D01*
X135071428Y-129847476D02*
X135109524Y-129771285D01*
X135109524Y-129771285D02*
X135147619Y-129733190D01*
X135147619Y-129733190D02*
X135223809Y-129695095D01*
X135223809Y-129695095D02*
X135376190Y-129695095D01*
X135376190Y-129695095D02*
X135452381Y-129733190D01*
X135452381Y-129733190D02*
X135490476Y-129771285D01*
X135490476Y-129771285D02*
X135528571Y-129847476D01*
X135528571Y-129847476D02*
X135528571Y-129885571D01*
X135528571Y-129885571D02*
X135490476Y-129961761D01*
X135490476Y-129961761D02*
X135452381Y-129999857D01*
X135452381Y-129999857D02*
X135376190Y-130037952D01*
X135376190Y-130037952D02*
X135223809Y-130037952D01*
X135223809Y-130037952D02*
X135147619Y-130076047D01*
X135147619Y-130076047D02*
X135109524Y-130114142D01*
X135109524Y-130114142D02*
X135071428Y-130190333D01*
X135071428Y-130190333D02*
X135071428Y-130342714D01*
X135071428Y-130342714D02*
X135109524Y-130418904D01*
X135109524Y-130418904D02*
X135147619Y-130457000D01*
X135147619Y-130457000D02*
X135223809Y-130495095D01*
X135223809Y-130495095D02*
X135376190Y-130495095D01*
X135376190Y-130495095D02*
X135452381Y-130457000D01*
X135452381Y-130457000D02*
X135490476Y-130418904D01*
X135490476Y-130418904D02*
X135528571Y-130342714D01*
X135528571Y-130342714D02*
X135528571Y-130190333D01*
X135528571Y-130190333D02*
X135490476Y-130114142D01*
X135490476Y-130114142D02*
X135452381Y-130076047D01*
X135452381Y-130076047D02*
X135376190Y-130037952D01*
%TO.C,R11*%
X134710714Y-131845095D02*
X134444047Y-131464142D01*
X134253571Y-131845095D02*
X134253571Y-131045095D01*
X134253571Y-131045095D02*
X134558333Y-131045095D01*
X134558333Y-131045095D02*
X134634523Y-131083190D01*
X134634523Y-131083190D02*
X134672618Y-131121285D01*
X134672618Y-131121285D02*
X134710714Y-131197476D01*
X134710714Y-131197476D02*
X134710714Y-131311761D01*
X134710714Y-131311761D02*
X134672618Y-131387952D01*
X134672618Y-131387952D02*
X134634523Y-131426047D01*
X134634523Y-131426047D02*
X134558333Y-131464142D01*
X134558333Y-131464142D02*
X134253571Y-131464142D01*
X135472618Y-131845095D02*
X135015475Y-131845095D01*
X135244047Y-131845095D02*
X135244047Y-131045095D01*
X135244047Y-131045095D02*
X135167856Y-131159380D01*
X135167856Y-131159380D02*
X135091666Y-131235571D01*
X135091666Y-131235571D02*
X135015475Y-131273666D01*
X136234523Y-131845095D02*
X135777380Y-131845095D01*
X136005952Y-131845095D02*
X136005952Y-131045095D01*
X136005952Y-131045095D02*
X135929761Y-131159380D01*
X135929761Y-131159380D02*
X135853571Y-131235571D01*
X135853571Y-131235571D02*
X135777380Y-131273666D01*
%TO.C,U2*%
X134840476Y-127170095D02*
X134840476Y-127817714D01*
X134840476Y-127817714D02*
X134878571Y-127893904D01*
X134878571Y-127893904D02*
X134916666Y-127932000D01*
X134916666Y-127932000D02*
X134992857Y-127970095D01*
X134992857Y-127970095D02*
X135145238Y-127970095D01*
X135145238Y-127970095D02*
X135221428Y-127932000D01*
X135221428Y-127932000D02*
X135259523Y-127893904D01*
X135259523Y-127893904D02*
X135297619Y-127817714D01*
X135297619Y-127817714D02*
X135297619Y-127170095D01*
X135640475Y-127246285D02*
X135678571Y-127208190D01*
X135678571Y-127208190D02*
X135754761Y-127170095D01*
X135754761Y-127170095D02*
X135945237Y-127170095D01*
X135945237Y-127170095D02*
X136021428Y-127208190D01*
X136021428Y-127208190D02*
X136059523Y-127246285D01*
X136059523Y-127246285D02*
X136097618Y-127322476D01*
X136097618Y-127322476D02*
X136097618Y-127398666D01*
X136097618Y-127398666D02*
X136059523Y-127512952D01*
X136059523Y-127512952D02*
X135602380Y-127970095D01*
X135602380Y-127970095D02*
X136097618Y-127970095D01*
D11*
%TO.C,C24*%
X162728571Y-123933690D02*
X162704762Y-123957500D01*
X162704762Y-123957500D02*
X162633333Y-123981309D01*
X162633333Y-123981309D02*
X162585714Y-123981309D01*
X162585714Y-123981309D02*
X162514286Y-123957500D01*
X162514286Y-123957500D02*
X162466667Y-123909880D01*
X162466667Y-123909880D02*
X162442857Y-123862261D01*
X162442857Y-123862261D02*
X162419048Y-123767023D01*
X162419048Y-123767023D02*
X162419048Y-123695595D01*
X162419048Y-123695595D02*
X162442857Y-123600357D01*
X162442857Y-123600357D02*
X162466667Y-123552738D01*
X162466667Y-123552738D02*
X162514286Y-123505119D01*
X162514286Y-123505119D02*
X162585714Y-123481309D01*
X162585714Y-123481309D02*
X162633333Y-123481309D01*
X162633333Y-123481309D02*
X162704762Y-123505119D01*
X162704762Y-123505119D02*
X162728571Y-123528928D01*
X162919048Y-123528928D02*
X162942857Y-123505119D01*
X162942857Y-123505119D02*
X162990476Y-123481309D01*
X162990476Y-123481309D02*
X163109524Y-123481309D01*
X163109524Y-123481309D02*
X163157143Y-123505119D01*
X163157143Y-123505119D02*
X163180952Y-123528928D01*
X163180952Y-123528928D02*
X163204762Y-123576547D01*
X163204762Y-123576547D02*
X163204762Y-123624166D01*
X163204762Y-123624166D02*
X163180952Y-123695595D01*
X163180952Y-123695595D02*
X162895238Y-123981309D01*
X162895238Y-123981309D02*
X163204762Y-123981309D01*
X163633333Y-123647976D02*
X163633333Y-123981309D01*
X163514285Y-123457500D02*
X163395238Y-123814642D01*
X163395238Y-123814642D02*
X163704761Y-123814642D01*
D10*
%TO.C,R4*%
X109045095Y-117933332D02*
X108664142Y-118199999D01*
X109045095Y-118390475D02*
X108245095Y-118390475D01*
X108245095Y-118390475D02*
X108245095Y-118085713D01*
X108245095Y-118085713D02*
X108283190Y-118009523D01*
X108283190Y-118009523D02*
X108321285Y-117971428D01*
X108321285Y-117971428D02*
X108397476Y-117933332D01*
X108397476Y-117933332D02*
X108511761Y-117933332D01*
X108511761Y-117933332D02*
X108587952Y-117971428D01*
X108587952Y-117971428D02*
X108626047Y-118009523D01*
X108626047Y-118009523D02*
X108664142Y-118085713D01*
X108664142Y-118085713D02*
X108664142Y-118390475D01*
X108511761Y-117247618D02*
X109045095Y-117247618D01*
X108207000Y-117438094D02*
X108778428Y-117628571D01*
X108778428Y-117628571D02*
X108778428Y-117133332D01*
D11*
%TO.C,R10*%
X115128571Y-124581309D02*
X114961905Y-124343214D01*
X114842857Y-124581309D02*
X114842857Y-124081309D01*
X114842857Y-124081309D02*
X115033333Y-124081309D01*
X115033333Y-124081309D02*
X115080952Y-124105119D01*
X115080952Y-124105119D02*
X115104762Y-124128928D01*
X115104762Y-124128928D02*
X115128571Y-124176547D01*
X115128571Y-124176547D02*
X115128571Y-124247976D01*
X115128571Y-124247976D02*
X115104762Y-124295595D01*
X115104762Y-124295595D02*
X115080952Y-124319404D01*
X115080952Y-124319404D02*
X115033333Y-124343214D01*
X115033333Y-124343214D02*
X114842857Y-124343214D01*
X115604762Y-124581309D02*
X115319048Y-124581309D01*
X115461905Y-124581309D02*
X115461905Y-124081309D01*
X115461905Y-124081309D02*
X115414286Y-124152738D01*
X115414286Y-124152738D02*
X115366667Y-124200357D01*
X115366667Y-124200357D02*
X115319048Y-124224166D01*
X115914285Y-124081309D02*
X115961904Y-124081309D01*
X115961904Y-124081309D02*
X116009523Y-124105119D01*
X116009523Y-124105119D02*
X116033333Y-124128928D01*
X116033333Y-124128928D02*
X116057142Y-124176547D01*
X116057142Y-124176547D02*
X116080952Y-124271785D01*
X116080952Y-124271785D02*
X116080952Y-124390833D01*
X116080952Y-124390833D02*
X116057142Y-124486071D01*
X116057142Y-124486071D02*
X116033333Y-124533690D01*
X116033333Y-124533690D02*
X116009523Y-124557500D01*
X116009523Y-124557500D02*
X115961904Y-124581309D01*
X115961904Y-124581309D02*
X115914285Y-124581309D01*
X115914285Y-124581309D02*
X115866666Y-124557500D01*
X115866666Y-124557500D02*
X115842857Y-124533690D01*
X115842857Y-124533690D02*
X115819047Y-124486071D01*
X115819047Y-124486071D02*
X115795238Y-124390833D01*
X115795238Y-124390833D02*
X115795238Y-124271785D01*
X115795238Y-124271785D02*
X115819047Y-124176547D01*
X115819047Y-124176547D02*
X115842857Y-124128928D01*
X115842857Y-124128928D02*
X115866666Y-124105119D01*
X115866666Y-124105119D02*
X115914285Y-124081309D01*
D10*
%TO.C,F1*%
X120683333Y-113851047D02*
X120416667Y-113851047D01*
X120416667Y-114270095D02*
X120416667Y-113470095D01*
X120416667Y-113470095D02*
X120797619Y-113470095D01*
X121521428Y-114270095D02*
X121064285Y-114270095D01*
X121292857Y-114270095D02*
X121292857Y-113470095D01*
X121292857Y-113470095D02*
X121216666Y-113584380D01*
X121216666Y-113584380D02*
X121140476Y-113660571D01*
X121140476Y-113660571D02*
X121064285Y-113698666D01*
%TO.C,C25*%
X157743904Y-122539285D02*
X157782000Y-122577381D01*
X157782000Y-122577381D02*
X157820095Y-122691666D01*
X157820095Y-122691666D02*
X157820095Y-122767857D01*
X157820095Y-122767857D02*
X157782000Y-122882143D01*
X157782000Y-122882143D02*
X157705809Y-122958333D01*
X157705809Y-122958333D02*
X157629619Y-122996428D01*
X157629619Y-122996428D02*
X157477238Y-123034524D01*
X157477238Y-123034524D02*
X157362952Y-123034524D01*
X157362952Y-123034524D02*
X157210571Y-122996428D01*
X157210571Y-122996428D02*
X157134380Y-122958333D01*
X157134380Y-122958333D02*
X157058190Y-122882143D01*
X157058190Y-122882143D02*
X157020095Y-122767857D01*
X157020095Y-122767857D02*
X157020095Y-122691666D01*
X157020095Y-122691666D02*
X157058190Y-122577381D01*
X157058190Y-122577381D02*
X157096285Y-122539285D01*
X157096285Y-122234524D02*
X157058190Y-122196428D01*
X157058190Y-122196428D02*
X157020095Y-122120238D01*
X157020095Y-122120238D02*
X157020095Y-121929762D01*
X157020095Y-121929762D02*
X157058190Y-121853571D01*
X157058190Y-121853571D02*
X157096285Y-121815476D01*
X157096285Y-121815476D02*
X157172476Y-121777381D01*
X157172476Y-121777381D02*
X157248666Y-121777381D01*
X157248666Y-121777381D02*
X157362952Y-121815476D01*
X157362952Y-121815476D02*
X157820095Y-122272619D01*
X157820095Y-122272619D02*
X157820095Y-121777381D01*
X157020095Y-121053571D02*
X157020095Y-121434523D01*
X157020095Y-121434523D02*
X157401047Y-121472619D01*
X157401047Y-121472619D02*
X157362952Y-121434523D01*
X157362952Y-121434523D02*
X157324857Y-121358333D01*
X157324857Y-121358333D02*
X157324857Y-121167857D01*
X157324857Y-121167857D02*
X157362952Y-121091666D01*
X157362952Y-121091666D02*
X157401047Y-121053571D01*
X157401047Y-121053571D02*
X157477238Y-121015476D01*
X157477238Y-121015476D02*
X157667714Y-121015476D01*
X157667714Y-121015476D02*
X157743904Y-121053571D01*
X157743904Y-121053571D02*
X157782000Y-121091666D01*
X157782000Y-121091666D02*
X157820095Y-121167857D01*
X157820095Y-121167857D02*
X157820095Y-121358333D01*
X157820095Y-121358333D02*
X157782000Y-121434523D01*
X157782000Y-121434523D02*
X157743904Y-121472619D01*
D11*
%TO.C,C18*%
X118633690Y-125846428D02*
X118657500Y-125870237D01*
X118657500Y-125870237D02*
X118681309Y-125941666D01*
X118681309Y-125941666D02*
X118681309Y-125989285D01*
X118681309Y-125989285D02*
X118657500Y-126060713D01*
X118657500Y-126060713D02*
X118609880Y-126108332D01*
X118609880Y-126108332D02*
X118562261Y-126132142D01*
X118562261Y-126132142D02*
X118467023Y-126155951D01*
X118467023Y-126155951D02*
X118395595Y-126155951D01*
X118395595Y-126155951D02*
X118300357Y-126132142D01*
X118300357Y-126132142D02*
X118252738Y-126108332D01*
X118252738Y-126108332D02*
X118205119Y-126060713D01*
X118205119Y-126060713D02*
X118181309Y-125989285D01*
X118181309Y-125989285D02*
X118181309Y-125941666D01*
X118181309Y-125941666D02*
X118205119Y-125870237D01*
X118205119Y-125870237D02*
X118228928Y-125846428D01*
X118681309Y-125370237D02*
X118681309Y-125655951D01*
X118681309Y-125513094D02*
X118181309Y-125513094D01*
X118181309Y-125513094D02*
X118252738Y-125560713D01*
X118252738Y-125560713D02*
X118300357Y-125608332D01*
X118300357Y-125608332D02*
X118324166Y-125655951D01*
X118395595Y-125084523D02*
X118371785Y-125132142D01*
X118371785Y-125132142D02*
X118347976Y-125155952D01*
X118347976Y-125155952D02*
X118300357Y-125179761D01*
X118300357Y-125179761D02*
X118276547Y-125179761D01*
X118276547Y-125179761D02*
X118228928Y-125155952D01*
X118228928Y-125155952D02*
X118205119Y-125132142D01*
X118205119Y-125132142D02*
X118181309Y-125084523D01*
X118181309Y-125084523D02*
X118181309Y-124989285D01*
X118181309Y-124989285D02*
X118205119Y-124941666D01*
X118205119Y-124941666D02*
X118228928Y-124917857D01*
X118228928Y-124917857D02*
X118276547Y-124894047D01*
X118276547Y-124894047D02*
X118300357Y-124894047D01*
X118300357Y-124894047D02*
X118347976Y-124917857D01*
X118347976Y-124917857D02*
X118371785Y-124941666D01*
X118371785Y-124941666D02*
X118395595Y-124989285D01*
X118395595Y-124989285D02*
X118395595Y-125084523D01*
X118395595Y-125084523D02*
X118419404Y-125132142D01*
X118419404Y-125132142D02*
X118443214Y-125155952D01*
X118443214Y-125155952D02*
X118490833Y-125179761D01*
X118490833Y-125179761D02*
X118586071Y-125179761D01*
X118586071Y-125179761D02*
X118633690Y-125155952D01*
X118633690Y-125155952D02*
X118657500Y-125132142D01*
X118657500Y-125132142D02*
X118681309Y-125084523D01*
X118681309Y-125084523D02*
X118681309Y-124989285D01*
X118681309Y-124989285D02*
X118657500Y-124941666D01*
X118657500Y-124941666D02*
X118633690Y-124917857D01*
X118633690Y-124917857D02*
X118586071Y-124894047D01*
X118586071Y-124894047D02*
X118490833Y-124894047D01*
X118490833Y-124894047D02*
X118443214Y-124917857D01*
X118443214Y-124917857D02*
X118419404Y-124941666D01*
X118419404Y-124941666D02*
X118395595Y-124989285D01*
D10*
%TO.C,C1*%
X147866667Y-132193904D02*
X147828571Y-132232000D01*
X147828571Y-132232000D02*
X147714286Y-132270095D01*
X147714286Y-132270095D02*
X147638095Y-132270095D01*
X147638095Y-132270095D02*
X147523809Y-132232000D01*
X147523809Y-132232000D02*
X147447619Y-132155809D01*
X147447619Y-132155809D02*
X147409524Y-132079619D01*
X147409524Y-132079619D02*
X147371428Y-131927238D01*
X147371428Y-131927238D02*
X147371428Y-131812952D01*
X147371428Y-131812952D02*
X147409524Y-131660571D01*
X147409524Y-131660571D02*
X147447619Y-131584380D01*
X147447619Y-131584380D02*
X147523809Y-131508190D01*
X147523809Y-131508190D02*
X147638095Y-131470095D01*
X147638095Y-131470095D02*
X147714286Y-131470095D01*
X147714286Y-131470095D02*
X147828571Y-131508190D01*
X147828571Y-131508190D02*
X147866667Y-131546285D01*
X148628571Y-132270095D02*
X148171428Y-132270095D01*
X148400000Y-132270095D02*
X148400000Y-131470095D01*
X148400000Y-131470095D02*
X148323809Y-131584380D01*
X148323809Y-131584380D02*
X148247619Y-131660571D01*
X148247619Y-131660571D02*
X148171428Y-131698666D01*
D13*
%TO.C,J2*%
X106700000Y-106450000D02*
X111900000Y-106450000D01*
X111900000Y-106450000D02*
X111900000Y-108550000D01*
X165200000Y-106450000D02*
X159900000Y-106450000D01*
%TO.C,C7*%
X110487836Y-108160000D02*
X110272164Y-108160000D01*
X110487836Y-107440000D02*
X110272164Y-107440000D01*
D14*
%TO.C,U8*%
X158450000Y-123000000D02*
X158450000Y-120700000D01*
X161450000Y-123000000D02*
X158450000Y-123000000D01*
X158450000Y-120700000D02*
X161450000Y-120700000D01*
X161450000Y-120700000D02*
X161450000Y-123000000D01*
D15*
X158475000Y-124550000D02*
G75*
G03*
X158475000Y-124550000I-125000J0D01*
G01*
D13*
%TO.C,R1*%
X149820000Y-129943641D02*
X149820000Y-129636359D01*
X150580000Y-129943641D02*
X150580000Y-129636359D01*
D14*
%TO.C,U6*%
X118525000Y-120650000D02*
X119775000Y-120650000D01*
X120125000Y-120690000D02*
X120275000Y-120690000D01*
X120125000Y-123610000D02*
X120125000Y-120690000D01*
X120275000Y-120690000D02*
X120275000Y-123610000D01*
X120275000Y-123610000D02*
X120125000Y-123610000D01*
D13*
%TO.C,C19*%
X116434420Y-120640000D02*
X116715580Y-120640000D01*
X116434420Y-121660000D02*
X116715580Y-121660000D01*
%TO.C,C20*%
X115572164Y-115660000D02*
X115787836Y-115660000D01*
X115572164Y-114940000D02*
X115787836Y-114940000D01*
%TO.C,C11*%
X127072164Y-125990000D02*
X127287836Y-125990000D01*
X127072164Y-126710000D02*
X127287836Y-126710000D01*
%TO.C,R6*%
X109030000Y-121456359D02*
X109030000Y-121763641D01*
X108270000Y-121456359D02*
X108270000Y-121763641D01*
D14*
%TO.C,J5*%
X122090000Y-130200000D02*
X122090000Y-131450000D01*
X122090000Y-134170000D02*
X122090000Y-135450000D01*
X122090000Y-135450000D02*
X131670000Y-135450000D01*
X131670000Y-130200000D02*
X131670000Y-131450000D01*
X131670000Y-135450000D02*
X131670000Y-134170000D01*
D13*
%TO.C,C14*%
X108390000Y-124390580D02*
X108390000Y-124109420D01*
X109410000Y-124390580D02*
X109410000Y-124109420D01*
%TO.C,F2*%
X123499721Y-125840000D02*
X123825279Y-125840000D01*
X123499721Y-126860000D02*
X123825279Y-126860000D01*
%TO.C,C15*%
X120540000Y-129887836D02*
X120540000Y-129672164D01*
X121260000Y-129887836D02*
X121260000Y-129672164D01*
%TO.C,R14*%
X162868641Y-123280000D02*
X162561359Y-123280000D01*
X162868641Y-122520000D02*
X162561359Y-122520000D01*
%TO.C,C21*%
X112886252Y-116910000D02*
X111463748Y-116910000D01*
X112886252Y-115090000D02*
X111463748Y-115090000D01*
%TO.C,C13*%
X116715580Y-123460000D02*
X116434420Y-123460000D01*
X116715580Y-122440000D02*
X116434420Y-122440000D01*
%TO.C,R7*%
X109320000Y-119693641D02*
X109320000Y-119386359D01*
X110080000Y-119693641D02*
X110080000Y-119386359D01*
%TO.C,C23*%
X162852836Y-120035000D02*
X162637164Y-120035000D01*
X162852836Y-119315000D02*
X162637164Y-119315000D01*
D14*
%TO.C,L1*%
X111150000Y-119350000D02*
X111150000Y-118850000D01*
X114150000Y-119350000D02*
X114150000Y-118850000D01*
D13*
%TO.C,C5*%
X158477836Y-112885000D02*
X158262164Y-112885000D01*
X158477836Y-112165000D02*
X158262164Y-112165000D01*
%TO.C,C10*%
X157515000Y-114802836D02*
X157515000Y-114587164D01*
X158235000Y-114802836D02*
X158235000Y-114587164D01*
%TO.C,R3*%
X156495000Y-127028641D02*
X156495000Y-126721359D01*
X157255000Y-127028641D02*
X157255000Y-126721359D01*
D14*
%TO.C,Q1*%
X118450000Y-127000000D02*
X118450000Y-126700000D01*
X121350000Y-127000000D02*
X118450000Y-127000000D01*
X118450000Y-126700000D02*
X121350000Y-126700000D01*
X121350000Y-126700000D02*
X121350000Y-127000000D01*
%TO.C,U1*%
X151575000Y-129100000D02*
X152825000Y-129100000D01*
X153175000Y-129140000D02*
X153325000Y-129140000D01*
X153175000Y-132060000D02*
X153175000Y-129140000D01*
X153325000Y-129140000D02*
X153325000Y-132060000D01*
X153325000Y-132060000D02*
X153175000Y-132060000D01*
D13*
%TO.C,C22*%
X157090000Y-119687836D02*
X157090000Y-119472164D01*
X157810000Y-119687836D02*
X157810000Y-119472164D01*
D16*
%TO.C,S1*%
X114900000Y-129700000D02*
X115225690Y-129700000D01*
X114900000Y-130280000D02*
X114900000Y-129700000D01*
X116270000Y-132260000D02*
X118030000Y-132260000D01*
X119074000Y-129700000D02*
X119400000Y-129700000D01*
X119400000Y-129700000D02*
X119400000Y-130280000D01*
D14*
X115982400Y-128676800D02*
G75*
G03*
X115982400Y-128676800I-100000J0D01*
G01*
D13*
%TO.C,R13*%
X162863641Y-121705000D02*
X162556359Y-121705000D01*
X162863641Y-120945000D02*
X162556359Y-120945000D01*
D15*
%TO.C,X1*%
X163000000Y-113600000D02*
G75*
G03*
X163000000Y-113600000I-125000J0D01*
G01*
D13*
%TO.C,U3*%
X130778300Y-124023750D02*
X130778300Y-111857150D01*
X122421700Y-111857150D02*
X122421700Y-124023750D01*
G36*
X120850000Y-125090450D02*
G01*
X121050000Y-125090450D01*
X121050000Y-125190450D01*
X120850000Y-125190450D01*
X120850000Y-125090450D01*
G37*
G36*
X121450000Y-125090450D02*
G01*
X121650000Y-125090450D01*
X121650000Y-125190450D01*
X121450000Y-125190450D01*
X121450000Y-125090450D01*
G37*
G36*
X120750000Y-124990450D02*
G01*
X121750000Y-124990450D01*
X121750000Y-125090450D01*
X120750000Y-125090450D01*
X120750000Y-124990450D01*
G37*
G36*
X120750000Y-124890450D02*
G01*
X121150000Y-124890450D01*
X121150000Y-124990450D01*
X120750000Y-124990450D01*
X120750000Y-124890450D01*
G37*
G36*
X121650000Y-124890450D02*
G01*
X121750000Y-124890450D01*
X121750000Y-124990450D01*
X121650000Y-124990450D01*
X121650000Y-124890450D01*
G37*
G36*
X120850000Y-124790450D02*
G01*
X121050000Y-124790450D01*
X121050000Y-124890450D01*
X120850000Y-124890450D01*
X120850000Y-124790450D01*
G37*
G36*
X121750000Y-124790450D02*
G01*
X121850000Y-124790450D01*
X121850000Y-124890450D01*
X121750000Y-124890450D01*
X121750000Y-124790450D01*
G37*
G36*
X121850000Y-124690450D02*
G01*
X121950000Y-124690450D01*
X121950000Y-124790450D01*
X121850000Y-124790450D01*
X121850000Y-124690450D01*
G37*
G36*
X120450000Y-124590450D02*
G01*
X120650000Y-124590450D01*
X120650000Y-124690450D01*
X120450000Y-124690450D01*
X120450000Y-124590450D01*
G37*
G36*
X121650000Y-124590450D02*
G01*
X121750000Y-124590450D01*
X121750000Y-124790450D01*
X121650000Y-124790450D01*
X121650000Y-124590450D01*
G37*
G36*
X120650000Y-124490450D02*
G01*
X120750000Y-124490450D01*
X120750000Y-124890450D01*
X120650000Y-124890450D01*
X120650000Y-124490450D01*
G37*
G36*
X120850000Y-124490450D02*
G01*
X121150000Y-124490450D01*
X121150000Y-124590450D01*
X120850000Y-124590450D01*
X120850000Y-124490450D01*
G37*
G36*
X121350000Y-124490450D02*
G01*
X121650000Y-124490450D01*
X121650000Y-124590450D01*
X121350000Y-124590450D01*
X121350000Y-124490450D01*
G37*
G36*
X121750000Y-124490450D02*
G01*
X121850000Y-124490450D01*
X121850000Y-124590450D01*
X121750000Y-124590450D01*
X121750000Y-124490450D01*
G37*
G36*
X120750000Y-124390450D02*
G01*
X120850000Y-124390450D01*
X120850000Y-124490450D01*
X120750000Y-124490450D01*
X120750000Y-124390450D01*
G37*
G36*
X121150000Y-124390450D02*
G01*
X121350000Y-124390450D01*
X121350000Y-124490450D01*
X121150000Y-124490450D01*
X121150000Y-124390450D01*
G37*
G36*
X121650000Y-124390450D02*
G01*
X121750000Y-124390450D01*
X121750000Y-124490450D01*
X121650000Y-124490450D01*
X121650000Y-124390450D01*
G37*
G36*
X120450000Y-124290450D02*
G01*
X120550000Y-124290450D01*
X120550000Y-124590450D01*
X120450000Y-124590450D01*
X120450000Y-124290450D01*
G37*
G36*
X120650000Y-124290450D02*
G01*
X120750000Y-124290450D01*
X120750000Y-124390450D01*
X120650000Y-124390450D01*
X120650000Y-124290450D01*
G37*
G36*
X121750000Y-124290450D02*
G01*
X121850000Y-124290450D01*
X121850000Y-124390450D01*
X121750000Y-124390450D01*
X121750000Y-124290450D01*
G37*
G36*
X121950000Y-124290450D02*
G01*
X122050000Y-124290450D01*
X122050000Y-124690450D01*
X121950000Y-124690450D01*
X121950000Y-124290450D01*
G37*
G36*
X121050000Y-124190450D02*
G01*
X121150000Y-124190450D01*
X121150000Y-124290450D01*
X121050000Y-124290450D01*
X121050000Y-124190450D01*
G37*
G36*
X121350000Y-124190450D02*
G01*
X121450000Y-124190450D01*
X121450000Y-124290450D01*
X121350000Y-124290450D01*
X121350000Y-124190450D01*
G37*
G36*
X120550000Y-124090450D02*
G01*
X120650000Y-124090450D01*
X120650000Y-124290450D01*
X120550000Y-124290450D01*
X120550000Y-124090450D01*
G37*
G36*
X120750000Y-124090450D02*
G01*
X120950000Y-124090450D01*
X120950000Y-124190450D01*
X120750000Y-124190450D01*
X120750000Y-124090450D01*
G37*
G36*
X121550000Y-124090450D02*
G01*
X121750000Y-124090450D01*
X121750000Y-124190450D01*
X121550000Y-124190450D01*
X121550000Y-124090450D01*
G37*
G36*
X121850000Y-124090450D02*
G01*
X121950000Y-124090450D01*
X121950000Y-124290450D01*
X121850000Y-124290450D01*
X121850000Y-124090450D01*
G37*
G36*
X120650000Y-123990450D02*
G01*
X120750000Y-123990450D01*
X120750000Y-124090450D01*
X120650000Y-124090450D01*
X120650000Y-123990450D01*
G37*
G36*
X120950000Y-123990450D02*
G01*
X121050000Y-123990450D01*
X121050000Y-124090450D01*
X120950000Y-124090450D01*
X120950000Y-123990450D01*
G37*
G36*
X121450000Y-123990450D02*
G01*
X121550000Y-123990450D01*
X121550000Y-124090450D01*
X121450000Y-124090450D01*
X121450000Y-123990450D01*
G37*
G36*
X121750000Y-123990450D02*
G01*
X121850000Y-123990450D01*
X121850000Y-124090450D01*
X121750000Y-124090450D01*
X121750000Y-123990450D01*
G37*
G36*
X120650000Y-123890450D02*
G01*
X121050000Y-123890450D01*
X121050000Y-123990450D01*
X120650000Y-123990450D01*
X120650000Y-123890450D01*
G37*
G36*
X121450000Y-123890450D02*
G01*
X121850000Y-123890450D01*
X121850000Y-123990450D01*
X121450000Y-123990450D01*
X121450000Y-123890450D01*
G37*
G36*
X120750000Y-123790450D02*
G01*
X120950000Y-123790450D01*
X120950000Y-123890450D01*
X120750000Y-123890450D01*
X120750000Y-123790450D01*
G37*
G36*
X121550000Y-123790450D02*
G01*
X121750000Y-123790450D01*
X121750000Y-123890450D01*
X121550000Y-123890450D01*
X121550000Y-123790450D01*
G37*
G36*
X120950000Y-123690450D02*
G01*
X121550000Y-123690450D01*
X121550000Y-123790450D01*
X120950000Y-123790450D01*
X120950000Y-123690450D01*
G37*
D11*
X128187500Y-125611250D02*
X127806500Y-125611250D01*
X127806500Y-125357250D01*
X128187500Y-125357250D01*
X128187500Y-125611250D01*
G36*
X128187500Y-125611250D02*
G01*
X127806500Y-125611250D01*
X127806500Y-125357250D01*
X128187500Y-125357250D01*
X128187500Y-125611250D01*
G37*
X127628700Y-110523650D02*
X127247700Y-110523650D01*
X127247700Y-110269650D01*
X127628700Y-110269650D01*
X127628700Y-110523650D01*
G36*
X127628700Y-110523650D02*
G01*
X127247700Y-110523650D01*
X127247700Y-110269650D01*
X127628700Y-110269650D01*
X127628700Y-110523650D01*
G37*
D15*
%TO.C,U4*%
X110375000Y-121700000D02*
G75*
G03*
X110375000Y-121700000I-125000J0D01*
G01*
D13*
%TO.C,C17*%
X121127836Y-120110000D02*
X120912164Y-120110000D01*
X121127836Y-119390000D02*
X120912164Y-119390000D01*
D14*
%TO.C,U5*%
X114800000Y-127250000D02*
X114800000Y-126500000D01*
X117700000Y-127250000D02*
X114800000Y-127250000D01*
X114800000Y-126500000D02*
X117700000Y-126500000D01*
X117700000Y-126500000D02*
X117700000Y-127250000D01*
D15*
X114675000Y-128375000D02*
G75*
G03*
X114675000Y-128375000I-125000J0D01*
G01*
D13*
%TO.C,C8*%
X147860000Y-128622164D02*
X147860000Y-128837836D01*
X147140000Y-128622164D02*
X147140000Y-128837836D01*
D15*
%TO.C,U7*%
X115675000Y-116350000D02*
G75*
G03*
X115675000Y-116350000I-125000J0D01*
G01*
D12*
%TO.C,J4*%
X115475000Y-109935000D02*
X115475000Y-113014000D01*
X115475000Y-109935000D02*
X116335330Y-109935000D01*
X115475000Y-114435000D02*
X119675000Y-114435000D01*
X119675000Y-109935000D02*
X118841670Y-109935000D01*
X119675000Y-109935000D02*
X119675000Y-112929330D01*
X116384350Y-109205000D02*
G75*
G03*
X116384350Y-109205000I-63350J0D01*
G01*
D13*
%TO.C,R8*%
X133353641Y-130480000D02*
X133046359Y-130480000D01*
X133353641Y-129720000D02*
X133046359Y-129720000D01*
%TO.C,R11*%
X133353641Y-131830000D02*
X133046359Y-131830000D01*
X133353641Y-131070000D02*
X133046359Y-131070000D01*
%TO.C,U2*%
G36*
X133050000Y-125350000D02*
G01*
X133650000Y-125350000D01*
X133650000Y-125450000D01*
X133050000Y-125450000D01*
X133050000Y-125350000D01*
G37*
G36*
X133650000Y-125450000D02*
G01*
X133850000Y-125450000D01*
X133850000Y-125550000D01*
X133650000Y-125550000D01*
X133650000Y-125450000D01*
G37*
G36*
X132850000Y-125450000D02*
G01*
X133050000Y-125450000D01*
X133050000Y-125550000D01*
X132850000Y-125550000D01*
X132850000Y-125450000D01*
G37*
G36*
X133550000Y-125550000D02*
G01*
X133950000Y-125550000D01*
X133950000Y-125650000D01*
X133550000Y-125650000D01*
X133550000Y-125550000D01*
G37*
G36*
X132750000Y-125550000D02*
G01*
X133150000Y-125550000D01*
X133150000Y-125650000D01*
X132750000Y-125650000D01*
X132750000Y-125550000D01*
G37*
G36*
X133850000Y-125650000D02*
G01*
X133950000Y-125650000D01*
X133950000Y-125750000D01*
X133850000Y-125750000D01*
X133850000Y-125650000D01*
G37*
G36*
X133550000Y-125650000D02*
G01*
X133650000Y-125650000D01*
X133650000Y-125750000D01*
X133550000Y-125750000D01*
X133550000Y-125650000D01*
G37*
G36*
X133050000Y-125650000D02*
G01*
X133150000Y-125650000D01*
X133150000Y-125750000D01*
X133050000Y-125750000D01*
X133050000Y-125650000D01*
G37*
G36*
X132750000Y-125650000D02*
G01*
X132850000Y-125650000D01*
X132850000Y-125750000D01*
X132750000Y-125750000D01*
X132750000Y-125650000D01*
G37*
G36*
X133950000Y-125750000D02*
G01*
X134050000Y-125750000D01*
X134050000Y-125950000D01*
X133950000Y-125950000D01*
X133950000Y-125750000D01*
G37*
G36*
X133650000Y-125750000D02*
G01*
X133850000Y-125750000D01*
X133850000Y-125850000D01*
X133650000Y-125850000D01*
X133650000Y-125750000D01*
G37*
G36*
X132850000Y-125750000D02*
G01*
X133050000Y-125750000D01*
X133050000Y-125850000D01*
X132850000Y-125850000D01*
X132850000Y-125750000D01*
G37*
G36*
X132650000Y-125750000D02*
G01*
X132750000Y-125750000D01*
X132750000Y-125950000D01*
X132650000Y-125950000D01*
X132650000Y-125750000D01*
G37*
G36*
X133450000Y-125850000D02*
G01*
X133550000Y-125850000D01*
X133550000Y-125950000D01*
X133450000Y-125950000D01*
X133450000Y-125850000D01*
G37*
G36*
X133150000Y-125850000D02*
G01*
X133250000Y-125850000D01*
X133250000Y-125950000D01*
X133150000Y-125950000D01*
X133150000Y-125850000D01*
G37*
G36*
X134050000Y-125950000D02*
G01*
X134150000Y-125950000D01*
X134150000Y-126350000D01*
X134050000Y-126350000D01*
X134050000Y-125950000D01*
G37*
G36*
X133850000Y-125950000D02*
G01*
X133950000Y-125950000D01*
X133950000Y-126050000D01*
X133850000Y-126050000D01*
X133850000Y-125950000D01*
G37*
G36*
X132750000Y-125950000D02*
G01*
X132850000Y-125950000D01*
X132850000Y-126050000D01*
X132750000Y-126050000D01*
X132750000Y-125950000D01*
G37*
G36*
X132550000Y-125950000D02*
G01*
X132650000Y-125950000D01*
X132650000Y-126250000D01*
X132550000Y-126250000D01*
X132550000Y-125950000D01*
G37*
G36*
X133750000Y-126050000D02*
G01*
X133850000Y-126050000D01*
X133850000Y-126150000D01*
X133750000Y-126150000D01*
X133750000Y-126050000D01*
G37*
G36*
X133250000Y-126050000D02*
G01*
X133450000Y-126050000D01*
X133450000Y-126150000D01*
X133250000Y-126150000D01*
X133250000Y-126050000D01*
G37*
G36*
X132850000Y-126050000D02*
G01*
X132950000Y-126050000D01*
X132950000Y-126150000D01*
X132850000Y-126150000D01*
X132850000Y-126050000D01*
G37*
G36*
X133850000Y-126150000D02*
G01*
X133950000Y-126150000D01*
X133950000Y-126250000D01*
X133850000Y-126250000D01*
X133850000Y-126150000D01*
G37*
G36*
X133450000Y-126150000D02*
G01*
X133750000Y-126150000D01*
X133750000Y-126250000D01*
X133450000Y-126250000D01*
X133450000Y-126150000D01*
G37*
G36*
X132950000Y-126150000D02*
G01*
X133250000Y-126150000D01*
X133250000Y-126250000D01*
X132950000Y-126250000D01*
X132950000Y-126150000D01*
G37*
G36*
X132750000Y-126150000D02*
G01*
X132850000Y-126150000D01*
X132850000Y-126550000D01*
X132750000Y-126550000D01*
X132750000Y-126150000D01*
G37*
G36*
X133750000Y-126250000D02*
G01*
X133850000Y-126250000D01*
X133850000Y-126450000D01*
X133750000Y-126450000D01*
X133750000Y-126250000D01*
G37*
G36*
X132550000Y-126250000D02*
G01*
X132750000Y-126250000D01*
X132750000Y-126350000D01*
X132550000Y-126350000D01*
X132550000Y-126250000D01*
G37*
G36*
X133950000Y-126350000D02*
G01*
X134050000Y-126350000D01*
X134050000Y-126450000D01*
X133950000Y-126450000D01*
X133950000Y-126350000D01*
G37*
G36*
X133850000Y-126450000D02*
G01*
X133950000Y-126450000D01*
X133950000Y-126550000D01*
X133850000Y-126550000D01*
X133850000Y-126450000D01*
G37*
G36*
X132950000Y-126450000D02*
G01*
X133150000Y-126450000D01*
X133150000Y-126550000D01*
X132950000Y-126550000D01*
X132950000Y-126450000D01*
G37*
G36*
X133750000Y-126550000D02*
G01*
X133850000Y-126550000D01*
X133850000Y-126650000D01*
X133750000Y-126650000D01*
X133750000Y-126550000D01*
G37*
G36*
X132850000Y-126550000D02*
G01*
X133250000Y-126550000D01*
X133250000Y-126650000D01*
X132850000Y-126650000D01*
X132850000Y-126550000D01*
G37*
G36*
X132850000Y-126650000D02*
G01*
X133850000Y-126650000D01*
X133850000Y-126750000D01*
X132850000Y-126750000D01*
X132850000Y-126650000D01*
G37*
G36*
X133550000Y-126750000D02*
G01*
X133750000Y-126750000D01*
X133750000Y-126850000D01*
X133550000Y-126850000D01*
X133550000Y-126750000D01*
G37*
G36*
X132950000Y-126750000D02*
G01*
X133150000Y-126750000D01*
X133150000Y-126850000D01*
X132950000Y-126850000D01*
X132950000Y-126750000D01*
G37*
X154560000Y-110840000D02*
X154110000Y-110840000D01*
X134340000Y-110840000D02*
X134790000Y-110840000D01*
X154560000Y-111290000D02*
X154560000Y-110840000D01*
X134340000Y-111290000D02*
X134340000Y-110840000D01*
X154560000Y-124610000D02*
X154560000Y-125060000D01*
X154560000Y-125060000D02*
X154110000Y-125060000D01*
%TO.C,C24*%
X162852836Y-124885000D02*
X162637164Y-124885000D01*
X162852836Y-124165000D02*
X162637164Y-124165000D01*
%TO.C,R4*%
X108270000Y-119693641D02*
X108270000Y-119386359D01*
X109030000Y-119693641D02*
X109030000Y-119386359D01*
%TO.C,R10*%
X116956359Y-123970000D02*
X117263641Y-123970000D01*
X116956359Y-124730000D02*
X117263641Y-124730000D01*
%TO.C,F1*%
X121860000Y-116197936D02*
X121860000Y-117402064D01*
X120040000Y-116197936D02*
X120040000Y-117402064D01*
%TO.C,C25*%
X157810000Y-124012164D02*
X157810000Y-124227836D01*
X157090000Y-124012164D02*
X157090000Y-124227836D01*
%TO.C,C18*%
X119277836Y-124810000D02*
X119062164Y-124810000D01*
X119277836Y-124090000D02*
X119062164Y-124090000D01*
%TO.C,C1*%
X149642164Y-131540000D02*
X149857836Y-131540000D01*
X149642164Y-132260000D02*
X149857836Y-132260000D01*
%TD*%
M02*
