%TF.GenerationSoftware,KiCad,Pcbnew,7.0.1*%
%TF.CreationDate,2025-01-04T09:06:00-08:00*%
%TF.ProjectId,project,70726f6a-6563-4742-9e6b-696361645f70,rev?*%
%TF.SameCoordinates,Original*%
%TF.FileFunction,Legend,Top*%
%TF.FilePolarity,Positive*%
%FSLAX46Y46*%
G04 Gerber Fmt 4.6, Leading zero omitted, Abs format (unit mm)*
G04 Created by KiCad (PCBNEW 7.0.1) date 2025-01-04 09:06:00*
%MOMM*%
%LPD*%
G01*
G04 APERTURE LIST*
%ADD10C,0.150000*%
G04 APERTURE END LIST*
D10*
G36*
X125472240Y-88911878D02*
G01*
X125502645Y-88942283D01*
X125541139Y-89019269D01*
X125584523Y-89192805D01*
X125584523Y-89412432D01*
X125541139Y-89585964D01*
X125502645Y-89662953D01*
X125472237Y-89693361D01*
X125403723Y-89727619D01*
X125343896Y-89727619D01*
X125275378Y-89693360D01*
X125244970Y-89662951D01*
X125206478Y-89585966D01*
X125163095Y-89412432D01*
X125163095Y-89192806D01*
X125206478Y-89019272D01*
X125244973Y-88942283D01*
X125275378Y-88911877D01*
X125343894Y-88877619D01*
X125403722Y-88877619D01*
X125472240Y-88911878D01*
G37*
G36*
X130322619Y-87609924D02*
G01*
X130322619Y-88088648D01*
X130284676Y-88107619D01*
X130129611Y-88107619D01*
X130061093Y-88073360D01*
X130030685Y-88042951D01*
X129996429Y-87974437D01*
X129996429Y-87724134D01*
X130030688Y-87655616D01*
X130061093Y-87625210D01*
X130129609Y-87590952D01*
X130284675Y-87590952D01*
X130322619Y-87609924D01*
G37*
G36*
X129417857Y-87609924D02*
G01*
X129417857Y-88088648D01*
X129379914Y-88107619D01*
X129224849Y-88107619D01*
X129156331Y-88073360D01*
X129125923Y-88042951D01*
X129091667Y-87974437D01*
X129091667Y-87724134D01*
X129125926Y-87655616D01*
X129156331Y-87625210D01*
X129224847Y-87590952D01*
X129379913Y-87590952D01*
X129417857Y-87609924D01*
G37*
G36*
X123322618Y-87609924D02*
G01*
X123322618Y-88088648D01*
X123284675Y-88107619D01*
X123129610Y-88107619D01*
X123061092Y-88073360D01*
X123030684Y-88042951D01*
X122996428Y-87974437D01*
X122996428Y-87724134D01*
X123030687Y-87655616D01*
X123061092Y-87625210D01*
X123129608Y-87590952D01*
X123284674Y-87590952D01*
X123322618Y-87609924D01*
G37*
G36*
X122417856Y-87609924D02*
G01*
X122417856Y-88088648D01*
X122379913Y-88107619D01*
X122224848Y-88107619D01*
X122156330Y-88073360D01*
X122125922Y-88042951D01*
X122091666Y-87974437D01*
X122091666Y-87724134D01*
X122125925Y-87655616D01*
X122156330Y-87625210D01*
X122224846Y-87590952D01*
X122379912Y-87590952D01*
X122417856Y-87609924D01*
G37*
G36*
X131210336Y-87625211D02*
G01*
X131240741Y-87655616D01*
X131275000Y-87724132D01*
X131275000Y-87974436D01*
X131240741Y-88042953D01*
X131210333Y-88073361D01*
X131141819Y-88107619D01*
X131034373Y-88107619D01*
X130965855Y-88073360D01*
X130935447Y-88042951D01*
X130901191Y-87974437D01*
X130901191Y-87724134D01*
X130935450Y-87655616D01*
X130965855Y-87625210D01*
X131034371Y-87590952D01*
X131141818Y-87590952D01*
X131210336Y-87625211D01*
G37*
G36*
X128496050Y-87625211D02*
G01*
X128526455Y-87655616D01*
X128560714Y-87724132D01*
X128560714Y-87974436D01*
X128526455Y-88042953D01*
X128496047Y-88073361D01*
X128427533Y-88107619D01*
X128320087Y-88107619D01*
X128251569Y-88073360D01*
X128221161Y-88042951D01*
X128186905Y-87974437D01*
X128186905Y-87724134D01*
X128221164Y-87655616D01*
X128251569Y-87625210D01*
X128320085Y-87590952D01*
X128427532Y-87590952D01*
X128496050Y-87625211D01*
G37*
G36*
X124210335Y-87625211D02*
G01*
X124240740Y-87655616D01*
X124274999Y-87724132D01*
X124274999Y-87974436D01*
X124240740Y-88042953D01*
X124210332Y-88073361D01*
X124141818Y-88107619D01*
X124034372Y-88107619D01*
X123965854Y-88073360D01*
X123935446Y-88042951D01*
X123901190Y-87974437D01*
X123901190Y-87724134D01*
X123935449Y-87655616D01*
X123965854Y-87625210D01*
X124034370Y-87590952D01*
X124141817Y-87590952D01*
X124210335Y-87625211D01*
G37*
G36*
X121532192Y-87619473D02*
G01*
X121560713Y-87676513D01*
X121560713Y-87692562D01*
X121234523Y-87757800D01*
X121234523Y-87676515D01*
X121263044Y-87619472D01*
X121320084Y-87590952D01*
X121475150Y-87590952D01*
X121532192Y-87619473D01*
G37*
G36*
X126817371Y-86201904D02*
G01*
X126549295Y-86201904D01*
X126683333Y-85799790D01*
X126817371Y-86201904D01*
G37*
G36*
X128924621Y-85671878D02*
G01*
X128955026Y-85702283D01*
X128993520Y-85779269D01*
X129036904Y-85952805D01*
X129036904Y-86172432D01*
X128993520Y-86345964D01*
X128955026Y-86422953D01*
X128924618Y-86453361D01*
X128856104Y-86487619D01*
X128796277Y-86487619D01*
X128727759Y-86453360D01*
X128697351Y-86422951D01*
X128658859Y-86345966D01*
X128615476Y-86172432D01*
X128615476Y-85952806D01*
X128658859Y-85779272D01*
X128697354Y-85702283D01*
X128727759Y-85671877D01*
X128796275Y-85637619D01*
X128856103Y-85637619D01*
X128924621Y-85671878D01*
G37*
G36*
X122880914Y-86151980D02*
G01*
X122907407Y-86178473D01*
X122941666Y-86246989D01*
X122941666Y-86354436D01*
X122907407Y-86422953D01*
X122876999Y-86453361D01*
X122808485Y-86487619D01*
X122520238Y-86487619D01*
X122520238Y-86113809D01*
X122766401Y-86113809D01*
X122880914Y-86151980D01*
G37*
G36*
X122829383Y-85671878D02*
G01*
X122859788Y-85702283D01*
X122894047Y-85770799D01*
X122894047Y-85830627D01*
X122859788Y-85899144D01*
X122829381Y-85929551D01*
X122762150Y-85963166D01*
X122759274Y-85963063D01*
X122758015Y-85963809D01*
X122520238Y-85963809D01*
X122520238Y-85637619D01*
X122760865Y-85637619D01*
X122829383Y-85671878D01*
G37*
G36*
X131995834Y-90292857D02*
G01*
X119704166Y-90292857D01*
X119704166Y-89813743D01*
X124010725Y-89813743D01*
X124014252Y-89821466D01*
X124014858Y-89829935D01*
X124023221Y-89841107D01*
X124029021Y-89853807D01*
X124036164Y-89858397D01*
X124041252Y-89865194D01*
X124054328Y-89870071D01*
X124066073Y-89877619D01*
X124074564Y-89877619D01*
X124082519Y-89880586D01*
X124096158Y-89877619D01*
X124717924Y-89877619D01*
X124749402Y-89868376D01*
X124778244Y-89835090D01*
X124784512Y-89791495D01*
X124766216Y-89751431D01*
X124729164Y-89727619D01*
X124269161Y-89727619D01*
X124578287Y-89418492D01*
X125009993Y-89418492D01*
X125013095Y-89430900D01*
X125013095Y-89432448D01*
X125015699Y-89441317D01*
X125059713Y-89617372D01*
X125058783Y-89625986D01*
X125064949Y-89638319D01*
X125065568Y-89640792D01*
X125069750Y-89647919D01*
X125112045Y-89732509D01*
X125114728Y-89744840D01*
X125129347Y-89759460D01*
X125143417Y-89774586D01*
X125144835Y-89774948D01*
X125171269Y-89801383D01*
X125177714Y-89812234D01*
X125196225Y-89821489D01*
X125214336Y-89831379D01*
X125215795Y-89831274D01*
X125289041Y-89867897D01*
X125304168Y-89877619D01*
X125319498Y-89877619D01*
X125334581Y-89880333D01*
X125341125Y-89877619D01*
X125417388Y-89877619D01*
X125435272Y-89879550D01*
X125448985Y-89872693D01*
X125463688Y-89868376D01*
X125468326Y-89863022D01*
X125541794Y-89826287D01*
X125554128Y-89823605D01*
X125563989Y-89813743D01*
X125915487Y-89813743D01*
X125919014Y-89821466D01*
X125919620Y-89829935D01*
X125927983Y-89841107D01*
X125933783Y-89853807D01*
X125940926Y-89858397D01*
X125946014Y-89865194D01*
X125959090Y-89870071D01*
X125970835Y-89877619D01*
X125979326Y-89877619D01*
X125987281Y-89880586D01*
X126000920Y-89877619D01*
X126622686Y-89877619D01*
X126654164Y-89868376D01*
X126683006Y-89835090D01*
X126689274Y-89791495D01*
X126670978Y-89751431D01*
X126633926Y-89727619D01*
X126173923Y-89727619D01*
X126199739Y-89701803D01*
X126914890Y-89701803D01*
X126924252Y-89744840D01*
X126980793Y-89801383D01*
X126987238Y-89812234D01*
X127005749Y-89821489D01*
X127023860Y-89831379D01*
X127025319Y-89831274D01*
X127098565Y-89867897D01*
X127113692Y-89877619D01*
X127129022Y-89877619D01*
X127144105Y-89880333D01*
X127150649Y-89877619D01*
X127369769Y-89877619D01*
X127387653Y-89879550D01*
X127401366Y-89872693D01*
X127416069Y-89868376D01*
X127420707Y-89863022D01*
X127494175Y-89826287D01*
X127506509Y-89823605D01*
X127521140Y-89808972D01*
X127536253Y-89794916D01*
X127536615Y-89793496D01*
X127563049Y-89767062D01*
X127573900Y-89760618D01*
X127583156Y-89742104D01*
X127593046Y-89723994D01*
X127592941Y-89722534D01*
X127629563Y-89649290D01*
X127639285Y-89634164D01*
X127639285Y-89618834D01*
X127641999Y-89603751D01*
X127639285Y-89597207D01*
X127639285Y-89378078D01*
X127641215Y-89360203D01*
X127634360Y-89346493D01*
X127630042Y-89331787D01*
X127624687Y-89327147D01*
X127587953Y-89253678D01*
X127585271Y-89241348D01*
X127570651Y-89226728D01*
X127556582Y-89211603D01*
X127555163Y-89211240D01*
X127528728Y-89184805D01*
X127522285Y-89173956D01*
X127503784Y-89164705D01*
X127485662Y-89154810D01*
X127484201Y-89154914D01*
X127410960Y-89118294D01*
X127395831Y-89108571D01*
X127380501Y-89108571D01*
X127365418Y-89105857D01*
X127358874Y-89108571D01*
X127139745Y-89108571D01*
X127121870Y-89106641D01*
X127108160Y-89113495D01*
X127093454Y-89117814D01*
X127088814Y-89123168D01*
X127083531Y-89125810D01*
X127108350Y-88877619D01*
X127527448Y-88877619D01*
X127558926Y-88868376D01*
X127587768Y-88835090D01*
X127594036Y-88791495D01*
X127575740Y-88751431D01*
X127538688Y-88727619D01*
X127049611Y-88727619D01*
X127037106Y-88724526D01*
X127017794Y-88731112D01*
X126998216Y-88736862D01*
X126997072Y-88738181D01*
X126995420Y-88738745D01*
X126982728Y-88754736D01*
X126969374Y-88770148D01*
X126969125Y-88771874D01*
X126968039Y-88773244D01*
X126966006Y-88793570D01*
X126963106Y-88813743D01*
X126963830Y-88815329D01*
X126919742Y-89256214D01*
X126916477Y-89262194D01*
X126917589Y-89277741D01*
X126917156Y-89282075D01*
X126918355Y-89288451D01*
X126919620Y-89306125D01*
X126922371Y-89309800D01*
X126923221Y-89314316D01*
X126935394Y-89327197D01*
X126946014Y-89341384D01*
X126950317Y-89342989D01*
X126953472Y-89346327D01*
X126970673Y-89350581D01*
X126987281Y-89356776D01*
X126991769Y-89355799D01*
X126996227Y-89356902D01*
X127012996Y-89351182D01*
X127030318Y-89347414D01*
X127033566Y-89344165D01*
X127037913Y-89342683D01*
X127048930Y-89328801D01*
X127084902Y-89292829D01*
X127153418Y-89258571D01*
X127356103Y-89258571D01*
X127424621Y-89292830D01*
X127455026Y-89323235D01*
X127489285Y-89391751D01*
X127489285Y-89594436D01*
X127455026Y-89662953D01*
X127424618Y-89693361D01*
X127356104Y-89727619D01*
X127153420Y-89727619D01*
X127084902Y-89693360D01*
X127038267Y-89646723D01*
X127009473Y-89631001D01*
X126965542Y-89634143D01*
X126930283Y-89660536D01*
X126914890Y-89701803D01*
X126199739Y-89701803D01*
X126614463Y-89287077D01*
X126628472Y-89275799D01*
X126633319Y-89261257D01*
X126640665Y-89247805D01*
X126640159Y-89240737D01*
X126680082Y-89120969D01*
X126686904Y-89110355D01*
X126686904Y-89089676D01*
X126687650Y-89069036D01*
X126686904Y-89067777D01*
X126686904Y-88997126D01*
X126688834Y-88979251D01*
X126681979Y-88965541D01*
X126677661Y-88950835D01*
X126672306Y-88946195D01*
X126635572Y-88872726D01*
X126632890Y-88860396D01*
X126618270Y-88845776D01*
X126604201Y-88830651D01*
X126602782Y-88830288D01*
X126576347Y-88803853D01*
X126569904Y-88793004D01*
X126551403Y-88783753D01*
X126533281Y-88773858D01*
X126531820Y-88773962D01*
X126458579Y-88737342D01*
X126443450Y-88727619D01*
X126428120Y-88727619D01*
X126413037Y-88724905D01*
X126406493Y-88727619D01*
X126187364Y-88727619D01*
X126169489Y-88725689D01*
X126155779Y-88732543D01*
X126141073Y-88736862D01*
X126136433Y-88742216D01*
X126062964Y-88778950D01*
X126050634Y-88781633D01*
X126036014Y-88796252D01*
X126020889Y-88810322D01*
X126020526Y-88811740D01*
X125979819Y-88852448D01*
X125964096Y-88881242D01*
X125967239Y-88925173D01*
X125993633Y-88960432D01*
X126034900Y-88975824D01*
X126077937Y-88966462D01*
X126132521Y-88911877D01*
X126201037Y-88877619D01*
X126403722Y-88877619D01*
X126472240Y-88911878D01*
X126502645Y-88942283D01*
X126536904Y-89010799D01*
X126536904Y-89076163D01*
X126498732Y-89190676D01*
X125953358Y-89736050D01*
X125950597Y-89736862D01*
X125937934Y-89751475D01*
X125932200Y-89757210D01*
X125930895Y-89759599D01*
X125921755Y-89770148D01*
X125920546Y-89778550D01*
X125916477Y-89786004D01*
X125917473Y-89799928D01*
X125915487Y-89813743D01*
X125563989Y-89813743D01*
X125568759Y-89808972D01*
X125583872Y-89794916D01*
X125584234Y-89793496D01*
X125610668Y-89767062D01*
X125621519Y-89760618D01*
X125630775Y-89742104D01*
X125640665Y-89723994D01*
X125640560Y-89722534D01*
X125673012Y-89657631D01*
X125679324Y-89651697D01*
X125682668Y-89638319D01*
X125683808Y-89636040D01*
X125685271Y-89627907D01*
X125729290Y-89451829D01*
X125734523Y-89443688D01*
X125734523Y-89430900D01*
X125734899Y-89429396D01*
X125734523Y-89420150D01*
X125734523Y-89195914D01*
X125737625Y-89186745D01*
X125734523Y-89174337D01*
X125734523Y-89172789D01*
X125731918Y-89163919D01*
X125687904Y-88987862D01*
X125688834Y-88979251D01*
X125682668Y-88966920D01*
X125682050Y-88964445D01*
X125677862Y-88957306D01*
X125635572Y-88872726D01*
X125632890Y-88860396D01*
X125618270Y-88845776D01*
X125604201Y-88830651D01*
X125602782Y-88830288D01*
X125576347Y-88803853D01*
X125569904Y-88793004D01*
X125551403Y-88783753D01*
X125533281Y-88773858D01*
X125531820Y-88773962D01*
X125458579Y-88737342D01*
X125443450Y-88727619D01*
X125428120Y-88727619D01*
X125413037Y-88724905D01*
X125406493Y-88727619D01*
X125330221Y-88727619D01*
X125312346Y-88725689D01*
X125298636Y-88732543D01*
X125283930Y-88736862D01*
X125279290Y-88742216D01*
X125205821Y-88778950D01*
X125193491Y-88781633D01*
X125178871Y-88796252D01*
X125163746Y-88810322D01*
X125163383Y-88811740D01*
X125136948Y-88838175D01*
X125126099Y-88844619D01*
X125116848Y-88863119D01*
X125106953Y-88881242D01*
X125107057Y-88882702D01*
X125074605Y-88947606D01*
X125068294Y-88953541D01*
X125064949Y-88966918D01*
X125063810Y-88969198D01*
X125062346Y-88977330D01*
X125018327Y-89153407D01*
X125013095Y-89161549D01*
X125013095Y-89174337D01*
X125012719Y-89175841D01*
X125013095Y-89185087D01*
X125013095Y-89409323D01*
X125009993Y-89418492D01*
X124578287Y-89418492D01*
X124709701Y-89287077D01*
X124723710Y-89275799D01*
X124728557Y-89261257D01*
X124735903Y-89247805D01*
X124735397Y-89240737D01*
X124775320Y-89120969D01*
X124782142Y-89110355D01*
X124782142Y-89089676D01*
X124782888Y-89069036D01*
X124782142Y-89067777D01*
X124782142Y-88997126D01*
X124784072Y-88979251D01*
X124777217Y-88965541D01*
X124772899Y-88950835D01*
X124767544Y-88946195D01*
X124730810Y-88872726D01*
X124728128Y-88860396D01*
X124713508Y-88845776D01*
X124699439Y-88830651D01*
X124698020Y-88830288D01*
X124671585Y-88803853D01*
X124665142Y-88793004D01*
X124646641Y-88783753D01*
X124628519Y-88773858D01*
X124627058Y-88773962D01*
X124553817Y-88737342D01*
X124538688Y-88727619D01*
X124523358Y-88727619D01*
X124508275Y-88724905D01*
X124501731Y-88727619D01*
X124282602Y-88727619D01*
X124264727Y-88725689D01*
X124251017Y-88732543D01*
X124236311Y-88736862D01*
X124231671Y-88742216D01*
X124158202Y-88778950D01*
X124145872Y-88781633D01*
X124131252Y-88796252D01*
X124116127Y-88810322D01*
X124115764Y-88811740D01*
X124075057Y-88852448D01*
X124059334Y-88881242D01*
X124062477Y-88925173D01*
X124088871Y-88960432D01*
X124130138Y-88975824D01*
X124173175Y-88966462D01*
X124227759Y-88911877D01*
X124296275Y-88877619D01*
X124498960Y-88877619D01*
X124567478Y-88911878D01*
X124597883Y-88942283D01*
X124632142Y-89010799D01*
X124632142Y-89076163D01*
X124593970Y-89190676D01*
X124048596Y-89736050D01*
X124045835Y-89736862D01*
X124033172Y-89751475D01*
X124027438Y-89757210D01*
X124026133Y-89759599D01*
X124016993Y-89770148D01*
X124015784Y-89778550D01*
X124011715Y-89786004D01*
X124012711Y-89799928D01*
X124010725Y-89813743D01*
X119704166Y-89813743D01*
X119704166Y-88193743D01*
X120320248Y-88193743D01*
X120327167Y-88208895D01*
X120331861Y-88224879D01*
X120336173Y-88228615D01*
X120338544Y-88233807D01*
X120352560Y-88242814D01*
X120365147Y-88253721D01*
X120370793Y-88254532D01*
X120375596Y-88257619D01*
X120392258Y-88257619D01*
X120408742Y-88259989D01*
X120413932Y-88257619D01*
X120884590Y-88257619D01*
X120916068Y-88248376D01*
X120944910Y-88215090D01*
X120951178Y-88171495D01*
X120932882Y-88131431D01*
X120895830Y-88107619D01*
X120472618Y-88107619D01*
X120472618Y-87667200D01*
X121081809Y-87667200D01*
X121084523Y-87673744D01*
X121084523Y-87829472D01*
X121083434Y-87831389D01*
X121084523Y-87851319D01*
X121084523Y-88035720D01*
X121082592Y-88053605D01*
X121089448Y-88067318D01*
X121093766Y-88082021D01*
X121099119Y-88086659D01*
X121131515Y-88151451D01*
X121131413Y-88154365D01*
X121141274Y-88170969D01*
X121144882Y-88178184D01*
X121146756Y-88180198D01*
X121153904Y-88192234D01*
X121161468Y-88196016D01*
X121167226Y-88202206D01*
X121180779Y-88205671D01*
X121265231Y-88247897D01*
X121280358Y-88257619D01*
X121295688Y-88257619D01*
X121310771Y-88260333D01*
X121317315Y-88257619D01*
X121488816Y-88257619D01*
X121506700Y-88259550D01*
X121520413Y-88252693D01*
X121535116Y-88248376D01*
X121539754Y-88243022D01*
X121631278Y-88197260D01*
X121655300Y-88174916D01*
X121666211Y-88132245D01*
X121652321Y-88090450D01*
X121618039Y-88062798D01*
X121574250Y-88058070D01*
X121475151Y-88107619D01*
X121320086Y-88107619D01*
X121263044Y-88079098D01*
X121234523Y-88022057D01*
X121234523Y-87910770D01*
X121637791Y-87830116D01*
X121646837Y-87831417D01*
X121658952Y-87825884D01*
X121660994Y-87825476D01*
X121668727Y-87821420D01*
X121686901Y-87813121D01*
X121688094Y-87811263D01*
X121690048Y-87810239D01*
X121699905Y-87792885D01*
X121710713Y-87776069D01*
X121710713Y-87773860D01*
X121711802Y-87771943D01*
X121710713Y-87752013D01*
X121710713Y-87714819D01*
X121938952Y-87714819D01*
X121941666Y-87721363D01*
X121941666Y-87988102D01*
X121939735Y-88005986D01*
X121946591Y-88019699D01*
X121950909Y-88034402D01*
X121956262Y-88039040D01*
X121992997Y-88112509D01*
X121995680Y-88124840D01*
X122010299Y-88139460D01*
X122024369Y-88154586D01*
X122025787Y-88154948D01*
X122052221Y-88181383D01*
X122058666Y-88192234D01*
X122077177Y-88201489D01*
X122095288Y-88211379D01*
X122096747Y-88211274D01*
X122169993Y-88247897D01*
X122185120Y-88257619D01*
X122200450Y-88257619D01*
X122215533Y-88260333D01*
X122222077Y-88257619D01*
X122393578Y-88257619D01*
X122411462Y-88259550D01*
X122417856Y-88256353D01*
X122417856Y-88307770D01*
X122383597Y-88376287D01*
X122353190Y-88406694D01*
X122284675Y-88440952D01*
X122177229Y-88440952D01*
X122088182Y-88396429D01*
X122055894Y-88390619D01*
X122015211Y-88407492D01*
X121990108Y-88443682D01*
X121988556Y-88487698D01*
X122011047Y-88525567D01*
X122122374Y-88581230D01*
X122137501Y-88590952D01*
X122152831Y-88590952D01*
X122167914Y-88593666D01*
X122174458Y-88590952D01*
X122298340Y-88590952D01*
X122316224Y-88592883D01*
X122329937Y-88586026D01*
X122344640Y-88581709D01*
X122349278Y-88576355D01*
X122422747Y-88539620D01*
X122435079Y-88536938D01*
X122449706Y-88522310D01*
X122464824Y-88508249D01*
X122465186Y-88506830D01*
X122491621Y-88480395D01*
X122502471Y-88473952D01*
X122511725Y-88455442D01*
X122521616Y-88437329D01*
X122521511Y-88435870D01*
X122558134Y-88362624D01*
X122567856Y-88347498D01*
X122567856Y-88332168D01*
X122570570Y-88317085D01*
X122567856Y-88310541D01*
X122567856Y-88144435D01*
X122570973Y-88132245D01*
X122567856Y-88122866D01*
X122567856Y-87714819D01*
X122843714Y-87714819D01*
X122846428Y-87721363D01*
X122846428Y-87988102D01*
X122844497Y-88005986D01*
X122851353Y-88019699D01*
X122855671Y-88034402D01*
X122861024Y-88039040D01*
X122897759Y-88112509D01*
X122900442Y-88124840D01*
X122915061Y-88139460D01*
X122929131Y-88154586D01*
X122930549Y-88154948D01*
X122956983Y-88181383D01*
X122963428Y-88192234D01*
X122981939Y-88201489D01*
X123000050Y-88211379D01*
X123001509Y-88211274D01*
X123074755Y-88247897D01*
X123089882Y-88257619D01*
X123105212Y-88257619D01*
X123120295Y-88260333D01*
X123126839Y-88257619D01*
X123298340Y-88257619D01*
X123316224Y-88259550D01*
X123322618Y-88256353D01*
X123322618Y-88307770D01*
X123288359Y-88376287D01*
X123257952Y-88406694D01*
X123189437Y-88440952D01*
X123081991Y-88440952D01*
X122992944Y-88396429D01*
X122960656Y-88390619D01*
X122919973Y-88407492D01*
X122894870Y-88443682D01*
X122893318Y-88487698D01*
X122915809Y-88525567D01*
X123027136Y-88581230D01*
X123042263Y-88590952D01*
X123057593Y-88590952D01*
X123072676Y-88593666D01*
X123079220Y-88590952D01*
X123203102Y-88590952D01*
X123220986Y-88592883D01*
X123234699Y-88586026D01*
X123249402Y-88581709D01*
X123254040Y-88576355D01*
X123327509Y-88539620D01*
X123339841Y-88536938D01*
X123354468Y-88522310D01*
X123358342Y-88518707D01*
X125748073Y-88518707D01*
X125761963Y-88560503D01*
X125796245Y-88588155D01*
X125840034Y-88592883D01*
X125946557Y-88539620D01*
X125958889Y-88536938D01*
X125973516Y-88522310D01*
X125988634Y-88508249D01*
X125988996Y-88506830D01*
X126017660Y-88478166D01*
X126030504Y-88469015D01*
X126037021Y-88452721D01*
X126045426Y-88437329D01*
X126045085Y-88432562D01*
X126126306Y-88229509D01*
X126127509Y-88228583D01*
X126129057Y-88224245D01*
X126132360Y-88221035D01*
X126136046Y-88205159D01*
X126137925Y-88200463D01*
X126138060Y-88199038D01*
X126327027Y-87669933D01*
X126605963Y-87669933D01*
X126608333Y-87675123D01*
X126608333Y-88193401D01*
X126617576Y-88224879D01*
X126650862Y-88253721D01*
X126694457Y-88259989D01*
X126734521Y-88241693D01*
X126758333Y-88204641D01*
X126758333Y-87733809D01*
X127027448Y-87733809D01*
X127058926Y-87724566D01*
X127067372Y-87714819D01*
X127462762Y-87714819D01*
X127465476Y-87721363D01*
X127465476Y-88193401D01*
X127474719Y-88224879D01*
X127508005Y-88253721D01*
X127551600Y-88259989D01*
X127591664Y-88241693D01*
X127615476Y-88204641D01*
X127615476Y-87724134D01*
X127620134Y-87714819D01*
X128034191Y-87714819D01*
X128036905Y-87721363D01*
X128036905Y-87988102D01*
X128034974Y-88005986D01*
X128041830Y-88019699D01*
X128046148Y-88034402D01*
X128051501Y-88039040D01*
X128088236Y-88112509D01*
X128090919Y-88124840D01*
X128105538Y-88139460D01*
X128119608Y-88154586D01*
X128121026Y-88154948D01*
X128147460Y-88181383D01*
X128153905Y-88192234D01*
X128172416Y-88201489D01*
X128190527Y-88211379D01*
X128191986Y-88211274D01*
X128265232Y-88247897D01*
X128280359Y-88257619D01*
X128295689Y-88257619D01*
X128310772Y-88260333D01*
X128317316Y-88257619D01*
X128441198Y-88257619D01*
X128459082Y-88259550D01*
X128472795Y-88252693D01*
X128487498Y-88248376D01*
X128492136Y-88243022D01*
X128565604Y-88206287D01*
X128577938Y-88203605D01*
X128592569Y-88188972D01*
X128607682Y-88174916D01*
X128608044Y-88173496D01*
X128634478Y-88147062D01*
X128645329Y-88140618D01*
X128654585Y-88122104D01*
X128664475Y-88103994D01*
X128664370Y-88102534D01*
X128700992Y-88029290D01*
X128710714Y-88014164D01*
X128710714Y-87998834D01*
X128713428Y-87983751D01*
X128710714Y-87977207D01*
X128710714Y-87714819D01*
X128938953Y-87714819D01*
X128941667Y-87721363D01*
X128941667Y-87988102D01*
X128939736Y-88005986D01*
X128946592Y-88019699D01*
X128950910Y-88034402D01*
X128956263Y-88039040D01*
X128992998Y-88112509D01*
X128995681Y-88124840D01*
X129010300Y-88139460D01*
X129024370Y-88154586D01*
X129025788Y-88154948D01*
X129052222Y-88181383D01*
X129058667Y-88192234D01*
X129077178Y-88201489D01*
X129095289Y-88211379D01*
X129096748Y-88211274D01*
X129169994Y-88247897D01*
X129185121Y-88257619D01*
X129200451Y-88257619D01*
X129215534Y-88260333D01*
X129222078Y-88257619D01*
X129393579Y-88257619D01*
X129411463Y-88259550D01*
X129417857Y-88256353D01*
X129417857Y-88307770D01*
X129383598Y-88376287D01*
X129353191Y-88406694D01*
X129284676Y-88440952D01*
X129177230Y-88440952D01*
X129088183Y-88396429D01*
X129055895Y-88390619D01*
X129015212Y-88407492D01*
X128990109Y-88443682D01*
X128988557Y-88487698D01*
X129011048Y-88525567D01*
X129122375Y-88581230D01*
X129137502Y-88590952D01*
X129152832Y-88590952D01*
X129167915Y-88593666D01*
X129174459Y-88590952D01*
X129298341Y-88590952D01*
X129316225Y-88592883D01*
X129329938Y-88586026D01*
X129344641Y-88581709D01*
X129349279Y-88576355D01*
X129422748Y-88539620D01*
X129435080Y-88536938D01*
X129449707Y-88522310D01*
X129464825Y-88508249D01*
X129465187Y-88506830D01*
X129491622Y-88480395D01*
X129502472Y-88473952D01*
X129511726Y-88455442D01*
X129521617Y-88437329D01*
X129521512Y-88435870D01*
X129558135Y-88362624D01*
X129567857Y-88347498D01*
X129567857Y-88332168D01*
X129570571Y-88317085D01*
X129567857Y-88310541D01*
X129567857Y-88144435D01*
X129570974Y-88132245D01*
X129567857Y-88122866D01*
X129567857Y-87714819D01*
X129843715Y-87714819D01*
X129846429Y-87721363D01*
X129846429Y-87988102D01*
X129844498Y-88005986D01*
X129851354Y-88019699D01*
X129855672Y-88034402D01*
X129861025Y-88039040D01*
X129897760Y-88112509D01*
X129900443Y-88124840D01*
X129915062Y-88139460D01*
X129929132Y-88154586D01*
X129930550Y-88154948D01*
X129956984Y-88181383D01*
X129963429Y-88192234D01*
X129981940Y-88201489D01*
X130000051Y-88211379D01*
X130001510Y-88211274D01*
X130074756Y-88247897D01*
X130089883Y-88257619D01*
X130105213Y-88257619D01*
X130120296Y-88260333D01*
X130126840Y-88257619D01*
X130298341Y-88257619D01*
X130316225Y-88259550D01*
X130322619Y-88256353D01*
X130322619Y-88307770D01*
X130288360Y-88376287D01*
X130257953Y-88406694D01*
X130189438Y-88440952D01*
X130081992Y-88440952D01*
X129992945Y-88396429D01*
X129960657Y-88390619D01*
X129919974Y-88407492D01*
X129894871Y-88443682D01*
X129893319Y-88487698D01*
X129915810Y-88525567D01*
X130027137Y-88581230D01*
X130042264Y-88590952D01*
X130057594Y-88590952D01*
X130072677Y-88593666D01*
X130079221Y-88590952D01*
X130203103Y-88590952D01*
X130220987Y-88592883D01*
X130234700Y-88586026D01*
X130249403Y-88581709D01*
X130254041Y-88576355D01*
X130327510Y-88539620D01*
X130339842Y-88536938D01*
X130354469Y-88522310D01*
X130369587Y-88508249D01*
X130369949Y-88506830D01*
X130396384Y-88480395D01*
X130407234Y-88473952D01*
X130416488Y-88455442D01*
X130426379Y-88437329D01*
X130426274Y-88435870D01*
X130462897Y-88362624D01*
X130472619Y-88347498D01*
X130472619Y-88332168D01*
X130475333Y-88317085D01*
X130472619Y-88310541D01*
X130472619Y-88144435D01*
X130475736Y-88132245D01*
X130472619Y-88122866D01*
X130472619Y-87714819D01*
X130748477Y-87714819D01*
X130751191Y-87721363D01*
X130751191Y-87988102D01*
X130749260Y-88005986D01*
X130756116Y-88019699D01*
X130760434Y-88034402D01*
X130765787Y-88039040D01*
X130802522Y-88112509D01*
X130805205Y-88124840D01*
X130819824Y-88139460D01*
X130833894Y-88154586D01*
X130835312Y-88154948D01*
X130861746Y-88181383D01*
X130868191Y-88192234D01*
X130886702Y-88201489D01*
X130904813Y-88211379D01*
X130906272Y-88211274D01*
X130979518Y-88247897D01*
X130994645Y-88257619D01*
X131009975Y-88257619D01*
X131025058Y-88260333D01*
X131031602Y-88257619D01*
X131155484Y-88257619D01*
X131173368Y-88259550D01*
X131187081Y-88252693D01*
X131201784Y-88248376D01*
X131206422Y-88243022D01*
X131279890Y-88206287D01*
X131292224Y-88203605D01*
X131306855Y-88188972D01*
X131321968Y-88174916D01*
X131322330Y-88173496D01*
X131348764Y-88147062D01*
X131359615Y-88140618D01*
X131368871Y-88122104D01*
X131378761Y-88103994D01*
X131378656Y-88102534D01*
X131415278Y-88029290D01*
X131425000Y-88014164D01*
X131425000Y-87998834D01*
X131427714Y-87983751D01*
X131425000Y-87977207D01*
X131425000Y-87710459D01*
X131426930Y-87692584D01*
X131420075Y-87678874D01*
X131415757Y-87664168D01*
X131410402Y-87659528D01*
X131373668Y-87586059D01*
X131370986Y-87573729D01*
X131356366Y-87559109D01*
X131342297Y-87543984D01*
X131340878Y-87543621D01*
X131314443Y-87517186D01*
X131308000Y-87506337D01*
X131289499Y-87497086D01*
X131271377Y-87487191D01*
X131269916Y-87487295D01*
X131196675Y-87450675D01*
X131181546Y-87440952D01*
X131166216Y-87440952D01*
X131151133Y-87438238D01*
X131144589Y-87440952D01*
X131020698Y-87440952D01*
X131002823Y-87439022D01*
X130989113Y-87445876D01*
X130974407Y-87450195D01*
X130969767Y-87455549D01*
X130896298Y-87492283D01*
X130883968Y-87494966D01*
X130869348Y-87509585D01*
X130854223Y-87523655D01*
X130853860Y-87525073D01*
X130827425Y-87551508D01*
X130816576Y-87557952D01*
X130807325Y-87576452D01*
X130797430Y-87594575D01*
X130797534Y-87596035D01*
X130760914Y-87669276D01*
X130751191Y-87684406D01*
X130751191Y-87699736D01*
X130748477Y-87714819D01*
X130472619Y-87714819D01*
X130472619Y-87564868D01*
X130473348Y-87544206D01*
X130472619Y-87542979D01*
X130472619Y-87505170D01*
X130463376Y-87473692D01*
X130430090Y-87444850D01*
X130386495Y-87438582D01*
X130349309Y-87455563D01*
X130339532Y-87450675D01*
X130324403Y-87440952D01*
X130309073Y-87440952D01*
X130293990Y-87438238D01*
X130287446Y-87440952D01*
X130115936Y-87440952D01*
X130098061Y-87439022D01*
X130084351Y-87445876D01*
X130069645Y-87450195D01*
X130065005Y-87455549D01*
X129991536Y-87492283D01*
X129979206Y-87494966D01*
X129964586Y-87509585D01*
X129949461Y-87523655D01*
X129949098Y-87525073D01*
X129922663Y-87551508D01*
X129911814Y-87557952D01*
X129902563Y-87576452D01*
X129892668Y-87594575D01*
X129892772Y-87596035D01*
X129856152Y-87669276D01*
X129846429Y-87684406D01*
X129846429Y-87699736D01*
X129843715Y-87714819D01*
X129567857Y-87714819D01*
X129567857Y-87564868D01*
X129568586Y-87544206D01*
X129567857Y-87542979D01*
X129567857Y-87505170D01*
X129558614Y-87473692D01*
X129525328Y-87444850D01*
X129481733Y-87438582D01*
X129444547Y-87455563D01*
X129434770Y-87450675D01*
X129419641Y-87440952D01*
X129404311Y-87440952D01*
X129389228Y-87438238D01*
X129382684Y-87440952D01*
X129211174Y-87440952D01*
X129193299Y-87439022D01*
X129179589Y-87445876D01*
X129164883Y-87450195D01*
X129160243Y-87455549D01*
X129086774Y-87492283D01*
X129074444Y-87494966D01*
X129059824Y-87509585D01*
X129044699Y-87523655D01*
X129044336Y-87525073D01*
X129017901Y-87551508D01*
X129007052Y-87557952D01*
X128997801Y-87576452D01*
X128987906Y-87594575D01*
X128988010Y-87596035D01*
X128951390Y-87669276D01*
X128941667Y-87684406D01*
X128941667Y-87699736D01*
X128938953Y-87714819D01*
X128710714Y-87714819D01*
X128710714Y-87710459D01*
X128712644Y-87692584D01*
X128705789Y-87678874D01*
X128701471Y-87664168D01*
X128696116Y-87659528D01*
X128659382Y-87586059D01*
X128656700Y-87573729D01*
X128642080Y-87559109D01*
X128628011Y-87543984D01*
X128626592Y-87543621D01*
X128600157Y-87517186D01*
X128593714Y-87506337D01*
X128575213Y-87497086D01*
X128557091Y-87487191D01*
X128555630Y-87487295D01*
X128482389Y-87450675D01*
X128467260Y-87440952D01*
X128451930Y-87440952D01*
X128436847Y-87438238D01*
X128430303Y-87440952D01*
X128306412Y-87440952D01*
X128288537Y-87439022D01*
X128274827Y-87445876D01*
X128260121Y-87450195D01*
X128255481Y-87455549D01*
X128182012Y-87492283D01*
X128169682Y-87494966D01*
X128155062Y-87509585D01*
X128139937Y-87523655D01*
X128139574Y-87525073D01*
X128113139Y-87551508D01*
X128102290Y-87557952D01*
X128093039Y-87576452D01*
X128083144Y-87594575D01*
X128083248Y-87596035D01*
X128046628Y-87669276D01*
X128036905Y-87684406D01*
X128036905Y-87699736D01*
X128034191Y-87714819D01*
X127620134Y-87714819D01*
X127649735Y-87655616D01*
X127680140Y-87625210D01*
X127748656Y-87590952D01*
X127836972Y-87590952D01*
X127868450Y-87581709D01*
X127897292Y-87548423D01*
X127903560Y-87504828D01*
X127885264Y-87464764D01*
X127848212Y-87440952D01*
X127734983Y-87440952D01*
X127717108Y-87439022D01*
X127703398Y-87445876D01*
X127688692Y-87450195D01*
X127684052Y-87455549D01*
X127611550Y-87491800D01*
X127606233Y-87473692D01*
X127572947Y-87444850D01*
X127529352Y-87438582D01*
X127489288Y-87456878D01*
X127465476Y-87493930D01*
X127465476Y-87699736D01*
X127462762Y-87714819D01*
X127067372Y-87714819D01*
X127087768Y-87691280D01*
X127094036Y-87647685D01*
X127075740Y-87607621D01*
X127038688Y-87583809D01*
X126758333Y-87583809D01*
X126758333Y-87257619D01*
X127170305Y-87257619D01*
X127201783Y-87248376D01*
X127230625Y-87215090D01*
X127236893Y-87171495D01*
X127218597Y-87131431D01*
X127181545Y-87107619D01*
X126688693Y-87107619D01*
X126672209Y-87105249D01*
X126657056Y-87112168D01*
X126641073Y-87116862D01*
X126637336Y-87121174D01*
X126632145Y-87123545D01*
X126623137Y-87137561D01*
X126612231Y-87150148D01*
X126611419Y-87155794D01*
X126608333Y-87160597D01*
X126608333Y-87177259D01*
X126605963Y-87193743D01*
X126608333Y-87198933D01*
X126608333Y-87653449D01*
X126605963Y-87669933D01*
X126327027Y-87669933D01*
X126376637Y-87531024D01*
X126378520Y-87498271D01*
X126356873Y-87459914D01*
X126317926Y-87439348D01*
X126274043Y-87443103D01*
X126239156Y-87469988D01*
X126064284Y-87959628D01*
X125893194Y-87480573D01*
X125873903Y-87454038D01*
X125832855Y-87438071D01*
X125789692Y-87446831D01*
X125758115Y-87477536D01*
X125748153Y-87520438D01*
X125984108Y-88181115D01*
X125905128Y-88378566D01*
X125877000Y-88406694D01*
X125783005Y-88453692D01*
X125758984Y-88476036D01*
X125748073Y-88518707D01*
X123358342Y-88518707D01*
X123369586Y-88508249D01*
X123369948Y-88506830D01*
X123396383Y-88480395D01*
X123407233Y-88473952D01*
X123416487Y-88455442D01*
X123426378Y-88437329D01*
X123426273Y-88435870D01*
X123462896Y-88362624D01*
X123472618Y-88347498D01*
X123472618Y-88332168D01*
X123475332Y-88317085D01*
X123472618Y-88310541D01*
X123472618Y-88144435D01*
X123475735Y-88132245D01*
X123472618Y-88122866D01*
X123472618Y-87714819D01*
X123748476Y-87714819D01*
X123751190Y-87721363D01*
X123751190Y-87988102D01*
X123749259Y-88005986D01*
X123756115Y-88019699D01*
X123760433Y-88034402D01*
X123765786Y-88039040D01*
X123802521Y-88112509D01*
X123805204Y-88124840D01*
X123819823Y-88139460D01*
X123833893Y-88154586D01*
X123835311Y-88154948D01*
X123861745Y-88181383D01*
X123868190Y-88192234D01*
X123886701Y-88201489D01*
X123904812Y-88211379D01*
X123906271Y-88211274D01*
X123979517Y-88247897D01*
X123994644Y-88257619D01*
X124009974Y-88257619D01*
X124025057Y-88260333D01*
X124031601Y-88257619D01*
X124155483Y-88257619D01*
X124173367Y-88259550D01*
X124187080Y-88252693D01*
X124201783Y-88248376D01*
X124206421Y-88243022D01*
X124279889Y-88206287D01*
X124292223Y-88203605D01*
X124306854Y-88188972D01*
X124321967Y-88174916D01*
X124322329Y-88173496D01*
X124348763Y-88147062D01*
X124359614Y-88140618D01*
X124368870Y-88122104D01*
X124378760Y-88103994D01*
X124378655Y-88102534D01*
X124415277Y-88029290D01*
X124424999Y-88014164D01*
X124424999Y-87998834D01*
X124427713Y-87983751D01*
X124424999Y-87977207D01*
X124424999Y-87710459D01*
X124426929Y-87692584D01*
X124420074Y-87678874D01*
X124415756Y-87664168D01*
X124410401Y-87659528D01*
X124373667Y-87586059D01*
X124370985Y-87573729D01*
X124356365Y-87559109D01*
X124342296Y-87543984D01*
X124340877Y-87543621D01*
X124314442Y-87517186D01*
X124307999Y-87506337D01*
X124289498Y-87497086D01*
X124271376Y-87487191D01*
X124269915Y-87487295D01*
X124196674Y-87450675D01*
X124181545Y-87440952D01*
X124166215Y-87440952D01*
X124151132Y-87438238D01*
X124144588Y-87440952D01*
X124020697Y-87440952D01*
X124002822Y-87439022D01*
X123989112Y-87445876D01*
X123974406Y-87450195D01*
X123969766Y-87455549D01*
X123896297Y-87492283D01*
X123883967Y-87494966D01*
X123869347Y-87509585D01*
X123854222Y-87523655D01*
X123853859Y-87525073D01*
X123827424Y-87551508D01*
X123816575Y-87557952D01*
X123807324Y-87576452D01*
X123797429Y-87594575D01*
X123797533Y-87596035D01*
X123760913Y-87669276D01*
X123751190Y-87684406D01*
X123751190Y-87699736D01*
X123748476Y-87714819D01*
X123472618Y-87714819D01*
X123472618Y-87564868D01*
X123473347Y-87544206D01*
X123472618Y-87542979D01*
X123472618Y-87505170D01*
X123463375Y-87473692D01*
X123430089Y-87444850D01*
X123386494Y-87438582D01*
X123349308Y-87455563D01*
X123339531Y-87450675D01*
X123324402Y-87440952D01*
X123309072Y-87440952D01*
X123293989Y-87438238D01*
X123287445Y-87440952D01*
X123115935Y-87440952D01*
X123098060Y-87439022D01*
X123084350Y-87445876D01*
X123069644Y-87450195D01*
X123065004Y-87455549D01*
X122991535Y-87492283D01*
X122979205Y-87494966D01*
X122964585Y-87509585D01*
X122949460Y-87523655D01*
X122949097Y-87525073D01*
X122922662Y-87551508D01*
X122911813Y-87557952D01*
X122902562Y-87576452D01*
X122892667Y-87594575D01*
X122892771Y-87596035D01*
X122856151Y-87669276D01*
X122846428Y-87684406D01*
X122846428Y-87699736D01*
X122843714Y-87714819D01*
X122567856Y-87714819D01*
X122567856Y-87564868D01*
X122568585Y-87544206D01*
X122567856Y-87542979D01*
X122567856Y-87505170D01*
X122558613Y-87473692D01*
X122525327Y-87444850D01*
X122481732Y-87438582D01*
X122444546Y-87455563D01*
X122434769Y-87450675D01*
X122419640Y-87440952D01*
X122404310Y-87440952D01*
X122389227Y-87438238D01*
X122382683Y-87440952D01*
X122211173Y-87440952D01*
X122193298Y-87439022D01*
X122179588Y-87445876D01*
X122164882Y-87450195D01*
X122160242Y-87455549D01*
X122086773Y-87492283D01*
X122074443Y-87494966D01*
X122059823Y-87509585D01*
X122044698Y-87523655D01*
X122044335Y-87525073D01*
X122017900Y-87551508D01*
X122007051Y-87557952D01*
X121997800Y-87576452D01*
X121987905Y-87594575D01*
X121988009Y-87596035D01*
X121951389Y-87669276D01*
X121941666Y-87684406D01*
X121941666Y-87699736D01*
X121938952Y-87714819D01*
X121710713Y-87714819D01*
X121710713Y-87662840D01*
X121712643Y-87644965D01*
X121705788Y-87631255D01*
X121701470Y-87616549D01*
X121696115Y-87611909D01*
X121663720Y-87547118D01*
X121663823Y-87544206D01*
X121653963Y-87527605D01*
X121650354Y-87520386D01*
X121648478Y-87518369D01*
X121641332Y-87506337D01*
X121633767Y-87502554D01*
X121628010Y-87496365D01*
X121614456Y-87492899D01*
X121530007Y-87450675D01*
X121514878Y-87440952D01*
X121499548Y-87440952D01*
X121484465Y-87438238D01*
X121477921Y-87440952D01*
X121306411Y-87440952D01*
X121288536Y-87439022D01*
X121274826Y-87445876D01*
X121260120Y-87450195D01*
X121255480Y-87455549D01*
X121190689Y-87487944D01*
X121187777Y-87487842D01*
X121171176Y-87497701D01*
X121163957Y-87501311D01*
X121161940Y-87503186D01*
X121149908Y-87510333D01*
X121146125Y-87517897D01*
X121139936Y-87523655D01*
X121136470Y-87537208D01*
X121094246Y-87621657D01*
X121084523Y-87636787D01*
X121084523Y-87652117D01*
X121081809Y-87667200D01*
X120472618Y-87667200D01*
X120472618Y-87194379D01*
X124701294Y-87194379D01*
X124703571Y-87199258D01*
X124703571Y-88193401D01*
X124712814Y-88224879D01*
X124746100Y-88253721D01*
X124789695Y-88259989D01*
X124829759Y-88241693D01*
X124853571Y-88204641D01*
X124853571Y-87520686D01*
X125043684Y-87928071D01*
X125052411Y-87947604D01*
X125062341Y-87954102D01*
X125070187Y-87963007D01*
X125080389Y-87965911D01*
X125089266Y-87971720D01*
X125101134Y-87971817D01*
X125112547Y-87975067D01*
X125122697Y-87971995D01*
X125133308Y-87972083D01*
X125143347Y-87965747D01*
X125154703Y-87962311D01*
X125161582Y-87954238D01*
X125170555Y-87948576D01*
X125175574Y-87937820D01*
X125183271Y-87928789D01*
X125184694Y-87918277D01*
X125370237Y-87520686D01*
X125370237Y-88193401D01*
X125379480Y-88224879D01*
X125412766Y-88253721D01*
X125456361Y-88259989D01*
X125496425Y-88241693D01*
X125520237Y-88204641D01*
X125520237Y-87188289D01*
X125522696Y-87172131D01*
X125515774Y-87156638D01*
X125510994Y-87140359D01*
X125506925Y-87136834D01*
X125504730Y-87131919D01*
X125490530Y-87122627D01*
X125477708Y-87111517D01*
X125472380Y-87110750D01*
X125467875Y-87107803D01*
X125450903Y-87107663D01*
X125434113Y-87105249D01*
X125429218Y-87107484D01*
X125423833Y-87107440D01*
X125409478Y-87116498D01*
X125394049Y-87123545D01*
X125391139Y-87128072D01*
X125386586Y-87130946D01*
X125379409Y-87146324D01*
X125370237Y-87160597D01*
X125370237Y-87165980D01*
X125111904Y-87719550D01*
X124848933Y-87156042D01*
X124844328Y-87140359D01*
X124831505Y-87129248D01*
X124820288Y-87116516D01*
X124815109Y-87115041D01*
X124811042Y-87111517D01*
X124794248Y-87109102D01*
X124777928Y-87104456D01*
X124772775Y-87106015D01*
X124767447Y-87105249D01*
X124752010Y-87112298D01*
X124735772Y-87117212D01*
X124732281Y-87121308D01*
X124727383Y-87123545D01*
X124718207Y-87137822D01*
X124707204Y-87150734D01*
X124706481Y-87156067D01*
X124703571Y-87160597D01*
X124703571Y-87177563D01*
X124701294Y-87194379D01*
X120472618Y-87194379D01*
X120472618Y-87171837D01*
X120463375Y-87140359D01*
X120430089Y-87111517D01*
X120386494Y-87105249D01*
X120346430Y-87123545D01*
X120322618Y-87160597D01*
X120322618Y-88177259D01*
X120320248Y-88193743D01*
X119704166Y-88193743D01*
X119704166Y-85573743D01*
X121463106Y-85573743D01*
X121481402Y-85613807D01*
X121518454Y-85637619D01*
X121751190Y-85637619D01*
X121751190Y-86573401D01*
X121760433Y-86604879D01*
X121793719Y-86633721D01*
X121837314Y-86639989D01*
X121877378Y-86621693D01*
X121901190Y-86584641D01*
X121901190Y-86573743D01*
X122367868Y-86573743D01*
X122374787Y-86588895D01*
X122379481Y-86604879D01*
X122383793Y-86608615D01*
X122386164Y-86613807D01*
X122400180Y-86622814D01*
X122412767Y-86633721D01*
X122418413Y-86634532D01*
X122423216Y-86637619D01*
X122439878Y-86637619D01*
X122456362Y-86639989D01*
X122461552Y-86637619D01*
X122822150Y-86637619D01*
X122840034Y-86639550D01*
X122853747Y-86632693D01*
X122868450Y-86628376D01*
X122873088Y-86623022D01*
X122946556Y-86586287D01*
X122958890Y-86583605D01*
X122973521Y-86568972D01*
X122988634Y-86554916D01*
X122988996Y-86553496D01*
X123015430Y-86527062D01*
X123026281Y-86520618D01*
X123035537Y-86502104D01*
X123045427Y-86483994D01*
X123045322Y-86482534D01*
X123081944Y-86409290D01*
X123091666Y-86394164D01*
X123091666Y-86378834D01*
X123094380Y-86363751D01*
X123091666Y-86357207D01*
X123091666Y-86233316D01*
X123093596Y-86215441D01*
X123086741Y-86201731D01*
X123082423Y-86187025D01*
X123077068Y-86182385D01*
X123051312Y-86130873D01*
X123319517Y-86130873D01*
X123322619Y-86143281D01*
X123322619Y-86144829D01*
X123325223Y-86153698D01*
X123369237Y-86329753D01*
X123368307Y-86338367D01*
X123374473Y-86350700D01*
X123375092Y-86353173D01*
X123379274Y-86360300D01*
X123421569Y-86444890D01*
X123424252Y-86457222D01*
X123438881Y-86471851D01*
X123452941Y-86486967D01*
X123454359Y-86487329D01*
X123532207Y-86565178D01*
X123543486Y-86579187D01*
X123558027Y-86584034D01*
X123571480Y-86591380D01*
X123578548Y-86590874D01*
X123698315Y-86630797D01*
X123708930Y-86637619D01*
X123729609Y-86637619D01*
X123750249Y-86638365D01*
X123751508Y-86637619D01*
X123816788Y-86637619D01*
X123829015Y-86640734D01*
X123848627Y-86634196D01*
X123868450Y-86628376D01*
X123869408Y-86627269D01*
X123988932Y-86587428D01*
X124006509Y-86583605D01*
X124016369Y-86573743D01*
X125605963Y-86573743D01*
X125612882Y-86588895D01*
X125617576Y-86604879D01*
X125621888Y-86608615D01*
X125624259Y-86613807D01*
X125638275Y-86622814D01*
X125650862Y-86633721D01*
X125656508Y-86634532D01*
X125661311Y-86637619D01*
X125677973Y-86637619D01*
X125694457Y-86639989D01*
X125699647Y-86637619D01*
X126170305Y-86637619D01*
X126201783Y-86628376D01*
X126230625Y-86595090D01*
X126232519Y-86581916D01*
X126274254Y-86581916D01*
X126296711Y-86619804D01*
X126336087Y-86639536D01*
X126379880Y-86634849D01*
X126414187Y-86607228D01*
X126499295Y-86351904D01*
X126867371Y-86351904D01*
X126948924Y-86596564D01*
X126967647Y-86623504D01*
X127008346Y-86640340D01*
X127051686Y-86632500D01*
X127083908Y-86602474D01*
X127094781Y-86559793D01*
X126998188Y-86270016D01*
X126998798Y-86265780D01*
X126991314Y-86249392D01*
X126972447Y-86192790D01*
X127272630Y-86192790D01*
X127290926Y-86232854D01*
X127327978Y-86256666D01*
X128122687Y-86256666D01*
X128154165Y-86247423D01*
X128183007Y-86214137D01*
X128188132Y-86178492D01*
X128462374Y-86178492D01*
X128465476Y-86190900D01*
X128465476Y-86192448D01*
X128468080Y-86201317D01*
X128512094Y-86377372D01*
X128511164Y-86385986D01*
X128517330Y-86398319D01*
X128517949Y-86400792D01*
X128522131Y-86407919D01*
X128564426Y-86492509D01*
X128567109Y-86504840D01*
X128581728Y-86519460D01*
X128595798Y-86534586D01*
X128597216Y-86534948D01*
X128623650Y-86561383D01*
X128630095Y-86572234D01*
X128648606Y-86581489D01*
X128666717Y-86591379D01*
X128668176Y-86591274D01*
X128741422Y-86627897D01*
X128756549Y-86637619D01*
X128771879Y-86637619D01*
X128786962Y-86640333D01*
X128793506Y-86637619D01*
X128869769Y-86637619D01*
X128887653Y-86639550D01*
X128901366Y-86632693D01*
X128916069Y-86628376D01*
X128920707Y-86623022D01*
X128994175Y-86586287D01*
X129006509Y-86583605D01*
X129021140Y-86568972D01*
X129036253Y-86554916D01*
X129036615Y-86553496D01*
X129063049Y-86527062D01*
X129073900Y-86520618D01*
X129083156Y-86502104D01*
X129093046Y-86483994D01*
X129092941Y-86482534D01*
X129125393Y-86417631D01*
X129131705Y-86411697D01*
X129135049Y-86398319D01*
X129136189Y-86396040D01*
X129137652Y-86387907D01*
X129181671Y-86211829D01*
X129186904Y-86203688D01*
X129186904Y-86190900D01*
X129187280Y-86189396D01*
X129186904Y-86180150D01*
X129186904Y-85955914D01*
X129190006Y-85946745D01*
X129186904Y-85934337D01*
X129186904Y-85932789D01*
X129184299Y-85923919D01*
X129166091Y-85851088D01*
X129414740Y-85851088D01*
X129428630Y-85892884D01*
X129462912Y-85920536D01*
X129506701Y-85925264D01*
X129613224Y-85872001D01*
X129625556Y-85869319D01*
X129640183Y-85854691D01*
X129655301Y-85840630D01*
X129655663Y-85839211D01*
X129703571Y-85791304D01*
X129703571Y-86487619D01*
X129482075Y-86487619D01*
X129450597Y-86496862D01*
X129421755Y-86530148D01*
X129415487Y-86573743D01*
X129433783Y-86613807D01*
X129470835Y-86637619D01*
X129773211Y-86637619D01*
X129789695Y-86639989D01*
X129794885Y-86637619D01*
X130075067Y-86637619D01*
X130106545Y-86628376D01*
X130135387Y-86595090D01*
X130141655Y-86551495D01*
X130123359Y-86511431D01*
X130086307Y-86487619D01*
X129853571Y-86487619D01*
X129853571Y-85574045D01*
X129856726Y-85563932D01*
X129853571Y-85552479D01*
X129853571Y-85551837D01*
X129850712Y-85542102D01*
X129845029Y-85521470D01*
X129844520Y-85521014D01*
X129844328Y-85520359D01*
X129828168Y-85506357D01*
X129812233Y-85492073D01*
X129811558Y-85491964D01*
X129811042Y-85491517D01*
X129789894Y-85488476D01*
X129768749Y-85485072D01*
X129768121Y-85485345D01*
X129767447Y-85485249D01*
X129748013Y-85494123D01*
X129728383Y-85502693D01*
X129728004Y-85503261D01*
X129727383Y-85503545D01*
X129715817Y-85521541D01*
X129625048Y-85657694D01*
X129543667Y-85739075D01*
X129449672Y-85786073D01*
X129425651Y-85808417D01*
X129414740Y-85851088D01*
X129166091Y-85851088D01*
X129140285Y-85747862D01*
X129141215Y-85739251D01*
X129135049Y-85726920D01*
X129134431Y-85724445D01*
X129130243Y-85717306D01*
X129087953Y-85632726D01*
X129085271Y-85620396D01*
X129070651Y-85605776D01*
X129056582Y-85590651D01*
X129055163Y-85590288D01*
X129028728Y-85563853D01*
X129022285Y-85553004D01*
X129003784Y-85543753D01*
X128985662Y-85533858D01*
X128984201Y-85533962D01*
X128910960Y-85497342D01*
X128895831Y-85487619D01*
X128880501Y-85487619D01*
X128865418Y-85484905D01*
X128858874Y-85487619D01*
X128782602Y-85487619D01*
X128764727Y-85485689D01*
X128751017Y-85492543D01*
X128736311Y-85496862D01*
X128731671Y-85502216D01*
X128658202Y-85538950D01*
X128645872Y-85541633D01*
X128631252Y-85556252D01*
X128616127Y-85570322D01*
X128615764Y-85571740D01*
X128589329Y-85598175D01*
X128578480Y-85604619D01*
X128569229Y-85623119D01*
X128559334Y-85641242D01*
X128559438Y-85642702D01*
X128526986Y-85707606D01*
X128520675Y-85713541D01*
X128517330Y-85726918D01*
X128516191Y-85729198D01*
X128514727Y-85737330D01*
X128470708Y-85913407D01*
X128465476Y-85921549D01*
X128465476Y-85934337D01*
X128465100Y-85935841D01*
X128465476Y-85945087D01*
X128465476Y-86169323D01*
X128462374Y-86178492D01*
X128188132Y-86178492D01*
X128189275Y-86170542D01*
X128170979Y-86130478D01*
X128133927Y-86106666D01*
X127339218Y-86106666D01*
X127307740Y-86115909D01*
X127278898Y-86149195D01*
X127272630Y-86192790D01*
X126972447Y-86192790D01*
X126758773Y-85551769D01*
X126759079Y-85543322D01*
X126751947Y-85531289D01*
X126751075Y-85528673D01*
X126746462Y-85522035D01*
X126736622Y-85505434D01*
X126734016Y-85504128D01*
X126732352Y-85501733D01*
X126714498Y-85494347D01*
X126697246Y-85485702D01*
X126694348Y-85486012D01*
X126691653Y-85484897D01*
X126672645Y-85488335D01*
X126653452Y-85490390D01*
X126651181Y-85492218D01*
X126648313Y-85492737D01*
X126634189Y-85505898D01*
X126619146Y-85518010D01*
X126618223Y-85520776D01*
X126616091Y-85522764D01*
X126611323Y-85541476D01*
X126378798Y-86239051D01*
X126374136Y-86244433D01*
X126371959Y-86259568D01*
X126275439Y-86549131D01*
X126274254Y-86581916D01*
X126232519Y-86581916D01*
X126236893Y-86551495D01*
X126218597Y-86511431D01*
X126181545Y-86487619D01*
X125758333Y-86487619D01*
X125758333Y-85551837D01*
X125749090Y-85520359D01*
X125715804Y-85491517D01*
X125672209Y-85485249D01*
X125632145Y-85503545D01*
X125608333Y-85540597D01*
X125608333Y-86557259D01*
X125605963Y-86573743D01*
X124016369Y-86573743D01*
X124017350Y-86572762D01*
X124029932Y-86564019D01*
X124032639Y-86557473D01*
X124077323Y-86512788D01*
X124093046Y-86483994D01*
X124089903Y-86440063D01*
X124063508Y-86404805D01*
X124022241Y-86389413D01*
X123979204Y-86398776D01*
X123928533Y-86449447D01*
X123814018Y-86487619D01*
X123743122Y-86487619D01*
X123628607Y-86449447D01*
X123554495Y-86375333D01*
X123516002Y-86298347D01*
X123489613Y-86192790D01*
X124367868Y-86192790D01*
X124386164Y-86232854D01*
X124423216Y-86256666D01*
X125217925Y-86256666D01*
X125249403Y-86247423D01*
X125278245Y-86214137D01*
X125284513Y-86170542D01*
X125266217Y-86130478D01*
X125229165Y-86106666D01*
X124434456Y-86106666D01*
X124402978Y-86115909D01*
X124374136Y-86149195D01*
X124367868Y-86192790D01*
X123489613Y-86192790D01*
X123472619Y-86124813D01*
X123472619Y-86000425D01*
X123516002Y-85826891D01*
X123554497Y-85749902D01*
X123628608Y-85675790D01*
X123743123Y-85637619D01*
X123814020Y-85637619D01*
X123928533Y-85675790D01*
X123971257Y-85718514D01*
X124000051Y-85734236D01*
X124043982Y-85731094D01*
X124079240Y-85704700D01*
X124094633Y-85663433D01*
X124085271Y-85620396D01*
X124024933Y-85560058D01*
X124013656Y-85546051D01*
X123999114Y-85541203D01*
X123985662Y-85533858D01*
X123978594Y-85534363D01*
X123858827Y-85494441D01*
X123848212Y-85487619D01*
X123827532Y-85487619D01*
X123806893Y-85486873D01*
X123805634Y-85487619D01*
X123740354Y-85487619D01*
X123728126Y-85484504D01*
X123708506Y-85491043D01*
X123688692Y-85496862D01*
X123687733Y-85497968D01*
X123568204Y-85537810D01*
X123550634Y-85541633D01*
X123539795Y-85552471D01*
X123527209Y-85561219D01*
X123524500Y-85567766D01*
X123446472Y-85645794D01*
X123435623Y-85652238D01*
X123426372Y-85670738D01*
X123416477Y-85688861D01*
X123416581Y-85690321D01*
X123384129Y-85755225D01*
X123377818Y-85761160D01*
X123374473Y-85774537D01*
X123373334Y-85776817D01*
X123371870Y-85784949D01*
X123327851Y-85961026D01*
X123322619Y-85969168D01*
X123322619Y-85981956D01*
X123322243Y-85983460D01*
X123322619Y-85992706D01*
X123322619Y-86121704D01*
X123319517Y-86130873D01*
X123051312Y-86130873D01*
X123040334Y-86108916D01*
X123037652Y-86096586D01*
X123023032Y-86081966D01*
X123008963Y-86066841D01*
X123007544Y-86066478D01*
X122977314Y-86036248D01*
X122966037Y-86022241D01*
X122953127Y-86017937D01*
X122967812Y-86003252D01*
X122978662Y-85996809D01*
X122987916Y-85978299D01*
X122997807Y-85960186D01*
X122997702Y-85958727D01*
X123034325Y-85885481D01*
X123044047Y-85870355D01*
X123044047Y-85855025D01*
X123046761Y-85839942D01*
X123044047Y-85833398D01*
X123044047Y-85757126D01*
X123045977Y-85739251D01*
X123039122Y-85725541D01*
X123034804Y-85710835D01*
X123029449Y-85706195D01*
X122992715Y-85632726D01*
X122990033Y-85620396D01*
X122975413Y-85605776D01*
X122961344Y-85590651D01*
X122959925Y-85590288D01*
X122933490Y-85563853D01*
X122927047Y-85553004D01*
X122908546Y-85543753D01*
X122890424Y-85533858D01*
X122888963Y-85533962D01*
X122815722Y-85497342D01*
X122800593Y-85487619D01*
X122785263Y-85487619D01*
X122770180Y-85484905D01*
X122763636Y-85487619D01*
X122450598Y-85487619D01*
X122434114Y-85485249D01*
X122418961Y-85492168D01*
X122402978Y-85496862D01*
X122399241Y-85501174D01*
X122394050Y-85503545D01*
X122385042Y-85517561D01*
X122374136Y-85530148D01*
X122373324Y-85535794D01*
X122370238Y-85540597D01*
X122370238Y-85557259D01*
X122367868Y-85573743D01*
X122370238Y-85578933D01*
X122370238Y-86033449D01*
X122367868Y-86049933D01*
X122370238Y-86055123D01*
X122370238Y-86557259D01*
X122367868Y-86573743D01*
X121901190Y-86573743D01*
X121901190Y-85637619D01*
X122122686Y-85637619D01*
X122154164Y-85628376D01*
X122183006Y-85595090D01*
X122189274Y-85551495D01*
X122170978Y-85511431D01*
X122133926Y-85487619D01*
X121831550Y-85487619D01*
X121815066Y-85485249D01*
X121809876Y-85487619D01*
X121529694Y-85487619D01*
X121498216Y-85496862D01*
X121469374Y-85530148D01*
X121463106Y-85573743D01*
X119704166Y-85573743D01*
X119704166Y-84942143D01*
X131995834Y-84942143D01*
X131995834Y-90292857D01*
G37*
M02*
