%TF.GenerationSoftware,KiCad,Pcbnew,7.0.1*%
%TF.CreationDate,2025-01-04T09:06:00-08:00*%
%TF.ProjectId,project,70726f6a-6563-4742-9e6b-696361645f70,rev?*%
%TF.SameCoordinates,Original*%
%TF.FileFunction,Copper,L1,Top*%
%TF.FilePolarity,Positive*%
%FSLAX46Y46*%
G04 Gerber Fmt 4.6, Leading zero omitted, Abs format (unit mm)*
G04 Created by KiCad (PCBNEW 7.0.1) date 2025-01-04 09:06:00*
%MOMM*%
%LPD*%
G01*
G04 APERTURE LIST*
%TA.AperFunction,SMDPad,CuDef*%
%ADD10R,2.500000X0.300000*%
%TD*%
%TA.AperFunction,SMDPad,CuDef*%
%ADD11R,0.300000X2.500000*%
%TD*%
%TA.AperFunction,ViaPad*%
%ADD12C,0.600000*%
%TD*%
%TA.AperFunction,Conductor*%
%ADD13C,0.250000*%
%TD*%
%TA.AperFunction,Conductor*%
%ADD14C,0.300000*%
%TD*%
G04 APERTURE END LIST*
D10*
%TO.P,REF\u002A\u002A,2*%
%TO.N,VCC*%
X147500000Y-114500000D03*
%TO.P,REF\u002A\u002A,3*%
%TO.N,VDD5*%
X147500000Y-114000000D03*
%TO.P,REF\u002A\u002A,4*%
%TO.N,DCK*%
X147500000Y-113500000D03*
%TO.P,REF\u002A\u002A,5*%
%TO.N,LP*%
X147500000Y-113000000D03*
%TO.P,REF\u002A\u002A,6*%
%TO.N,PS*%
X147500000Y-112500000D03*
%TO.P,REF\u002A\u002A,7*%
%TO.N,LDB5*%
X147500000Y-112000000D03*
%TO.P,REF\u002A\u002A,8*%
%TO.N,LDB4*%
X147500000Y-111500000D03*
%TO.P,REF\u002A\u002A,9*%
%TO.N,LDB3*%
X147500000Y-111000000D03*
%TO.P,REF\u002A\u002A,10*%
%TO.N,LDB2*%
X147500000Y-110500000D03*
%TO.P,REF\u002A\u002A,11*%
%TO.N,LDB1*%
X147500000Y-110000000D03*
%TO.P,REF\u002A\u002A,12*%
%TO.N,LDB0*%
X147500000Y-109500000D03*
%TO.P,REF\u002A\u002A,13*%
%TO.N,LDG5*%
X147500000Y-109000000D03*
%TO.P,REF\u002A\u002A,14*%
%TO.N,LDG4*%
X147500000Y-108500000D03*
%TO.P,REF\u002A\u002A,15*%
%TO.N,LDG3*%
X147500000Y-108000000D03*
%TO.P,REF\u002A\u002A,16*%
%TO.N,LDG2*%
X147500000Y-107500000D03*
%TO.P,REF\u002A\u002A,17*%
%TO.N,LDG1*%
X147500000Y-107000000D03*
%TO.P,REF\u002A\u002A,18*%
%TO.N,LDG0*%
X147500000Y-106500000D03*
%TO.P,REF\u002A\u002A,19*%
%TO.N,LDR5*%
X147500000Y-106000000D03*
%TO.P,REF\u002A\u002A,20*%
%TO.N,LDR4*%
X147500000Y-105500000D03*
%TO.P,REF\u002A\u002A,21*%
%TO.N,LDR3*%
X147500000Y-105000000D03*
%TO.P,REF\u002A\u002A,22*%
%TO.N,LDR2*%
X147500000Y-104500000D03*
%TO.P,REF\u002A\u002A,23*%
%TO.N,LDR1*%
X147500000Y-104000000D03*
%TO.P,REF\u002A\u002A,24*%
%TO.N,LDR0*%
X147500000Y-103500000D03*
%TO.P,REF\u002A\u002A,25*%
%TO.N,SPL*%
X147500000Y-103000000D03*
%TO.P,REF\u002A\u002A,26*%
%TO.N,SPS*%
X147500000Y-102500000D03*
%TO.P,REF\u002A\u002A,27*%
%TO.N,TOUCH*%
X147500000Y-102000000D03*
%TO.P,REF\u002A\u002A,28*%
%TO.N,GND*%
X147500000Y-101500000D03*
%TO.P,REF\u002A\u002A,29*%
X147500000Y-101000000D03*
%TD*%
D11*
%TO.P,REF\u002A\u002A,1*%
%TO.N,GND*%
X135500000Y-75000000D03*
%TO.P,REF\u002A\u002A,2*%
%TO.N,DCK*%
X135000000Y-75000000D03*
%TO.P,REF\u002A\u002A,3*%
%TO.N,GND*%
X134500000Y-75000000D03*
%TO.P,REF\u002A\u002A,4*%
%TO.N,SPS*%
X134000000Y-75000000D03*
%TO.P,REF\u002A\u002A,5*%
%TO.N,LP*%
X133500000Y-75000000D03*
%TO.P,REF\u002A\u002A,6*%
%TO.N,N/C*%
X133000000Y-75000000D03*
%TO.P,REF\u002A\u002A,7*%
%TO.N,LDR1*%
X132500000Y-75000000D03*
%TO.P,REF\u002A\u002A,8*%
%TO.N,LDR2*%
X132000000Y-75000000D03*
%TO.P,REF\u002A\u002A,9*%
%TO.N,LDR3*%
X131500000Y-75000000D03*
%TO.P,REF\u002A\u002A,10*%
%TO.N,LDR4*%
X131000000Y-75000000D03*
%TO.P,REF\u002A\u002A,11*%
%TO.N,LDR5*%
X130500000Y-75000000D03*
%TO.P,REF\u002A\u002A,12*%
%TO.N,N/C*%
X130000000Y-75000000D03*
%TO.P,REF\u002A\u002A,13*%
%TO.N,LDG1*%
X129500000Y-75000000D03*
%TO.P,REF\u002A\u002A,14*%
%TO.N,LDG2*%
X129000000Y-75000000D03*
%TO.P,REF\u002A\u002A,15*%
%TO.N,LDG3*%
X128500000Y-75000000D03*
%TO.P,REF\u002A\u002A,16*%
%TO.N,LDG4*%
X128000000Y-75000000D03*
%TO.P,REF\u002A\u002A,17*%
%TO.N,LDG5*%
X127500000Y-75000000D03*
%TO.P,REF\u002A\u002A,18*%
%TO.N,N/C*%
X127000000Y-75000000D03*
%TO.P,REF\u002A\u002A,19*%
%TO.N,LDB1*%
X126500000Y-75000000D03*
%TO.P,REF\u002A\u002A,20*%
%TO.N,LDB2*%
X126000000Y-75000000D03*
%TO.P,REF\u002A\u002A,21*%
%TO.N,LDB3*%
X125500000Y-75000000D03*
%TO.P,REF\u002A\u002A,22*%
%TO.N,LDB4*%
X125000000Y-75000000D03*
%TO.P,REF\u002A\u002A,23*%
%TO.N,LDB5*%
X124500000Y-75000000D03*
%TO.P,REF\u002A\u002A,24*%
%TO.N,N/C*%
X124000000Y-75000000D03*
%TO.P,REF\u002A\u002A,25*%
X123500000Y-75000000D03*
%TO.P,REF\u002A\u002A,26*%
X123000000Y-75000000D03*
%TO.P,REF\u002A\u002A,27*%
X122500000Y-75000000D03*
%TO.P,REF\u002A\u002A,28*%
%TO.N,GND*%
X122000000Y-75000000D03*
%TO.P,REF\u002A\u002A,29*%
%TO.N,VDD5*%
X121500000Y-75000000D03*
%TO.P,REF\u002A\u002A,30*%
%TO.N,N/C*%
X121000000Y-75000000D03*
%TO.P,REF\u002A\u002A,31*%
X120500000Y-75000000D03*
%TO.P,REF\u002A\u002A,32*%
X120000000Y-75000000D03*
%TO.P,REF\u002A\u002A,33*%
%TO.N,GND*%
X119500000Y-75000000D03*
%TO.P,REF\u002A\u002A,34*%
X119000000Y-75000000D03*
%TO.P,REF\u002A\u002A,35*%
%TO.N,VCC*%
X118500000Y-75000000D03*
%TO.P,REF\u002A\u002A,36*%
X118000000Y-75000000D03*
%TO.P,REF\u002A\u002A,37*%
%TO.N,N/C*%
X117500000Y-75000000D03*
%TO.P,REF\u002A\u002A,38*%
X117000000Y-75000000D03*
%TO.P,REF\u002A\u002A,39*%
%TO.N,TOUCH*%
X116500000Y-75000000D03*
%TO.P,REF\u002A\u002A,40*%
%TO.N,N/C*%
X116000000Y-75000000D03*
%TD*%
D12*
%TO.N,GND*%
X138750000Y-103250000D03*
X122500000Y-112500000D03*
X120500000Y-78500000D03*
X123250000Y-78500000D03*
X119750000Y-78500000D03*
X122500000Y-77750000D03*
X122500000Y-107500000D03*
X122500000Y-78500000D03*
X142250000Y-101250000D03*
X125250000Y-112500000D03*
X140500000Y-103250000D03*
X138750000Y-101250000D03*
X137000000Y-101250000D03*
X120500000Y-77750000D03*
X120000000Y-107500000D03*
X140500000Y-101250000D03*
X119750000Y-77750000D03*
X125250000Y-107500000D03*
X122500000Y-110000000D03*
X120000000Y-110000000D03*
X125250000Y-110000000D03*
X120000000Y-112500000D03*
X137000000Y-103250000D03*
X142250000Y-103250000D03*
X123250000Y-77750000D03*
%TO.N,LP*%
X133250000Y-100750000D03*
X142750000Y-112624500D03*
%TO.N,DCK*%
X135000000Y-99250000D03*
X141750000Y-113249000D03*
%TO.N,TOUCH*%
X144775000Y-101950500D03*
X116525000Y-77650000D03*
%TD*%
D13*
%TO.N,SPS*%
X145450000Y-102500000D02*
X147500000Y-102500000D01*
X133750000Y-100308058D02*
X136066942Y-102625000D01*
X134000000Y-76686396D02*
X133750000Y-76936396D01*
X136066942Y-102625000D02*
X145325000Y-102625000D01*
X134000000Y-75000000D02*
X134000000Y-76686396D01*
X145325000Y-102625000D02*
X145450000Y-102500000D01*
X133750000Y-76936396D02*
X133750000Y-100308058D01*
%TO.N,LDR1*%
X132500000Y-101000000D02*
X135500000Y-104000000D01*
X135500000Y-104000000D02*
X147500000Y-104000000D01*
X132500000Y-75000000D02*
X132500000Y-101000000D01*
%TO.N,LDR2*%
X132000000Y-75000000D02*
X132000000Y-101136396D01*
X135363604Y-104500000D02*
X147500000Y-104500000D01*
X132000000Y-101136396D02*
X135363604Y-104500000D01*
%TO.N,LDR3*%
X131500000Y-75000000D02*
X131500000Y-101272792D01*
X131500000Y-101272792D02*
X135227208Y-105000000D01*
X135227208Y-105000000D02*
X147500000Y-105000000D01*
%TO.N,LDR4*%
X131000000Y-75000000D02*
X131000000Y-101409188D01*
X131000000Y-101409188D02*
X135090812Y-105500000D01*
X135090812Y-105500000D02*
X147500000Y-105500000D01*
%TO.N,LDR5*%
X134954416Y-106000000D02*
X147500000Y-106000000D01*
X130500000Y-101545584D02*
X134954416Y-106000000D01*
X130500000Y-75000000D02*
X130500000Y-101545584D01*
%TO.N,LDG1*%
X135318020Y-107000000D02*
X147500000Y-107000000D01*
X129500000Y-101181980D02*
X135318020Y-107000000D01*
X129500000Y-75000000D02*
X129500000Y-101181980D01*
%TO.N,LDG2*%
X135181624Y-107500000D02*
X147500000Y-107500000D01*
X129000000Y-75000000D02*
X129000000Y-101318376D01*
X129000000Y-101318376D02*
X135181624Y-107500000D01*
%TO.N,LDG3*%
X128500000Y-101454772D02*
X135045228Y-108000000D01*
X128500000Y-75000000D02*
X128500000Y-101454772D01*
X135045228Y-108000000D02*
X147500000Y-108000000D01*
%TO.N,LDG4*%
X134908832Y-108500000D02*
X147500000Y-108500000D01*
X128000000Y-75000000D02*
X128000000Y-101591168D01*
X128000000Y-101591168D02*
X134908832Y-108500000D01*
%TO.N,LDG5*%
X134772436Y-109000000D02*
X147500000Y-109000000D01*
X127500000Y-75000000D02*
X127500000Y-101727564D01*
X127500000Y-101727564D02*
X134772436Y-109000000D01*
%TO.N,LDB1*%
X126500000Y-101363960D02*
X135136040Y-110000000D01*
X135136040Y-110000000D02*
X147500000Y-110000000D01*
X126500000Y-75000000D02*
X126500000Y-101363960D01*
%TO.N,LDB2*%
X134999644Y-110500000D02*
X147500000Y-110500000D01*
X126000000Y-75000000D02*
X126000000Y-101500356D01*
X126000000Y-101500356D02*
X134999644Y-110500000D01*
%TO.N,LDB3*%
X125500000Y-75000000D02*
X125500000Y-101636752D01*
X125500000Y-101636752D02*
X134863248Y-111000000D01*
X134863248Y-111000000D02*
X147500000Y-111000000D01*
%TO.N,LDB4*%
X125000000Y-101773148D02*
X134726852Y-111500000D01*
X125000000Y-75000000D02*
X125000000Y-101773148D01*
X134726852Y-111500000D02*
X147500000Y-111500000D01*
%TO.N,LDB5*%
X124500000Y-75000000D02*
X124500000Y-101909544D01*
X124500000Y-101909544D02*
X134590456Y-112000000D01*
X134590456Y-112000000D02*
X147500000Y-112000000D01*
D14*
%TO.N,VCC*%
X118500000Y-97421751D02*
X118500000Y-76750000D01*
X118000000Y-76750000D02*
X118500000Y-76750000D01*
X147500000Y-114500000D02*
X135578249Y-114500000D01*
X135578249Y-114500000D02*
X118500000Y-97421751D01*
X118500000Y-76750000D02*
X118500000Y-75000000D01*
X118000000Y-75000000D02*
X118000000Y-76750000D01*
D13*
%TO.N,LP*%
X143125500Y-113000000D02*
X147500000Y-113000000D01*
X133500000Y-76550000D02*
X133500000Y-75000000D01*
X133250000Y-100750000D02*
X133250000Y-76800000D01*
X142750000Y-112624500D02*
X143125500Y-113000000D01*
X133250000Y-76800000D02*
X133500000Y-76550000D01*
%TO.N,DCK*%
X142001000Y-113500000D02*
X141750000Y-113249000D01*
X147500000Y-113500000D02*
X142001000Y-113500000D01*
X135000000Y-99250000D02*
X135000000Y-75000000D01*
%TO.N,VDD5*%
X135750000Y-114000000D02*
X147500000Y-114000000D01*
X121500000Y-99750000D02*
X135750000Y-114000000D01*
X121500000Y-75000000D02*
X121500000Y-99750000D01*
%TO.N,TOUCH*%
X144824500Y-102000000D02*
X144775000Y-101950500D01*
X116525000Y-77650000D02*
X116500000Y-77625000D01*
X116500000Y-77625000D02*
X116500000Y-75000000D01*
X147500000Y-102000000D02*
X144824500Y-102000000D01*
%TD*%
%TA.AperFunction,Conductor*%
%TO.N,GND*%
G36*
X117330252Y-76450500D02*
G01*
X117525500Y-76450500D01*
X117587500Y-76467113D01*
X117632887Y-76512500D01*
X117649500Y-76574500D01*
X117649500Y-76730376D01*
X117649077Y-76740614D01*
X117645868Y-76779344D01*
X117655408Y-76817018D01*
X117657507Y-76827029D01*
X117661174Y-76849000D01*
X117663973Y-76865773D01*
X117674367Y-76892409D01*
X117695836Y-76925270D01*
X117701081Y-76934072D01*
X117719771Y-76968608D01*
X117738249Y-76990424D01*
X117738562Y-76990667D01*
X117738563Y-76990669D01*
X117761974Y-77008890D01*
X117769234Y-77014541D01*
X117777055Y-77021166D01*
X117805934Y-77047752D01*
X117830494Y-77062386D01*
X117830872Y-77062516D01*
X117830874Y-77062517D01*
X117867623Y-77075133D01*
X117877165Y-77078856D01*
X117913133Y-77094633D01*
X117941114Y-77100500D01*
X117941512Y-77100500D01*
X117980376Y-77100500D01*
X117990613Y-77100923D01*
X117996362Y-77101399D01*
X118029344Y-77104132D01*
X118029345Y-77104131D01*
X118035737Y-77104661D01*
X118093320Y-77124428D01*
X118134554Y-77169220D01*
X118149500Y-77228238D01*
X118149500Y-97372539D01*
X118146861Y-97397985D01*
X118144957Y-97407065D01*
X118148548Y-97435874D01*
X118149458Y-97450546D01*
X118152665Y-97469764D01*
X118153403Y-97474829D01*
X118160351Y-97530560D01*
X118187081Y-97579953D01*
X118189421Y-97584498D01*
X118210802Y-97628235D01*
X118210803Y-97628236D01*
X118214084Y-97634947D01*
X118219581Y-97640007D01*
X118219582Y-97640009D01*
X118225221Y-97645200D01*
X118255399Y-97672981D01*
X118259097Y-97676530D01*
X135170386Y-114587819D01*
X135200636Y-114637182D01*
X135205178Y-114694898D01*
X135183023Y-114748385D01*
X135139000Y-114785985D01*
X135082705Y-114799500D01*
X117504067Y-114799500D01*
X117495957Y-114799235D01*
X117273221Y-114784636D01*
X117257140Y-114782518D01*
X117042228Y-114739769D01*
X117026561Y-114735571D01*
X116819057Y-114665133D01*
X116804071Y-114658926D01*
X116607539Y-114562007D01*
X116593492Y-114553897D01*
X116411291Y-114432154D01*
X116398423Y-114422280D01*
X116251007Y-114293000D01*
X116799500Y-114293000D01*
X116799500Y-114352280D01*
X116916061Y-114409762D01*
X117105059Y-114473918D01*
X117300829Y-114512859D01*
X117401500Y-114519458D01*
X117401500Y-114293000D01*
X117650500Y-114293000D01*
X117650500Y-114526500D01*
X118252500Y-114526500D01*
X118252500Y-114293000D01*
X118501500Y-114293000D01*
X118501500Y-114526500D01*
X119103500Y-114526500D01*
X119103500Y-114293000D01*
X119352500Y-114293000D01*
X119352500Y-114526500D01*
X119954500Y-114526500D01*
X119954500Y-114293000D01*
X120203500Y-114293000D01*
X120203500Y-114526500D01*
X120805500Y-114526500D01*
X120805500Y-114293000D01*
X121054500Y-114293000D01*
X121054500Y-114526500D01*
X121656500Y-114526500D01*
X121656500Y-114293000D01*
X121905500Y-114293000D01*
X121905500Y-114526500D01*
X122507500Y-114526500D01*
X122507500Y-114293000D01*
X122756500Y-114293000D01*
X122756500Y-114526500D01*
X123358500Y-114526500D01*
X123358500Y-114293000D01*
X123607500Y-114293000D01*
X123607500Y-114526500D01*
X124209500Y-114526500D01*
X124209500Y-114293000D01*
X124458500Y-114293000D01*
X124458500Y-114526500D01*
X125060500Y-114526500D01*
X125060500Y-114293000D01*
X125309500Y-114293000D01*
X125309500Y-114526500D01*
X125911500Y-114526500D01*
X125911500Y-114293000D01*
X126160500Y-114293000D01*
X126160500Y-114526500D01*
X126762500Y-114526500D01*
X126762500Y-114293000D01*
X127011500Y-114293000D01*
X127011500Y-114526500D01*
X127613500Y-114526500D01*
X127613500Y-114293000D01*
X127862500Y-114293000D01*
X127862500Y-114526500D01*
X128464500Y-114526500D01*
X128464500Y-114293000D01*
X128713500Y-114293000D01*
X128713500Y-114526500D01*
X129315500Y-114526500D01*
X129315500Y-114293000D01*
X129564500Y-114293000D01*
X129564500Y-114526500D01*
X130166500Y-114526500D01*
X130166500Y-114293000D01*
X130415500Y-114293000D01*
X130415500Y-114526500D01*
X131017500Y-114526500D01*
X131017500Y-114293000D01*
X131266500Y-114293000D01*
X131266500Y-114526500D01*
X131868500Y-114526500D01*
X131868500Y-114293000D01*
X132117500Y-114293000D01*
X132117500Y-114526500D01*
X132719500Y-114526500D01*
X132719500Y-114293000D01*
X132968500Y-114293000D01*
X132968500Y-114526500D01*
X133570500Y-114526500D01*
X133570500Y-114293000D01*
X133819500Y-114293000D01*
X133819500Y-114526500D01*
X134421500Y-114526500D01*
X134421500Y-114293000D01*
X133819500Y-114293000D01*
X133570500Y-114293000D01*
X132968500Y-114293000D01*
X132719500Y-114293000D01*
X132117500Y-114293000D01*
X131868500Y-114293000D01*
X131266500Y-114293000D01*
X131017500Y-114293000D01*
X130415500Y-114293000D01*
X130166500Y-114293000D01*
X129564500Y-114293000D01*
X129315500Y-114293000D01*
X128713500Y-114293000D01*
X128464500Y-114293000D01*
X127862500Y-114293000D01*
X127613500Y-114293000D01*
X127011500Y-114293000D01*
X126762500Y-114293000D01*
X126160500Y-114293000D01*
X125911500Y-114293000D01*
X125309500Y-114293000D01*
X125060500Y-114293000D01*
X124458500Y-114293000D01*
X124209500Y-114293000D01*
X123607500Y-114293000D01*
X123358500Y-114293000D01*
X122756500Y-114293000D01*
X122507500Y-114293000D01*
X121905500Y-114293000D01*
X121656500Y-114293000D01*
X121054500Y-114293000D01*
X120805500Y-114293000D01*
X120203500Y-114293000D01*
X119954500Y-114293000D01*
X119352500Y-114293000D01*
X119103500Y-114293000D01*
X118501500Y-114293000D01*
X118252500Y-114293000D01*
X117650500Y-114293000D01*
X117401500Y-114293000D01*
X116799500Y-114293000D01*
X116251007Y-114293000D01*
X116233671Y-114277797D01*
X116222202Y-114266328D01*
X116137504Y-114169748D01*
X116077716Y-114101573D01*
X116067845Y-114088708D01*
X115946102Y-113906507D01*
X115937992Y-113892460D01*
X115935196Y-113886791D01*
X115841070Y-113695921D01*
X115834866Y-113680942D01*
X115827530Y-113659332D01*
X115773101Y-113498988D01*
X115764428Y-113473438D01*
X115760230Y-113457771D01*
X115757093Y-113442000D01*
X116042055Y-113442000D01*
X116090235Y-113583937D01*
X116178518Y-113762955D01*
X116289408Y-113928915D01*
X116390335Y-114044000D01*
X116550500Y-114044000D01*
X116550500Y-113442000D01*
X116799500Y-113442000D01*
X116799500Y-114044000D01*
X117401500Y-114044000D01*
X117401500Y-113442000D01*
X117650500Y-113442000D01*
X117650500Y-114044000D01*
X118252500Y-114044000D01*
X118252500Y-113442000D01*
X118501500Y-113442000D01*
X118501500Y-114044000D01*
X119103500Y-114044000D01*
X119103500Y-113442000D01*
X119352500Y-113442000D01*
X119352500Y-114044000D01*
X119954500Y-114044000D01*
X119954500Y-113442000D01*
X120203500Y-113442000D01*
X120203500Y-114044000D01*
X120805500Y-114044000D01*
X120805500Y-113442000D01*
X121054500Y-113442000D01*
X121054500Y-114044000D01*
X121656500Y-114044000D01*
X121656500Y-113442000D01*
X121905500Y-113442000D01*
X121905500Y-114044000D01*
X122507500Y-114044000D01*
X122507500Y-113442000D01*
X122756500Y-113442000D01*
X122756500Y-114044000D01*
X123358500Y-114044000D01*
X123358500Y-113442000D01*
X123607500Y-113442000D01*
X123607500Y-114044000D01*
X124209500Y-114044000D01*
X124209500Y-113442000D01*
X124458500Y-113442000D01*
X124458500Y-114044000D01*
X125060500Y-114044000D01*
X125060500Y-113442000D01*
X125309500Y-113442000D01*
X125309500Y-114044000D01*
X125911500Y-114044000D01*
X125911500Y-113442000D01*
X126160500Y-113442000D01*
X126160500Y-114044000D01*
X126762500Y-114044000D01*
X126762500Y-113442000D01*
X127011500Y-113442000D01*
X127011500Y-114044000D01*
X127613500Y-114044000D01*
X127613500Y-113442000D01*
X127862500Y-113442000D01*
X127862500Y-114044000D01*
X128464500Y-114044000D01*
X128464500Y-113442000D01*
X128713500Y-113442000D01*
X128713500Y-114044000D01*
X129315500Y-114044000D01*
X129315500Y-113442000D01*
X129564500Y-113442000D01*
X129564500Y-114044000D01*
X130166500Y-114044000D01*
X130166500Y-113442000D01*
X130415500Y-113442000D01*
X130415500Y-114044000D01*
X131017500Y-114044000D01*
X131017500Y-113442000D01*
X131266500Y-113442000D01*
X131266500Y-114044000D01*
X131868500Y-114044000D01*
X131868500Y-113442000D01*
X132117500Y-113442000D01*
X132117500Y-114044000D01*
X132719500Y-114044000D01*
X132719500Y-113442000D01*
X132968500Y-113442000D01*
X132968500Y-114044000D01*
X133570500Y-114044000D01*
X133570500Y-113623013D01*
X133819500Y-113623013D01*
X133819500Y-114044000D01*
X134240487Y-114044000D01*
X133819500Y-113623013D01*
X133570500Y-113623013D01*
X133570500Y-113442000D01*
X132968500Y-113442000D01*
X132719500Y-113442000D01*
X132117500Y-113442000D01*
X131868500Y-113442000D01*
X131266500Y-113442000D01*
X131017500Y-113442000D01*
X130415500Y-113442000D01*
X130166500Y-113442000D01*
X129564500Y-113442000D01*
X129315500Y-113442000D01*
X128713500Y-113442000D01*
X128464500Y-113442000D01*
X127862500Y-113442000D01*
X127613500Y-113442000D01*
X127011500Y-113442000D01*
X126762500Y-113442000D01*
X126160500Y-113442000D01*
X125911500Y-113442000D01*
X125309500Y-113442000D01*
X125060500Y-113442000D01*
X124458500Y-113442000D01*
X124209500Y-113442000D01*
X123607500Y-113442000D01*
X123358500Y-113442000D01*
X122756500Y-113442000D01*
X122507500Y-113442000D01*
X121905500Y-113442000D01*
X121656500Y-113442000D01*
X121054500Y-113442000D01*
X120805500Y-113442000D01*
X120203500Y-113442000D01*
X119954500Y-113442000D01*
X119352500Y-113442000D01*
X119103500Y-113442000D01*
X118501500Y-113442000D01*
X118252500Y-113442000D01*
X117650500Y-113442000D01*
X117401500Y-113442000D01*
X116799500Y-113442000D01*
X116550500Y-113442000D01*
X116042055Y-113442000D01*
X115757093Y-113442000D01*
X115723232Y-113271769D01*
X115717479Y-113242848D01*
X115715364Y-113226790D01*
X115700765Y-113004043D01*
X115700500Y-112995933D01*
X115700500Y-112591000D01*
X115973500Y-112591000D01*
X115973500Y-112991056D01*
X115986735Y-113193000D01*
X116550500Y-113193000D01*
X116550500Y-112591000D01*
X116799500Y-112591000D01*
X116799500Y-113193000D01*
X117401500Y-113193000D01*
X117401500Y-112591000D01*
X117650500Y-112591000D01*
X117650500Y-113193000D01*
X118252500Y-113193000D01*
X118252500Y-112591000D01*
X118501500Y-112591000D01*
X118501500Y-113193000D01*
X119103500Y-113193000D01*
X119103500Y-112591000D01*
X119352500Y-112591000D01*
X119352500Y-113193000D01*
X119954500Y-113193000D01*
X120203500Y-113193000D01*
X120805500Y-113193000D01*
X120805500Y-112591000D01*
X121054500Y-112591000D01*
X121054500Y-113193000D01*
X121656500Y-113193000D01*
X121656500Y-112591000D01*
X121905500Y-112591000D01*
X121905500Y-113193000D01*
X122507500Y-113193000D01*
X122756500Y-113193000D01*
X123358500Y-113193000D01*
X123358500Y-112591000D01*
X123607500Y-112591000D01*
X123607500Y-113193000D01*
X124209500Y-113193000D01*
X124209500Y-112591000D01*
X124458500Y-112591000D01*
X124458500Y-113193000D01*
X125060500Y-113193000D01*
X125309500Y-113193000D01*
X125911500Y-113193000D01*
X125911500Y-112591000D01*
X126160500Y-112591000D01*
X126160500Y-113193000D01*
X126762500Y-113193000D01*
X126762500Y-112591000D01*
X127011500Y-112591000D01*
X127011500Y-113193000D01*
X127613500Y-113193000D01*
X127613500Y-112591000D01*
X127862500Y-112591000D01*
X127862500Y-113193000D01*
X128464500Y-113193000D01*
X128464500Y-112591000D01*
X128713500Y-112591000D01*
X128713500Y-113193000D01*
X129315500Y-113193000D01*
X129315500Y-112591000D01*
X129564500Y-112591000D01*
X129564500Y-113193000D01*
X130166500Y-113193000D01*
X130166500Y-112591000D01*
X130415500Y-112591000D01*
X130415500Y-113193000D01*
X131017500Y-113193000D01*
X131017500Y-112591000D01*
X131266500Y-112591000D01*
X131266500Y-113193000D01*
X131868500Y-113193000D01*
X131868500Y-112591000D01*
X132117500Y-112591000D01*
X132117500Y-113193000D01*
X132719500Y-113193000D01*
X132719500Y-112772013D01*
X132968500Y-112772013D01*
X132968500Y-113193000D01*
X133389487Y-113193000D01*
X132968500Y-112772013D01*
X132719500Y-112772013D01*
X132719500Y-112591000D01*
X132117500Y-112591000D01*
X131868500Y-112591000D01*
X131266500Y-112591000D01*
X131017500Y-112591000D01*
X130415500Y-112591000D01*
X130166500Y-112591000D01*
X129564500Y-112591000D01*
X129315500Y-112591000D01*
X128713500Y-112591000D01*
X128464500Y-112591000D01*
X127862500Y-112591000D01*
X127613500Y-112591000D01*
X127011500Y-112591000D01*
X126762500Y-112591000D01*
X126160500Y-112591000D01*
X125911500Y-112591000D01*
X125791430Y-112591000D01*
X125781711Y-112652367D01*
X125769723Y-112689264D01*
X125708603Y-112809218D01*
X125685799Y-112840604D01*
X125590604Y-112935799D01*
X125559218Y-112958603D01*
X125439264Y-113019723D01*
X125402367Y-113031711D01*
X125309500Y-113046420D01*
X125309500Y-113193000D01*
X125060500Y-113193000D01*
X125060500Y-113019603D01*
X124940782Y-112958603D01*
X124909396Y-112935799D01*
X124814201Y-112840604D01*
X124791397Y-112809218D01*
X124730277Y-112689264D01*
X124718289Y-112652367D01*
X124708570Y-112591000D01*
X124458500Y-112591000D01*
X124209500Y-112591000D01*
X123607500Y-112591000D01*
X123358500Y-112591000D01*
X123041430Y-112591000D01*
X123031711Y-112652367D01*
X123019723Y-112689264D01*
X122958603Y-112809218D01*
X122935799Y-112840604D01*
X122840604Y-112935799D01*
X122809218Y-112958603D01*
X122756500Y-112985464D01*
X122756500Y-113193000D01*
X122507500Y-113193000D01*
X122507500Y-113052771D01*
X122480602Y-113052771D01*
X122347633Y-113031711D01*
X122310736Y-113019723D01*
X122190782Y-112958603D01*
X122159396Y-112935799D01*
X122064201Y-112840604D01*
X122041397Y-112809218D01*
X121980277Y-112689264D01*
X121968289Y-112652367D01*
X121958570Y-112591000D01*
X121905500Y-112591000D01*
X121656500Y-112591000D01*
X121054500Y-112591000D01*
X120805500Y-112591000D01*
X120541430Y-112591000D01*
X120531711Y-112652367D01*
X120519723Y-112689264D01*
X120458603Y-112809218D01*
X120435799Y-112840604D01*
X120340604Y-112935799D01*
X120309218Y-112958603D01*
X120203500Y-113012469D01*
X120203500Y-113193000D01*
X119954500Y-113193000D01*
X119954500Y-113048637D01*
X119847633Y-113031711D01*
X119810736Y-113019723D01*
X119690782Y-112958603D01*
X119659396Y-112935799D01*
X119564201Y-112840604D01*
X119541397Y-112809218D01*
X119480277Y-112689264D01*
X119468289Y-112652367D01*
X119458570Y-112591000D01*
X119352500Y-112591000D01*
X119103500Y-112591000D01*
X118501500Y-112591000D01*
X118252500Y-112591000D01*
X117650500Y-112591000D01*
X117401500Y-112591000D01*
X116799500Y-112591000D01*
X116550500Y-112591000D01*
X115973500Y-112591000D01*
X115700500Y-112591000D01*
X115700500Y-111740000D01*
X115973500Y-111740000D01*
X115973500Y-112342000D01*
X116550500Y-112342000D01*
X116550500Y-111740000D01*
X116799500Y-111740000D01*
X116799500Y-112342000D01*
X117401500Y-112342000D01*
X117401500Y-111740000D01*
X117650500Y-111740000D01*
X117650500Y-112342000D01*
X118252500Y-112342000D01*
X118252500Y-111740000D01*
X118501500Y-111740000D01*
X118501500Y-112342000D01*
X119103500Y-112342000D01*
X119103500Y-111740000D01*
X119352500Y-111740000D01*
X119352500Y-112342000D01*
X119470119Y-112342000D01*
X119480277Y-112310736D01*
X119541397Y-112190782D01*
X119564201Y-112159396D01*
X119659396Y-112064201D01*
X119690782Y-112041397D01*
X119810736Y-111980277D01*
X119847633Y-111968289D01*
X119954500Y-111951363D01*
X119954500Y-111740000D01*
X120203500Y-111740000D01*
X120203500Y-111987531D01*
X120309218Y-112041397D01*
X120340604Y-112064201D01*
X120435799Y-112159396D01*
X120458603Y-112190782D01*
X120519723Y-112310736D01*
X120529881Y-112342000D01*
X120805500Y-112342000D01*
X120805500Y-111740000D01*
X121054500Y-111740000D01*
X121054500Y-112342000D01*
X121656500Y-112342000D01*
X121656500Y-111740000D01*
X121905500Y-111740000D01*
X121905500Y-112342000D01*
X121970119Y-112342000D01*
X121980277Y-112310736D01*
X122041397Y-112190782D01*
X122064201Y-112159396D01*
X122159396Y-112064201D01*
X122190782Y-112041397D01*
X122310736Y-111980277D01*
X122347633Y-111968289D01*
X122480602Y-111947229D01*
X122507500Y-111947229D01*
X122507500Y-111740000D01*
X122756500Y-111740000D01*
X122756500Y-112014536D01*
X122809218Y-112041397D01*
X122840604Y-112064201D01*
X122935799Y-112159396D01*
X122958603Y-112190782D01*
X123019723Y-112310736D01*
X123029881Y-112342000D01*
X123358500Y-112342000D01*
X123358500Y-111740000D01*
X123607500Y-111740000D01*
X123607500Y-112342000D01*
X124209500Y-112342000D01*
X124209500Y-111740000D01*
X124458500Y-111740000D01*
X124458500Y-112342000D01*
X124720119Y-112342000D01*
X124730277Y-112310736D01*
X124791397Y-112190782D01*
X124814201Y-112159396D01*
X124909396Y-112064201D01*
X124940782Y-112041397D01*
X125060500Y-111980397D01*
X125060500Y-111740000D01*
X125309500Y-111740000D01*
X125309500Y-111953580D01*
X125402367Y-111968289D01*
X125439264Y-111980277D01*
X125559218Y-112041397D01*
X125590604Y-112064201D01*
X125685799Y-112159396D01*
X125708603Y-112190782D01*
X125769723Y-112310736D01*
X125779881Y-112342000D01*
X125911500Y-112342000D01*
X125911500Y-111740000D01*
X126160500Y-111740000D01*
X126160500Y-112342000D01*
X126762500Y-112342000D01*
X126762500Y-111740000D01*
X127011500Y-111740000D01*
X127011500Y-112342000D01*
X127613500Y-112342000D01*
X127613500Y-111740000D01*
X127862500Y-111740000D01*
X127862500Y-112342000D01*
X128464500Y-112342000D01*
X128464500Y-111740000D01*
X128713500Y-111740000D01*
X128713500Y-112342000D01*
X129315500Y-112342000D01*
X129315500Y-111740000D01*
X129564500Y-111740000D01*
X129564500Y-112342000D01*
X130166500Y-112342000D01*
X130166500Y-111740000D01*
X130415500Y-111740000D01*
X130415500Y-112342000D01*
X131017500Y-112342000D01*
X131017500Y-111740000D01*
X131266500Y-111740000D01*
X131266500Y-112342000D01*
X131868500Y-112342000D01*
X131868500Y-111921013D01*
X132117500Y-111921013D01*
X132117500Y-112342000D01*
X132538487Y-112342000D01*
X132117500Y-111921013D01*
X131868500Y-111921013D01*
X131868500Y-111740000D01*
X131266500Y-111740000D01*
X131017500Y-111740000D01*
X130415500Y-111740000D01*
X130166500Y-111740000D01*
X129564500Y-111740000D01*
X129315500Y-111740000D01*
X128713500Y-111740000D01*
X128464500Y-111740000D01*
X127862500Y-111740000D01*
X127613500Y-111740000D01*
X127011500Y-111740000D01*
X126762500Y-111740000D01*
X126160500Y-111740000D01*
X125911500Y-111740000D01*
X125309500Y-111740000D01*
X125060500Y-111740000D01*
X124458500Y-111740000D01*
X124209500Y-111740000D01*
X123607500Y-111740000D01*
X123358500Y-111740000D01*
X122756500Y-111740000D01*
X122507500Y-111740000D01*
X121905500Y-111740000D01*
X121656500Y-111740000D01*
X121054500Y-111740000D01*
X120805500Y-111740000D01*
X120203500Y-111740000D01*
X119954500Y-111740000D01*
X119352500Y-111740000D01*
X119103500Y-111740000D01*
X118501500Y-111740000D01*
X118252500Y-111740000D01*
X117650500Y-111740000D01*
X117401500Y-111740000D01*
X116799500Y-111740000D01*
X116550500Y-111740000D01*
X115973500Y-111740000D01*
X115700500Y-111740000D01*
X115700500Y-110889000D01*
X115973500Y-110889000D01*
X115973500Y-111491000D01*
X116550500Y-111491000D01*
X116550500Y-110889000D01*
X116799500Y-110889000D01*
X116799500Y-111491000D01*
X117401500Y-111491000D01*
X117401500Y-110889000D01*
X117650500Y-110889000D01*
X117650500Y-111491000D01*
X118252500Y-111491000D01*
X118252500Y-110889000D01*
X118501500Y-110889000D01*
X118501500Y-111491000D01*
X119103500Y-111491000D01*
X119103500Y-110889000D01*
X119352500Y-110889000D01*
X119352500Y-111491000D01*
X119954500Y-111491000D01*
X119954500Y-110889000D01*
X120203500Y-110889000D01*
X120203500Y-111491000D01*
X120805500Y-111491000D01*
X120805500Y-110889000D01*
X121054500Y-110889000D01*
X121054500Y-111491000D01*
X121656500Y-111491000D01*
X121656500Y-110889000D01*
X121905500Y-110889000D01*
X121905500Y-111491000D01*
X122507500Y-111491000D01*
X122507500Y-110889000D01*
X122756500Y-110889000D01*
X122756500Y-111491000D01*
X123358500Y-111491000D01*
X123358500Y-110889000D01*
X123607500Y-110889000D01*
X123607500Y-111491000D01*
X124209500Y-111491000D01*
X124209500Y-110889000D01*
X124458500Y-110889000D01*
X124458500Y-111491000D01*
X125060500Y-111491000D01*
X125060500Y-110889000D01*
X125309500Y-110889000D01*
X125309500Y-111491000D01*
X125911500Y-111491000D01*
X125911500Y-110889000D01*
X126160500Y-110889000D01*
X126160500Y-111491000D01*
X126762500Y-111491000D01*
X126762500Y-110889000D01*
X127011500Y-110889000D01*
X127011500Y-111491000D01*
X127613500Y-111491000D01*
X127613500Y-110889000D01*
X127862500Y-110889000D01*
X127862500Y-111491000D01*
X128464500Y-111491000D01*
X128464500Y-110889000D01*
X128713500Y-110889000D01*
X128713500Y-111491000D01*
X129315500Y-111491000D01*
X129315500Y-110889000D01*
X129564500Y-110889000D01*
X129564500Y-111491000D01*
X130166500Y-111491000D01*
X130166500Y-110889000D01*
X130415500Y-110889000D01*
X130415500Y-111491000D01*
X131017500Y-111491000D01*
X131017500Y-111070013D01*
X131266500Y-111070013D01*
X131266500Y-111491000D01*
X131687487Y-111491000D01*
X131266500Y-111070013D01*
X131017500Y-111070013D01*
X131017500Y-110889000D01*
X130415500Y-110889000D01*
X130166500Y-110889000D01*
X129564500Y-110889000D01*
X129315500Y-110889000D01*
X128713500Y-110889000D01*
X128464500Y-110889000D01*
X127862500Y-110889000D01*
X127613500Y-110889000D01*
X127011500Y-110889000D01*
X126762500Y-110889000D01*
X126160500Y-110889000D01*
X125911500Y-110889000D01*
X125309500Y-110889000D01*
X125060500Y-110889000D01*
X124458500Y-110889000D01*
X124209500Y-110889000D01*
X123607500Y-110889000D01*
X123358500Y-110889000D01*
X122756500Y-110889000D01*
X122507500Y-110889000D01*
X121905500Y-110889000D01*
X121656500Y-110889000D01*
X121054500Y-110889000D01*
X120805500Y-110889000D01*
X120203500Y-110889000D01*
X119954500Y-110889000D01*
X119352500Y-110889000D01*
X119103500Y-110889000D01*
X118501500Y-110889000D01*
X118252500Y-110889000D01*
X117650500Y-110889000D01*
X117401500Y-110889000D01*
X116799500Y-110889000D01*
X116550500Y-110889000D01*
X115973500Y-110889000D01*
X115700500Y-110889000D01*
X115700500Y-110038000D01*
X115973500Y-110038000D01*
X115973500Y-110640000D01*
X116550500Y-110640000D01*
X116550500Y-110038000D01*
X116799500Y-110038000D01*
X116799500Y-110640000D01*
X117401500Y-110640000D01*
X117401500Y-110038000D01*
X117650500Y-110038000D01*
X117650500Y-110640000D01*
X118252500Y-110640000D01*
X118252500Y-110038000D01*
X118501500Y-110038000D01*
X118501500Y-110640000D01*
X119103500Y-110640000D01*
X119103500Y-110038000D01*
X119352500Y-110038000D01*
X119352500Y-110640000D01*
X119954500Y-110640000D01*
X120203500Y-110640000D01*
X120805500Y-110640000D01*
X120805500Y-110038000D01*
X121054500Y-110038000D01*
X121054500Y-110640000D01*
X121656500Y-110640000D01*
X121656500Y-110038000D01*
X121905500Y-110038000D01*
X121905500Y-110640000D01*
X122507500Y-110640000D01*
X122756500Y-110640000D01*
X123358500Y-110640000D01*
X123358500Y-110038000D01*
X123607500Y-110038000D01*
X123607500Y-110640000D01*
X124209500Y-110640000D01*
X124209500Y-110038000D01*
X124458500Y-110038000D01*
X124458500Y-110640000D01*
X125060500Y-110640000D01*
X125309500Y-110640000D01*
X125911500Y-110640000D01*
X125911500Y-110038000D01*
X126160500Y-110038000D01*
X126160500Y-110640000D01*
X126762500Y-110640000D01*
X126762500Y-110038000D01*
X127011500Y-110038000D01*
X127011500Y-110640000D01*
X127613500Y-110640000D01*
X127613500Y-110038000D01*
X127862500Y-110038000D01*
X127862500Y-110640000D01*
X128464500Y-110640000D01*
X128464500Y-110038000D01*
X128713500Y-110038000D01*
X128713500Y-110640000D01*
X129315500Y-110640000D01*
X129315500Y-110038000D01*
X129564500Y-110038000D01*
X129564500Y-110640000D01*
X130166500Y-110640000D01*
X130166500Y-110219013D01*
X130415500Y-110219013D01*
X130415500Y-110640000D01*
X130836487Y-110640000D01*
X130415500Y-110219013D01*
X130166500Y-110219013D01*
X130166500Y-110038000D01*
X129564500Y-110038000D01*
X129315500Y-110038000D01*
X128713500Y-110038000D01*
X128464500Y-110038000D01*
X127862500Y-110038000D01*
X127613500Y-110038000D01*
X127011500Y-110038000D01*
X126762500Y-110038000D01*
X126160500Y-110038000D01*
X125911500Y-110038000D01*
X125799825Y-110038000D01*
X125781711Y-110152367D01*
X125769723Y-110189264D01*
X125708603Y-110309218D01*
X125685799Y-110340604D01*
X125590604Y-110435799D01*
X125559218Y-110458603D01*
X125439264Y-110519723D01*
X125402367Y-110531711D01*
X125309500Y-110546420D01*
X125309500Y-110640000D01*
X125060500Y-110640000D01*
X125060500Y-110519603D01*
X124940782Y-110458603D01*
X124909396Y-110435799D01*
X124814201Y-110340604D01*
X124791397Y-110309218D01*
X124730277Y-110189264D01*
X124718289Y-110152367D01*
X124700175Y-110038000D01*
X124458500Y-110038000D01*
X124209500Y-110038000D01*
X123607500Y-110038000D01*
X123358500Y-110038000D01*
X123049825Y-110038000D01*
X123031711Y-110152367D01*
X123019723Y-110189264D01*
X122958603Y-110309218D01*
X122935799Y-110340604D01*
X122840604Y-110435799D01*
X122809218Y-110458603D01*
X122756500Y-110485464D01*
X122756500Y-110640000D01*
X122507500Y-110640000D01*
X122507500Y-110552771D01*
X122480602Y-110552771D01*
X122347633Y-110531711D01*
X122310736Y-110519723D01*
X122190782Y-110458603D01*
X122159396Y-110435799D01*
X122064201Y-110340604D01*
X122041397Y-110309218D01*
X121980277Y-110189264D01*
X121968289Y-110152367D01*
X121950175Y-110038000D01*
X121905500Y-110038000D01*
X121656500Y-110038000D01*
X121054500Y-110038000D01*
X120805500Y-110038000D01*
X120549825Y-110038000D01*
X120531711Y-110152367D01*
X120519723Y-110189264D01*
X120458603Y-110309218D01*
X120435799Y-110340604D01*
X120340604Y-110435799D01*
X120309218Y-110458603D01*
X120203500Y-110512469D01*
X120203500Y-110640000D01*
X119954500Y-110640000D01*
X119954500Y-110548637D01*
X119847633Y-110531711D01*
X119810736Y-110519723D01*
X119690782Y-110458603D01*
X119659396Y-110435799D01*
X119564201Y-110340604D01*
X119541397Y-110309218D01*
X119480277Y-110189264D01*
X119468289Y-110152367D01*
X119450175Y-110038000D01*
X119352500Y-110038000D01*
X119103500Y-110038000D01*
X118501500Y-110038000D01*
X118252500Y-110038000D01*
X117650500Y-110038000D01*
X117401500Y-110038000D01*
X116799500Y-110038000D01*
X116550500Y-110038000D01*
X115973500Y-110038000D01*
X115700500Y-110038000D01*
X115700500Y-109187000D01*
X115973500Y-109187000D01*
X115973500Y-109789000D01*
X116550500Y-109789000D01*
X116550500Y-109187000D01*
X116799500Y-109187000D01*
X116799500Y-109789000D01*
X117401500Y-109789000D01*
X117401500Y-109187000D01*
X117650500Y-109187000D01*
X117650500Y-109789000D01*
X118252500Y-109789000D01*
X118252500Y-109187000D01*
X118501500Y-109187000D01*
X118501500Y-109789000D01*
X119103500Y-109789000D01*
X119103500Y-109187000D01*
X119352500Y-109187000D01*
X119352500Y-109789000D01*
X119491352Y-109789000D01*
X119541397Y-109690782D01*
X119564201Y-109659396D01*
X119659396Y-109564201D01*
X119690782Y-109541397D01*
X119810736Y-109480277D01*
X119847633Y-109468289D01*
X119954500Y-109451363D01*
X119954500Y-109187000D01*
X120203500Y-109187000D01*
X120203500Y-109487531D01*
X120309218Y-109541397D01*
X120340604Y-109564201D01*
X120435799Y-109659396D01*
X120458603Y-109690782D01*
X120508648Y-109789000D01*
X120805500Y-109789000D01*
X120805500Y-109187000D01*
X121054500Y-109187000D01*
X121054500Y-109789000D01*
X121656500Y-109789000D01*
X121656500Y-109187000D01*
X121905500Y-109187000D01*
X121905500Y-109789000D01*
X121991352Y-109789000D01*
X122041397Y-109690782D01*
X122064201Y-109659396D01*
X122159396Y-109564201D01*
X122190782Y-109541397D01*
X122310736Y-109480277D01*
X122347633Y-109468289D01*
X122480602Y-109447229D01*
X122507500Y-109447229D01*
X122507500Y-109187000D01*
X122756500Y-109187000D01*
X122756500Y-109514536D01*
X122809218Y-109541397D01*
X122840604Y-109564201D01*
X122935799Y-109659396D01*
X122958603Y-109690782D01*
X123008648Y-109789000D01*
X123358500Y-109789000D01*
X123358500Y-109187000D01*
X123607500Y-109187000D01*
X123607500Y-109789000D01*
X124209500Y-109789000D01*
X124209500Y-109187000D01*
X124458500Y-109187000D01*
X124458500Y-109789000D01*
X124741352Y-109789000D01*
X124791397Y-109690782D01*
X124814201Y-109659396D01*
X124909396Y-109564201D01*
X124940782Y-109541397D01*
X125060500Y-109480397D01*
X125060500Y-109187000D01*
X125309500Y-109187000D01*
X125309500Y-109453580D01*
X125402367Y-109468289D01*
X125439264Y-109480277D01*
X125559218Y-109541397D01*
X125590604Y-109564201D01*
X125685799Y-109659396D01*
X125708603Y-109690782D01*
X125758648Y-109789000D01*
X125911500Y-109789000D01*
X125911500Y-109187000D01*
X126160500Y-109187000D01*
X126160500Y-109789000D01*
X126762500Y-109789000D01*
X126762500Y-109187000D01*
X127011500Y-109187000D01*
X127011500Y-109789000D01*
X127613500Y-109789000D01*
X127613500Y-109187000D01*
X127862500Y-109187000D01*
X127862500Y-109789000D01*
X128464500Y-109789000D01*
X128464500Y-109187000D01*
X128713500Y-109187000D01*
X128713500Y-109789000D01*
X129315500Y-109789000D01*
X129315500Y-109368013D01*
X129564500Y-109368013D01*
X129564500Y-109789000D01*
X129985487Y-109789000D01*
X129564500Y-109368013D01*
X129315500Y-109368013D01*
X129315500Y-109187000D01*
X128713500Y-109187000D01*
X128464500Y-109187000D01*
X127862500Y-109187000D01*
X127613500Y-109187000D01*
X127011500Y-109187000D01*
X126762500Y-109187000D01*
X126160500Y-109187000D01*
X125911500Y-109187000D01*
X125309500Y-109187000D01*
X125060500Y-109187000D01*
X124458500Y-109187000D01*
X124209500Y-109187000D01*
X123607500Y-109187000D01*
X123358500Y-109187000D01*
X122756500Y-109187000D01*
X122507500Y-109187000D01*
X121905500Y-109187000D01*
X121656500Y-109187000D01*
X121054500Y-109187000D01*
X120805500Y-109187000D01*
X120203500Y-109187000D01*
X119954500Y-109187000D01*
X119352500Y-109187000D01*
X119103500Y-109187000D01*
X118501500Y-109187000D01*
X118252500Y-109187000D01*
X117650500Y-109187000D01*
X117401500Y-109187000D01*
X116799500Y-109187000D01*
X116550500Y-109187000D01*
X115973500Y-109187000D01*
X115700500Y-109187000D01*
X115700500Y-108336000D01*
X115973500Y-108336000D01*
X115973500Y-108938000D01*
X116550500Y-108938000D01*
X116550500Y-108336000D01*
X116799500Y-108336000D01*
X116799500Y-108938000D01*
X117401500Y-108938000D01*
X117401500Y-108336000D01*
X117650500Y-108336000D01*
X117650500Y-108938000D01*
X118252500Y-108938000D01*
X118252500Y-108336000D01*
X118501500Y-108336000D01*
X118501500Y-108938000D01*
X119103500Y-108938000D01*
X119103500Y-108336000D01*
X119352500Y-108336000D01*
X119352500Y-108938000D01*
X119954500Y-108938000D01*
X119954500Y-108336000D01*
X120203500Y-108336000D01*
X120203500Y-108938000D01*
X120805500Y-108938000D01*
X120805500Y-108336000D01*
X121054500Y-108336000D01*
X121054500Y-108938000D01*
X121656500Y-108938000D01*
X121656500Y-108336000D01*
X121905500Y-108336000D01*
X121905500Y-108938000D01*
X122507500Y-108938000D01*
X122507500Y-108336000D01*
X122756500Y-108336000D01*
X122756500Y-108938000D01*
X123358500Y-108938000D01*
X123358500Y-108336000D01*
X123607500Y-108336000D01*
X123607500Y-108938000D01*
X124209500Y-108938000D01*
X124209500Y-108336000D01*
X124458500Y-108336000D01*
X124458500Y-108938000D01*
X125060500Y-108938000D01*
X125060500Y-108336000D01*
X125309500Y-108336000D01*
X125309500Y-108938000D01*
X125911500Y-108938000D01*
X125911500Y-108336000D01*
X126160500Y-108336000D01*
X126160500Y-108938000D01*
X126762500Y-108938000D01*
X126762500Y-108336000D01*
X127011500Y-108336000D01*
X127011500Y-108938000D01*
X127613500Y-108938000D01*
X127613500Y-108336000D01*
X127862500Y-108336000D01*
X127862500Y-108938000D01*
X128464500Y-108938000D01*
X128464500Y-108517013D01*
X128713500Y-108517013D01*
X128713500Y-108938000D01*
X129134487Y-108938000D01*
X128713500Y-108517013D01*
X128464500Y-108517013D01*
X128464500Y-108336000D01*
X127862500Y-108336000D01*
X127613500Y-108336000D01*
X127011500Y-108336000D01*
X126762500Y-108336000D01*
X126160500Y-108336000D01*
X125911500Y-108336000D01*
X125309500Y-108336000D01*
X125060500Y-108336000D01*
X124458500Y-108336000D01*
X124209500Y-108336000D01*
X123607500Y-108336000D01*
X123358500Y-108336000D01*
X122756500Y-108336000D01*
X122507500Y-108336000D01*
X121905500Y-108336000D01*
X121656500Y-108336000D01*
X121054500Y-108336000D01*
X120805500Y-108336000D01*
X120203500Y-108336000D01*
X119954500Y-108336000D01*
X119352500Y-108336000D01*
X119103500Y-108336000D01*
X118501500Y-108336000D01*
X118252500Y-108336000D01*
X117650500Y-108336000D01*
X117401500Y-108336000D01*
X116799500Y-108336000D01*
X116550500Y-108336000D01*
X115973500Y-108336000D01*
X115700500Y-108336000D01*
X115700500Y-107485000D01*
X115973500Y-107485000D01*
X115973500Y-108087000D01*
X116550500Y-108087000D01*
X116550500Y-107485000D01*
X116799500Y-107485000D01*
X116799500Y-108087000D01*
X117401500Y-108087000D01*
X117401500Y-107485000D01*
X117650500Y-107485000D01*
X117650500Y-108087000D01*
X118252500Y-108087000D01*
X118252500Y-107485000D01*
X118501500Y-107485000D01*
X118501500Y-108087000D01*
X119103500Y-108087000D01*
X119103500Y-107485000D01*
X119352500Y-107485000D01*
X119352500Y-108087000D01*
X119954500Y-108087000D01*
X120203500Y-108087000D01*
X120805500Y-108087000D01*
X120805500Y-107485000D01*
X121054500Y-107485000D01*
X121054500Y-108087000D01*
X121656500Y-108087000D01*
X121656500Y-107485000D01*
X121905500Y-107485000D01*
X121905500Y-108087000D01*
X122507500Y-108087000D01*
X122756500Y-108087000D01*
X123358500Y-108087000D01*
X123358500Y-107485000D01*
X123607500Y-107485000D01*
X123607500Y-108087000D01*
X124209500Y-108087000D01*
X124209500Y-107485000D01*
X124458500Y-107485000D01*
X124458500Y-108087000D01*
X125060500Y-108087000D01*
X125309500Y-108087000D01*
X125911500Y-108087000D01*
X125911500Y-107485000D01*
X126160500Y-107485000D01*
X126160500Y-108087000D01*
X126762500Y-108087000D01*
X126762500Y-107485000D01*
X127011500Y-107485000D01*
X127011500Y-108087000D01*
X127613500Y-108087000D01*
X127613500Y-107666013D01*
X127862500Y-107666013D01*
X127862500Y-108087000D01*
X128283487Y-108087000D01*
X127862500Y-107666013D01*
X127613500Y-107666013D01*
X127613500Y-107485000D01*
X127011500Y-107485000D01*
X126762500Y-107485000D01*
X126160500Y-107485000D01*
X125911500Y-107485000D01*
X125802771Y-107485000D01*
X125802771Y-107519398D01*
X125781711Y-107652367D01*
X125769723Y-107689264D01*
X125708603Y-107809218D01*
X125685799Y-107840604D01*
X125590604Y-107935799D01*
X125559218Y-107958603D01*
X125439264Y-108019723D01*
X125402367Y-108031711D01*
X125309500Y-108046420D01*
X125309500Y-108087000D01*
X125060500Y-108087000D01*
X125060500Y-108019603D01*
X124940782Y-107958603D01*
X124909396Y-107935799D01*
X124814201Y-107840604D01*
X124791397Y-107809218D01*
X124730277Y-107689264D01*
X124718289Y-107652367D01*
X124697229Y-107519398D01*
X124697229Y-107485000D01*
X124458500Y-107485000D01*
X124209500Y-107485000D01*
X123607500Y-107485000D01*
X123358500Y-107485000D01*
X123052771Y-107485000D01*
X123052771Y-107519398D01*
X123031711Y-107652367D01*
X123019723Y-107689264D01*
X122958603Y-107809218D01*
X122935799Y-107840604D01*
X122840604Y-107935799D01*
X122809218Y-107958603D01*
X122756500Y-107985464D01*
X122756500Y-108087000D01*
X122507500Y-108087000D01*
X122507500Y-108052771D01*
X122480602Y-108052771D01*
X122347633Y-108031711D01*
X122310736Y-108019723D01*
X122190782Y-107958603D01*
X122159396Y-107935799D01*
X122064201Y-107840604D01*
X122041397Y-107809218D01*
X121980277Y-107689264D01*
X121968289Y-107652367D01*
X121947229Y-107519398D01*
X121947229Y-107485000D01*
X121905500Y-107485000D01*
X121656500Y-107485000D01*
X121054500Y-107485000D01*
X120805500Y-107485000D01*
X120552771Y-107485000D01*
X120552771Y-107519398D01*
X120531711Y-107652367D01*
X120519723Y-107689264D01*
X120458603Y-107809218D01*
X120435799Y-107840604D01*
X120340604Y-107935799D01*
X120309218Y-107958603D01*
X120203500Y-108012469D01*
X120203500Y-108087000D01*
X119954500Y-108087000D01*
X119954500Y-108048637D01*
X119847633Y-108031711D01*
X119810736Y-108019723D01*
X119690782Y-107958603D01*
X119659396Y-107935799D01*
X119564201Y-107840604D01*
X119541397Y-107809218D01*
X119480277Y-107689264D01*
X119468289Y-107652367D01*
X119447229Y-107519398D01*
X119447229Y-107485000D01*
X119352500Y-107485000D01*
X119103500Y-107485000D01*
X118501500Y-107485000D01*
X118252500Y-107485000D01*
X117650500Y-107485000D01*
X117401500Y-107485000D01*
X116799500Y-107485000D01*
X116550500Y-107485000D01*
X115973500Y-107485000D01*
X115700500Y-107485000D01*
X115700500Y-106634000D01*
X115973500Y-106634000D01*
X115973500Y-107236000D01*
X116550500Y-107236000D01*
X116550500Y-106634000D01*
X116799500Y-106634000D01*
X116799500Y-107236000D01*
X117401500Y-107236000D01*
X117401500Y-106634000D01*
X117650500Y-106634000D01*
X117650500Y-107236000D01*
X118252500Y-107236000D01*
X118252500Y-106634000D01*
X118501500Y-106634000D01*
X118501500Y-107236000D01*
X119103500Y-107236000D01*
X119103500Y-106634000D01*
X119352500Y-106634000D01*
X119352500Y-107236000D01*
X119518358Y-107236000D01*
X119541398Y-107190782D01*
X119564201Y-107159396D01*
X119659396Y-107064201D01*
X119690782Y-107041397D01*
X119810736Y-106980277D01*
X119847633Y-106968289D01*
X119954500Y-106951363D01*
X119954500Y-106634000D01*
X120203500Y-106634000D01*
X120203500Y-106987531D01*
X120309218Y-107041397D01*
X120340604Y-107064201D01*
X120435799Y-107159396D01*
X120458602Y-107190782D01*
X120481642Y-107236000D01*
X120805500Y-107236000D01*
X120805500Y-106634000D01*
X121054500Y-106634000D01*
X121054500Y-107236000D01*
X121656500Y-107236000D01*
X121656500Y-106634000D01*
X121905500Y-106634000D01*
X121905500Y-107236000D01*
X122018358Y-107236000D01*
X122041398Y-107190782D01*
X122064201Y-107159396D01*
X122159396Y-107064201D01*
X122190782Y-107041397D01*
X122310736Y-106980277D01*
X122347633Y-106968289D01*
X122480602Y-106947229D01*
X122507500Y-106947229D01*
X122507500Y-106634000D01*
X122756500Y-106634000D01*
X122756500Y-107014536D01*
X122809218Y-107041397D01*
X122840604Y-107064201D01*
X122935799Y-107159396D01*
X122958602Y-107190782D01*
X122981642Y-107236000D01*
X123358500Y-107236000D01*
X123358500Y-106634000D01*
X123607500Y-106634000D01*
X123607500Y-107236000D01*
X124209500Y-107236000D01*
X124209500Y-106634000D01*
X124458500Y-106634000D01*
X124458500Y-107236000D01*
X124768358Y-107236000D01*
X124791398Y-107190782D01*
X124814201Y-107159396D01*
X124909396Y-107064201D01*
X124940782Y-107041397D01*
X125060500Y-106980397D01*
X125060500Y-106634000D01*
X125309500Y-106634000D01*
X125309500Y-106953580D01*
X125402367Y-106968289D01*
X125439264Y-106980277D01*
X125559218Y-107041397D01*
X125590604Y-107064201D01*
X125685799Y-107159396D01*
X125708602Y-107190782D01*
X125731642Y-107236000D01*
X125911500Y-107236000D01*
X125911500Y-106634000D01*
X126160500Y-106634000D01*
X126160500Y-107236000D01*
X126762500Y-107236000D01*
X126762500Y-106815013D01*
X127011500Y-106815013D01*
X127011500Y-107236000D01*
X127432487Y-107236000D01*
X127011500Y-106815013D01*
X126762500Y-106815013D01*
X126762500Y-106634000D01*
X126160500Y-106634000D01*
X125911500Y-106634000D01*
X125309500Y-106634000D01*
X125060500Y-106634000D01*
X124458500Y-106634000D01*
X124209500Y-106634000D01*
X123607500Y-106634000D01*
X123358500Y-106634000D01*
X122756500Y-106634000D01*
X122507500Y-106634000D01*
X121905500Y-106634000D01*
X121656500Y-106634000D01*
X121054500Y-106634000D01*
X120805500Y-106634000D01*
X120203500Y-106634000D01*
X119954500Y-106634000D01*
X119352500Y-106634000D01*
X119103500Y-106634000D01*
X118501500Y-106634000D01*
X118252500Y-106634000D01*
X117650500Y-106634000D01*
X117401500Y-106634000D01*
X116799500Y-106634000D01*
X116550500Y-106634000D01*
X115973500Y-106634000D01*
X115700500Y-106634000D01*
X115700500Y-105783000D01*
X115973500Y-105783000D01*
X115973500Y-106385000D01*
X116550500Y-106385000D01*
X116550500Y-105783000D01*
X116799500Y-105783000D01*
X116799500Y-106385000D01*
X117401500Y-106385000D01*
X117401500Y-105783000D01*
X117650500Y-105783000D01*
X117650500Y-106385000D01*
X118252500Y-106385000D01*
X118252500Y-105783000D01*
X118501500Y-105783000D01*
X118501500Y-106385000D01*
X119103500Y-106385000D01*
X119103500Y-105783000D01*
X119352500Y-105783000D01*
X119352500Y-106385000D01*
X119954500Y-106385000D01*
X119954500Y-105783000D01*
X120203500Y-105783000D01*
X120203500Y-106385000D01*
X120805500Y-106385000D01*
X120805500Y-105783000D01*
X121054500Y-105783000D01*
X121054500Y-106385000D01*
X121656500Y-106385000D01*
X121656500Y-105783000D01*
X121905500Y-105783000D01*
X121905500Y-106385000D01*
X122507500Y-106385000D01*
X122507500Y-105783000D01*
X122756500Y-105783000D01*
X122756500Y-106385000D01*
X123358500Y-106385000D01*
X123358500Y-105783000D01*
X123607500Y-105783000D01*
X123607500Y-106385000D01*
X124209500Y-106385000D01*
X124209500Y-105783000D01*
X124458500Y-105783000D01*
X124458500Y-106385000D01*
X125060500Y-106385000D01*
X125060500Y-105783000D01*
X125309500Y-105783000D01*
X125309500Y-106385000D01*
X125911500Y-106385000D01*
X125911500Y-105964013D01*
X126160500Y-105964013D01*
X126160500Y-106385000D01*
X126581487Y-106385000D01*
X126160500Y-105964013D01*
X125911500Y-105964013D01*
X125911500Y-105783000D01*
X125309500Y-105783000D01*
X125060500Y-105783000D01*
X124458500Y-105783000D01*
X124209500Y-105783000D01*
X123607500Y-105783000D01*
X123358500Y-105783000D01*
X122756500Y-105783000D01*
X122507500Y-105783000D01*
X121905500Y-105783000D01*
X121656500Y-105783000D01*
X121054500Y-105783000D01*
X120805500Y-105783000D01*
X120203500Y-105783000D01*
X119954500Y-105783000D01*
X119352500Y-105783000D01*
X119103500Y-105783000D01*
X118501500Y-105783000D01*
X118252500Y-105783000D01*
X117650500Y-105783000D01*
X117401500Y-105783000D01*
X116799500Y-105783000D01*
X116550500Y-105783000D01*
X115973500Y-105783000D01*
X115700500Y-105783000D01*
X115700500Y-104932000D01*
X115973500Y-104932000D01*
X115973500Y-105534000D01*
X116550500Y-105534000D01*
X116550500Y-104932000D01*
X116799500Y-104932000D01*
X116799500Y-105534000D01*
X117401500Y-105534000D01*
X117401500Y-104932000D01*
X117650500Y-104932000D01*
X117650500Y-105534000D01*
X118252500Y-105534000D01*
X118252500Y-104932000D01*
X118501500Y-104932000D01*
X118501500Y-105534000D01*
X119103500Y-105534000D01*
X119103500Y-104932000D01*
X119352500Y-104932000D01*
X119352500Y-105534000D01*
X119954500Y-105534000D01*
X119954500Y-104932000D01*
X120203500Y-104932000D01*
X120203500Y-105534000D01*
X120805500Y-105534000D01*
X120805500Y-104932000D01*
X121054500Y-104932000D01*
X121054500Y-105534000D01*
X121656500Y-105534000D01*
X121656500Y-104932000D01*
X121905500Y-104932000D01*
X121905500Y-105534000D01*
X122507500Y-105534000D01*
X122507500Y-104932000D01*
X122756500Y-104932000D01*
X122756500Y-105534000D01*
X123358500Y-105534000D01*
X123358500Y-104932000D01*
X123607500Y-104932000D01*
X123607500Y-105534000D01*
X124209500Y-105534000D01*
X124209500Y-104932000D01*
X124458500Y-104932000D01*
X124458500Y-105534000D01*
X125060500Y-105534000D01*
X125060500Y-105113013D01*
X125309500Y-105113013D01*
X125309500Y-105534000D01*
X125730487Y-105534000D01*
X125309500Y-105113013D01*
X125060500Y-105113013D01*
X125060500Y-104932000D01*
X124458500Y-104932000D01*
X124209500Y-104932000D01*
X123607500Y-104932000D01*
X123358500Y-104932000D01*
X122756500Y-104932000D01*
X122507500Y-104932000D01*
X121905500Y-104932000D01*
X121656500Y-104932000D01*
X121054500Y-104932000D01*
X120805500Y-104932000D01*
X120203500Y-104932000D01*
X119954500Y-104932000D01*
X119352500Y-104932000D01*
X119103500Y-104932000D01*
X118501500Y-104932000D01*
X118252500Y-104932000D01*
X117650500Y-104932000D01*
X117401500Y-104932000D01*
X116799500Y-104932000D01*
X116550500Y-104932000D01*
X115973500Y-104932000D01*
X115700500Y-104932000D01*
X115700500Y-104081000D01*
X115973500Y-104081000D01*
X115973500Y-104683000D01*
X116550500Y-104683000D01*
X116550500Y-104081000D01*
X116799500Y-104081000D01*
X116799500Y-104683000D01*
X117401500Y-104683000D01*
X117401500Y-104081000D01*
X117650500Y-104081000D01*
X117650500Y-104683000D01*
X118252500Y-104683000D01*
X118252500Y-104081000D01*
X118501500Y-104081000D01*
X118501500Y-104683000D01*
X119103500Y-104683000D01*
X119103500Y-104081000D01*
X119352500Y-104081000D01*
X119352500Y-104683000D01*
X119954500Y-104683000D01*
X119954500Y-104081000D01*
X120203500Y-104081000D01*
X120203500Y-104683000D01*
X120805500Y-104683000D01*
X120805500Y-104081000D01*
X121054500Y-104081000D01*
X121054500Y-104683000D01*
X121656500Y-104683000D01*
X121656500Y-104081000D01*
X121905500Y-104081000D01*
X121905500Y-104683000D01*
X122507500Y-104683000D01*
X122507500Y-104081000D01*
X122756500Y-104081000D01*
X122756500Y-104683000D01*
X123358500Y-104683000D01*
X123358500Y-104081000D01*
X123607500Y-104081000D01*
X123607500Y-104683000D01*
X124209500Y-104683000D01*
X124209500Y-104262013D01*
X124458500Y-104262013D01*
X124458500Y-104683000D01*
X124879487Y-104683000D01*
X124458500Y-104262013D01*
X124209500Y-104262013D01*
X124209500Y-104081000D01*
X123607500Y-104081000D01*
X123358500Y-104081000D01*
X122756500Y-104081000D01*
X122507500Y-104081000D01*
X121905500Y-104081000D01*
X121656500Y-104081000D01*
X121054500Y-104081000D01*
X120805500Y-104081000D01*
X120203500Y-104081000D01*
X119954500Y-104081000D01*
X119352500Y-104081000D01*
X119103500Y-104081000D01*
X118501500Y-104081000D01*
X118252500Y-104081000D01*
X117650500Y-104081000D01*
X117401500Y-104081000D01*
X116799500Y-104081000D01*
X116550500Y-104081000D01*
X115973500Y-104081000D01*
X115700500Y-104081000D01*
X115700500Y-103230000D01*
X115973500Y-103230000D01*
X115973500Y-103832000D01*
X116550500Y-103832000D01*
X116550500Y-103230000D01*
X116799500Y-103230000D01*
X116799500Y-103832000D01*
X117401500Y-103832000D01*
X117401500Y-103230000D01*
X117650500Y-103230000D01*
X117650500Y-103832000D01*
X118252500Y-103832000D01*
X118252500Y-103230000D01*
X118501500Y-103230000D01*
X118501500Y-103832000D01*
X119103500Y-103832000D01*
X119103500Y-103230000D01*
X119352500Y-103230000D01*
X119352500Y-103832000D01*
X119954500Y-103832000D01*
X119954500Y-103230000D01*
X120203500Y-103230000D01*
X120203500Y-103832000D01*
X120805500Y-103832000D01*
X120805500Y-103230000D01*
X121054500Y-103230000D01*
X121054500Y-103832000D01*
X121656500Y-103832000D01*
X121656500Y-103230000D01*
X121905500Y-103230000D01*
X121905500Y-103832000D01*
X122507500Y-103832000D01*
X122507500Y-103230000D01*
X122756500Y-103230000D01*
X122756500Y-103832000D01*
X123358500Y-103832000D01*
X123358500Y-103411013D01*
X123607500Y-103411013D01*
X123607500Y-103832000D01*
X124028487Y-103832000D01*
X123607500Y-103411013D01*
X123358500Y-103411013D01*
X123358500Y-103230000D01*
X122756500Y-103230000D01*
X122507500Y-103230000D01*
X121905500Y-103230000D01*
X121656500Y-103230000D01*
X121054500Y-103230000D01*
X120805500Y-103230000D01*
X120203500Y-103230000D01*
X119954500Y-103230000D01*
X119352500Y-103230000D01*
X119103500Y-103230000D01*
X118501500Y-103230000D01*
X118252500Y-103230000D01*
X117650500Y-103230000D01*
X117401500Y-103230000D01*
X116799500Y-103230000D01*
X116550500Y-103230000D01*
X115973500Y-103230000D01*
X115700500Y-103230000D01*
X115700500Y-102379000D01*
X115973500Y-102379000D01*
X115973500Y-102981000D01*
X116550500Y-102981000D01*
X116550500Y-102379000D01*
X116799500Y-102379000D01*
X116799500Y-102981000D01*
X117401500Y-102981000D01*
X117401500Y-102379000D01*
X117650500Y-102379000D01*
X117650500Y-102981000D01*
X118252500Y-102981000D01*
X118252500Y-102379000D01*
X118501500Y-102379000D01*
X118501500Y-102981000D01*
X119103500Y-102981000D01*
X119103500Y-102379000D01*
X119352500Y-102379000D01*
X119352500Y-102981000D01*
X119954500Y-102981000D01*
X119954500Y-102379000D01*
X120203500Y-102379000D01*
X120203500Y-102981000D01*
X120805500Y-102981000D01*
X120805500Y-102379000D01*
X121054500Y-102379000D01*
X121054500Y-102981000D01*
X121656500Y-102981000D01*
X121656500Y-102379000D01*
X121905500Y-102379000D01*
X121905500Y-102981000D01*
X122507500Y-102981000D01*
X122507500Y-102560013D01*
X122756500Y-102560013D01*
X122756500Y-102981000D01*
X123177487Y-102981000D01*
X122756500Y-102560013D01*
X122507500Y-102560013D01*
X122507500Y-102379000D01*
X121905500Y-102379000D01*
X121656500Y-102379000D01*
X121054500Y-102379000D01*
X120805500Y-102379000D01*
X120203500Y-102379000D01*
X119954500Y-102379000D01*
X119352500Y-102379000D01*
X119103500Y-102379000D01*
X118501500Y-102379000D01*
X118252500Y-102379000D01*
X117650500Y-102379000D01*
X117401500Y-102379000D01*
X116799500Y-102379000D01*
X116550500Y-102379000D01*
X115973500Y-102379000D01*
X115700500Y-102379000D01*
X115700500Y-101528000D01*
X115973500Y-101528000D01*
X115973500Y-102130000D01*
X116550500Y-102130000D01*
X116550500Y-101528000D01*
X116799500Y-101528000D01*
X116799500Y-102130000D01*
X117401500Y-102130000D01*
X117401500Y-101528000D01*
X117650500Y-101528000D01*
X117650500Y-102130000D01*
X118252500Y-102130000D01*
X118252500Y-101528000D01*
X118501500Y-101528000D01*
X118501500Y-102130000D01*
X119103500Y-102130000D01*
X119103500Y-101528000D01*
X119352500Y-101528000D01*
X119352500Y-102130000D01*
X119954500Y-102130000D01*
X119954500Y-101528000D01*
X120203500Y-101528000D01*
X120203500Y-102130000D01*
X120805500Y-102130000D01*
X120805500Y-101528000D01*
X121054500Y-101528000D01*
X121054500Y-102130000D01*
X121656500Y-102130000D01*
X121656500Y-101709013D01*
X121905500Y-101709013D01*
X121905500Y-102130000D01*
X122326487Y-102130000D01*
X121905500Y-101709013D01*
X121656500Y-101709013D01*
X121656500Y-101528000D01*
X121054500Y-101528000D01*
X120805500Y-101528000D01*
X120203500Y-101528000D01*
X119954500Y-101528000D01*
X119352500Y-101528000D01*
X119103500Y-101528000D01*
X118501500Y-101528000D01*
X118252500Y-101528000D01*
X117650500Y-101528000D01*
X117401500Y-101528000D01*
X116799500Y-101528000D01*
X116550500Y-101528000D01*
X115973500Y-101528000D01*
X115700500Y-101528000D01*
X115700500Y-100677000D01*
X115973500Y-100677000D01*
X115973500Y-101279000D01*
X116550500Y-101279000D01*
X116550500Y-100677000D01*
X116799500Y-100677000D01*
X116799500Y-101279000D01*
X117401500Y-101279000D01*
X117401500Y-100677000D01*
X117650500Y-100677000D01*
X117650500Y-101279000D01*
X118252500Y-101279000D01*
X118252500Y-100677000D01*
X118501500Y-100677000D01*
X118501500Y-101279000D01*
X119103500Y-101279000D01*
X119103500Y-100677000D01*
X119352500Y-100677000D01*
X119352500Y-101279000D01*
X119954500Y-101279000D01*
X119954500Y-100677000D01*
X120203500Y-100677000D01*
X120203500Y-101279000D01*
X120805500Y-101279000D01*
X120805500Y-100858013D01*
X121054500Y-100858013D01*
X121054500Y-101279000D01*
X121475487Y-101279000D01*
X121054500Y-100858013D01*
X120805500Y-100858013D01*
X120805500Y-100677000D01*
X120203500Y-100677000D01*
X119954500Y-100677000D01*
X119352500Y-100677000D01*
X119103500Y-100677000D01*
X118501500Y-100677000D01*
X118252500Y-100677000D01*
X117650500Y-100677000D01*
X117401500Y-100677000D01*
X116799500Y-100677000D01*
X116550500Y-100677000D01*
X115973500Y-100677000D01*
X115700500Y-100677000D01*
X115700500Y-99826000D01*
X115973500Y-99826000D01*
X115973500Y-100428000D01*
X116550500Y-100428000D01*
X116550500Y-99826000D01*
X116799500Y-99826000D01*
X116799500Y-100428000D01*
X117401500Y-100428000D01*
X117401500Y-99826000D01*
X117650500Y-99826000D01*
X117650500Y-100428000D01*
X118252500Y-100428000D01*
X118252500Y-99826000D01*
X118501500Y-99826000D01*
X118501500Y-100428000D01*
X119103500Y-100428000D01*
X119103500Y-99826000D01*
X119352500Y-99826000D01*
X119352500Y-100428000D01*
X119954500Y-100428000D01*
X119954500Y-100007013D01*
X120203500Y-100007013D01*
X120203500Y-100428000D01*
X120624487Y-100428000D01*
X120203500Y-100007013D01*
X119954500Y-100007013D01*
X119954500Y-99826000D01*
X119352500Y-99826000D01*
X119103500Y-99826000D01*
X118501500Y-99826000D01*
X118252500Y-99826000D01*
X117650500Y-99826000D01*
X117401500Y-99826000D01*
X116799500Y-99826000D01*
X116550500Y-99826000D01*
X115973500Y-99826000D01*
X115700500Y-99826000D01*
X115700500Y-98975000D01*
X115973500Y-98975000D01*
X115973500Y-99577000D01*
X116550500Y-99577000D01*
X116550500Y-98975000D01*
X116799500Y-98975000D01*
X116799500Y-99577000D01*
X117401500Y-99577000D01*
X117401500Y-98975000D01*
X117650500Y-98975000D01*
X117650500Y-99577000D01*
X118252500Y-99577000D01*
X118252500Y-98975000D01*
X118501500Y-98975000D01*
X118501500Y-99577000D01*
X119103500Y-99577000D01*
X119103500Y-99156013D01*
X119352500Y-99156013D01*
X119352500Y-99577000D01*
X119773487Y-99577000D01*
X119352500Y-99156013D01*
X119103500Y-99156013D01*
X119103500Y-98975000D01*
X118501500Y-98975000D01*
X118252500Y-98975000D01*
X117650500Y-98975000D01*
X117401500Y-98975000D01*
X116799500Y-98975000D01*
X116550500Y-98975000D01*
X115973500Y-98975000D01*
X115700500Y-98975000D01*
X115700500Y-98124000D01*
X115973500Y-98124000D01*
X115973500Y-98726000D01*
X116550500Y-98726000D01*
X116550500Y-98124000D01*
X116799500Y-98124000D01*
X116799500Y-98726000D01*
X117401500Y-98726000D01*
X117401500Y-98124000D01*
X117650500Y-98124000D01*
X117650500Y-98726000D01*
X118252500Y-98726000D01*
X118252500Y-98305013D01*
X118501500Y-98305013D01*
X118501500Y-98726000D01*
X118922487Y-98726000D01*
X118501500Y-98305013D01*
X118252500Y-98305013D01*
X118252500Y-98124000D01*
X117650500Y-98124000D01*
X117401500Y-98124000D01*
X116799500Y-98124000D01*
X116550500Y-98124000D01*
X115973500Y-98124000D01*
X115700500Y-98124000D01*
X115700500Y-97273000D01*
X115973500Y-97273000D01*
X115973500Y-97875000D01*
X116550500Y-97875000D01*
X116550500Y-97273000D01*
X116799500Y-97273000D01*
X116799500Y-97875000D01*
X117401500Y-97875000D01*
X117401500Y-97273000D01*
X117650500Y-97273000D01*
X117650500Y-97875000D01*
X118071487Y-97875000D01*
X118068234Y-97871747D01*
X118016393Y-97824024D01*
X118001932Y-97805445D01*
X118000180Y-97803693D01*
X117995869Y-97797655D01*
X117991324Y-97791816D01*
X117990146Y-97789641D01*
X117976460Y-97770472D01*
X117945518Y-97707179D01*
X117911978Y-97645200D01*
X117904327Y-97622917D01*
X117903243Y-97620699D01*
X117901139Y-97613631D01*
X117898728Y-97606609D01*
X117898318Y-97604155D01*
X117891600Y-97581587D01*
X117882880Y-97511648D01*
X117878191Y-97483541D01*
X117876500Y-97463135D01*
X117876500Y-97460462D01*
X117870978Y-97416161D01*
X117872665Y-97375379D01*
X117876500Y-97357088D01*
X117876500Y-97273000D01*
X117650500Y-97273000D01*
X117401500Y-97273000D01*
X116799500Y-97273000D01*
X116550500Y-97273000D01*
X115973500Y-97273000D01*
X115700500Y-97273000D01*
X115700500Y-96422000D01*
X115973500Y-96422000D01*
X115973500Y-97024000D01*
X116550500Y-97024000D01*
X116550500Y-96422000D01*
X116799500Y-96422000D01*
X116799500Y-97024000D01*
X117401500Y-97024000D01*
X117401500Y-96422000D01*
X117650500Y-96422000D01*
X117650500Y-97024000D01*
X117876500Y-97024000D01*
X117876500Y-96422000D01*
X117650500Y-96422000D01*
X117401500Y-96422000D01*
X116799500Y-96422000D01*
X116550500Y-96422000D01*
X115973500Y-96422000D01*
X115700500Y-96422000D01*
X115700500Y-95571000D01*
X115973500Y-95571000D01*
X115973500Y-96173000D01*
X116550500Y-96173000D01*
X116550500Y-95571000D01*
X116799500Y-95571000D01*
X116799500Y-96173000D01*
X117401500Y-96173000D01*
X117401500Y-95571000D01*
X117650500Y-95571000D01*
X117650500Y-96173000D01*
X117876500Y-96173000D01*
X117876500Y-95571000D01*
X117650500Y-95571000D01*
X117401500Y-95571000D01*
X116799500Y-95571000D01*
X116550500Y-95571000D01*
X115973500Y-95571000D01*
X115700500Y-95571000D01*
X115700500Y-94720000D01*
X115973500Y-94720000D01*
X115973500Y-95322000D01*
X116550500Y-95322000D01*
X116550500Y-94720000D01*
X116799500Y-94720000D01*
X116799500Y-95322000D01*
X117401500Y-95322000D01*
X117401500Y-94720000D01*
X117650500Y-94720000D01*
X117650500Y-95322000D01*
X117876500Y-95322000D01*
X117876500Y-94720000D01*
X117650500Y-94720000D01*
X117401500Y-94720000D01*
X116799500Y-94720000D01*
X116550500Y-94720000D01*
X115973500Y-94720000D01*
X115700500Y-94720000D01*
X115700500Y-93869000D01*
X115973500Y-93869000D01*
X115973500Y-94471000D01*
X116550500Y-94471000D01*
X116550500Y-93869000D01*
X116799500Y-93869000D01*
X116799500Y-94471000D01*
X117401500Y-94471000D01*
X117401500Y-93869000D01*
X117650500Y-93869000D01*
X117650500Y-94471000D01*
X117876500Y-94471000D01*
X117876500Y-93869000D01*
X117650500Y-93869000D01*
X117401500Y-93869000D01*
X116799500Y-93869000D01*
X116550500Y-93869000D01*
X115973500Y-93869000D01*
X115700500Y-93869000D01*
X115700500Y-93018000D01*
X115973500Y-93018000D01*
X115973500Y-93620000D01*
X116550500Y-93620000D01*
X116550500Y-93018000D01*
X116799500Y-93018000D01*
X116799500Y-93620000D01*
X117401500Y-93620000D01*
X117401500Y-93018000D01*
X117650500Y-93018000D01*
X117650500Y-93620000D01*
X117876500Y-93620000D01*
X117876500Y-93018000D01*
X117650500Y-93018000D01*
X117401500Y-93018000D01*
X116799500Y-93018000D01*
X116550500Y-93018000D01*
X115973500Y-93018000D01*
X115700500Y-93018000D01*
X115700500Y-92167000D01*
X115973500Y-92167000D01*
X115973500Y-92769000D01*
X116550500Y-92769000D01*
X116550500Y-92167000D01*
X116799500Y-92167000D01*
X116799500Y-92769000D01*
X117401500Y-92769000D01*
X117401500Y-92167000D01*
X117650500Y-92167000D01*
X117650500Y-92769000D01*
X117876500Y-92769000D01*
X117876500Y-92167000D01*
X117650500Y-92167000D01*
X117401500Y-92167000D01*
X116799500Y-92167000D01*
X116550500Y-92167000D01*
X115973500Y-92167000D01*
X115700500Y-92167000D01*
X115700500Y-91316000D01*
X115973500Y-91316000D01*
X115973500Y-91918000D01*
X116550500Y-91918000D01*
X116550500Y-91316000D01*
X116799500Y-91316000D01*
X116799500Y-91918000D01*
X117401500Y-91918000D01*
X117401500Y-91316000D01*
X117650500Y-91316000D01*
X117650500Y-91918000D01*
X117876500Y-91918000D01*
X117876500Y-91316000D01*
X117650500Y-91316000D01*
X117401500Y-91316000D01*
X116799500Y-91316000D01*
X116550500Y-91316000D01*
X115973500Y-91316000D01*
X115700500Y-91316000D01*
X115700500Y-90465000D01*
X115973500Y-90465000D01*
X115973500Y-91067000D01*
X116550500Y-91067000D01*
X116550500Y-90465000D01*
X116799500Y-90465000D01*
X116799500Y-91067000D01*
X117401500Y-91067000D01*
X117401500Y-90465000D01*
X117650500Y-90465000D01*
X117650500Y-91067000D01*
X117876500Y-91067000D01*
X117876500Y-90465000D01*
X117650500Y-90465000D01*
X117401500Y-90465000D01*
X116799500Y-90465000D01*
X116550500Y-90465000D01*
X115973500Y-90465000D01*
X115700500Y-90465000D01*
X115700500Y-89614000D01*
X115973500Y-89614000D01*
X115973500Y-90216000D01*
X116550500Y-90216000D01*
X116550500Y-89614000D01*
X116799500Y-89614000D01*
X116799500Y-90216000D01*
X117401500Y-90216000D01*
X117401500Y-89614000D01*
X117650500Y-89614000D01*
X117650500Y-90216000D01*
X117876500Y-90216000D01*
X117876500Y-89614000D01*
X117650500Y-89614000D01*
X117401500Y-89614000D01*
X116799500Y-89614000D01*
X116550500Y-89614000D01*
X115973500Y-89614000D01*
X115700500Y-89614000D01*
X115700500Y-88763000D01*
X115973500Y-88763000D01*
X115973500Y-89365000D01*
X116550500Y-89365000D01*
X116550500Y-88763000D01*
X116799500Y-88763000D01*
X116799500Y-89365000D01*
X117401500Y-89365000D01*
X117401500Y-88763000D01*
X117650500Y-88763000D01*
X117650500Y-89365000D01*
X117876500Y-89365000D01*
X117876500Y-88763000D01*
X117650500Y-88763000D01*
X117401500Y-88763000D01*
X116799500Y-88763000D01*
X116550500Y-88763000D01*
X115973500Y-88763000D01*
X115700500Y-88763000D01*
X115700500Y-87912000D01*
X115973500Y-87912000D01*
X115973500Y-88514000D01*
X116550500Y-88514000D01*
X116550500Y-87912000D01*
X116799500Y-87912000D01*
X116799500Y-88514000D01*
X117401500Y-88514000D01*
X117401500Y-87912000D01*
X117650500Y-87912000D01*
X117650500Y-88514000D01*
X117876500Y-88514000D01*
X117876500Y-87912000D01*
X117650500Y-87912000D01*
X117401500Y-87912000D01*
X116799500Y-87912000D01*
X116550500Y-87912000D01*
X115973500Y-87912000D01*
X115700500Y-87912000D01*
X115700500Y-87061000D01*
X115973500Y-87061000D01*
X115973500Y-87663000D01*
X116550500Y-87663000D01*
X116550500Y-87061000D01*
X116799500Y-87061000D01*
X116799500Y-87663000D01*
X117401500Y-87663000D01*
X117401500Y-87061000D01*
X117650500Y-87061000D01*
X117650500Y-87663000D01*
X117876500Y-87663000D01*
X117876500Y-87061000D01*
X117650500Y-87061000D01*
X117401500Y-87061000D01*
X116799500Y-87061000D01*
X116550500Y-87061000D01*
X115973500Y-87061000D01*
X115700500Y-87061000D01*
X115700500Y-86210000D01*
X115973500Y-86210000D01*
X115973500Y-86812000D01*
X116550500Y-86812000D01*
X116550500Y-86210000D01*
X116799500Y-86210000D01*
X116799500Y-86812000D01*
X117401500Y-86812000D01*
X117401500Y-86210000D01*
X117650500Y-86210000D01*
X117650500Y-86812000D01*
X117876500Y-86812000D01*
X117876500Y-86210000D01*
X117650500Y-86210000D01*
X117401500Y-86210000D01*
X116799500Y-86210000D01*
X116550500Y-86210000D01*
X115973500Y-86210000D01*
X115700500Y-86210000D01*
X115700500Y-85359000D01*
X115973500Y-85359000D01*
X115973500Y-85961000D01*
X116550500Y-85961000D01*
X116550500Y-85359000D01*
X116799500Y-85359000D01*
X116799500Y-85961000D01*
X117401500Y-85961000D01*
X117401500Y-85359000D01*
X117650500Y-85359000D01*
X117650500Y-85961000D01*
X117876500Y-85961000D01*
X117876500Y-85359000D01*
X117650500Y-85359000D01*
X117401500Y-85359000D01*
X116799500Y-85359000D01*
X116550500Y-85359000D01*
X115973500Y-85359000D01*
X115700500Y-85359000D01*
X115700500Y-84508000D01*
X115973500Y-84508000D01*
X115973500Y-85110000D01*
X116550500Y-85110000D01*
X116550500Y-84508000D01*
X116799500Y-84508000D01*
X116799500Y-85110000D01*
X117401500Y-85110000D01*
X117401500Y-84508000D01*
X117650500Y-84508000D01*
X117650500Y-85110000D01*
X117876500Y-85110000D01*
X117876500Y-84508000D01*
X117650500Y-84508000D01*
X117401500Y-84508000D01*
X116799500Y-84508000D01*
X116550500Y-84508000D01*
X115973500Y-84508000D01*
X115700500Y-84508000D01*
X115700500Y-83657000D01*
X115973500Y-83657000D01*
X115973500Y-84259000D01*
X116550500Y-84259000D01*
X116550500Y-83657000D01*
X116799500Y-83657000D01*
X116799500Y-84259000D01*
X117401500Y-84259000D01*
X117401500Y-83657000D01*
X117650500Y-83657000D01*
X117650500Y-84259000D01*
X117876500Y-84259000D01*
X117876500Y-83657000D01*
X117650500Y-83657000D01*
X117401500Y-83657000D01*
X116799500Y-83657000D01*
X116550500Y-83657000D01*
X115973500Y-83657000D01*
X115700500Y-83657000D01*
X115700500Y-82806000D01*
X115973500Y-82806000D01*
X115973500Y-83408000D01*
X116550500Y-83408000D01*
X116550500Y-82806000D01*
X116799500Y-82806000D01*
X116799500Y-83408000D01*
X117401500Y-83408000D01*
X117401500Y-82806000D01*
X117650500Y-82806000D01*
X117650500Y-83408000D01*
X117876500Y-83408000D01*
X117876500Y-82806000D01*
X117650500Y-82806000D01*
X117401500Y-82806000D01*
X116799500Y-82806000D01*
X116550500Y-82806000D01*
X115973500Y-82806000D01*
X115700500Y-82806000D01*
X115700500Y-81955000D01*
X115973500Y-81955000D01*
X115973500Y-82557000D01*
X116550500Y-82557000D01*
X116550500Y-81955000D01*
X116799500Y-81955000D01*
X116799500Y-82557000D01*
X117401500Y-82557000D01*
X117401500Y-81955000D01*
X117650500Y-81955000D01*
X117650500Y-82557000D01*
X117876500Y-82557000D01*
X117876500Y-81955000D01*
X117650500Y-81955000D01*
X117401500Y-81955000D01*
X116799500Y-81955000D01*
X116550500Y-81955000D01*
X115973500Y-81955000D01*
X115700500Y-81955000D01*
X115700500Y-81104000D01*
X115973500Y-81104000D01*
X115973500Y-81706000D01*
X116550500Y-81706000D01*
X116550500Y-81104000D01*
X116799500Y-81104000D01*
X116799500Y-81706000D01*
X117401500Y-81706000D01*
X117401500Y-81104000D01*
X117650500Y-81104000D01*
X117650500Y-81706000D01*
X117876500Y-81706000D01*
X117876500Y-81104000D01*
X117650500Y-81104000D01*
X117401500Y-81104000D01*
X116799500Y-81104000D01*
X116550500Y-81104000D01*
X115973500Y-81104000D01*
X115700500Y-81104000D01*
X115700500Y-80253000D01*
X115973500Y-80253000D01*
X115973500Y-80855000D01*
X116550500Y-80855000D01*
X116550500Y-80253000D01*
X116799500Y-80253000D01*
X116799500Y-80855000D01*
X117401500Y-80855000D01*
X117401500Y-80253000D01*
X117650500Y-80253000D01*
X117650500Y-80855000D01*
X117876500Y-80855000D01*
X117876500Y-80253000D01*
X117650500Y-80253000D01*
X117401500Y-80253000D01*
X116799500Y-80253000D01*
X116550500Y-80253000D01*
X115973500Y-80253000D01*
X115700500Y-80253000D01*
X115700500Y-79402000D01*
X115973500Y-79402000D01*
X115973500Y-80004000D01*
X116550500Y-80004000D01*
X116550500Y-79402000D01*
X116799500Y-79402000D01*
X116799500Y-80004000D01*
X117401500Y-80004000D01*
X117401500Y-79402000D01*
X117650500Y-79402000D01*
X117650500Y-80004000D01*
X117876500Y-80004000D01*
X117876500Y-79402000D01*
X117650500Y-79402000D01*
X117401500Y-79402000D01*
X116799500Y-79402000D01*
X116550500Y-79402000D01*
X115973500Y-79402000D01*
X115700500Y-79402000D01*
X115700500Y-78551000D01*
X115973500Y-78551000D01*
X115973500Y-79153000D01*
X116550500Y-79153000D01*
X116550500Y-78551000D01*
X116799500Y-78551000D01*
X116799500Y-79153000D01*
X117401500Y-79153000D01*
X117401500Y-78551000D01*
X117650500Y-78551000D01*
X117650500Y-79153000D01*
X117876500Y-79153000D01*
X117876500Y-78551000D01*
X117650500Y-78551000D01*
X117401500Y-78551000D01*
X116799500Y-78551000D01*
X116550500Y-78551000D01*
X115973500Y-78551000D01*
X115700500Y-78551000D01*
X115700500Y-78302000D01*
X116941179Y-78302000D01*
X117401500Y-78302000D01*
X117401500Y-77700000D01*
X117650500Y-77700000D01*
X117650500Y-78302000D01*
X117876500Y-78302000D01*
X117876500Y-77700000D01*
X117650500Y-77700000D01*
X117401500Y-77700000D01*
X117299265Y-77700000D01*
X117277338Y-77852513D01*
X117267394Y-77886379D01*
X117189807Y-78056269D01*
X117170726Y-78085959D01*
X117048419Y-78227110D01*
X117021745Y-78250224D01*
X116941179Y-78302000D01*
X115700500Y-78302000D01*
X115700500Y-76574500D01*
X115717113Y-76512500D01*
X115762500Y-76467113D01*
X115824500Y-76450500D01*
X116050500Y-76450500D01*
X116112500Y-76467113D01*
X116157887Y-76512500D01*
X116174500Y-76574500D01*
X116174500Y-77243964D01*
X116166682Y-77287297D01*
X116144213Y-77325166D01*
X116099623Y-77376625D01*
X116039834Y-77507542D01*
X116019353Y-77650000D01*
X116039834Y-77792457D01*
X116099623Y-77923374D01*
X116193870Y-78032141D01*
X116193872Y-78032143D01*
X116314947Y-78109953D01*
X116453039Y-78150500D01*
X116596961Y-78150500D01*
X116735053Y-78109953D01*
X116856128Y-78032143D01*
X116950377Y-77923373D01*
X117010165Y-77792457D01*
X117030647Y-77650000D01*
X117010165Y-77507543D01*
X116984342Y-77451000D01*
X116950376Y-77376625D01*
X116855787Y-77267462D01*
X116833318Y-77229593D01*
X116825500Y-77186260D01*
X116825500Y-76849000D01*
X117098500Y-76849000D01*
X117098500Y-77130687D01*
X117170726Y-77214041D01*
X117189807Y-77243731D01*
X117267394Y-77413621D01*
X117277338Y-77447486D01*
X117277843Y-77451000D01*
X117401500Y-77451000D01*
X117401500Y-76942927D01*
X117398724Y-76934841D01*
X117389247Y-76878055D01*
X117381890Y-76849000D01*
X117098500Y-76849000D01*
X116825500Y-76849000D01*
X116825500Y-76574500D01*
X116842113Y-76512500D01*
X116887500Y-76467113D01*
X116949500Y-76450500D01*
X117169747Y-76450500D01*
X117169748Y-76450500D01*
X117225813Y-76439348D01*
X117274187Y-76439348D01*
X117330252Y-76450500D01*
G37*
%TD.AperFunction*%
%TA.AperFunction,Conductor*%
G36*
X133854370Y-100892728D02*
G01*
X133904998Y-100923382D01*
X135822892Y-102841276D01*
X135830200Y-102849250D01*
X135854487Y-102878194D01*
X135878536Y-102892079D01*
X135887198Y-102897080D01*
X135896321Y-102902892D01*
X135927258Y-102924554D01*
X135927259Y-102924554D01*
X135928140Y-102925171D01*
X135952833Y-102935400D01*
X135953896Y-102935587D01*
X135953897Y-102935588D01*
X135991085Y-102942145D01*
X136001643Y-102944485D01*
X136038135Y-102954264D01*
X136075765Y-102950971D01*
X136086572Y-102950500D01*
X145305373Y-102950500D01*
X145316180Y-102950971D01*
X145353807Y-102954264D01*
X145390324Y-102944478D01*
X145400830Y-102942149D01*
X145438045Y-102935588D01*
X145438047Y-102935586D01*
X145439112Y-102935399D01*
X145463799Y-102925173D01*
X145464682Y-102924554D01*
X145464684Y-102924554D01*
X145495625Y-102902887D01*
X145504722Y-102897091D01*
X145537455Y-102878194D01*
X145540724Y-102874297D01*
X145544503Y-102869795D01*
X145587088Y-102837118D01*
X145639493Y-102825500D01*
X145925500Y-102825500D01*
X145987500Y-102842113D01*
X146032887Y-102887500D01*
X146049500Y-102949500D01*
X146049500Y-103169747D01*
X146060651Y-103225810D01*
X146060651Y-103274190D01*
X146049500Y-103330253D01*
X146049500Y-103550500D01*
X146032887Y-103612500D01*
X145987500Y-103657887D01*
X145925500Y-103674500D01*
X135686188Y-103674500D01*
X135638735Y-103665061D01*
X135598507Y-103638181D01*
X135190326Y-103230000D01*
X135576406Y-103230000D01*
X135747906Y-103401500D01*
X136123500Y-103401500D01*
X137531848Y-103401500D01*
X137825500Y-103401500D01*
X137825500Y-103230000D01*
X143180500Y-103230000D01*
X143180500Y-103401500D01*
X143782500Y-103401500D01*
X143782500Y-103230000D01*
X144031500Y-103230000D01*
X144031500Y-103401500D01*
X144633500Y-103401500D01*
X144633500Y-103230000D01*
X144882500Y-103230000D01*
X144882500Y-103401500D01*
X145484500Y-103401500D01*
X145484500Y-103230000D01*
X144882500Y-103230000D01*
X144633500Y-103230000D01*
X144031500Y-103230000D01*
X143782500Y-103230000D01*
X143180500Y-103230000D01*
X137825500Y-103230000D01*
X137552676Y-103230000D01*
X137552771Y-103230602D01*
X137552771Y-103269398D01*
X137531848Y-103401500D01*
X136123500Y-103401500D01*
X136123500Y-103230000D01*
X135576406Y-103230000D01*
X135190326Y-103230000D01*
X134339326Y-102379000D01*
X134725406Y-102379000D01*
X135272500Y-102926094D01*
X135272500Y-102676964D01*
X134974536Y-102379000D01*
X134725406Y-102379000D01*
X134339326Y-102379000D01*
X133488326Y-101528000D01*
X133874406Y-101528000D01*
X134421500Y-102075094D01*
X134421500Y-101825964D01*
X134123536Y-101528000D01*
X133874406Y-101528000D01*
X133488326Y-101528000D01*
X133383830Y-101423504D01*
X133351929Y-101368628D01*
X133351363Y-101305157D01*
X133382279Y-101249720D01*
X133436577Y-101216846D01*
X133460053Y-101209953D01*
X133581128Y-101132143D01*
X133675377Y-101023373D01*
X133704525Y-100959547D01*
X133741246Y-100913138D01*
X133795300Y-100889033D01*
X133854370Y-100892728D01*
G37*
%TD.AperFunction*%
%TA.AperFunction,Conductor*%
G36*
X134587500Y-75766613D02*
G01*
X134632887Y-75812000D01*
X134649500Y-75874000D01*
X134649500Y-76269749D01*
X134662729Y-76336258D01*
X134669161Y-76349856D01*
X134674500Y-76385851D01*
X134674500Y-98815112D01*
X134666682Y-98858445D01*
X134644213Y-98896314D01*
X134574623Y-98976625D01*
X134514834Y-99107542D01*
X134494353Y-99250000D01*
X134514834Y-99392457D01*
X134574623Y-99523374D01*
X134637091Y-99595466D01*
X134668872Y-99632143D01*
X134789947Y-99709953D01*
X134928039Y-99750500D01*
X135071961Y-99750500D01*
X135210053Y-99709953D01*
X135331128Y-99632143D01*
X135425377Y-99523373D01*
X135485165Y-99392457D01*
X135505647Y-99250000D01*
X135485165Y-99107543D01*
X135425377Y-98976627D01*
X135425376Y-98976626D01*
X135425376Y-98976625D01*
X135355787Y-98896314D01*
X135333318Y-98858445D01*
X135325500Y-98815112D01*
X135325500Y-76385851D01*
X135330839Y-76349856D01*
X135337270Y-76336258D01*
X135350500Y-76269749D01*
X135350500Y-75874000D01*
X135367113Y-75812000D01*
X135412500Y-75766613D01*
X135474500Y-75750000D01*
X135675500Y-75750000D01*
X135737500Y-75766613D01*
X135782887Y-75812000D01*
X135799500Y-75874000D01*
X135799500Y-98633106D01*
X135831587Y-98897375D01*
X135895297Y-99155853D01*
X135989696Y-99404763D01*
X136113411Y-99640483D01*
X136264638Y-99859572D01*
X136324941Y-99927639D01*
X136441168Y-100058832D01*
X136555469Y-100160094D01*
X136640427Y-100235361D01*
X136640430Y-100235363D01*
X136859517Y-100386589D01*
X137095236Y-100510303D01*
X137344148Y-100604703D01*
X137602623Y-100668411D01*
X137602624Y-100668412D01*
X137866894Y-100700500D01*
X146376000Y-100700500D01*
X146438000Y-100717113D01*
X146483387Y-100762500D01*
X146500000Y-100824500D01*
X146500000Y-101525500D01*
X146483387Y-101587500D01*
X146438000Y-101632887D01*
X146376000Y-101649500D01*
X146230251Y-101649500D01*
X146163741Y-101662729D01*
X146150144Y-101669161D01*
X146114149Y-101674500D01*
X145254730Y-101674500D01*
X145203218Y-101663294D01*
X145161017Y-101631702D01*
X145106129Y-101568358D01*
X145106128Y-101568357D01*
X144985053Y-101490547D01*
X144846961Y-101450000D01*
X144703039Y-101450000D01*
X144564947Y-101490547D01*
X144443870Y-101568358D01*
X144349623Y-101677125D01*
X144289834Y-101808042D01*
X144269353Y-101950499D01*
X144289834Y-102092957D01*
X144304006Y-102123988D01*
X144314896Y-102184346D01*
X144295527Y-102242539D01*
X144250639Y-102284332D01*
X144191212Y-102299500D01*
X136253130Y-102299500D01*
X136205677Y-102290061D01*
X136165449Y-102263181D01*
X135430268Y-101528000D01*
X135816348Y-101528000D01*
X136123500Y-101835152D01*
X136123500Y-101528000D01*
X136372500Y-101528000D01*
X136372500Y-102026500D01*
X136974500Y-102026500D01*
X137223500Y-102026500D01*
X137825500Y-102026500D01*
X137825500Y-101528000D01*
X138074500Y-101528000D01*
X138074500Y-102026500D01*
X138676500Y-102026500D01*
X138925500Y-102026500D01*
X139527500Y-102026500D01*
X139527500Y-101528000D01*
X139776500Y-101528000D01*
X139776500Y-102026500D01*
X140378500Y-102026500D01*
X140627500Y-102026500D01*
X141229500Y-102026500D01*
X141229500Y-101528000D01*
X141478500Y-101528000D01*
X141478500Y-102026500D01*
X142080500Y-102026500D01*
X142329500Y-102026500D01*
X142931500Y-102026500D01*
X142931500Y-101528000D01*
X143180500Y-101528000D01*
X143180500Y-102026500D01*
X143782500Y-102026500D01*
X143782500Y-101528000D01*
X143180500Y-101528000D01*
X142931500Y-101528000D01*
X142724509Y-101528000D01*
X142708603Y-101559218D01*
X142685799Y-101590604D01*
X142590604Y-101685799D01*
X142559218Y-101708603D01*
X142439264Y-101769723D01*
X142402367Y-101781711D01*
X142329500Y-101793252D01*
X142329500Y-102026500D01*
X142080500Y-102026500D01*
X142080500Y-101776144D01*
X142060736Y-101769723D01*
X141940782Y-101708603D01*
X141909396Y-101685799D01*
X141814201Y-101590604D01*
X141791397Y-101559218D01*
X141775491Y-101528000D01*
X141478500Y-101528000D01*
X141229500Y-101528000D01*
X140974509Y-101528000D01*
X140958603Y-101559218D01*
X140935799Y-101590604D01*
X140840604Y-101685799D01*
X140809218Y-101708603D01*
X140689264Y-101769723D01*
X140652367Y-101781711D01*
X140627500Y-101785650D01*
X140627500Y-102026500D01*
X140378500Y-102026500D01*
X140378500Y-101786600D01*
X140347633Y-101781711D01*
X140310736Y-101769723D01*
X140190782Y-101708603D01*
X140159396Y-101685799D01*
X140064201Y-101590604D01*
X140041397Y-101559218D01*
X140025491Y-101528000D01*
X139776500Y-101528000D01*
X139527500Y-101528000D01*
X139224509Y-101528000D01*
X139208603Y-101559218D01*
X139185799Y-101590604D01*
X139090604Y-101685799D01*
X139059218Y-101708603D01*
X138939264Y-101769723D01*
X138925500Y-101774195D01*
X138925500Y-102026500D01*
X138676500Y-102026500D01*
X138676500Y-101794202D01*
X138597633Y-101781711D01*
X138560736Y-101769723D01*
X138440782Y-101708603D01*
X138409396Y-101685799D01*
X138314201Y-101590604D01*
X138291397Y-101559218D01*
X138275491Y-101528000D01*
X138074500Y-101528000D01*
X137825500Y-101528000D01*
X137474509Y-101528000D01*
X137458603Y-101559218D01*
X137435799Y-101590604D01*
X137340604Y-101685799D01*
X137309218Y-101708603D01*
X137223500Y-101752279D01*
X137223500Y-102026500D01*
X136974500Y-102026500D01*
X136974500Y-101801805D01*
X136847633Y-101781711D01*
X136810736Y-101769723D01*
X136690782Y-101708603D01*
X136659396Y-101685799D01*
X136564201Y-101590604D01*
X136541397Y-101559218D01*
X136525491Y-101528000D01*
X136372500Y-101528000D01*
X136123500Y-101528000D01*
X135816348Y-101528000D01*
X135430268Y-101528000D01*
X134579268Y-100677000D01*
X134965348Y-100677000D01*
X135272500Y-100984152D01*
X135272500Y-100677000D01*
X135521500Y-100677000D01*
X135521500Y-101233152D01*
X135567348Y-101279000D01*
X136123500Y-101279000D01*
X136123500Y-100677000D01*
X136372500Y-100677000D01*
X136372500Y-101279000D01*
X136448750Y-101279000D01*
X136447229Y-101269398D01*
X136447229Y-101230602D01*
X136468289Y-101097633D01*
X136480277Y-101060736D01*
X136541397Y-100940782D01*
X136564201Y-100909396D01*
X136565439Y-100908158D01*
X137434561Y-100908158D01*
X137435799Y-100909396D01*
X137458603Y-100940782D01*
X137519723Y-101060736D01*
X137531711Y-101097633D01*
X137552771Y-101230602D01*
X137552771Y-101269398D01*
X137551250Y-101279000D01*
X137825500Y-101279000D01*
X137825500Y-100973500D01*
X138074500Y-100973500D01*
X138074500Y-101279000D01*
X138198750Y-101279000D01*
X138197229Y-101269398D01*
X138197229Y-101230602D01*
X138218289Y-101097633D01*
X138230277Y-101060736D01*
X138274726Y-100973500D01*
X139225274Y-100973500D01*
X139269723Y-101060736D01*
X139281711Y-101097633D01*
X139302771Y-101230602D01*
X139302771Y-101269398D01*
X139301250Y-101279000D01*
X139527500Y-101279000D01*
X139527500Y-100973500D01*
X139776500Y-100973500D01*
X139776500Y-101279000D01*
X139948750Y-101279000D01*
X139947229Y-101269398D01*
X139947229Y-101230602D01*
X139968289Y-101097633D01*
X139980277Y-101060736D01*
X140024726Y-100973500D01*
X140975274Y-100973500D01*
X141019723Y-101060736D01*
X141031711Y-101097633D01*
X141052771Y-101230602D01*
X141052771Y-101269398D01*
X141051250Y-101279000D01*
X141229500Y-101279000D01*
X141229500Y-100973500D01*
X141478500Y-100973500D01*
X141478500Y-101279000D01*
X141698750Y-101279000D01*
X141697229Y-101269398D01*
X141697229Y-101230602D01*
X141718289Y-101097633D01*
X141730277Y-101060736D01*
X141774726Y-100973500D01*
X142725274Y-100973500D01*
X142769723Y-101060736D01*
X142781711Y-101097633D01*
X142802771Y-101230602D01*
X142802771Y-101269398D01*
X142801250Y-101279000D01*
X142931500Y-101279000D01*
X142931500Y-100973500D01*
X143180500Y-100973500D01*
X143180500Y-101279000D01*
X143782500Y-101279000D01*
X143782500Y-100973500D01*
X144031500Y-100973500D01*
X144031500Y-101279000D01*
X144389163Y-101279000D01*
X144435375Y-101249302D01*
X144467480Y-101234641D01*
X144633500Y-101185894D01*
X144633500Y-100973500D01*
X144882500Y-100973500D01*
X144882500Y-101179030D01*
X144903317Y-101182023D01*
X145082520Y-101234641D01*
X145114625Y-101249302D01*
X145160837Y-101279000D01*
X145484500Y-101279000D01*
X145484500Y-100973500D01*
X145733500Y-100973500D01*
X145733500Y-101279000D01*
X145969167Y-101279000D01*
X145972684Y-101261317D01*
X145977371Y-101250000D01*
X145972684Y-101238683D01*
X145963094Y-101190470D01*
X145960711Y-101166279D01*
X145960711Y-100973500D01*
X145733500Y-100973500D01*
X145484500Y-100973500D01*
X144882500Y-100973500D01*
X144633500Y-100973500D01*
X144031500Y-100973500D01*
X143782500Y-100973500D01*
X143180500Y-100973500D01*
X142931500Y-100973500D01*
X142725274Y-100973500D01*
X141774726Y-100973500D01*
X141478500Y-100973500D01*
X141229500Y-100973500D01*
X140975274Y-100973500D01*
X140024726Y-100973500D01*
X139776500Y-100973500D01*
X139527500Y-100973500D01*
X139225274Y-100973500D01*
X138274726Y-100973500D01*
X138074500Y-100973500D01*
X137825500Y-100973500D01*
X137825500Y-100970479D01*
X137560769Y-100938335D01*
X137546041Y-100935636D01*
X137434561Y-100908158D01*
X136565439Y-100908158D01*
X136659396Y-100814201D01*
X136690782Y-100791397D01*
X136810736Y-100730277D01*
X136847633Y-100718289D01*
X136890989Y-100711422D01*
X136825403Y-100677000D01*
X136372500Y-100677000D01*
X136123500Y-100677000D01*
X135521500Y-100677000D01*
X135272500Y-100677000D01*
X134965348Y-100677000D01*
X134579268Y-100677000D01*
X134111819Y-100209551D01*
X134084939Y-100169323D01*
X134075500Y-100121870D01*
X134075500Y-99955822D01*
X134670500Y-99955822D01*
X134670500Y-100382152D01*
X134716348Y-100428000D01*
X135272500Y-100428000D01*
X135521500Y-100428000D01*
X136123500Y-100428000D01*
X136123500Y-100111948D01*
X136054317Y-100033857D01*
X136045082Y-100022069D01*
X135909744Y-99826000D01*
X135524381Y-99826000D01*
X135523419Y-99827110D01*
X135521500Y-99828773D01*
X135521500Y-100428000D01*
X135272500Y-100428000D01*
X135272500Y-99976142D01*
X135128317Y-100018477D01*
X135093383Y-100023500D01*
X134906617Y-100023500D01*
X134871683Y-100018477D01*
X134692480Y-99965859D01*
X134670500Y-99955822D01*
X134075500Y-99955822D01*
X134075500Y-98124000D01*
X134348500Y-98124000D01*
X134348500Y-98726000D01*
X134401500Y-98726000D01*
X134401500Y-98124000D01*
X134348500Y-98124000D01*
X134075500Y-98124000D01*
X134075500Y-97273000D01*
X134348500Y-97273000D01*
X134348500Y-97875000D01*
X134401500Y-97875000D01*
X134401500Y-97273000D01*
X134348500Y-97273000D01*
X134075500Y-97273000D01*
X134075500Y-96422000D01*
X134348500Y-96422000D01*
X134348500Y-97024000D01*
X134401500Y-97024000D01*
X134401500Y-96422000D01*
X134348500Y-96422000D01*
X134075500Y-96422000D01*
X134075500Y-95571000D01*
X134348500Y-95571000D01*
X134348500Y-96173000D01*
X134401500Y-96173000D01*
X134401500Y-95571000D01*
X134348500Y-95571000D01*
X134075500Y-95571000D01*
X134075500Y-94720000D01*
X134348500Y-94720000D01*
X134348500Y-95322000D01*
X134401500Y-95322000D01*
X134401500Y-94720000D01*
X134348500Y-94720000D01*
X134075500Y-94720000D01*
X134075500Y-93869000D01*
X134348500Y-93869000D01*
X134348500Y-94471000D01*
X134401500Y-94471000D01*
X134401500Y-93869000D01*
X134348500Y-93869000D01*
X134075500Y-93869000D01*
X134075500Y-93018000D01*
X134348500Y-93018000D01*
X134348500Y-93620000D01*
X134401500Y-93620000D01*
X134401500Y-93018000D01*
X134348500Y-93018000D01*
X134075500Y-93018000D01*
X134075500Y-92167000D01*
X134348500Y-92167000D01*
X134348500Y-92769000D01*
X134401500Y-92769000D01*
X134401500Y-92167000D01*
X134348500Y-92167000D01*
X134075500Y-92167000D01*
X134075500Y-91316000D01*
X134348500Y-91316000D01*
X134348500Y-91918000D01*
X134401500Y-91918000D01*
X134401500Y-91316000D01*
X134348500Y-91316000D01*
X134075500Y-91316000D01*
X134075500Y-90465000D01*
X134348500Y-90465000D01*
X134348500Y-91067000D01*
X134401500Y-91067000D01*
X134401500Y-90465000D01*
X134348500Y-90465000D01*
X134075500Y-90465000D01*
X134075500Y-89614000D01*
X134348500Y-89614000D01*
X134348500Y-90216000D01*
X134401500Y-90216000D01*
X134401500Y-89614000D01*
X134348500Y-89614000D01*
X134075500Y-89614000D01*
X134075500Y-88763000D01*
X134348500Y-88763000D01*
X134348500Y-89365000D01*
X134401500Y-89365000D01*
X134401500Y-88763000D01*
X134348500Y-88763000D01*
X134075500Y-88763000D01*
X134075500Y-87912000D01*
X134348500Y-87912000D01*
X134348500Y-88514000D01*
X134401500Y-88514000D01*
X134401500Y-87912000D01*
X134348500Y-87912000D01*
X134075500Y-87912000D01*
X134075500Y-87061000D01*
X134348500Y-87061000D01*
X134348500Y-87663000D01*
X134401500Y-87663000D01*
X134401500Y-87061000D01*
X134348500Y-87061000D01*
X134075500Y-87061000D01*
X134075500Y-86210000D01*
X134348500Y-86210000D01*
X134348500Y-86812000D01*
X134401500Y-86812000D01*
X134401500Y-86210000D01*
X134348500Y-86210000D01*
X134075500Y-86210000D01*
X134075500Y-85359000D01*
X134348500Y-85359000D01*
X134348500Y-85961000D01*
X134401500Y-85961000D01*
X134401500Y-85359000D01*
X134348500Y-85359000D01*
X134075500Y-85359000D01*
X134075500Y-84508000D01*
X134348500Y-84508000D01*
X134348500Y-85110000D01*
X134401500Y-85110000D01*
X134401500Y-84508000D01*
X134348500Y-84508000D01*
X134075500Y-84508000D01*
X134075500Y-83657000D01*
X134348500Y-83657000D01*
X134348500Y-84259000D01*
X134401500Y-84259000D01*
X134401500Y-83657000D01*
X134348500Y-83657000D01*
X134075500Y-83657000D01*
X134075500Y-82806000D01*
X134348500Y-82806000D01*
X134348500Y-83408000D01*
X134401500Y-83408000D01*
X134401500Y-82806000D01*
X134348500Y-82806000D01*
X134075500Y-82806000D01*
X134075500Y-81955000D01*
X134348500Y-81955000D01*
X134348500Y-82557000D01*
X134401500Y-82557000D01*
X134401500Y-81955000D01*
X134348500Y-81955000D01*
X134075500Y-81955000D01*
X134075500Y-81104000D01*
X134348500Y-81104000D01*
X134348500Y-81706000D01*
X134401500Y-81706000D01*
X134401500Y-81104000D01*
X134348500Y-81104000D01*
X134075500Y-81104000D01*
X134075500Y-80253000D01*
X134348500Y-80253000D01*
X134348500Y-80855000D01*
X134401500Y-80855000D01*
X134401500Y-80253000D01*
X134348500Y-80253000D01*
X134075500Y-80253000D01*
X134075500Y-79402000D01*
X134348500Y-79402000D01*
X134348500Y-80004000D01*
X134401500Y-80004000D01*
X134401500Y-79402000D01*
X134348500Y-79402000D01*
X134075500Y-79402000D01*
X134075500Y-78551000D01*
X134348500Y-78551000D01*
X134348500Y-79153000D01*
X134401500Y-79153000D01*
X134401500Y-78551000D01*
X134348500Y-78551000D01*
X134075500Y-78551000D01*
X134075500Y-77700000D01*
X134348500Y-77700000D01*
X134348500Y-78302000D01*
X134401500Y-78302000D01*
X134401500Y-77700000D01*
X134348500Y-77700000D01*
X134075500Y-77700000D01*
X134075500Y-77122584D01*
X134084939Y-77075132D01*
X134111815Y-77034906D01*
X134216307Y-76930414D01*
X134224248Y-76923138D01*
X134253194Y-76898851D01*
X134272102Y-76866099D01*
X134277878Y-76857034D01*
X134299553Y-76826080D01*
X134299553Y-76826077D01*
X134300171Y-76825196D01*
X134310400Y-76800501D01*
X134310586Y-76799443D01*
X134310588Y-76799441D01*
X134317150Y-76762220D01*
X134319480Y-76751708D01*
X134329263Y-76715203D01*
X134325971Y-76677584D01*
X134325500Y-76666778D01*
X134325500Y-76385851D01*
X134330839Y-76349856D01*
X134337270Y-76336258D01*
X134350500Y-76269749D01*
X134350500Y-75874000D01*
X134367113Y-75812000D01*
X134412500Y-75766613D01*
X134474500Y-75750000D01*
X134525500Y-75750000D01*
X134587500Y-75766613D01*
G37*
%TD.AperFunction*%
%TA.AperFunction,Conductor*%
G36*
X122087500Y-75766613D02*
G01*
X122132887Y-75812000D01*
X122149500Y-75874000D01*
X122149500Y-76269749D01*
X122161132Y-76328230D01*
X122205447Y-76394552D01*
X122271769Y-76438867D01*
X122330251Y-76450500D01*
X122330252Y-76450500D01*
X122669747Y-76450500D01*
X122669748Y-76450500D01*
X122725813Y-76439348D01*
X122774187Y-76439348D01*
X122830252Y-76450500D01*
X123169747Y-76450500D01*
X123169748Y-76450500D01*
X123225813Y-76439348D01*
X123274187Y-76439348D01*
X123330252Y-76450500D01*
X123669747Y-76450500D01*
X123669748Y-76450500D01*
X123725813Y-76439348D01*
X123774187Y-76439348D01*
X123830252Y-76450500D01*
X123830253Y-76450500D01*
X124050500Y-76450500D01*
X124112500Y-76467113D01*
X124157887Y-76512500D01*
X124174500Y-76574500D01*
X124174500Y-101664812D01*
X124160985Y-101721107D01*
X124123385Y-101765130D01*
X124069898Y-101787285D01*
X124012182Y-101782743D01*
X123962819Y-101752493D01*
X122887326Y-100677000D01*
X123607500Y-100677000D01*
X123607500Y-101011094D01*
X123875406Y-101279000D01*
X123901500Y-101279000D01*
X123901500Y-100677000D01*
X123607500Y-100677000D01*
X122887326Y-100677000D01*
X122036326Y-99826000D01*
X122756500Y-99826000D01*
X122756500Y-100160094D01*
X123024406Y-100428000D01*
X123358500Y-100428000D01*
X123358500Y-99826000D01*
X123607500Y-99826000D01*
X123607500Y-100428000D01*
X123901500Y-100428000D01*
X123901500Y-99826000D01*
X123607500Y-99826000D01*
X123358500Y-99826000D01*
X122756500Y-99826000D01*
X122036326Y-99826000D01*
X121861819Y-99651493D01*
X121834939Y-99611265D01*
X121825500Y-99563812D01*
X121825500Y-98975000D01*
X122098500Y-98975000D01*
X122098500Y-99502094D01*
X122173406Y-99577000D01*
X122507500Y-99577000D01*
X122507500Y-98975000D01*
X122756500Y-98975000D01*
X122756500Y-99577000D01*
X123358500Y-99577000D01*
X123358500Y-98975000D01*
X123607500Y-98975000D01*
X123607500Y-99577000D01*
X123901500Y-99577000D01*
X123901500Y-98975000D01*
X123607500Y-98975000D01*
X123358500Y-98975000D01*
X122756500Y-98975000D01*
X122507500Y-98975000D01*
X122098500Y-98975000D01*
X121825500Y-98975000D01*
X121825500Y-98124000D01*
X122098500Y-98124000D01*
X122098500Y-98726000D01*
X122507500Y-98726000D01*
X122507500Y-98124000D01*
X122756500Y-98124000D01*
X122756500Y-98726000D01*
X123358500Y-98726000D01*
X123358500Y-98124000D01*
X123607500Y-98124000D01*
X123607500Y-98726000D01*
X123901500Y-98726000D01*
X123901500Y-98124000D01*
X123607500Y-98124000D01*
X123358500Y-98124000D01*
X122756500Y-98124000D01*
X122507500Y-98124000D01*
X122098500Y-98124000D01*
X121825500Y-98124000D01*
X121825500Y-97273000D01*
X122098500Y-97273000D01*
X122098500Y-97875000D01*
X122507500Y-97875000D01*
X122507500Y-97273000D01*
X122756500Y-97273000D01*
X122756500Y-97875000D01*
X123358500Y-97875000D01*
X123358500Y-97273000D01*
X123607500Y-97273000D01*
X123607500Y-97875000D01*
X123901500Y-97875000D01*
X123901500Y-97273000D01*
X123607500Y-97273000D01*
X123358500Y-97273000D01*
X122756500Y-97273000D01*
X122507500Y-97273000D01*
X122098500Y-97273000D01*
X121825500Y-97273000D01*
X121825500Y-96422000D01*
X122098500Y-96422000D01*
X122098500Y-97024000D01*
X122507500Y-97024000D01*
X122507500Y-96422000D01*
X122756500Y-96422000D01*
X122756500Y-97024000D01*
X123358500Y-97024000D01*
X123358500Y-96422000D01*
X123607500Y-96422000D01*
X123607500Y-97024000D01*
X123901500Y-97024000D01*
X123901500Y-96422000D01*
X123607500Y-96422000D01*
X123358500Y-96422000D01*
X122756500Y-96422000D01*
X122507500Y-96422000D01*
X122098500Y-96422000D01*
X121825500Y-96422000D01*
X121825500Y-95571000D01*
X122098500Y-95571000D01*
X122098500Y-96173000D01*
X122507500Y-96173000D01*
X122507500Y-95571000D01*
X122756500Y-95571000D01*
X122756500Y-96173000D01*
X123358500Y-96173000D01*
X123358500Y-95571000D01*
X123607500Y-95571000D01*
X123607500Y-96173000D01*
X123901500Y-96173000D01*
X123901500Y-95571000D01*
X123607500Y-95571000D01*
X123358500Y-95571000D01*
X122756500Y-95571000D01*
X122507500Y-95571000D01*
X122098500Y-95571000D01*
X121825500Y-95571000D01*
X121825500Y-94720000D01*
X122098500Y-94720000D01*
X122098500Y-95322000D01*
X122507500Y-95322000D01*
X122507500Y-94720000D01*
X122756500Y-94720000D01*
X122756500Y-95322000D01*
X123358500Y-95322000D01*
X123358500Y-94720000D01*
X123607500Y-94720000D01*
X123607500Y-95322000D01*
X123901500Y-95322000D01*
X123901500Y-94720000D01*
X123607500Y-94720000D01*
X123358500Y-94720000D01*
X122756500Y-94720000D01*
X122507500Y-94720000D01*
X122098500Y-94720000D01*
X121825500Y-94720000D01*
X121825500Y-93869000D01*
X122098500Y-93869000D01*
X122098500Y-94471000D01*
X122507500Y-94471000D01*
X122507500Y-93869000D01*
X122756500Y-93869000D01*
X122756500Y-94471000D01*
X123358500Y-94471000D01*
X123358500Y-93869000D01*
X123607500Y-93869000D01*
X123607500Y-94471000D01*
X123901500Y-94471000D01*
X123901500Y-93869000D01*
X123607500Y-93869000D01*
X123358500Y-93869000D01*
X122756500Y-93869000D01*
X122507500Y-93869000D01*
X122098500Y-93869000D01*
X121825500Y-93869000D01*
X121825500Y-93018000D01*
X122098500Y-93018000D01*
X122098500Y-93620000D01*
X122507500Y-93620000D01*
X122507500Y-93018000D01*
X122756500Y-93018000D01*
X122756500Y-93620000D01*
X123358500Y-93620000D01*
X123358500Y-93018000D01*
X123607500Y-93018000D01*
X123607500Y-93620000D01*
X123901500Y-93620000D01*
X123901500Y-93018000D01*
X123607500Y-93018000D01*
X123358500Y-93018000D01*
X122756500Y-93018000D01*
X122507500Y-93018000D01*
X122098500Y-93018000D01*
X121825500Y-93018000D01*
X121825500Y-92167000D01*
X122098500Y-92167000D01*
X122098500Y-92769000D01*
X122507500Y-92769000D01*
X122507500Y-92167000D01*
X122756500Y-92167000D01*
X122756500Y-92769000D01*
X123358500Y-92769000D01*
X123358500Y-92167000D01*
X123607500Y-92167000D01*
X123607500Y-92769000D01*
X123901500Y-92769000D01*
X123901500Y-92167000D01*
X123607500Y-92167000D01*
X123358500Y-92167000D01*
X122756500Y-92167000D01*
X122507500Y-92167000D01*
X122098500Y-92167000D01*
X121825500Y-92167000D01*
X121825500Y-91316000D01*
X122098500Y-91316000D01*
X122098500Y-91918000D01*
X122507500Y-91918000D01*
X122507500Y-91316000D01*
X122756500Y-91316000D01*
X122756500Y-91918000D01*
X123358500Y-91918000D01*
X123358500Y-91316000D01*
X123607500Y-91316000D01*
X123607500Y-91918000D01*
X123901500Y-91918000D01*
X123901500Y-91316000D01*
X123607500Y-91316000D01*
X123358500Y-91316000D01*
X122756500Y-91316000D01*
X122507500Y-91316000D01*
X122098500Y-91316000D01*
X121825500Y-91316000D01*
X121825500Y-90465000D01*
X122098500Y-90465000D01*
X122098500Y-91067000D01*
X122507500Y-91067000D01*
X122507500Y-90465000D01*
X122756500Y-90465000D01*
X122756500Y-91067000D01*
X123358500Y-91067000D01*
X123358500Y-90465000D01*
X123607500Y-90465000D01*
X123607500Y-91067000D01*
X123901500Y-91067000D01*
X123901500Y-90465000D01*
X123607500Y-90465000D01*
X123358500Y-90465000D01*
X122756500Y-90465000D01*
X122507500Y-90465000D01*
X122098500Y-90465000D01*
X121825500Y-90465000D01*
X121825500Y-89614000D01*
X122098500Y-89614000D01*
X122098500Y-90216000D01*
X122507500Y-90216000D01*
X122507500Y-89614000D01*
X122756500Y-89614000D01*
X122756500Y-90216000D01*
X123358500Y-90216000D01*
X123358500Y-89614000D01*
X123607500Y-89614000D01*
X123607500Y-90216000D01*
X123901500Y-90216000D01*
X123901500Y-89614000D01*
X123607500Y-89614000D01*
X123358500Y-89614000D01*
X122756500Y-89614000D01*
X122507500Y-89614000D01*
X122098500Y-89614000D01*
X121825500Y-89614000D01*
X121825500Y-88763000D01*
X122098500Y-88763000D01*
X122098500Y-89365000D01*
X122507500Y-89365000D01*
X122507500Y-88763000D01*
X122756500Y-88763000D01*
X122756500Y-89365000D01*
X123358500Y-89365000D01*
X123358500Y-88763000D01*
X123607500Y-88763000D01*
X123607500Y-89365000D01*
X123901500Y-89365000D01*
X123901500Y-88763000D01*
X123607500Y-88763000D01*
X123358500Y-88763000D01*
X122756500Y-88763000D01*
X122507500Y-88763000D01*
X122098500Y-88763000D01*
X121825500Y-88763000D01*
X121825500Y-87912000D01*
X122098500Y-87912000D01*
X122098500Y-88514000D01*
X122507500Y-88514000D01*
X122507500Y-87912000D01*
X122756500Y-87912000D01*
X122756500Y-88514000D01*
X123358500Y-88514000D01*
X123358500Y-87912000D01*
X123607500Y-87912000D01*
X123607500Y-88514000D01*
X123901500Y-88514000D01*
X123901500Y-87912000D01*
X123607500Y-87912000D01*
X123358500Y-87912000D01*
X122756500Y-87912000D01*
X122507500Y-87912000D01*
X122098500Y-87912000D01*
X121825500Y-87912000D01*
X121825500Y-87061000D01*
X122098500Y-87061000D01*
X122098500Y-87663000D01*
X122507500Y-87663000D01*
X122507500Y-87061000D01*
X122756500Y-87061000D01*
X122756500Y-87663000D01*
X123358500Y-87663000D01*
X123358500Y-87061000D01*
X123607500Y-87061000D01*
X123607500Y-87663000D01*
X123901500Y-87663000D01*
X123901500Y-87061000D01*
X123607500Y-87061000D01*
X123358500Y-87061000D01*
X122756500Y-87061000D01*
X122507500Y-87061000D01*
X122098500Y-87061000D01*
X121825500Y-87061000D01*
X121825500Y-86210000D01*
X122098500Y-86210000D01*
X122098500Y-86812000D01*
X122507500Y-86812000D01*
X122507500Y-86210000D01*
X122756500Y-86210000D01*
X122756500Y-86812000D01*
X123358500Y-86812000D01*
X123358500Y-86210000D01*
X123607500Y-86210000D01*
X123607500Y-86812000D01*
X123901500Y-86812000D01*
X123901500Y-86210000D01*
X123607500Y-86210000D01*
X123358500Y-86210000D01*
X122756500Y-86210000D01*
X122507500Y-86210000D01*
X122098500Y-86210000D01*
X121825500Y-86210000D01*
X121825500Y-85359000D01*
X122098500Y-85359000D01*
X122098500Y-85961000D01*
X122507500Y-85961000D01*
X122507500Y-85359000D01*
X122756500Y-85359000D01*
X122756500Y-85961000D01*
X123358500Y-85961000D01*
X123358500Y-85359000D01*
X123607500Y-85359000D01*
X123607500Y-85961000D01*
X123901500Y-85961000D01*
X123901500Y-85359000D01*
X123607500Y-85359000D01*
X123358500Y-85359000D01*
X122756500Y-85359000D01*
X122507500Y-85359000D01*
X122098500Y-85359000D01*
X121825500Y-85359000D01*
X121825500Y-84508000D01*
X122098500Y-84508000D01*
X122098500Y-85110000D01*
X122507500Y-85110000D01*
X122507500Y-84508000D01*
X122756500Y-84508000D01*
X122756500Y-85110000D01*
X123358500Y-85110000D01*
X123358500Y-84508000D01*
X123607500Y-84508000D01*
X123607500Y-85110000D01*
X123901500Y-85110000D01*
X123901500Y-84508000D01*
X123607500Y-84508000D01*
X123358500Y-84508000D01*
X122756500Y-84508000D01*
X122507500Y-84508000D01*
X122098500Y-84508000D01*
X121825500Y-84508000D01*
X121825500Y-83657000D01*
X122098500Y-83657000D01*
X122098500Y-84259000D01*
X122507500Y-84259000D01*
X122507500Y-83657000D01*
X122756500Y-83657000D01*
X122756500Y-84259000D01*
X123358500Y-84259000D01*
X123358500Y-83657000D01*
X123607500Y-83657000D01*
X123607500Y-84259000D01*
X123901500Y-84259000D01*
X123901500Y-83657000D01*
X123607500Y-83657000D01*
X123358500Y-83657000D01*
X122756500Y-83657000D01*
X122507500Y-83657000D01*
X122098500Y-83657000D01*
X121825500Y-83657000D01*
X121825500Y-82806000D01*
X122098500Y-82806000D01*
X122098500Y-83408000D01*
X122507500Y-83408000D01*
X122507500Y-82806000D01*
X122756500Y-82806000D01*
X122756500Y-83408000D01*
X123358500Y-83408000D01*
X123358500Y-82806000D01*
X123607500Y-82806000D01*
X123607500Y-83408000D01*
X123901500Y-83408000D01*
X123901500Y-82806000D01*
X123607500Y-82806000D01*
X123358500Y-82806000D01*
X122756500Y-82806000D01*
X122507500Y-82806000D01*
X122098500Y-82806000D01*
X121825500Y-82806000D01*
X121825500Y-81955000D01*
X122098500Y-81955000D01*
X122098500Y-82557000D01*
X122507500Y-82557000D01*
X122507500Y-81955000D01*
X122756500Y-81955000D01*
X122756500Y-82557000D01*
X123358500Y-82557000D01*
X123358500Y-81955000D01*
X123607500Y-81955000D01*
X123607500Y-82557000D01*
X123901500Y-82557000D01*
X123901500Y-81955000D01*
X123607500Y-81955000D01*
X123358500Y-81955000D01*
X122756500Y-81955000D01*
X122507500Y-81955000D01*
X122098500Y-81955000D01*
X121825500Y-81955000D01*
X121825500Y-81104000D01*
X122098500Y-81104000D01*
X122098500Y-81706000D01*
X122507500Y-81706000D01*
X122507500Y-81104000D01*
X122756500Y-81104000D01*
X122756500Y-81706000D01*
X123358500Y-81706000D01*
X123358500Y-81104000D01*
X123607500Y-81104000D01*
X123607500Y-81706000D01*
X123901500Y-81706000D01*
X123901500Y-81104000D01*
X123607500Y-81104000D01*
X123358500Y-81104000D01*
X122756500Y-81104000D01*
X122507500Y-81104000D01*
X122098500Y-81104000D01*
X121825500Y-81104000D01*
X121825500Y-80253000D01*
X122098500Y-80253000D01*
X122098500Y-80855000D01*
X122507500Y-80855000D01*
X122507500Y-80253000D01*
X122756500Y-80253000D01*
X122756500Y-80855000D01*
X123358500Y-80855000D01*
X123358500Y-80253000D01*
X123607500Y-80253000D01*
X123607500Y-80855000D01*
X123901500Y-80855000D01*
X123901500Y-80253000D01*
X123607500Y-80253000D01*
X123358500Y-80253000D01*
X122756500Y-80253000D01*
X122507500Y-80253000D01*
X122098500Y-80253000D01*
X121825500Y-80253000D01*
X121825500Y-79402000D01*
X122098500Y-79402000D01*
X122098500Y-80004000D01*
X122507500Y-80004000D01*
X122507500Y-79402000D01*
X122756500Y-79402000D01*
X122756500Y-80004000D01*
X123358500Y-80004000D01*
X123358500Y-79402000D01*
X123607500Y-79402000D01*
X123607500Y-80004000D01*
X123901500Y-80004000D01*
X123901500Y-79402000D01*
X123607500Y-79402000D01*
X123358500Y-79402000D01*
X122756500Y-79402000D01*
X122507500Y-79402000D01*
X122098500Y-79402000D01*
X121825500Y-79402000D01*
X121825500Y-78874903D01*
X122098500Y-78874903D01*
X122098500Y-79153000D01*
X122507500Y-79153000D01*
X122756500Y-79153000D01*
X123358500Y-79153000D01*
X123607500Y-79153000D01*
X123901500Y-79153000D01*
X123901500Y-78551000D01*
X123797766Y-78551000D01*
X123781711Y-78652367D01*
X123769723Y-78689264D01*
X123708603Y-78809218D01*
X123685799Y-78840604D01*
X123607500Y-78918903D01*
X123607500Y-79153000D01*
X123358500Y-79153000D01*
X123358500Y-79038659D01*
X123269398Y-79052771D01*
X123230602Y-79052771D01*
X123097633Y-79031711D01*
X123060736Y-79019723D01*
X122940782Y-78958603D01*
X122909396Y-78935799D01*
X122875000Y-78901403D01*
X122840604Y-78935799D01*
X122809218Y-78958603D01*
X122756500Y-78985464D01*
X122756500Y-79153000D01*
X122507500Y-79153000D01*
X122507500Y-79052771D01*
X122480602Y-79052771D01*
X122347633Y-79031711D01*
X122310736Y-79019723D01*
X122190782Y-78958603D01*
X122159396Y-78935799D01*
X122098500Y-78874903D01*
X121825500Y-78874903D01*
X121825500Y-78125000D01*
X123651403Y-78125000D01*
X123685799Y-78159396D01*
X123708603Y-78190782D01*
X123765272Y-78302000D01*
X123901500Y-78302000D01*
X123901500Y-77700000D01*
X123797924Y-77700000D01*
X123802771Y-77730602D01*
X123802771Y-77769398D01*
X123781711Y-77902367D01*
X123769723Y-77939264D01*
X123708603Y-78059218D01*
X123685799Y-78090604D01*
X123651403Y-78125000D01*
X121825500Y-78125000D01*
X121825500Y-76849000D01*
X122098500Y-76849000D01*
X122098500Y-77375097D01*
X122159396Y-77314201D01*
X122190782Y-77291397D01*
X122310736Y-77230277D01*
X122347633Y-77218289D01*
X122480602Y-77197229D01*
X122507500Y-77197229D01*
X122507500Y-76849000D01*
X122756500Y-76849000D01*
X122756500Y-77264536D01*
X122809218Y-77291397D01*
X122840604Y-77314201D01*
X122875000Y-77348597D01*
X122909396Y-77314201D01*
X122940782Y-77291397D01*
X123060736Y-77230277D01*
X123097633Y-77218289D01*
X123230602Y-77197229D01*
X123269398Y-77197229D01*
X123358500Y-77211341D01*
X123358500Y-76849000D01*
X123607500Y-76849000D01*
X123607500Y-77331097D01*
X123685799Y-77409396D01*
X123708603Y-77440782D01*
X123713809Y-77451000D01*
X123901500Y-77451000D01*
X123901500Y-76849000D01*
X123607500Y-76849000D01*
X123358500Y-76849000D01*
X122756500Y-76849000D01*
X122507500Y-76849000D01*
X122098500Y-76849000D01*
X121825500Y-76849000D01*
X121825500Y-76385851D01*
X121830839Y-76349856D01*
X121837270Y-76336258D01*
X121850500Y-76269749D01*
X121850500Y-75874000D01*
X121867113Y-75812000D01*
X121912500Y-75766613D01*
X121974500Y-75750000D01*
X122025500Y-75750000D01*
X122087500Y-75766613D01*
G37*
%TD.AperFunction*%
%TA.AperFunction,Conductor*%
G36*
X119587500Y-75766613D02*
G01*
X119632887Y-75812000D01*
X119649500Y-75874000D01*
X119649500Y-76269749D01*
X119661132Y-76328230D01*
X119705447Y-76394552D01*
X119771769Y-76438867D01*
X119830251Y-76450500D01*
X119830252Y-76450500D01*
X120169747Y-76450500D01*
X120169748Y-76450500D01*
X120225813Y-76439348D01*
X120274187Y-76439348D01*
X120330252Y-76450500D01*
X120669747Y-76450500D01*
X120669748Y-76450500D01*
X120725813Y-76439348D01*
X120774187Y-76439348D01*
X120830252Y-76450500D01*
X120830253Y-76450500D01*
X121050500Y-76450500D01*
X121112500Y-76467113D01*
X121157887Y-76512500D01*
X121174500Y-76574500D01*
X121174500Y-99301207D01*
X121160985Y-99357502D01*
X121123385Y-99401525D01*
X121069898Y-99423680D01*
X121012182Y-99419138D01*
X120962819Y-99388888D01*
X119697931Y-98124000D01*
X120203500Y-98124000D01*
X120203500Y-98243489D01*
X120686011Y-98726000D01*
X120805500Y-98726000D01*
X120805500Y-98124000D01*
X120203500Y-98124000D01*
X119697931Y-98124000D01*
X118886819Y-97312888D01*
X118860166Y-97273000D01*
X119352500Y-97273000D01*
X119352500Y-97392489D01*
X119835011Y-97875000D01*
X119954500Y-97875000D01*
X119954500Y-97273000D01*
X120203500Y-97273000D01*
X120203500Y-97875000D01*
X120805500Y-97875000D01*
X120805500Y-97273000D01*
X120203500Y-97273000D01*
X119954500Y-97273000D01*
X119352500Y-97273000D01*
X118860166Y-97273000D01*
X118859939Y-97272660D01*
X118850500Y-97225207D01*
X118850500Y-96422000D01*
X119352500Y-96422000D01*
X119352500Y-97024000D01*
X119954500Y-97024000D01*
X119954500Y-96422000D01*
X120203500Y-96422000D01*
X120203500Y-97024000D01*
X120805500Y-97024000D01*
X120805500Y-96422000D01*
X120203500Y-96422000D01*
X119954500Y-96422000D01*
X119352500Y-96422000D01*
X118850500Y-96422000D01*
X118850500Y-95571000D01*
X119352500Y-95571000D01*
X119352500Y-96173000D01*
X119954500Y-96173000D01*
X119954500Y-95571000D01*
X120203500Y-95571000D01*
X120203500Y-96173000D01*
X120805500Y-96173000D01*
X120805500Y-95571000D01*
X120203500Y-95571000D01*
X119954500Y-95571000D01*
X119352500Y-95571000D01*
X118850500Y-95571000D01*
X118850500Y-94720000D01*
X119352500Y-94720000D01*
X119352500Y-95322000D01*
X119954500Y-95322000D01*
X119954500Y-94720000D01*
X120203500Y-94720000D01*
X120203500Y-95322000D01*
X120805500Y-95322000D01*
X120805500Y-94720000D01*
X120203500Y-94720000D01*
X119954500Y-94720000D01*
X119352500Y-94720000D01*
X118850500Y-94720000D01*
X118850500Y-93869000D01*
X119352500Y-93869000D01*
X119352500Y-94471000D01*
X119954500Y-94471000D01*
X119954500Y-93869000D01*
X120203500Y-93869000D01*
X120203500Y-94471000D01*
X120805500Y-94471000D01*
X120805500Y-93869000D01*
X120203500Y-93869000D01*
X119954500Y-93869000D01*
X119352500Y-93869000D01*
X118850500Y-93869000D01*
X118850500Y-93018000D01*
X119352500Y-93018000D01*
X119352500Y-93620000D01*
X119954500Y-93620000D01*
X119954500Y-93018000D01*
X120203500Y-93018000D01*
X120203500Y-93620000D01*
X120805500Y-93620000D01*
X120805500Y-93018000D01*
X120203500Y-93018000D01*
X119954500Y-93018000D01*
X119352500Y-93018000D01*
X118850500Y-93018000D01*
X118850500Y-92167000D01*
X119352500Y-92167000D01*
X119352500Y-92769000D01*
X119954500Y-92769000D01*
X119954500Y-92167000D01*
X120203500Y-92167000D01*
X120203500Y-92769000D01*
X120805500Y-92769000D01*
X120805500Y-92167000D01*
X120203500Y-92167000D01*
X119954500Y-92167000D01*
X119352500Y-92167000D01*
X118850500Y-92167000D01*
X118850500Y-91316000D01*
X119352500Y-91316000D01*
X119352500Y-91918000D01*
X119954500Y-91918000D01*
X119954500Y-91316000D01*
X120203500Y-91316000D01*
X120203500Y-91918000D01*
X120805500Y-91918000D01*
X120805500Y-91316000D01*
X120203500Y-91316000D01*
X119954500Y-91316000D01*
X119352500Y-91316000D01*
X118850500Y-91316000D01*
X118850500Y-90465000D01*
X119352500Y-90465000D01*
X119352500Y-91067000D01*
X119954500Y-91067000D01*
X119954500Y-90465000D01*
X120203500Y-90465000D01*
X120203500Y-91067000D01*
X120805500Y-91067000D01*
X120805500Y-90465000D01*
X120203500Y-90465000D01*
X119954500Y-90465000D01*
X119352500Y-90465000D01*
X118850500Y-90465000D01*
X118850500Y-89614000D01*
X119352500Y-89614000D01*
X119352500Y-90216000D01*
X119954500Y-90216000D01*
X119954500Y-89614000D01*
X120203500Y-89614000D01*
X120203500Y-90216000D01*
X120805500Y-90216000D01*
X120805500Y-89614000D01*
X120203500Y-89614000D01*
X119954500Y-89614000D01*
X119352500Y-89614000D01*
X118850500Y-89614000D01*
X118850500Y-88763000D01*
X119352500Y-88763000D01*
X119352500Y-89365000D01*
X119954500Y-89365000D01*
X119954500Y-88763000D01*
X120203500Y-88763000D01*
X120203500Y-89365000D01*
X120805500Y-89365000D01*
X120805500Y-88763000D01*
X120203500Y-88763000D01*
X119954500Y-88763000D01*
X119352500Y-88763000D01*
X118850500Y-88763000D01*
X118850500Y-87912000D01*
X119352500Y-87912000D01*
X119352500Y-88514000D01*
X119954500Y-88514000D01*
X119954500Y-87912000D01*
X120203500Y-87912000D01*
X120203500Y-88514000D01*
X120805500Y-88514000D01*
X120805500Y-87912000D01*
X120203500Y-87912000D01*
X119954500Y-87912000D01*
X119352500Y-87912000D01*
X118850500Y-87912000D01*
X118850500Y-87061000D01*
X119352500Y-87061000D01*
X119352500Y-87663000D01*
X119954500Y-87663000D01*
X119954500Y-87061000D01*
X120203500Y-87061000D01*
X120203500Y-87663000D01*
X120805500Y-87663000D01*
X120805500Y-87061000D01*
X120203500Y-87061000D01*
X119954500Y-87061000D01*
X119352500Y-87061000D01*
X118850500Y-87061000D01*
X118850500Y-86210000D01*
X119352500Y-86210000D01*
X119352500Y-86812000D01*
X119954500Y-86812000D01*
X119954500Y-86210000D01*
X120203500Y-86210000D01*
X120203500Y-86812000D01*
X120805500Y-86812000D01*
X120805500Y-86210000D01*
X120203500Y-86210000D01*
X119954500Y-86210000D01*
X119352500Y-86210000D01*
X118850500Y-86210000D01*
X118850500Y-85359000D01*
X119352500Y-85359000D01*
X119352500Y-85961000D01*
X119954500Y-85961000D01*
X119954500Y-85359000D01*
X120203500Y-85359000D01*
X120203500Y-85961000D01*
X120805500Y-85961000D01*
X120805500Y-85359000D01*
X120203500Y-85359000D01*
X119954500Y-85359000D01*
X119352500Y-85359000D01*
X118850500Y-85359000D01*
X118850500Y-84508000D01*
X119352500Y-84508000D01*
X119352500Y-85110000D01*
X119954500Y-85110000D01*
X119954500Y-84508000D01*
X120203500Y-84508000D01*
X120203500Y-85110000D01*
X120805500Y-85110000D01*
X120805500Y-84508000D01*
X120203500Y-84508000D01*
X119954500Y-84508000D01*
X119352500Y-84508000D01*
X118850500Y-84508000D01*
X118850500Y-83657000D01*
X119352500Y-83657000D01*
X119352500Y-84259000D01*
X119954500Y-84259000D01*
X119954500Y-83657000D01*
X120203500Y-83657000D01*
X120203500Y-84259000D01*
X120805500Y-84259000D01*
X120805500Y-83657000D01*
X120203500Y-83657000D01*
X119954500Y-83657000D01*
X119352500Y-83657000D01*
X118850500Y-83657000D01*
X118850500Y-82806000D01*
X119352500Y-82806000D01*
X119352500Y-83408000D01*
X119954500Y-83408000D01*
X119954500Y-82806000D01*
X120203500Y-82806000D01*
X120203500Y-83408000D01*
X120805500Y-83408000D01*
X120805500Y-82806000D01*
X120203500Y-82806000D01*
X119954500Y-82806000D01*
X119352500Y-82806000D01*
X118850500Y-82806000D01*
X118850500Y-81955000D01*
X119352500Y-81955000D01*
X119352500Y-82557000D01*
X119954500Y-82557000D01*
X119954500Y-81955000D01*
X120203500Y-81955000D01*
X120203500Y-82557000D01*
X120805500Y-82557000D01*
X120805500Y-81955000D01*
X120203500Y-81955000D01*
X119954500Y-81955000D01*
X119352500Y-81955000D01*
X118850500Y-81955000D01*
X118850500Y-81104000D01*
X119352500Y-81104000D01*
X119352500Y-81706000D01*
X119954500Y-81706000D01*
X119954500Y-81104000D01*
X120203500Y-81104000D01*
X120203500Y-81706000D01*
X120805500Y-81706000D01*
X120805500Y-81104000D01*
X120203500Y-81104000D01*
X119954500Y-81104000D01*
X119352500Y-81104000D01*
X118850500Y-81104000D01*
X118850500Y-80253000D01*
X119352500Y-80253000D01*
X119352500Y-80855000D01*
X119954500Y-80855000D01*
X119954500Y-80253000D01*
X120203500Y-80253000D01*
X120203500Y-80855000D01*
X120805500Y-80855000D01*
X120805500Y-80253000D01*
X120203500Y-80253000D01*
X119954500Y-80253000D01*
X119352500Y-80253000D01*
X118850500Y-80253000D01*
X118850500Y-79402000D01*
X119352500Y-79402000D01*
X119352500Y-80004000D01*
X119954500Y-80004000D01*
X119954500Y-79402000D01*
X120203500Y-79402000D01*
X120203500Y-80004000D01*
X120805500Y-80004000D01*
X120805500Y-79402000D01*
X120203500Y-79402000D01*
X119954500Y-79402000D01*
X119352500Y-79402000D01*
X118850500Y-79402000D01*
X118850500Y-78878903D01*
X119352500Y-78878903D01*
X119352500Y-79153000D01*
X119954500Y-79153000D01*
X120203500Y-79153000D01*
X120805500Y-79153000D01*
X120805500Y-78960497D01*
X120689264Y-79019723D01*
X120652367Y-79031711D01*
X120519398Y-79052771D01*
X120480602Y-79052771D01*
X120347633Y-79031711D01*
X120310736Y-79019723D01*
X120203500Y-78965083D01*
X120203500Y-79153000D01*
X119954500Y-79153000D01*
X119954500Y-79011960D01*
X119939264Y-79019723D01*
X119902367Y-79031711D01*
X119769398Y-79052771D01*
X119730602Y-79052771D01*
X119597633Y-79031711D01*
X119560736Y-79019723D01*
X119440782Y-78958603D01*
X119409396Y-78935799D01*
X119352500Y-78878903D01*
X118850500Y-78878903D01*
X118850500Y-76849000D01*
X119352500Y-76849000D01*
X119352500Y-77371097D01*
X119409396Y-77314201D01*
X119440782Y-77291397D01*
X119560736Y-77230277D01*
X119597633Y-77218289D01*
X119730602Y-77197229D01*
X119769398Y-77197229D01*
X119902367Y-77218289D01*
X119939264Y-77230277D01*
X119954500Y-77238040D01*
X119954500Y-76849000D01*
X120203500Y-76849000D01*
X120203500Y-77284917D01*
X120310736Y-77230277D01*
X120347633Y-77218289D01*
X120480602Y-77197229D01*
X120519398Y-77197229D01*
X120652367Y-77218289D01*
X120689264Y-77230277D01*
X120805500Y-77289503D01*
X120805500Y-76849000D01*
X120203500Y-76849000D01*
X119954500Y-76849000D01*
X119352500Y-76849000D01*
X118850500Y-76849000D01*
X118850500Y-76769624D01*
X118850923Y-76759386D01*
X118852901Y-76735509D01*
X118854132Y-76720656D01*
X118854131Y-76720652D01*
X118854164Y-76720255D01*
X118850500Y-76690858D01*
X118850500Y-75874000D01*
X118867113Y-75812000D01*
X118912500Y-75766613D01*
X118974500Y-75750000D01*
X119525500Y-75750000D01*
X119587500Y-75766613D01*
G37*
%TD.AperFunction*%
%TD*%
M02*
