%TF.GenerationSoftware,KiCad,Pcbnew,7.0.1*%
%TF.CreationDate,2024-09-27T15:08:14-07:00*%
%TF.ProjectId,agbc,61676263-2e6b-4696-9361-645f70636258,02*%
%TF.SameCoordinates,Original*%
%TF.FileFunction,Legend,Bot*%
%TF.FilePolarity,Positive*%
%FSLAX46Y46*%
G04 Gerber Fmt 4.6, Leading zero omitted, Abs format (unit mm)*
G04 Created by KiCad (PCBNEW 7.0.1) date 2024-09-27 15:08:14*
%MOMM*%
%LPD*%
G01*
G04 APERTURE LIST*
%ADD10C,0.150000*%
%ADD11C,0.100000*%
%ADD12C,0.254000*%
%ADD13C,0.120000*%
%ADD14C,0.200000*%
G04 APERTURE END LIST*
D10*
X108550000Y-113500000D02*
G75*
G03*
X108050000Y-114000000I0J-500000D01*
G01*
X122575000Y-125850000D02*
X120925000Y-125850000D01*
X120325000Y-125850000D02*
X118675000Y-125850000D01*
X118075000Y-125850000D02*
X116425000Y-125850000D01*
X115825000Y-125850000D02*
X114175000Y-125850000D01*
X113575000Y-125850000D02*
X111925000Y-125850000D01*
X111325000Y-125850000D02*
X109675000Y-125850000D01*
X109075000Y-125850000D02*
X108550000Y-125850000D01*
D11*
X162950000Y-54650000D02*
X163850000Y-54650000D01*
D10*
X123075000Y-114000000D02*
X123075000Y-115650000D01*
X123075000Y-116250000D02*
X123075000Y-117900000D01*
X123075000Y-118500000D02*
X123075000Y-120150000D01*
X123075000Y-120750000D02*
X123075000Y-122400000D01*
X123075000Y-123000000D02*
X123075000Y-124650000D01*
X123075000Y-125250000D02*
X123075000Y-125350000D01*
D11*
X162950000Y-55900000D02*
X163850000Y-55900000D01*
D10*
X123075000Y-114000000D02*
G75*
G03*
X122575000Y-113500000I-500000J0D01*
G01*
D11*
X162975000Y-57050000D02*
X163850000Y-57050000D01*
X163850000Y-54650000D02*
X163850000Y-66025000D01*
D10*
X122575000Y-125850000D02*
G75*
G03*
X123075000Y-125350000I0J500000D01*
G01*
D11*
X155400000Y-53875000D02*
X156650000Y-53875000D01*
X156650000Y-63200000D01*
X155400000Y-63200000D01*
X155400000Y-53875000D01*
D10*
X108050000Y-125350000D02*
G75*
G03*
X108550000Y-125850000I500000J0D01*
G01*
X108050000Y-125350000D02*
X108050000Y-123700000D01*
X108050000Y-123100000D02*
X108050000Y-121450000D01*
X108050000Y-120850000D02*
X108050000Y-119200000D01*
X108050000Y-118600000D02*
X108050000Y-116950000D01*
X108050000Y-116350000D02*
X108050000Y-114700000D01*
X108050000Y-114100000D02*
X108050000Y-114000000D01*
X108550000Y-113500000D02*
X110200000Y-113500000D01*
X110800000Y-113500000D02*
X112450000Y-113500000D01*
X113050000Y-113500000D02*
X114700000Y-113500000D01*
X115300000Y-113500000D02*
X116950000Y-113500000D01*
X117550000Y-113500000D02*
X119200000Y-113500000D01*
X119800000Y-113500000D02*
X121450000Y-113500000D01*
X122050000Y-113500000D02*
X122575000Y-113500000D01*
%TO.C,C12*%
X163468904Y-75585714D02*
X163507000Y-75547618D01*
X163507000Y-75547618D02*
X163545095Y-75433333D01*
X163545095Y-75433333D02*
X163545095Y-75357142D01*
X163545095Y-75357142D02*
X163507000Y-75242856D01*
X163507000Y-75242856D02*
X163430809Y-75166666D01*
X163430809Y-75166666D02*
X163354619Y-75128571D01*
X163354619Y-75128571D02*
X163202238Y-75090475D01*
X163202238Y-75090475D02*
X163087952Y-75090475D01*
X163087952Y-75090475D02*
X162935571Y-75128571D01*
X162935571Y-75128571D02*
X162859380Y-75166666D01*
X162859380Y-75166666D02*
X162783190Y-75242856D01*
X162783190Y-75242856D02*
X162745095Y-75357142D01*
X162745095Y-75357142D02*
X162745095Y-75433333D01*
X162745095Y-75433333D02*
X162783190Y-75547618D01*
X162783190Y-75547618D02*
X162821285Y-75585714D01*
X163545095Y-76347618D02*
X163545095Y-75890475D01*
X163545095Y-76119047D02*
X162745095Y-76119047D01*
X162745095Y-76119047D02*
X162859380Y-76042856D01*
X162859380Y-76042856D02*
X162935571Y-75966666D01*
X162935571Y-75966666D02*
X162973666Y-75890475D01*
X162821285Y-76652380D02*
X162783190Y-76690476D01*
X162783190Y-76690476D02*
X162745095Y-76766666D01*
X162745095Y-76766666D02*
X162745095Y-76957142D01*
X162745095Y-76957142D02*
X162783190Y-77033333D01*
X162783190Y-77033333D02*
X162821285Y-77071428D01*
X162821285Y-77071428D02*
X162897476Y-77109523D01*
X162897476Y-77109523D02*
X162973666Y-77109523D01*
X162973666Y-77109523D02*
X163087952Y-77071428D01*
X163087952Y-77071428D02*
X163545095Y-76614285D01*
X163545095Y-76614285D02*
X163545095Y-77109523D01*
D12*
%TO.C,SW6*%
X127708333Y-108031050D02*
X127526904Y-108091526D01*
X127526904Y-108091526D02*
X127224523Y-108091526D01*
X127224523Y-108091526D02*
X127103571Y-108031050D01*
X127103571Y-108031050D02*
X127043095Y-107970573D01*
X127043095Y-107970573D02*
X126982618Y-107849621D01*
X126982618Y-107849621D02*
X126982618Y-107728669D01*
X126982618Y-107728669D02*
X127043095Y-107607716D01*
X127043095Y-107607716D02*
X127103571Y-107547240D01*
X127103571Y-107547240D02*
X127224523Y-107486764D01*
X127224523Y-107486764D02*
X127466428Y-107426288D01*
X127466428Y-107426288D02*
X127587380Y-107365811D01*
X127587380Y-107365811D02*
X127647857Y-107305335D01*
X127647857Y-107305335D02*
X127708333Y-107184383D01*
X127708333Y-107184383D02*
X127708333Y-107063430D01*
X127708333Y-107063430D02*
X127647857Y-106942478D01*
X127647857Y-106942478D02*
X127587380Y-106882002D01*
X127587380Y-106882002D02*
X127466428Y-106821526D01*
X127466428Y-106821526D02*
X127164047Y-106821526D01*
X127164047Y-106821526D02*
X126982618Y-106882002D01*
X126559285Y-106821526D02*
X126256904Y-108091526D01*
X126256904Y-108091526D02*
X126014999Y-107184383D01*
X126014999Y-107184383D02*
X125773094Y-108091526D01*
X125773094Y-108091526D02*
X125470714Y-106821526D01*
X124442618Y-106821526D02*
X124684523Y-106821526D01*
X124684523Y-106821526D02*
X124805475Y-106882002D01*
X124805475Y-106882002D02*
X124865951Y-106942478D01*
X124865951Y-106942478D02*
X124986904Y-107123907D01*
X124986904Y-107123907D02*
X125047380Y-107365811D01*
X125047380Y-107365811D02*
X125047380Y-107849621D01*
X125047380Y-107849621D02*
X124986904Y-107970573D01*
X124986904Y-107970573D02*
X124926427Y-108031050D01*
X124926427Y-108031050D02*
X124805475Y-108091526D01*
X124805475Y-108091526D02*
X124563570Y-108091526D01*
X124563570Y-108091526D02*
X124442618Y-108031050D01*
X124442618Y-108031050D02*
X124382142Y-107970573D01*
X124382142Y-107970573D02*
X124321665Y-107849621D01*
X124321665Y-107849621D02*
X124321665Y-107547240D01*
X124321665Y-107547240D02*
X124382142Y-107426288D01*
X124382142Y-107426288D02*
X124442618Y-107365811D01*
X124442618Y-107365811D02*
X124563570Y-107305335D01*
X124563570Y-107305335D02*
X124805475Y-107305335D01*
X124805475Y-107305335D02*
X124926427Y-107365811D01*
X124926427Y-107365811D02*
X124986904Y-107426288D01*
X124986904Y-107426288D02*
X125047380Y-107547240D01*
D10*
%TO.C,C27*%
X156343904Y-58860714D02*
X156382000Y-58822618D01*
X156382000Y-58822618D02*
X156420095Y-58708333D01*
X156420095Y-58708333D02*
X156420095Y-58632142D01*
X156420095Y-58632142D02*
X156382000Y-58517856D01*
X156382000Y-58517856D02*
X156305809Y-58441666D01*
X156305809Y-58441666D02*
X156229619Y-58403571D01*
X156229619Y-58403571D02*
X156077238Y-58365475D01*
X156077238Y-58365475D02*
X155962952Y-58365475D01*
X155962952Y-58365475D02*
X155810571Y-58403571D01*
X155810571Y-58403571D02*
X155734380Y-58441666D01*
X155734380Y-58441666D02*
X155658190Y-58517856D01*
X155658190Y-58517856D02*
X155620095Y-58632142D01*
X155620095Y-58632142D02*
X155620095Y-58708333D01*
X155620095Y-58708333D02*
X155658190Y-58822618D01*
X155658190Y-58822618D02*
X155696285Y-58860714D01*
X155696285Y-59165475D02*
X155658190Y-59203571D01*
X155658190Y-59203571D02*
X155620095Y-59279761D01*
X155620095Y-59279761D02*
X155620095Y-59470237D01*
X155620095Y-59470237D02*
X155658190Y-59546428D01*
X155658190Y-59546428D02*
X155696285Y-59584523D01*
X155696285Y-59584523D02*
X155772476Y-59622618D01*
X155772476Y-59622618D02*
X155848666Y-59622618D01*
X155848666Y-59622618D02*
X155962952Y-59584523D01*
X155962952Y-59584523D02*
X156420095Y-59127380D01*
X156420095Y-59127380D02*
X156420095Y-59622618D01*
X155620095Y-59889285D02*
X155620095Y-60422619D01*
X155620095Y-60422619D02*
X156420095Y-60079761D01*
%TO.C,TP3*%
G36*
X119755357Y-122336309D02*
G01*
X117644643Y-122336309D01*
X117644643Y-121668817D01*
X118087514Y-121668817D01*
X118087619Y-121690528D01*
X118087619Y-121701258D01*
X118087671Y-121701437D01*
X118087727Y-121712860D01*
X118093747Y-121722129D01*
X118096862Y-121732736D01*
X118105495Y-121740216D01*
X118111717Y-121749796D01*
X118121793Y-121754339D01*
X118130148Y-121761578D01*
X118141454Y-121763203D01*
X118151869Y-121767899D01*
X118162803Y-121766273D01*
X118173743Y-121767846D01*
X118184132Y-121763101D01*
X118195434Y-121761421D01*
X118203754Y-121754140D01*
X118213807Y-121749550D01*
X118219982Y-121739941D01*
X118470212Y-121520989D01*
X118473496Y-121527557D01*
X118477814Y-121542260D01*
X118483167Y-121546898D01*
X118519902Y-121620367D01*
X118522585Y-121632699D01*
X118537212Y-121647326D01*
X118551274Y-121662444D01*
X118552692Y-121662806D01*
X118579127Y-121689241D01*
X118585571Y-121700091D01*
X118604080Y-121709345D01*
X118622194Y-121719236D01*
X118623652Y-121719131D01*
X118696898Y-121755754D01*
X118712025Y-121765476D01*
X118727355Y-121765476D01*
X118742438Y-121768190D01*
X118748982Y-121765476D01*
X118968102Y-121765476D01*
X118985986Y-121767407D01*
X118999699Y-121760550D01*
X119014402Y-121756233D01*
X119019040Y-121750879D01*
X119092509Y-121714144D01*
X119104840Y-121711462D01*
X119119460Y-121696842D01*
X119134586Y-121682773D01*
X119134948Y-121681354D01*
X119161383Y-121654920D01*
X119172234Y-121648476D01*
X119181489Y-121629964D01*
X119191379Y-121611854D01*
X119191274Y-121610394D01*
X119227897Y-121537148D01*
X119237619Y-121522022D01*
X119237619Y-121506692D01*
X119240333Y-121491609D01*
X119237619Y-121485065D01*
X119237619Y-121218317D01*
X119239549Y-121200442D01*
X119232694Y-121186732D01*
X119228376Y-121172026D01*
X119223021Y-121167386D01*
X119186286Y-121093916D01*
X119183604Y-121081586D01*
X119168988Y-121066970D01*
X119154916Y-121051842D01*
X119153496Y-121051479D01*
X119112788Y-121010771D01*
X119083994Y-120995049D01*
X119040063Y-120998192D01*
X119004805Y-121024587D01*
X118989413Y-121065854D01*
X118998775Y-121108891D01*
X119053360Y-121163473D01*
X119087619Y-121231990D01*
X119087619Y-121482294D01*
X119053360Y-121550811D01*
X119022951Y-121581219D01*
X118954437Y-121615476D01*
X118751753Y-121615476D01*
X118683235Y-121581217D01*
X118652828Y-121550810D01*
X118618571Y-121482295D01*
X118618571Y-121378967D01*
X118618676Y-121378802D01*
X118618571Y-121357091D01*
X118618571Y-121346361D01*
X118618518Y-121346181D01*
X118618463Y-121334759D01*
X118612442Y-121325489D01*
X118609328Y-121314883D01*
X118600694Y-121307402D01*
X118594473Y-121297823D01*
X118584396Y-121293279D01*
X118576042Y-121286041D01*
X118564735Y-121284415D01*
X118554321Y-121279720D01*
X118543386Y-121281345D01*
X118532447Y-121279773D01*
X118522057Y-121284517D01*
X118510756Y-121286198D01*
X118502435Y-121293478D01*
X118492383Y-121298069D01*
X118486207Y-121307677D01*
X118237619Y-121525193D01*
X118237619Y-121060647D01*
X118228376Y-121029169D01*
X118195090Y-121000327D01*
X118151495Y-120994059D01*
X118111431Y-121012355D01*
X118087619Y-121049407D01*
X118087619Y-121668652D01*
X118087514Y-121668817D01*
X117644643Y-121668817D01*
X117644643Y-120825013D01*
X118084897Y-120825013D01*
X118092737Y-120868353D01*
X118122764Y-120900575D01*
X118165444Y-120911448D01*
X119173467Y-120575440D01*
X119181916Y-120575746D01*
X119193949Y-120568613D01*
X119196564Y-120567742D01*
X119203195Y-120563133D01*
X119219804Y-120553289D01*
X119221110Y-120550682D01*
X119223504Y-120549019D01*
X119230884Y-120531176D01*
X119239536Y-120513913D01*
X119239225Y-120511013D01*
X119240340Y-120508320D01*
X119236903Y-120489325D01*
X119234848Y-120470119D01*
X119233018Y-120467846D01*
X119232500Y-120464980D01*
X119219343Y-120450861D01*
X119207228Y-120435813D01*
X119204461Y-120434890D01*
X119202474Y-120432758D01*
X119183763Y-120427991D01*
X118176107Y-120092106D01*
X118143322Y-120090921D01*
X118105434Y-120113378D01*
X118085702Y-120152754D01*
X118090389Y-120196547D01*
X118118010Y-120230854D01*
X118925447Y-120500000D01*
X118128673Y-120765591D01*
X118101733Y-120784314D01*
X118084897Y-120825013D01*
X117644643Y-120825013D01*
X117644643Y-119859293D01*
X118087514Y-119859293D01*
X118087619Y-119881004D01*
X118087619Y-119891734D01*
X118087671Y-119891913D01*
X118087727Y-119903336D01*
X118093747Y-119912605D01*
X118096862Y-119923212D01*
X118105495Y-119930692D01*
X118111717Y-119940272D01*
X118121793Y-119944815D01*
X118130148Y-119952054D01*
X118141454Y-119953679D01*
X118151869Y-119958375D01*
X118162803Y-119956749D01*
X118173743Y-119958322D01*
X118184132Y-119953577D01*
X118195434Y-119951897D01*
X118203754Y-119944616D01*
X118213807Y-119940026D01*
X118219982Y-119930417D01*
X118470212Y-119711465D01*
X118473496Y-119718033D01*
X118477814Y-119732736D01*
X118483167Y-119737374D01*
X118519902Y-119810843D01*
X118522585Y-119823175D01*
X118537212Y-119837802D01*
X118551274Y-119852920D01*
X118552692Y-119853282D01*
X118579127Y-119879717D01*
X118585571Y-119890567D01*
X118604080Y-119899821D01*
X118622194Y-119909712D01*
X118623652Y-119909607D01*
X118696898Y-119946230D01*
X118712025Y-119955952D01*
X118727355Y-119955952D01*
X118742438Y-119958666D01*
X118748982Y-119955952D01*
X118968102Y-119955952D01*
X118985986Y-119957883D01*
X118999699Y-119951026D01*
X119014402Y-119946709D01*
X119019040Y-119941355D01*
X119092509Y-119904620D01*
X119104840Y-119901938D01*
X119119460Y-119887318D01*
X119134586Y-119873249D01*
X119134948Y-119871830D01*
X119161383Y-119845396D01*
X119172234Y-119838952D01*
X119181489Y-119820440D01*
X119191379Y-119802330D01*
X119191274Y-119800870D01*
X119227897Y-119727624D01*
X119237619Y-119712498D01*
X119237619Y-119697168D01*
X119240333Y-119682085D01*
X119237619Y-119675541D01*
X119237619Y-119408793D01*
X119239549Y-119390918D01*
X119232694Y-119377208D01*
X119228376Y-119362502D01*
X119223021Y-119357862D01*
X119186286Y-119284392D01*
X119183604Y-119272062D01*
X119168988Y-119257446D01*
X119154916Y-119242318D01*
X119153496Y-119241955D01*
X119112788Y-119201247D01*
X119083994Y-119185525D01*
X119040063Y-119188668D01*
X119004805Y-119215063D01*
X118989413Y-119256330D01*
X118998775Y-119299367D01*
X119053360Y-119353949D01*
X119087619Y-119422466D01*
X119087619Y-119672770D01*
X119053360Y-119741287D01*
X119022951Y-119771695D01*
X118954437Y-119805952D01*
X118751753Y-119805952D01*
X118683235Y-119771693D01*
X118652828Y-119741286D01*
X118618571Y-119672771D01*
X118618571Y-119569443D01*
X118618676Y-119569278D01*
X118618571Y-119547567D01*
X118618571Y-119536837D01*
X118618518Y-119536657D01*
X118618463Y-119525235D01*
X118612442Y-119515965D01*
X118609328Y-119505359D01*
X118600694Y-119497878D01*
X118594473Y-119488299D01*
X118584396Y-119483755D01*
X118576042Y-119476517D01*
X118564735Y-119474891D01*
X118554321Y-119470196D01*
X118543386Y-119471821D01*
X118532447Y-119470249D01*
X118522057Y-119474993D01*
X118510756Y-119476674D01*
X118502435Y-119483954D01*
X118492383Y-119488545D01*
X118486207Y-119498153D01*
X118237619Y-119715669D01*
X118237619Y-119251123D01*
X118228376Y-119219645D01*
X118195090Y-119190803D01*
X118151495Y-119184535D01*
X118111431Y-119202831D01*
X118087619Y-119239883D01*
X118087619Y-119859128D01*
X118087514Y-119859293D01*
X117644643Y-119859293D01*
X117644643Y-118663690D01*
X119755357Y-118663690D01*
X119755357Y-122336309D01*
G37*
%TO.C,C26*%
X156343904Y-61335714D02*
X156382000Y-61297618D01*
X156382000Y-61297618D02*
X156420095Y-61183333D01*
X156420095Y-61183333D02*
X156420095Y-61107142D01*
X156420095Y-61107142D02*
X156382000Y-60992856D01*
X156382000Y-60992856D02*
X156305809Y-60916666D01*
X156305809Y-60916666D02*
X156229619Y-60878571D01*
X156229619Y-60878571D02*
X156077238Y-60840475D01*
X156077238Y-60840475D02*
X155962952Y-60840475D01*
X155962952Y-60840475D02*
X155810571Y-60878571D01*
X155810571Y-60878571D02*
X155734380Y-60916666D01*
X155734380Y-60916666D02*
X155658190Y-60992856D01*
X155658190Y-60992856D02*
X155620095Y-61107142D01*
X155620095Y-61107142D02*
X155620095Y-61183333D01*
X155620095Y-61183333D02*
X155658190Y-61297618D01*
X155658190Y-61297618D02*
X155696285Y-61335714D01*
X155696285Y-61640475D02*
X155658190Y-61678571D01*
X155658190Y-61678571D02*
X155620095Y-61754761D01*
X155620095Y-61754761D02*
X155620095Y-61945237D01*
X155620095Y-61945237D02*
X155658190Y-62021428D01*
X155658190Y-62021428D02*
X155696285Y-62059523D01*
X155696285Y-62059523D02*
X155772476Y-62097618D01*
X155772476Y-62097618D02*
X155848666Y-62097618D01*
X155848666Y-62097618D02*
X155962952Y-62059523D01*
X155962952Y-62059523D02*
X156420095Y-61602380D01*
X156420095Y-61602380D02*
X156420095Y-62097618D01*
X155620095Y-62783333D02*
X155620095Y-62630952D01*
X155620095Y-62630952D02*
X155658190Y-62554761D01*
X155658190Y-62554761D02*
X155696285Y-62516666D01*
X155696285Y-62516666D02*
X155810571Y-62440476D01*
X155810571Y-62440476D02*
X155962952Y-62402380D01*
X155962952Y-62402380D02*
X156267714Y-62402380D01*
X156267714Y-62402380D02*
X156343904Y-62440476D01*
X156343904Y-62440476D02*
X156382000Y-62478571D01*
X156382000Y-62478571D02*
X156420095Y-62554761D01*
X156420095Y-62554761D02*
X156420095Y-62707142D01*
X156420095Y-62707142D02*
X156382000Y-62783333D01*
X156382000Y-62783333D02*
X156343904Y-62821428D01*
X156343904Y-62821428D02*
X156267714Y-62859523D01*
X156267714Y-62859523D02*
X156077238Y-62859523D01*
X156077238Y-62859523D02*
X156001047Y-62821428D01*
X156001047Y-62821428D02*
X155962952Y-62783333D01*
X155962952Y-62783333D02*
X155924857Y-62707142D01*
X155924857Y-62707142D02*
X155924857Y-62554761D01*
X155924857Y-62554761D02*
X155962952Y-62478571D01*
X155962952Y-62478571D02*
X156001047Y-62440476D01*
X156001047Y-62440476D02*
X156077238Y-62402380D01*
%TO.C,TP4*%
G36*
X114135119Y-107405357D02*
G01*
X111414881Y-107405357D01*
X111414881Y-105815444D01*
X111887361Y-105815444D01*
X112223368Y-106823468D01*
X112223063Y-106831916D01*
X112230195Y-106843949D01*
X112231067Y-106846564D01*
X112235675Y-106853195D01*
X112245520Y-106869804D01*
X112248126Y-106871110D01*
X112249790Y-106873504D01*
X112267632Y-106880884D01*
X112284896Y-106889536D01*
X112287795Y-106889225D01*
X112290489Y-106890340D01*
X112309476Y-106886905D01*
X112328689Y-106884849D01*
X112330962Y-106883018D01*
X112333829Y-106882500D01*
X112347947Y-106869343D01*
X112362996Y-106857228D01*
X112363918Y-106854461D01*
X112366051Y-106852474D01*
X112370817Y-106833763D01*
X112517926Y-106392438D01*
X112840143Y-106392438D01*
X112842857Y-106398982D01*
X112842857Y-106618102D01*
X112840926Y-106635986D01*
X112847782Y-106649699D01*
X112852100Y-106664402D01*
X112857453Y-106669040D01*
X112894188Y-106742509D01*
X112896871Y-106754840D01*
X112911490Y-106769460D01*
X112925560Y-106784586D01*
X112926978Y-106784948D01*
X112953412Y-106811383D01*
X112959857Y-106822234D01*
X112978368Y-106831489D01*
X112996479Y-106841379D01*
X112997938Y-106841274D01*
X113071184Y-106877897D01*
X113086311Y-106887619D01*
X113101641Y-106887619D01*
X113116724Y-106890333D01*
X113123268Y-106887619D01*
X113342388Y-106887619D01*
X113360272Y-106889550D01*
X113373985Y-106882693D01*
X113388688Y-106878376D01*
X113393326Y-106873022D01*
X113466794Y-106836287D01*
X113479128Y-106833605D01*
X113493759Y-106818972D01*
X113508872Y-106804916D01*
X113509234Y-106803496D01*
X113549942Y-106762788D01*
X113565665Y-106733994D01*
X113562522Y-106690063D01*
X113536127Y-106654805D01*
X113494860Y-106639413D01*
X113451823Y-106648776D01*
X113397237Y-106703361D01*
X113328723Y-106737619D01*
X113126039Y-106737619D01*
X113057521Y-106703360D01*
X113027113Y-106672951D01*
X112992857Y-106604437D01*
X112992857Y-106401753D01*
X113027116Y-106333235D01*
X113057521Y-106302829D01*
X113126037Y-106268571D01*
X113328722Y-106268571D01*
X113397240Y-106302830D01*
X113425498Y-106331088D01*
X113428059Y-106337402D01*
X113440797Y-106346387D01*
X113443876Y-106349466D01*
X113449568Y-106352574D01*
X113464050Y-106362789D01*
X113468639Y-106362987D01*
X113472670Y-106365188D01*
X113490345Y-106363923D01*
X113508052Y-106364688D01*
X113512019Y-106362373D01*
X113516601Y-106362046D01*
X113530786Y-106351426D01*
X113546097Y-106342496D01*
X113548183Y-106338403D01*
X113551859Y-106335652D01*
X113558050Y-106319053D01*
X113566104Y-106303259D01*
X113565646Y-106298688D01*
X113567252Y-106294385D01*
X113563484Y-106277067D01*
X113517202Y-105814245D01*
X113519036Y-105801495D01*
X113510560Y-105782934D01*
X113502892Y-105764026D01*
X113501465Y-105763019D01*
X113500740Y-105761431D01*
X113483564Y-105750392D01*
X113466901Y-105738639D01*
X113465158Y-105738563D01*
X113463688Y-105737619D01*
X113443266Y-105737619D01*
X113422899Y-105736740D01*
X113421392Y-105737619D01*
X112954694Y-105737619D01*
X112923216Y-105746862D01*
X112894374Y-105780148D01*
X112888106Y-105823743D01*
X112906402Y-105863807D01*
X112943454Y-105887619D01*
X113373792Y-105887619D01*
X113398611Y-106135809D01*
X113383579Y-106128294D01*
X113368450Y-106118571D01*
X113353120Y-106118571D01*
X113338037Y-106115857D01*
X113331493Y-106118571D01*
X113112364Y-106118571D01*
X113094489Y-106116641D01*
X113080779Y-106123495D01*
X113066073Y-106127814D01*
X113061433Y-106133168D01*
X112987964Y-106169902D01*
X112975634Y-106172585D01*
X112961014Y-106187204D01*
X112945889Y-106201274D01*
X112945526Y-106202692D01*
X112919091Y-106229127D01*
X112908242Y-106235571D01*
X112898991Y-106254071D01*
X112889096Y-106272194D01*
X112889200Y-106273654D01*
X112852580Y-106346895D01*
X112842857Y-106362025D01*
X112842857Y-106377355D01*
X112840143Y-106392438D01*
X112517926Y-106392438D01*
X112706703Y-105826108D01*
X112707888Y-105793322D01*
X112685431Y-105755434D01*
X112646055Y-105735702D01*
X112602261Y-105740390D01*
X112567955Y-105768010D01*
X112298809Y-106575447D01*
X112033218Y-105778673D01*
X112014495Y-105751733D01*
X111973796Y-105734897D01*
X111930456Y-105742737D01*
X111898234Y-105772764D01*
X111887361Y-105815444D01*
X111414881Y-105815444D01*
X111414881Y-105294643D01*
X114135119Y-105294643D01*
X114135119Y-107405357D01*
G37*
%TO.C,C16*%
X120968904Y-127660714D02*
X121007000Y-127622618D01*
X121007000Y-127622618D02*
X121045095Y-127508333D01*
X121045095Y-127508333D02*
X121045095Y-127432142D01*
X121045095Y-127432142D02*
X121007000Y-127317856D01*
X121007000Y-127317856D02*
X120930809Y-127241666D01*
X120930809Y-127241666D02*
X120854619Y-127203571D01*
X120854619Y-127203571D02*
X120702238Y-127165475D01*
X120702238Y-127165475D02*
X120587952Y-127165475D01*
X120587952Y-127165475D02*
X120435571Y-127203571D01*
X120435571Y-127203571D02*
X120359380Y-127241666D01*
X120359380Y-127241666D02*
X120283190Y-127317856D01*
X120283190Y-127317856D02*
X120245095Y-127432142D01*
X120245095Y-127432142D02*
X120245095Y-127508333D01*
X120245095Y-127508333D02*
X120283190Y-127622618D01*
X120283190Y-127622618D02*
X120321285Y-127660714D01*
X121045095Y-128422618D02*
X121045095Y-127965475D01*
X121045095Y-128194047D02*
X120245095Y-128194047D01*
X120245095Y-128194047D02*
X120359380Y-128117856D01*
X120359380Y-128117856D02*
X120435571Y-128041666D01*
X120435571Y-128041666D02*
X120473666Y-127965475D01*
X120245095Y-129108333D02*
X120245095Y-128955952D01*
X120245095Y-128955952D02*
X120283190Y-128879761D01*
X120283190Y-128879761D02*
X120321285Y-128841666D01*
X120321285Y-128841666D02*
X120435571Y-128765476D01*
X120435571Y-128765476D02*
X120587952Y-128727380D01*
X120587952Y-128727380D02*
X120892714Y-128727380D01*
X120892714Y-128727380D02*
X120968904Y-128765476D01*
X120968904Y-128765476D02*
X121007000Y-128803571D01*
X121007000Y-128803571D02*
X121045095Y-128879761D01*
X121045095Y-128879761D02*
X121045095Y-129032142D01*
X121045095Y-129032142D02*
X121007000Y-129108333D01*
X121007000Y-129108333D02*
X120968904Y-129146428D01*
X120968904Y-129146428D02*
X120892714Y-129184523D01*
X120892714Y-129184523D02*
X120702238Y-129184523D01*
X120702238Y-129184523D02*
X120626047Y-129146428D01*
X120626047Y-129146428D02*
X120587952Y-129108333D01*
X120587952Y-129108333D02*
X120549857Y-129032142D01*
X120549857Y-129032142D02*
X120549857Y-128879761D01*
X120549857Y-128879761D02*
X120587952Y-128803571D01*
X120587952Y-128803571D02*
X120626047Y-128765476D01*
X120626047Y-128765476D02*
X120702238Y-128727380D01*
%TO.C,D3*%
X158695095Y-52609524D02*
X157895095Y-52609524D01*
X157895095Y-52609524D02*
X157895095Y-52800000D01*
X157895095Y-52800000D02*
X157933190Y-52914286D01*
X157933190Y-52914286D02*
X158009380Y-52990476D01*
X158009380Y-52990476D02*
X158085571Y-53028571D01*
X158085571Y-53028571D02*
X158237952Y-53066667D01*
X158237952Y-53066667D02*
X158352238Y-53066667D01*
X158352238Y-53066667D02*
X158504619Y-53028571D01*
X158504619Y-53028571D02*
X158580809Y-52990476D01*
X158580809Y-52990476D02*
X158657000Y-52914286D01*
X158657000Y-52914286D02*
X158695095Y-52800000D01*
X158695095Y-52800000D02*
X158695095Y-52609524D01*
X157895095Y-53333333D02*
X157895095Y-53828571D01*
X157895095Y-53828571D02*
X158199857Y-53561905D01*
X158199857Y-53561905D02*
X158199857Y-53676190D01*
X158199857Y-53676190D02*
X158237952Y-53752381D01*
X158237952Y-53752381D02*
X158276047Y-53790476D01*
X158276047Y-53790476D02*
X158352238Y-53828571D01*
X158352238Y-53828571D02*
X158542714Y-53828571D01*
X158542714Y-53828571D02*
X158618904Y-53790476D01*
X158618904Y-53790476D02*
X158657000Y-53752381D01*
X158657000Y-53752381D02*
X158695095Y-53676190D01*
X158695095Y-53676190D02*
X158695095Y-53447619D01*
X158695095Y-53447619D02*
X158657000Y-53371428D01*
X158657000Y-53371428D02*
X158618904Y-53333333D01*
%TO.C,VR1*%
X156522618Y-115995095D02*
X156255951Y-116795095D01*
X156255951Y-116795095D02*
X155989285Y-115995095D01*
X155265475Y-116795095D02*
X155532142Y-116414142D01*
X155722618Y-116795095D02*
X155722618Y-115995095D01*
X155722618Y-115995095D02*
X155417856Y-115995095D01*
X155417856Y-115995095D02*
X155341666Y-116033190D01*
X155341666Y-116033190D02*
X155303571Y-116071285D01*
X155303571Y-116071285D02*
X155265475Y-116147476D01*
X155265475Y-116147476D02*
X155265475Y-116261761D01*
X155265475Y-116261761D02*
X155303571Y-116337952D01*
X155303571Y-116337952D02*
X155341666Y-116376047D01*
X155341666Y-116376047D02*
X155417856Y-116414142D01*
X155417856Y-116414142D02*
X155722618Y-116414142D01*
X154503571Y-116795095D02*
X154960714Y-116795095D01*
X154732142Y-116795095D02*
X154732142Y-115995095D01*
X154732142Y-115995095D02*
X154808333Y-116109380D01*
X154808333Y-116109380D02*
X154884523Y-116185571D01*
X154884523Y-116185571D02*
X154960714Y-116223666D01*
%TO.C,R22*%
X116239285Y-126845095D02*
X116505952Y-126464142D01*
X116696428Y-126845095D02*
X116696428Y-126045095D01*
X116696428Y-126045095D02*
X116391666Y-126045095D01*
X116391666Y-126045095D02*
X116315476Y-126083190D01*
X116315476Y-126083190D02*
X116277381Y-126121285D01*
X116277381Y-126121285D02*
X116239285Y-126197476D01*
X116239285Y-126197476D02*
X116239285Y-126311761D01*
X116239285Y-126311761D02*
X116277381Y-126387952D01*
X116277381Y-126387952D02*
X116315476Y-126426047D01*
X116315476Y-126426047D02*
X116391666Y-126464142D01*
X116391666Y-126464142D02*
X116696428Y-126464142D01*
X115934524Y-126121285D02*
X115896428Y-126083190D01*
X115896428Y-126083190D02*
X115820238Y-126045095D01*
X115820238Y-126045095D02*
X115629762Y-126045095D01*
X115629762Y-126045095D02*
X115553571Y-126083190D01*
X115553571Y-126083190D02*
X115515476Y-126121285D01*
X115515476Y-126121285D02*
X115477381Y-126197476D01*
X115477381Y-126197476D02*
X115477381Y-126273666D01*
X115477381Y-126273666D02*
X115515476Y-126387952D01*
X115515476Y-126387952D02*
X115972619Y-126845095D01*
X115972619Y-126845095D02*
X115477381Y-126845095D01*
X115172619Y-126121285D02*
X115134523Y-126083190D01*
X115134523Y-126083190D02*
X115058333Y-126045095D01*
X115058333Y-126045095D02*
X114867857Y-126045095D01*
X114867857Y-126045095D02*
X114791666Y-126083190D01*
X114791666Y-126083190D02*
X114753571Y-126121285D01*
X114753571Y-126121285D02*
X114715476Y-126197476D01*
X114715476Y-126197476D02*
X114715476Y-126273666D01*
X114715476Y-126273666D02*
X114753571Y-126387952D01*
X114753571Y-126387952D02*
X115210714Y-126845095D01*
X115210714Y-126845095D02*
X114715476Y-126845095D01*
%TO.C,C30*%
X159264285Y-59993904D02*
X159302381Y-60032000D01*
X159302381Y-60032000D02*
X159416666Y-60070095D01*
X159416666Y-60070095D02*
X159492857Y-60070095D01*
X159492857Y-60070095D02*
X159607143Y-60032000D01*
X159607143Y-60032000D02*
X159683333Y-59955809D01*
X159683333Y-59955809D02*
X159721428Y-59879619D01*
X159721428Y-59879619D02*
X159759524Y-59727238D01*
X159759524Y-59727238D02*
X159759524Y-59612952D01*
X159759524Y-59612952D02*
X159721428Y-59460571D01*
X159721428Y-59460571D02*
X159683333Y-59384380D01*
X159683333Y-59384380D02*
X159607143Y-59308190D01*
X159607143Y-59308190D02*
X159492857Y-59270095D01*
X159492857Y-59270095D02*
X159416666Y-59270095D01*
X159416666Y-59270095D02*
X159302381Y-59308190D01*
X159302381Y-59308190D02*
X159264285Y-59346285D01*
X158997619Y-59270095D02*
X158502381Y-59270095D01*
X158502381Y-59270095D02*
X158769047Y-59574857D01*
X158769047Y-59574857D02*
X158654762Y-59574857D01*
X158654762Y-59574857D02*
X158578571Y-59612952D01*
X158578571Y-59612952D02*
X158540476Y-59651047D01*
X158540476Y-59651047D02*
X158502381Y-59727238D01*
X158502381Y-59727238D02*
X158502381Y-59917714D01*
X158502381Y-59917714D02*
X158540476Y-59993904D01*
X158540476Y-59993904D02*
X158578571Y-60032000D01*
X158578571Y-60032000D02*
X158654762Y-60070095D01*
X158654762Y-60070095D02*
X158883333Y-60070095D01*
X158883333Y-60070095D02*
X158959524Y-60032000D01*
X158959524Y-60032000D02*
X158997619Y-59993904D01*
X158007142Y-59270095D02*
X157930952Y-59270095D01*
X157930952Y-59270095D02*
X157854761Y-59308190D01*
X157854761Y-59308190D02*
X157816666Y-59346285D01*
X157816666Y-59346285D02*
X157778571Y-59422476D01*
X157778571Y-59422476D02*
X157740476Y-59574857D01*
X157740476Y-59574857D02*
X157740476Y-59765333D01*
X157740476Y-59765333D02*
X157778571Y-59917714D01*
X157778571Y-59917714D02*
X157816666Y-59993904D01*
X157816666Y-59993904D02*
X157854761Y-60032000D01*
X157854761Y-60032000D02*
X157930952Y-60070095D01*
X157930952Y-60070095D02*
X158007142Y-60070095D01*
X158007142Y-60070095D02*
X158083333Y-60032000D01*
X158083333Y-60032000D02*
X158121428Y-59993904D01*
X158121428Y-59993904D02*
X158159523Y-59917714D01*
X158159523Y-59917714D02*
X158197619Y-59765333D01*
X158197619Y-59765333D02*
X158197619Y-59574857D01*
X158197619Y-59574857D02*
X158159523Y-59422476D01*
X158159523Y-59422476D02*
X158121428Y-59346285D01*
X158121428Y-59346285D02*
X158083333Y-59308190D01*
X158083333Y-59308190D02*
X158007142Y-59270095D01*
%TO.C,TP2*%
G36*
X122330357Y-123458928D02*
G01*
X120219643Y-123458928D01*
X120219643Y-122625444D01*
X120659504Y-122625444D01*
X120666041Y-122645056D01*
X120671862Y-122664879D01*
X120672968Y-122665837D01*
X120712810Y-122785363D01*
X120716633Y-122802937D01*
X120727473Y-122813777D01*
X120736219Y-122826361D01*
X120742764Y-122829068D01*
X120787448Y-122873752D01*
X120816242Y-122889474D01*
X120860173Y-122886332D01*
X120895431Y-122859938D01*
X120910824Y-122818671D01*
X120901462Y-122775634D01*
X120850790Y-122724962D01*
X120812619Y-122610447D01*
X120812619Y-122539551D01*
X120850790Y-122425037D01*
X120924902Y-122350925D01*
X121001888Y-122312431D01*
X121175424Y-122269048D01*
X121299812Y-122269048D01*
X121473345Y-122312431D01*
X121550335Y-122350926D01*
X121624447Y-122425038D01*
X121662619Y-122539552D01*
X121662619Y-122610449D01*
X121624447Y-122724962D01*
X121581723Y-122767685D01*
X121566001Y-122796479D01*
X121569143Y-122840410D01*
X121595536Y-122875669D01*
X121636803Y-122891062D01*
X121679840Y-122881700D01*
X121740177Y-122821364D01*
X121754187Y-122810085D01*
X121759034Y-122795541D01*
X121766379Y-122782092D01*
X121765873Y-122775025D01*
X121805797Y-122655255D01*
X121812619Y-122644641D01*
X121812619Y-122623962D01*
X121813365Y-122603322D01*
X121812619Y-122602063D01*
X121812619Y-122536783D01*
X121815734Y-122524555D01*
X121809194Y-122504935D01*
X121803376Y-122485121D01*
X121802269Y-122484162D01*
X121762427Y-122364633D01*
X121758605Y-122347063D01*
X121747766Y-122336224D01*
X121739019Y-122323638D01*
X121732471Y-122320929D01*
X121654442Y-122242901D01*
X121647999Y-122232052D01*
X121629494Y-122222799D01*
X121611375Y-122212906D01*
X121609915Y-122213010D01*
X121545011Y-122180558D01*
X121539077Y-122174247D01*
X121525699Y-122170902D01*
X121523420Y-122169763D01*
X121515287Y-122168299D01*
X121339210Y-122124280D01*
X121331069Y-122119048D01*
X121318281Y-122119048D01*
X121316777Y-122118672D01*
X121307531Y-122119048D01*
X121178533Y-122119048D01*
X121169364Y-122115946D01*
X121156956Y-122119048D01*
X121155408Y-122119048D01*
X121146538Y-122121652D01*
X120970481Y-122165666D01*
X120961870Y-122164737D01*
X120949539Y-122170902D01*
X120947064Y-122171521D01*
X120939925Y-122175708D01*
X120855345Y-122217998D01*
X120843015Y-122220681D01*
X120828395Y-122235300D01*
X120813270Y-122249370D01*
X120812907Y-122250788D01*
X120735058Y-122328637D01*
X120721051Y-122339915D01*
X120716203Y-122354456D01*
X120708858Y-122367909D01*
X120709363Y-122374976D01*
X120669441Y-122494743D01*
X120662619Y-122505359D01*
X120662619Y-122526039D01*
X120661873Y-122546678D01*
X120662619Y-122547937D01*
X120662619Y-122613217D01*
X120659504Y-122625444D01*
X120219643Y-122625444D01*
X120219643Y-121625444D01*
X120659504Y-121625444D01*
X120666041Y-121645056D01*
X120671862Y-121664879D01*
X120672968Y-121665837D01*
X120712810Y-121785363D01*
X120716633Y-121802937D01*
X120727473Y-121813777D01*
X120736219Y-121826361D01*
X120742764Y-121829068D01*
X120787448Y-121873752D01*
X120816242Y-121889474D01*
X120860173Y-121886332D01*
X120895431Y-121859938D01*
X120910824Y-121818671D01*
X120901462Y-121775634D01*
X120850790Y-121724962D01*
X120812619Y-121610447D01*
X120812619Y-121539551D01*
X120850790Y-121425037D01*
X120924902Y-121350925D01*
X121001888Y-121312431D01*
X121175424Y-121269048D01*
X121299812Y-121269048D01*
X121473345Y-121312431D01*
X121550335Y-121350926D01*
X121624447Y-121425038D01*
X121662619Y-121539552D01*
X121662619Y-121610449D01*
X121624447Y-121724962D01*
X121581723Y-121767685D01*
X121566001Y-121796479D01*
X121569143Y-121840410D01*
X121595536Y-121875669D01*
X121636803Y-121891062D01*
X121679840Y-121881700D01*
X121740177Y-121821364D01*
X121754187Y-121810085D01*
X121759034Y-121795541D01*
X121766379Y-121782092D01*
X121765873Y-121775025D01*
X121805797Y-121655255D01*
X121812619Y-121644641D01*
X121812619Y-121623962D01*
X121813365Y-121603322D01*
X121812619Y-121602063D01*
X121812619Y-121536783D01*
X121815734Y-121524555D01*
X121809194Y-121504935D01*
X121803376Y-121485121D01*
X121802269Y-121484162D01*
X121762427Y-121364633D01*
X121758605Y-121347063D01*
X121747766Y-121336224D01*
X121739019Y-121323638D01*
X121732471Y-121320929D01*
X121654442Y-121242901D01*
X121647999Y-121232052D01*
X121629494Y-121222799D01*
X121611375Y-121212906D01*
X121609915Y-121213010D01*
X121545011Y-121180558D01*
X121539077Y-121174247D01*
X121525699Y-121170902D01*
X121523420Y-121169763D01*
X121515287Y-121168299D01*
X121339210Y-121124280D01*
X121331069Y-121119048D01*
X121318281Y-121119048D01*
X121316777Y-121118672D01*
X121307531Y-121119048D01*
X121178533Y-121119048D01*
X121169364Y-121115946D01*
X121156956Y-121119048D01*
X121155408Y-121119048D01*
X121146538Y-121121652D01*
X120970481Y-121165666D01*
X120961870Y-121164737D01*
X120949539Y-121170902D01*
X120947064Y-121171521D01*
X120939925Y-121175708D01*
X120855345Y-121217998D01*
X120843015Y-121220681D01*
X120828395Y-121235300D01*
X120813270Y-121249370D01*
X120812907Y-121250788D01*
X120735058Y-121328637D01*
X120721051Y-121339915D01*
X120716203Y-121354456D01*
X120708858Y-121367909D01*
X120709363Y-121374976D01*
X120669441Y-121494743D01*
X120662619Y-121505359D01*
X120662619Y-121526039D01*
X120661873Y-121546678D01*
X120662619Y-121547937D01*
X120662619Y-121613217D01*
X120659504Y-121625444D01*
X120219643Y-121625444D01*
X120219643Y-120900013D01*
X120659897Y-120900013D01*
X120667737Y-120943353D01*
X120697764Y-120975575D01*
X120740444Y-120986448D01*
X121748467Y-120650440D01*
X121756916Y-120650746D01*
X121768949Y-120643613D01*
X121771564Y-120642742D01*
X121778195Y-120638133D01*
X121794804Y-120628289D01*
X121796110Y-120625682D01*
X121798504Y-120624019D01*
X121805884Y-120606176D01*
X121814536Y-120588913D01*
X121814225Y-120586013D01*
X121815340Y-120583320D01*
X121811903Y-120564325D01*
X121809848Y-120545119D01*
X121808018Y-120542846D01*
X121807500Y-120539980D01*
X121794343Y-120525861D01*
X121782228Y-120510813D01*
X121779461Y-120509890D01*
X121777474Y-120507758D01*
X121758763Y-120502991D01*
X120751107Y-120167106D01*
X120718322Y-120165921D01*
X120680434Y-120188378D01*
X120660702Y-120227754D01*
X120665389Y-120271547D01*
X120693010Y-120305854D01*
X121500447Y-120575000D01*
X120703673Y-120840591D01*
X120676733Y-120859314D01*
X120659897Y-120900013D01*
X120219643Y-120900013D01*
X120219643Y-119691071D01*
X122330357Y-119691071D01*
X122330357Y-123458928D01*
G37*
%TO.C,R2*%
X136183332Y-125645095D02*
X136449999Y-125264142D01*
X136640475Y-125645095D02*
X136640475Y-124845095D01*
X136640475Y-124845095D02*
X136335713Y-124845095D01*
X136335713Y-124845095D02*
X136259523Y-124883190D01*
X136259523Y-124883190D02*
X136221428Y-124921285D01*
X136221428Y-124921285D02*
X136183332Y-124997476D01*
X136183332Y-124997476D02*
X136183332Y-125111761D01*
X136183332Y-125111761D02*
X136221428Y-125187952D01*
X136221428Y-125187952D02*
X136259523Y-125226047D01*
X136259523Y-125226047D02*
X136335713Y-125264142D01*
X136335713Y-125264142D02*
X136640475Y-125264142D01*
X135878571Y-124921285D02*
X135840475Y-124883190D01*
X135840475Y-124883190D02*
X135764285Y-124845095D01*
X135764285Y-124845095D02*
X135573809Y-124845095D01*
X135573809Y-124845095D02*
X135497618Y-124883190D01*
X135497618Y-124883190D02*
X135459523Y-124921285D01*
X135459523Y-124921285D02*
X135421428Y-124997476D01*
X135421428Y-124997476D02*
X135421428Y-125073666D01*
X135421428Y-125073666D02*
X135459523Y-125187952D01*
X135459523Y-125187952D02*
X135916666Y-125645095D01*
X135916666Y-125645095D02*
X135421428Y-125645095D01*
%TO.C,U9*%
X156870095Y-57965476D02*
X157517714Y-57965476D01*
X157517714Y-57965476D02*
X157593904Y-58003571D01*
X157593904Y-58003571D02*
X157632000Y-58041666D01*
X157632000Y-58041666D02*
X157670095Y-58117857D01*
X157670095Y-58117857D02*
X157670095Y-58270238D01*
X157670095Y-58270238D02*
X157632000Y-58346428D01*
X157632000Y-58346428D02*
X157593904Y-58384523D01*
X157593904Y-58384523D02*
X157517714Y-58422619D01*
X157517714Y-58422619D02*
X156870095Y-58422619D01*
X157670095Y-58841666D02*
X157670095Y-58994047D01*
X157670095Y-58994047D02*
X157632000Y-59070237D01*
X157632000Y-59070237D02*
X157593904Y-59108333D01*
X157593904Y-59108333D02*
X157479619Y-59184523D01*
X157479619Y-59184523D02*
X157327238Y-59222618D01*
X157327238Y-59222618D02*
X157022476Y-59222618D01*
X157022476Y-59222618D02*
X156946285Y-59184523D01*
X156946285Y-59184523D02*
X156908190Y-59146428D01*
X156908190Y-59146428D02*
X156870095Y-59070237D01*
X156870095Y-59070237D02*
X156870095Y-58917856D01*
X156870095Y-58917856D02*
X156908190Y-58841666D01*
X156908190Y-58841666D02*
X156946285Y-58803571D01*
X156946285Y-58803571D02*
X157022476Y-58765475D01*
X157022476Y-58765475D02*
X157212952Y-58765475D01*
X157212952Y-58765475D02*
X157289142Y-58803571D01*
X157289142Y-58803571D02*
X157327238Y-58841666D01*
X157327238Y-58841666D02*
X157365333Y-58917856D01*
X157365333Y-58917856D02*
X157365333Y-59070237D01*
X157365333Y-59070237D02*
X157327238Y-59146428D01*
X157327238Y-59146428D02*
X157289142Y-59184523D01*
X157289142Y-59184523D02*
X157212952Y-59222618D01*
%TO.C,RN1*%
X152552380Y-129045095D02*
X152819047Y-128664142D01*
X153009523Y-129045095D02*
X153009523Y-128245095D01*
X153009523Y-128245095D02*
X152704761Y-128245095D01*
X152704761Y-128245095D02*
X152628571Y-128283190D01*
X152628571Y-128283190D02*
X152590476Y-128321285D01*
X152590476Y-128321285D02*
X152552380Y-128397476D01*
X152552380Y-128397476D02*
X152552380Y-128511761D01*
X152552380Y-128511761D02*
X152590476Y-128587952D01*
X152590476Y-128587952D02*
X152628571Y-128626047D01*
X152628571Y-128626047D02*
X152704761Y-128664142D01*
X152704761Y-128664142D02*
X153009523Y-128664142D01*
X152209523Y-129045095D02*
X152209523Y-128245095D01*
X152209523Y-128245095D02*
X151752380Y-129045095D01*
X151752380Y-129045095D02*
X151752380Y-128245095D01*
X150952381Y-129045095D02*
X151409524Y-129045095D01*
X151180952Y-129045095D02*
X151180952Y-128245095D01*
X151180952Y-128245095D02*
X151257143Y-128359380D01*
X151257143Y-128359380D02*
X151333333Y-128435571D01*
X151333333Y-128435571D02*
X151409524Y-128473666D01*
D12*
%TO.C,SW4*%
X158163752Y-104102607D02*
X157992700Y-104017080D01*
X157992700Y-104017080D02*
X157778884Y-103803265D01*
X157778884Y-103803265D02*
X157736121Y-103674975D01*
X157736121Y-103674975D02*
X157736121Y-103589449D01*
X157736121Y-103589449D02*
X157778884Y-103461160D01*
X157778884Y-103461160D02*
X157864410Y-103375633D01*
X157864410Y-103375633D02*
X157992700Y-103332870D01*
X157992700Y-103332870D02*
X158078226Y-103332870D01*
X158078226Y-103332870D02*
X158206515Y-103375633D01*
X158206515Y-103375633D02*
X158420331Y-103503923D01*
X158420331Y-103503923D02*
X158548620Y-103546686D01*
X158548620Y-103546686D02*
X158634147Y-103546686D01*
X158634147Y-103546686D02*
X158762436Y-103503923D01*
X158762436Y-103503923D02*
X158847962Y-103418397D01*
X158847962Y-103418397D02*
X158890725Y-103290107D01*
X158890725Y-103290107D02*
X158890725Y-103204581D01*
X158890725Y-103204581D02*
X158847962Y-103076292D01*
X158847962Y-103076292D02*
X158634147Y-102862476D01*
X158634147Y-102862476D02*
X158463094Y-102776950D01*
X158206515Y-102434845D02*
X157094674Y-103119055D01*
X157094674Y-103119055D02*
X157565068Y-102306555D01*
X157565068Y-102306555D02*
X156752569Y-102776950D01*
X156752569Y-102776950D02*
X157436779Y-101665108D01*
X156410464Y-101237477D02*
X155811780Y-101836161D01*
X156966384Y-101109187D02*
X156538753Y-101964450D01*
X156538753Y-101964450D02*
X155982833Y-101408529D01*
D10*
%TO.C,C28*%
X161814285Y-59993904D02*
X161852381Y-60032000D01*
X161852381Y-60032000D02*
X161966666Y-60070095D01*
X161966666Y-60070095D02*
X162042857Y-60070095D01*
X162042857Y-60070095D02*
X162157143Y-60032000D01*
X162157143Y-60032000D02*
X162233333Y-59955809D01*
X162233333Y-59955809D02*
X162271428Y-59879619D01*
X162271428Y-59879619D02*
X162309524Y-59727238D01*
X162309524Y-59727238D02*
X162309524Y-59612952D01*
X162309524Y-59612952D02*
X162271428Y-59460571D01*
X162271428Y-59460571D02*
X162233333Y-59384380D01*
X162233333Y-59384380D02*
X162157143Y-59308190D01*
X162157143Y-59308190D02*
X162042857Y-59270095D01*
X162042857Y-59270095D02*
X161966666Y-59270095D01*
X161966666Y-59270095D02*
X161852381Y-59308190D01*
X161852381Y-59308190D02*
X161814285Y-59346285D01*
X161509524Y-59346285D02*
X161471428Y-59308190D01*
X161471428Y-59308190D02*
X161395238Y-59270095D01*
X161395238Y-59270095D02*
X161204762Y-59270095D01*
X161204762Y-59270095D02*
X161128571Y-59308190D01*
X161128571Y-59308190D02*
X161090476Y-59346285D01*
X161090476Y-59346285D02*
X161052381Y-59422476D01*
X161052381Y-59422476D02*
X161052381Y-59498666D01*
X161052381Y-59498666D02*
X161090476Y-59612952D01*
X161090476Y-59612952D02*
X161547619Y-60070095D01*
X161547619Y-60070095D02*
X161052381Y-60070095D01*
X160595238Y-59612952D02*
X160671428Y-59574857D01*
X160671428Y-59574857D02*
X160709523Y-59536761D01*
X160709523Y-59536761D02*
X160747619Y-59460571D01*
X160747619Y-59460571D02*
X160747619Y-59422476D01*
X160747619Y-59422476D02*
X160709523Y-59346285D01*
X160709523Y-59346285D02*
X160671428Y-59308190D01*
X160671428Y-59308190D02*
X160595238Y-59270095D01*
X160595238Y-59270095D02*
X160442857Y-59270095D01*
X160442857Y-59270095D02*
X160366666Y-59308190D01*
X160366666Y-59308190D02*
X160328571Y-59346285D01*
X160328571Y-59346285D02*
X160290476Y-59422476D01*
X160290476Y-59422476D02*
X160290476Y-59460571D01*
X160290476Y-59460571D02*
X160328571Y-59536761D01*
X160328571Y-59536761D02*
X160366666Y-59574857D01*
X160366666Y-59574857D02*
X160442857Y-59612952D01*
X160442857Y-59612952D02*
X160595238Y-59612952D01*
X160595238Y-59612952D02*
X160671428Y-59651047D01*
X160671428Y-59651047D02*
X160709523Y-59689142D01*
X160709523Y-59689142D02*
X160747619Y-59765333D01*
X160747619Y-59765333D02*
X160747619Y-59917714D01*
X160747619Y-59917714D02*
X160709523Y-59993904D01*
X160709523Y-59993904D02*
X160671428Y-60032000D01*
X160671428Y-60032000D02*
X160595238Y-60070095D01*
X160595238Y-60070095D02*
X160442857Y-60070095D01*
X160442857Y-60070095D02*
X160366666Y-60032000D01*
X160366666Y-60032000D02*
X160328571Y-59993904D01*
X160328571Y-59993904D02*
X160290476Y-59917714D01*
X160290476Y-59917714D02*
X160290476Y-59765333D01*
X160290476Y-59765333D02*
X160328571Y-59689142D01*
X160328571Y-59689142D02*
X160366666Y-59651047D01*
X160366666Y-59651047D02*
X160442857Y-59612952D01*
%TO.C,C10*%
X151789285Y-116318904D02*
X151827381Y-116357000D01*
X151827381Y-116357000D02*
X151941666Y-116395095D01*
X151941666Y-116395095D02*
X152017857Y-116395095D01*
X152017857Y-116395095D02*
X152132143Y-116357000D01*
X152132143Y-116357000D02*
X152208333Y-116280809D01*
X152208333Y-116280809D02*
X152246428Y-116204619D01*
X152246428Y-116204619D02*
X152284524Y-116052238D01*
X152284524Y-116052238D02*
X152284524Y-115937952D01*
X152284524Y-115937952D02*
X152246428Y-115785571D01*
X152246428Y-115785571D02*
X152208333Y-115709380D01*
X152208333Y-115709380D02*
X152132143Y-115633190D01*
X152132143Y-115633190D02*
X152017857Y-115595095D01*
X152017857Y-115595095D02*
X151941666Y-115595095D01*
X151941666Y-115595095D02*
X151827381Y-115633190D01*
X151827381Y-115633190D02*
X151789285Y-115671285D01*
X151027381Y-116395095D02*
X151484524Y-116395095D01*
X151255952Y-116395095D02*
X151255952Y-115595095D01*
X151255952Y-115595095D02*
X151332143Y-115709380D01*
X151332143Y-115709380D02*
X151408333Y-115785571D01*
X151408333Y-115785571D02*
X151484524Y-115823666D01*
X150532142Y-115595095D02*
X150455952Y-115595095D01*
X150455952Y-115595095D02*
X150379761Y-115633190D01*
X150379761Y-115633190D02*
X150341666Y-115671285D01*
X150341666Y-115671285D02*
X150303571Y-115747476D01*
X150303571Y-115747476D02*
X150265476Y-115899857D01*
X150265476Y-115899857D02*
X150265476Y-116090333D01*
X150265476Y-116090333D02*
X150303571Y-116242714D01*
X150303571Y-116242714D02*
X150341666Y-116318904D01*
X150341666Y-116318904D02*
X150379761Y-116357000D01*
X150379761Y-116357000D02*
X150455952Y-116395095D01*
X150455952Y-116395095D02*
X150532142Y-116395095D01*
X150532142Y-116395095D02*
X150608333Y-116357000D01*
X150608333Y-116357000D02*
X150646428Y-116318904D01*
X150646428Y-116318904D02*
X150684523Y-116242714D01*
X150684523Y-116242714D02*
X150722619Y-116090333D01*
X150722619Y-116090333D02*
X150722619Y-115899857D01*
X150722619Y-115899857D02*
X150684523Y-115747476D01*
X150684523Y-115747476D02*
X150646428Y-115671285D01*
X150646428Y-115671285D02*
X150608333Y-115633190D01*
X150608333Y-115633190D02*
X150532142Y-115595095D01*
%TO.C,R19*%
X163545095Y-61235714D02*
X163164142Y-60969047D01*
X163545095Y-60778571D02*
X162745095Y-60778571D01*
X162745095Y-60778571D02*
X162745095Y-61083333D01*
X162745095Y-61083333D02*
X162783190Y-61159523D01*
X162783190Y-61159523D02*
X162821285Y-61197618D01*
X162821285Y-61197618D02*
X162897476Y-61235714D01*
X162897476Y-61235714D02*
X163011761Y-61235714D01*
X163011761Y-61235714D02*
X163087952Y-61197618D01*
X163087952Y-61197618D02*
X163126047Y-61159523D01*
X163126047Y-61159523D02*
X163164142Y-61083333D01*
X163164142Y-61083333D02*
X163164142Y-60778571D01*
X163545095Y-61997618D02*
X163545095Y-61540475D01*
X163545095Y-61769047D02*
X162745095Y-61769047D01*
X162745095Y-61769047D02*
X162859380Y-61692856D01*
X162859380Y-61692856D02*
X162935571Y-61616666D01*
X162935571Y-61616666D02*
X162973666Y-61540475D01*
X163545095Y-62378571D02*
X163545095Y-62530952D01*
X163545095Y-62530952D02*
X163507000Y-62607142D01*
X163507000Y-62607142D02*
X163468904Y-62645238D01*
X163468904Y-62645238D02*
X163354619Y-62721428D01*
X163354619Y-62721428D02*
X163202238Y-62759523D01*
X163202238Y-62759523D02*
X162897476Y-62759523D01*
X162897476Y-62759523D02*
X162821285Y-62721428D01*
X162821285Y-62721428D02*
X162783190Y-62683333D01*
X162783190Y-62683333D02*
X162745095Y-62607142D01*
X162745095Y-62607142D02*
X162745095Y-62454761D01*
X162745095Y-62454761D02*
X162783190Y-62378571D01*
X162783190Y-62378571D02*
X162821285Y-62340476D01*
X162821285Y-62340476D02*
X162897476Y-62302380D01*
X162897476Y-62302380D02*
X163087952Y-62302380D01*
X163087952Y-62302380D02*
X163164142Y-62340476D01*
X163164142Y-62340476D02*
X163202238Y-62378571D01*
X163202238Y-62378571D02*
X163240333Y-62454761D01*
X163240333Y-62454761D02*
X163240333Y-62607142D01*
X163240333Y-62607142D02*
X163202238Y-62683333D01*
X163202238Y-62683333D02*
X163164142Y-62721428D01*
X163164142Y-62721428D02*
X163087952Y-62759523D01*
%TO.C,C6*%
X142568904Y-131191667D02*
X142607000Y-131153571D01*
X142607000Y-131153571D02*
X142645095Y-131039286D01*
X142645095Y-131039286D02*
X142645095Y-130963095D01*
X142645095Y-130963095D02*
X142607000Y-130848809D01*
X142607000Y-130848809D02*
X142530809Y-130772619D01*
X142530809Y-130772619D02*
X142454619Y-130734524D01*
X142454619Y-130734524D02*
X142302238Y-130696428D01*
X142302238Y-130696428D02*
X142187952Y-130696428D01*
X142187952Y-130696428D02*
X142035571Y-130734524D01*
X142035571Y-130734524D02*
X141959380Y-130772619D01*
X141959380Y-130772619D02*
X141883190Y-130848809D01*
X141883190Y-130848809D02*
X141845095Y-130963095D01*
X141845095Y-130963095D02*
X141845095Y-131039286D01*
X141845095Y-131039286D02*
X141883190Y-131153571D01*
X141883190Y-131153571D02*
X141921285Y-131191667D01*
X141845095Y-131877381D02*
X141845095Y-131725000D01*
X141845095Y-131725000D02*
X141883190Y-131648809D01*
X141883190Y-131648809D02*
X141921285Y-131610714D01*
X141921285Y-131610714D02*
X142035571Y-131534524D01*
X142035571Y-131534524D02*
X142187952Y-131496428D01*
X142187952Y-131496428D02*
X142492714Y-131496428D01*
X142492714Y-131496428D02*
X142568904Y-131534524D01*
X142568904Y-131534524D02*
X142607000Y-131572619D01*
X142607000Y-131572619D02*
X142645095Y-131648809D01*
X142645095Y-131648809D02*
X142645095Y-131801190D01*
X142645095Y-131801190D02*
X142607000Y-131877381D01*
X142607000Y-131877381D02*
X142568904Y-131915476D01*
X142568904Y-131915476D02*
X142492714Y-131953571D01*
X142492714Y-131953571D02*
X142302238Y-131953571D01*
X142302238Y-131953571D02*
X142226047Y-131915476D01*
X142226047Y-131915476D02*
X142187952Y-131877381D01*
X142187952Y-131877381D02*
X142149857Y-131801190D01*
X142149857Y-131801190D02*
X142149857Y-131648809D01*
X142149857Y-131648809D02*
X142187952Y-131572619D01*
X142187952Y-131572619D02*
X142226047Y-131534524D01*
X142226047Y-131534524D02*
X142302238Y-131496428D01*
%TO.C,R15*%
X156739285Y-112745095D02*
X157005952Y-112364142D01*
X157196428Y-112745095D02*
X157196428Y-111945095D01*
X157196428Y-111945095D02*
X156891666Y-111945095D01*
X156891666Y-111945095D02*
X156815476Y-111983190D01*
X156815476Y-111983190D02*
X156777381Y-112021285D01*
X156777381Y-112021285D02*
X156739285Y-112097476D01*
X156739285Y-112097476D02*
X156739285Y-112211761D01*
X156739285Y-112211761D02*
X156777381Y-112287952D01*
X156777381Y-112287952D02*
X156815476Y-112326047D01*
X156815476Y-112326047D02*
X156891666Y-112364142D01*
X156891666Y-112364142D02*
X157196428Y-112364142D01*
X155977381Y-112745095D02*
X156434524Y-112745095D01*
X156205952Y-112745095D02*
X156205952Y-111945095D01*
X156205952Y-111945095D02*
X156282143Y-112059380D01*
X156282143Y-112059380D02*
X156358333Y-112135571D01*
X156358333Y-112135571D02*
X156434524Y-112173666D01*
X155253571Y-111945095D02*
X155634523Y-111945095D01*
X155634523Y-111945095D02*
X155672619Y-112326047D01*
X155672619Y-112326047D02*
X155634523Y-112287952D01*
X155634523Y-112287952D02*
X155558333Y-112249857D01*
X155558333Y-112249857D02*
X155367857Y-112249857D01*
X155367857Y-112249857D02*
X155291666Y-112287952D01*
X155291666Y-112287952D02*
X155253571Y-112326047D01*
X155253571Y-112326047D02*
X155215476Y-112402238D01*
X155215476Y-112402238D02*
X155215476Y-112592714D01*
X155215476Y-112592714D02*
X155253571Y-112668904D01*
X155253571Y-112668904D02*
X155291666Y-112707000D01*
X155291666Y-112707000D02*
X155367857Y-112745095D01*
X155367857Y-112745095D02*
X155558333Y-112745095D01*
X155558333Y-112745095D02*
X155634523Y-112707000D01*
X155634523Y-112707000D02*
X155672619Y-112668904D01*
%TO.C,R21*%
X163570095Y-58360714D02*
X163189142Y-58094047D01*
X163570095Y-57903571D02*
X162770095Y-57903571D01*
X162770095Y-57903571D02*
X162770095Y-58208333D01*
X162770095Y-58208333D02*
X162808190Y-58284523D01*
X162808190Y-58284523D02*
X162846285Y-58322618D01*
X162846285Y-58322618D02*
X162922476Y-58360714D01*
X162922476Y-58360714D02*
X163036761Y-58360714D01*
X163036761Y-58360714D02*
X163112952Y-58322618D01*
X163112952Y-58322618D02*
X163151047Y-58284523D01*
X163151047Y-58284523D02*
X163189142Y-58208333D01*
X163189142Y-58208333D02*
X163189142Y-57903571D01*
X162846285Y-58665475D02*
X162808190Y-58703571D01*
X162808190Y-58703571D02*
X162770095Y-58779761D01*
X162770095Y-58779761D02*
X162770095Y-58970237D01*
X162770095Y-58970237D02*
X162808190Y-59046428D01*
X162808190Y-59046428D02*
X162846285Y-59084523D01*
X162846285Y-59084523D02*
X162922476Y-59122618D01*
X162922476Y-59122618D02*
X162998666Y-59122618D01*
X162998666Y-59122618D02*
X163112952Y-59084523D01*
X163112952Y-59084523D02*
X163570095Y-58627380D01*
X163570095Y-58627380D02*
X163570095Y-59122618D01*
X163570095Y-59884523D02*
X163570095Y-59427380D01*
X163570095Y-59655952D02*
X162770095Y-59655952D01*
X162770095Y-59655952D02*
X162884380Y-59579761D01*
X162884380Y-59579761D02*
X162960571Y-59503571D01*
X162960571Y-59503571D02*
X162998666Y-59427380D01*
%TO.C,TP1*%
G36*
X116105357Y-122012500D02*
G01*
X113994643Y-122012500D01*
X113994643Y-121179015D01*
X114434504Y-121179015D01*
X114441041Y-121198627D01*
X114446862Y-121218450D01*
X114447968Y-121219408D01*
X114487810Y-121338934D01*
X114491633Y-121356508D01*
X114502473Y-121367348D01*
X114511219Y-121379932D01*
X114517764Y-121382639D01*
X114562448Y-121427323D01*
X114591242Y-121443045D01*
X114635173Y-121439903D01*
X114670431Y-121413509D01*
X114685824Y-121372242D01*
X114676462Y-121329205D01*
X114625790Y-121278533D01*
X114587619Y-121164018D01*
X114587619Y-121093122D01*
X114625790Y-120978608D01*
X114699902Y-120904496D01*
X114776888Y-120866002D01*
X114950424Y-120822619D01*
X115074812Y-120822619D01*
X115248345Y-120866002D01*
X115325335Y-120904497D01*
X115399447Y-120978609D01*
X115437619Y-121093123D01*
X115437619Y-121164020D01*
X115399447Y-121278533D01*
X115356723Y-121321256D01*
X115341001Y-121350050D01*
X115344143Y-121393981D01*
X115370536Y-121429240D01*
X115411803Y-121444633D01*
X115454840Y-121435271D01*
X115515177Y-121374935D01*
X115529187Y-121363656D01*
X115534034Y-121349112D01*
X115541379Y-121335663D01*
X115540873Y-121328596D01*
X115580797Y-121208826D01*
X115587619Y-121198212D01*
X115587619Y-121177533D01*
X115588365Y-121156893D01*
X115587619Y-121155634D01*
X115587619Y-121090354D01*
X115590734Y-121078126D01*
X115584194Y-121058506D01*
X115578376Y-121038692D01*
X115577269Y-121037733D01*
X115537427Y-120918204D01*
X115533605Y-120900634D01*
X115522766Y-120889795D01*
X115514019Y-120877209D01*
X115507471Y-120874500D01*
X115429442Y-120796472D01*
X115422999Y-120785623D01*
X115404494Y-120776370D01*
X115386375Y-120766477D01*
X115384915Y-120766581D01*
X115320011Y-120734129D01*
X115314077Y-120727818D01*
X115300699Y-120724473D01*
X115298420Y-120723334D01*
X115290287Y-120721870D01*
X115114210Y-120677851D01*
X115106069Y-120672619D01*
X115093281Y-120672619D01*
X115091777Y-120672243D01*
X115082531Y-120672619D01*
X114953533Y-120672619D01*
X114944364Y-120669517D01*
X114931956Y-120672619D01*
X114930408Y-120672619D01*
X114921538Y-120675223D01*
X114745481Y-120719237D01*
X114736870Y-120718308D01*
X114724539Y-120724473D01*
X114722064Y-120725092D01*
X114714925Y-120729279D01*
X114630345Y-120771569D01*
X114618015Y-120774252D01*
X114603395Y-120788871D01*
X114588270Y-120802941D01*
X114587907Y-120804359D01*
X114510058Y-120882208D01*
X114496051Y-120893486D01*
X114491203Y-120908027D01*
X114483858Y-120921480D01*
X114484363Y-120928547D01*
X114444441Y-121048314D01*
X114437619Y-121058930D01*
X114437619Y-121079610D01*
X114436873Y-121100249D01*
X114437619Y-121101508D01*
X114437619Y-121166788D01*
X114434504Y-121179015D01*
X113994643Y-121179015D01*
X113994643Y-120179015D01*
X114434504Y-120179015D01*
X114441041Y-120198627D01*
X114446862Y-120218450D01*
X114447968Y-120219408D01*
X114487810Y-120338934D01*
X114491633Y-120356508D01*
X114502473Y-120367348D01*
X114511219Y-120379932D01*
X114517764Y-120382639D01*
X114562448Y-120427323D01*
X114591242Y-120443045D01*
X114635173Y-120439903D01*
X114670431Y-120413509D01*
X114685824Y-120372242D01*
X114676462Y-120329205D01*
X114625790Y-120278533D01*
X114587619Y-120164018D01*
X114587619Y-120093122D01*
X114625790Y-119978608D01*
X114699902Y-119904496D01*
X114776888Y-119866002D01*
X114950424Y-119822619D01*
X115074812Y-119822619D01*
X115248345Y-119866002D01*
X115325335Y-119904497D01*
X115399447Y-119978609D01*
X115437619Y-120093123D01*
X115437619Y-120164020D01*
X115399447Y-120278533D01*
X115356723Y-120321256D01*
X115341001Y-120350050D01*
X115344143Y-120393981D01*
X115370536Y-120429240D01*
X115411803Y-120444633D01*
X115454840Y-120435271D01*
X115515177Y-120374935D01*
X115529187Y-120363656D01*
X115534034Y-120349112D01*
X115541379Y-120335663D01*
X115540873Y-120328596D01*
X115580797Y-120208826D01*
X115587619Y-120198212D01*
X115587619Y-120177533D01*
X115588365Y-120156893D01*
X115587619Y-120155634D01*
X115587619Y-120090354D01*
X115590734Y-120078126D01*
X115584194Y-120058506D01*
X115578376Y-120038692D01*
X115577269Y-120037733D01*
X115537427Y-119918204D01*
X115533605Y-119900634D01*
X115522766Y-119889795D01*
X115514019Y-119877209D01*
X115507471Y-119874500D01*
X115429442Y-119796472D01*
X115422999Y-119785623D01*
X115404494Y-119776370D01*
X115386375Y-119766477D01*
X115384915Y-119766581D01*
X115320011Y-119734129D01*
X115314077Y-119727818D01*
X115300699Y-119724473D01*
X115298420Y-119723334D01*
X115290287Y-119721870D01*
X115114210Y-119677851D01*
X115106069Y-119672619D01*
X115093281Y-119672619D01*
X115091777Y-119672243D01*
X115082531Y-119672619D01*
X114953533Y-119672619D01*
X114944364Y-119669517D01*
X114931956Y-119672619D01*
X114930408Y-119672619D01*
X114921538Y-119675223D01*
X114745481Y-119719237D01*
X114736870Y-119718308D01*
X114724539Y-119724473D01*
X114722064Y-119725092D01*
X114714925Y-119729279D01*
X114630345Y-119771569D01*
X114618015Y-119774252D01*
X114603395Y-119788871D01*
X114588270Y-119802941D01*
X114587907Y-119804359D01*
X114510058Y-119882208D01*
X114496051Y-119893486D01*
X114491203Y-119908027D01*
X114483858Y-119921480D01*
X114484363Y-119928547D01*
X114444441Y-120048314D01*
X114437619Y-120058930D01*
X114437619Y-120079610D01*
X114436873Y-120100249D01*
X114437619Y-120101508D01*
X114437619Y-120166788D01*
X114434504Y-120179015D01*
X113994643Y-120179015D01*
X113994643Y-119453584D01*
X114434897Y-119453584D01*
X114442737Y-119496924D01*
X114472764Y-119529146D01*
X114515444Y-119540019D01*
X115523467Y-119204011D01*
X115531916Y-119204317D01*
X115543949Y-119197184D01*
X115546564Y-119196313D01*
X115553195Y-119191704D01*
X115569804Y-119181860D01*
X115571110Y-119179253D01*
X115573504Y-119177590D01*
X115580884Y-119159747D01*
X115589536Y-119142484D01*
X115589225Y-119139584D01*
X115590340Y-119136891D01*
X115586903Y-119117896D01*
X115584848Y-119098690D01*
X115583018Y-119096417D01*
X115582500Y-119093551D01*
X115569343Y-119079432D01*
X115557228Y-119064384D01*
X115554461Y-119063461D01*
X115552474Y-119061329D01*
X115533763Y-119056562D01*
X114526107Y-118720677D01*
X114493322Y-118719492D01*
X114455434Y-118741949D01*
X114435702Y-118781325D01*
X114440389Y-118825118D01*
X114468010Y-118859425D01*
X115275447Y-119128571D01*
X114478673Y-119394162D01*
X114451733Y-119412885D01*
X114434897Y-119453584D01*
X113994643Y-119453584D01*
X113994643Y-118710781D01*
X115532857Y-118710781D01*
X115542100Y-118742259D01*
X115575386Y-118771101D01*
X115618981Y-118777369D01*
X115659045Y-118759073D01*
X115682857Y-118722021D01*
X115682857Y-117927313D01*
X115673614Y-117895835D01*
X115640328Y-117866993D01*
X115596733Y-117860725D01*
X115556669Y-117879021D01*
X115532857Y-117916073D01*
X115532857Y-118710781D01*
X113994643Y-118710781D01*
X113994643Y-116930996D01*
X114434776Y-116930996D01*
X114443295Y-116974208D01*
X114473824Y-117005955D01*
X115206101Y-117180306D01*
X114787581Y-117291911D01*
X114774443Y-117292240D01*
X114757773Y-117303551D01*
X114740557Y-117314018D01*
X114739671Y-117315835D01*
X114737998Y-117316971D01*
X114730087Y-117335504D01*
X114721265Y-117353612D01*
X114721502Y-117355619D01*
X114720709Y-117357479D01*
X114724075Y-117377352D01*
X114726442Y-117397350D01*
X114727726Y-117398909D01*
X114728064Y-117400904D01*
X114741637Y-117415798D01*
X114754443Y-117431347D01*
X114756368Y-117431965D01*
X114757730Y-117433459D01*
X114777186Y-117438647D01*
X114796379Y-117444808D01*
X114798333Y-117444286D01*
X115206104Y-117553025D01*
X114484759Y-117724775D01*
X114456277Y-117741058D01*
X114435930Y-117780119D01*
X114439930Y-117823980D01*
X114467008Y-117858717D01*
X114508567Y-117873299D01*
X115522347Y-117631922D01*
X115536509Y-117631568D01*
X115552349Y-117620818D01*
X115568960Y-117611323D01*
X115570390Y-117608576D01*
X115572954Y-117606837D01*
X115580469Y-117589228D01*
X115589308Y-117572261D01*
X115589026Y-117569178D01*
X115590243Y-117566329D01*
X115587045Y-117547448D01*
X115585308Y-117528400D01*
X115583405Y-117525959D01*
X115582888Y-117522904D01*
X115569993Y-117508753D01*
X115558230Y-117493663D01*
X115555307Y-117492637D01*
X115553222Y-117490349D01*
X115534731Y-117485418D01*
X115516670Y-117479081D01*
X115513657Y-117479798D01*
X115089411Y-117366665D01*
X115524352Y-117250681D01*
X115538499Y-117249947D01*
X115554041Y-117238779D01*
X115570396Y-117228838D01*
X115571752Y-117226053D01*
X115574267Y-117224247D01*
X115581304Y-117206448D01*
X115589687Y-117189244D01*
X115589323Y-117186169D01*
X115590462Y-117183289D01*
X115586760Y-117164511D01*
X115584511Y-117145506D01*
X115582542Y-117143115D01*
X115581943Y-117140077D01*
X115568675Y-117126279D01*
X115556509Y-117111509D01*
X115553561Y-117110562D01*
X115551414Y-117108330D01*
X115532793Y-117103896D01*
X115514573Y-117098048D01*
X115511580Y-117098845D01*
X114519502Y-116862637D01*
X114486739Y-116864338D01*
X114450971Y-116890038D01*
X114434776Y-116930996D01*
X113994643Y-116930996D01*
X113994643Y-116464729D01*
X114434504Y-116464729D01*
X114441041Y-116484341D01*
X114446862Y-116504164D01*
X114447968Y-116505122D01*
X114492496Y-116638706D01*
X114511219Y-116665646D01*
X114551918Y-116682482D01*
X114595258Y-116674642D01*
X114627480Y-116644616D01*
X114638353Y-116601935D01*
X114587619Y-116449732D01*
X114587619Y-116241515D01*
X114621878Y-116172997D01*
X114652283Y-116142591D01*
X114720799Y-116108333D01*
X114780627Y-116108333D01*
X114849145Y-116142592D01*
X114879550Y-116172997D01*
X114918044Y-116249983D01*
X114960427Y-116419515D01*
X114959497Y-116428129D01*
X114965663Y-116440462D01*
X114966282Y-116442935D01*
X114970464Y-116450062D01*
X115012759Y-116534652D01*
X115015442Y-116546984D01*
X115030069Y-116561611D01*
X115044131Y-116576729D01*
X115045549Y-116577091D01*
X115071984Y-116603526D01*
X115078428Y-116614376D01*
X115096937Y-116623630D01*
X115115051Y-116633521D01*
X115116509Y-116633416D01*
X115189755Y-116670039D01*
X115204882Y-116679761D01*
X115220212Y-116679761D01*
X115235295Y-116682475D01*
X115241839Y-116679761D01*
X115318102Y-116679761D01*
X115335986Y-116681692D01*
X115349699Y-116674835D01*
X115364402Y-116670518D01*
X115369040Y-116665164D01*
X115442509Y-116628429D01*
X115454840Y-116625747D01*
X115469460Y-116611127D01*
X115484586Y-116597058D01*
X115484948Y-116595639D01*
X115511383Y-116569205D01*
X115522234Y-116562761D01*
X115531489Y-116544249D01*
X115541379Y-116526139D01*
X115541274Y-116524679D01*
X115577897Y-116451433D01*
X115587619Y-116436307D01*
X115587619Y-116420977D01*
X115590333Y-116405894D01*
X115587619Y-116399350D01*
X115587619Y-116185592D01*
X115590734Y-116173364D01*
X115584194Y-116153744D01*
X115578376Y-116133930D01*
X115577269Y-116132971D01*
X115532742Y-115999387D01*
X115514019Y-115972447D01*
X115473320Y-115955611D01*
X115429980Y-115963451D01*
X115397758Y-115993478D01*
X115386885Y-116036158D01*
X115437619Y-116188361D01*
X115437619Y-116396579D01*
X115403360Y-116465096D01*
X115372951Y-116495504D01*
X115304437Y-116529761D01*
X115244610Y-116529761D01*
X115176092Y-116495502D01*
X115145685Y-116465095D01*
X115107192Y-116388109D01*
X115064809Y-116218576D01*
X115065739Y-116209965D01*
X115059573Y-116197634D01*
X115058955Y-116195159D01*
X115054767Y-116188020D01*
X115012477Y-116103440D01*
X115009795Y-116091110D01*
X114995175Y-116076490D01*
X114981106Y-116061365D01*
X114979687Y-116061002D01*
X114953252Y-116034567D01*
X114946809Y-116023718D01*
X114928308Y-116014467D01*
X114910186Y-116004572D01*
X114908725Y-116004676D01*
X114835484Y-115968056D01*
X114820355Y-115958333D01*
X114805025Y-115958333D01*
X114789942Y-115955619D01*
X114783398Y-115958333D01*
X114707126Y-115958333D01*
X114689251Y-115956403D01*
X114675541Y-115963257D01*
X114660835Y-115967576D01*
X114656195Y-115972930D01*
X114582726Y-116009664D01*
X114570396Y-116012347D01*
X114555776Y-116026966D01*
X114540651Y-116041036D01*
X114540288Y-116042454D01*
X114513853Y-116068889D01*
X114503004Y-116075333D01*
X114493753Y-116093833D01*
X114483858Y-116111956D01*
X114483962Y-116113416D01*
X114447342Y-116186657D01*
X114437619Y-116201787D01*
X114437619Y-116217117D01*
X114434905Y-116232200D01*
X114437619Y-116238744D01*
X114437619Y-116452502D01*
X114434504Y-116464729D01*
X113994643Y-116464729D01*
X113994643Y-115387500D01*
X116105357Y-115387500D01*
X116105357Y-122012500D01*
G37*
%TO.C,C3*%
X139543904Y-131216667D02*
X139582000Y-131178571D01*
X139582000Y-131178571D02*
X139620095Y-131064286D01*
X139620095Y-131064286D02*
X139620095Y-130988095D01*
X139620095Y-130988095D02*
X139582000Y-130873809D01*
X139582000Y-130873809D02*
X139505809Y-130797619D01*
X139505809Y-130797619D02*
X139429619Y-130759524D01*
X139429619Y-130759524D02*
X139277238Y-130721428D01*
X139277238Y-130721428D02*
X139162952Y-130721428D01*
X139162952Y-130721428D02*
X139010571Y-130759524D01*
X139010571Y-130759524D02*
X138934380Y-130797619D01*
X138934380Y-130797619D02*
X138858190Y-130873809D01*
X138858190Y-130873809D02*
X138820095Y-130988095D01*
X138820095Y-130988095D02*
X138820095Y-131064286D01*
X138820095Y-131064286D02*
X138858190Y-131178571D01*
X138858190Y-131178571D02*
X138896285Y-131216667D01*
X138820095Y-131483333D02*
X138820095Y-131978571D01*
X138820095Y-131978571D02*
X139124857Y-131711905D01*
X139124857Y-131711905D02*
X139124857Y-131826190D01*
X139124857Y-131826190D02*
X139162952Y-131902381D01*
X139162952Y-131902381D02*
X139201047Y-131940476D01*
X139201047Y-131940476D02*
X139277238Y-131978571D01*
X139277238Y-131978571D02*
X139467714Y-131978571D01*
X139467714Y-131978571D02*
X139543904Y-131940476D01*
X139543904Y-131940476D02*
X139582000Y-131902381D01*
X139582000Y-131902381D02*
X139620095Y-131826190D01*
X139620095Y-131826190D02*
X139620095Y-131597619D01*
X139620095Y-131597619D02*
X139582000Y-131521428D01*
X139582000Y-131521428D02*
X139543904Y-131483333D01*
%TO.C,R12*%
X122564285Y-126870095D02*
X122830952Y-126489142D01*
X123021428Y-126870095D02*
X123021428Y-126070095D01*
X123021428Y-126070095D02*
X122716666Y-126070095D01*
X122716666Y-126070095D02*
X122640476Y-126108190D01*
X122640476Y-126108190D02*
X122602381Y-126146285D01*
X122602381Y-126146285D02*
X122564285Y-126222476D01*
X122564285Y-126222476D02*
X122564285Y-126336761D01*
X122564285Y-126336761D02*
X122602381Y-126412952D01*
X122602381Y-126412952D02*
X122640476Y-126451047D01*
X122640476Y-126451047D02*
X122716666Y-126489142D01*
X122716666Y-126489142D02*
X123021428Y-126489142D01*
X121802381Y-126870095D02*
X122259524Y-126870095D01*
X122030952Y-126870095D02*
X122030952Y-126070095D01*
X122030952Y-126070095D02*
X122107143Y-126184380D01*
X122107143Y-126184380D02*
X122183333Y-126260571D01*
X122183333Y-126260571D02*
X122259524Y-126298666D01*
X121497619Y-126146285D02*
X121459523Y-126108190D01*
X121459523Y-126108190D02*
X121383333Y-126070095D01*
X121383333Y-126070095D02*
X121192857Y-126070095D01*
X121192857Y-126070095D02*
X121116666Y-126108190D01*
X121116666Y-126108190D02*
X121078571Y-126146285D01*
X121078571Y-126146285D02*
X121040476Y-126222476D01*
X121040476Y-126222476D02*
X121040476Y-126298666D01*
X121040476Y-126298666D02*
X121078571Y-126412952D01*
X121078571Y-126412952D02*
X121535714Y-126870095D01*
X121535714Y-126870095D02*
X121040476Y-126870095D01*
%TO.C,C4*%
X136093904Y-131241667D02*
X136132000Y-131203571D01*
X136132000Y-131203571D02*
X136170095Y-131089286D01*
X136170095Y-131089286D02*
X136170095Y-131013095D01*
X136170095Y-131013095D02*
X136132000Y-130898809D01*
X136132000Y-130898809D02*
X136055809Y-130822619D01*
X136055809Y-130822619D02*
X135979619Y-130784524D01*
X135979619Y-130784524D02*
X135827238Y-130746428D01*
X135827238Y-130746428D02*
X135712952Y-130746428D01*
X135712952Y-130746428D02*
X135560571Y-130784524D01*
X135560571Y-130784524D02*
X135484380Y-130822619D01*
X135484380Y-130822619D02*
X135408190Y-130898809D01*
X135408190Y-130898809D02*
X135370095Y-131013095D01*
X135370095Y-131013095D02*
X135370095Y-131089286D01*
X135370095Y-131089286D02*
X135408190Y-131203571D01*
X135408190Y-131203571D02*
X135446285Y-131241667D01*
X135636761Y-131927381D02*
X136170095Y-131927381D01*
X135332000Y-131736905D02*
X135903428Y-131546428D01*
X135903428Y-131546428D02*
X135903428Y-132041667D01*
%TO.C,D2*%
X158695095Y-50884524D02*
X157895095Y-50884524D01*
X157895095Y-50884524D02*
X157895095Y-51075000D01*
X157895095Y-51075000D02*
X157933190Y-51189286D01*
X157933190Y-51189286D02*
X158009380Y-51265476D01*
X158009380Y-51265476D02*
X158085571Y-51303571D01*
X158085571Y-51303571D02*
X158237952Y-51341667D01*
X158237952Y-51341667D02*
X158352238Y-51341667D01*
X158352238Y-51341667D02*
X158504619Y-51303571D01*
X158504619Y-51303571D02*
X158580809Y-51265476D01*
X158580809Y-51265476D02*
X158657000Y-51189286D01*
X158657000Y-51189286D02*
X158695095Y-51075000D01*
X158695095Y-51075000D02*
X158695095Y-50884524D01*
X157971285Y-51646428D02*
X157933190Y-51684524D01*
X157933190Y-51684524D02*
X157895095Y-51760714D01*
X157895095Y-51760714D02*
X157895095Y-51951190D01*
X157895095Y-51951190D02*
X157933190Y-52027381D01*
X157933190Y-52027381D02*
X157971285Y-52065476D01*
X157971285Y-52065476D02*
X158047476Y-52103571D01*
X158047476Y-52103571D02*
X158123666Y-52103571D01*
X158123666Y-52103571D02*
X158237952Y-52065476D01*
X158237952Y-52065476D02*
X158695095Y-51608333D01*
X158695095Y-51608333D02*
X158695095Y-52103571D01*
%TO.C,D1*%
X163415475Y-50570095D02*
X163415475Y-49770095D01*
X163415475Y-49770095D02*
X163224999Y-49770095D01*
X163224999Y-49770095D02*
X163110713Y-49808190D01*
X163110713Y-49808190D02*
X163034523Y-49884380D01*
X163034523Y-49884380D02*
X162996428Y-49960571D01*
X162996428Y-49960571D02*
X162958332Y-50112952D01*
X162958332Y-50112952D02*
X162958332Y-50227238D01*
X162958332Y-50227238D02*
X162996428Y-50379619D01*
X162996428Y-50379619D02*
X163034523Y-50455809D01*
X163034523Y-50455809D02*
X163110713Y-50532000D01*
X163110713Y-50532000D02*
X163224999Y-50570095D01*
X163224999Y-50570095D02*
X163415475Y-50570095D01*
X162196428Y-50570095D02*
X162653571Y-50570095D01*
X162424999Y-50570095D02*
X162424999Y-49770095D01*
X162424999Y-49770095D02*
X162501190Y-49884380D01*
X162501190Y-49884380D02*
X162577380Y-49960571D01*
X162577380Y-49960571D02*
X162653571Y-49998666D01*
%TO.C,R20*%
X163595095Y-64335714D02*
X163214142Y-64069047D01*
X163595095Y-63878571D02*
X162795095Y-63878571D01*
X162795095Y-63878571D02*
X162795095Y-64183333D01*
X162795095Y-64183333D02*
X162833190Y-64259523D01*
X162833190Y-64259523D02*
X162871285Y-64297618D01*
X162871285Y-64297618D02*
X162947476Y-64335714D01*
X162947476Y-64335714D02*
X163061761Y-64335714D01*
X163061761Y-64335714D02*
X163137952Y-64297618D01*
X163137952Y-64297618D02*
X163176047Y-64259523D01*
X163176047Y-64259523D02*
X163214142Y-64183333D01*
X163214142Y-64183333D02*
X163214142Y-63878571D01*
X162871285Y-64640475D02*
X162833190Y-64678571D01*
X162833190Y-64678571D02*
X162795095Y-64754761D01*
X162795095Y-64754761D02*
X162795095Y-64945237D01*
X162795095Y-64945237D02*
X162833190Y-65021428D01*
X162833190Y-65021428D02*
X162871285Y-65059523D01*
X162871285Y-65059523D02*
X162947476Y-65097618D01*
X162947476Y-65097618D02*
X163023666Y-65097618D01*
X163023666Y-65097618D02*
X163137952Y-65059523D01*
X163137952Y-65059523D02*
X163595095Y-64602380D01*
X163595095Y-64602380D02*
X163595095Y-65097618D01*
X162795095Y-65592857D02*
X162795095Y-65669047D01*
X162795095Y-65669047D02*
X162833190Y-65745238D01*
X162833190Y-65745238D02*
X162871285Y-65783333D01*
X162871285Y-65783333D02*
X162947476Y-65821428D01*
X162947476Y-65821428D02*
X163099857Y-65859523D01*
X163099857Y-65859523D02*
X163290333Y-65859523D01*
X163290333Y-65859523D02*
X163442714Y-65821428D01*
X163442714Y-65821428D02*
X163518904Y-65783333D01*
X163518904Y-65783333D02*
X163557000Y-65745238D01*
X163557000Y-65745238D02*
X163595095Y-65669047D01*
X163595095Y-65669047D02*
X163595095Y-65592857D01*
X163595095Y-65592857D02*
X163557000Y-65516666D01*
X163557000Y-65516666D02*
X163518904Y-65478571D01*
X163518904Y-65478571D02*
X163442714Y-65440476D01*
X163442714Y-65440476D02*
X163290333Y-65402380D01*
X163290333Y-65402380D02*
X163099857Y-65402380D01*
X163099857Y-65402380D02*
X162947476Y-65440476D01*
X162947476Y-65440476D02*
X162871285Y-65478571D01*
X162871285Y-65478571D02*
X162833190Y-65516666D01*
X162833190Y-65516666D02*
X162795095Y-65592857D01*
%TO.C,R18*%
X156964285Y-52720095D02*
X157230952Y-52339142D01*
X157421428Y-52720095D02*
X157421428Y-51920095D01*
X157421428Y-51920095D02*
X157116666Y-51920095D01*
X157116666Y-51920095D02*
X157040476Y-51958190D01*
X157040476Y-51958190D02*
X157002381Y-51996285D01*
X157002381Y-51996285D02*
X156964285Y-52072476D01*
X156964285Y-52072476D02*
X156964285Y-52186761D01*
X156964285Y-52186761D02*
X157002381Y-52262952D01*
X157002381Y-52262952D02*
X157040476Y-52301047D01*
X157040476Y-52301047D02*
X157116666Y-52339142D01*
X157116666Y-52339142D02*
X157421428Y-52339142D01*
X156202381Y-52720095D02*
X156659524Y-52720095D01*
X156430952Y-52720095D02*
X156430952Y-51920095D01*
X156430952Y-51920095D02*
X156507143Y-52034380D01*
X156507143Y-52034380D02*
X156583333Y-52110571D01*
X156583333Y-52110571D02*
X156659524Y-52148666D01*
X155745238Y-52262952D02*
X155821428Y-52224857D01*
X155821428Y-52224857D02*
X155859523Y-52186761D01*
X155859523Y-52186761D02*
X155897619Y-52110571D01*
X155897619Y-52110571D02*
X155897619Y-52072476D01*
X155897619Y-52072476D02*
X155859523Y-51996285D01*
X155859523Y-51996285D02*
X155821428Y-51958190D01*
X155821428Y-51958190D02*
X155745238Y-51920095D01*
X155745238Y-51920095D02*
X155592857Y-51920095D01*
X155592857Y-51920095D02*
X155516666Y-51958190D01*
X155516666Y-51958190D02*
X155478571Y-51996285D01*
X155478571Y-51996285D02*
X155440476Y-52072476D01*
X155440476Y-52072476D02*
X155440476Y-52110571D01*
X155440476Y-52110571D02*
X155478571Y-52186761D01*
X155478571Y-52186761D02*
X155516666Y-52224857D01*
X155516666Y-52224857D02*
X155592857Y-52262952D01*
X155592857Y-52262952D02*
X155745238Y-52262952D01*
X155745238Y-52262952D02*
X155821428Y-52301047D01*
X155821428Y-52301047D02*
X155859523Y-52339142D01*
X155859523Y-52339142D02*
X155897619Y-52415333D01*
X155897619Y-52415333D02*
X155897619Y-52567714D01*
X155897619Y-52567714D02*
X155859523Y-52643904D01*
X155859523Y-52643904D02*
X155821428Y-52682000D01*
X155821428Y-52682000D02*
X155745238Y-52720095D01*
X155745238Y-52720095D02*
X155592857Y-52720095D01*
X155592857Y-52720095D02*
X155516666Y-52682000D01*
X155516666Y-52682000D02*
X155478571Y-52643904D01*
X155478571Y-52643904D02*
X155440476Y-52567714D01*
X155440476Y-52567714D02*
X155440476Y-52415333D01*
X155440476Y-52415333D02*
X155478571Y-52339142D01*
X155478571Y-52339142D02*
X155516666Y-52301047D01*
X155516666Y-52301047D02*
X155592857Y-52262952D01*
%TO.C,R5*%
X116820095Y-112166667D02*
X116439142Y-111900000D01*
X116820095Y-111709524D02*
X116020095Y-111709524D01*
X116020095Y-111709524D02*
X116020095Y-112014286D01*
X116020095Y-112014286D02*
X116058190Y-112090476D01*
X116058190Y-112090476D02*
X116096285Y-112128571D01*
X116096285Y-112128571D02*
X116172476Y-112166667D01*
X116172476Y-112166667D02*
X116286761Y-112166667D01*
X116286761Y-112166667D02*
X116362952Y-112128571D01*
X116362952Y-112128571D02*
X116401047Y-112090476D01*
X116401047Y-112090476D02*
X116439142Y-112014286D01*
X116439142Y-112014286D02*
X116439142Y-111709524D01*
X116020095Y-112890476D02*
X116020095Y-112509524D01*
X116020095Y-112509524D02*
X116401047Y-112471428D01*
X116401047Y-112471428D02*
X116362952Y-112509524D01*
X116362952Y-112509524D02*
X116324857Y-112585714D01*
X116324857Y-112585714D02*
X116324857Y-112776190D01*
X116324857Y-112776190D02*
X116362952Y-112852381D01*
X116362952Y-112852381D02*
X116401047Y-112890476D01*
X116401047Y-112890476D02*
X116477238Y-112928571D01*
X116477238Y-112928571D02*
X116667714Y-112928571D01*
X116667714Y-112928571D02*
X116743904Y-112890476D01*
X116743904Y-112890476D02*
X116782000Y-112852381D01*
X116782000Y-112852381D02*
X116820095Y-112776190D01*
X116820095Y-112776190D02*
X116820095Y-112585714D01*
X116820095Y-112585714D02*
X116782000Y-112509524D01*
X116782000Y-112509524D02*
X116743904Y-112471428D01*
D12*
%TO.C,SW8*%
X144658333Y-124131050D02*
X144476904Y-124191526D01*
X144476904Y-124191526D02*
X144174523Y-124191526D01*
X144174523Y-124191526D02*
X144053571Y-124131050D01*
X144053571Y-124131050D02*
X143993095Y-124070573D01*
X143993095Y-124070573D02*
X143932618Y-123949621D01*
X143932618Y-123949621D02*
X143932618Y-123828669D01*
X143932618Y-123828669D02*
X143993095Y-123707716D01*
X143993095Y-123707716D02*
X144053571Y-123647240D01*
X144053571Y-123647240D02*
X144174523Y-123586764D01*
X144174523Y-123586764D02*
X144416428Y-123526288D01*
X144416428Y-123526288D02*
X144537380Y-123465811D01*
X144537380Y-123465811D02*
X144597857Y-123405335D01*
X144597857Y-123405335D02*
X144658333Y-123284383D01*
X144658333Y-123284383D02*
X144658333Y-123163430D01*
X144658333Y-123163430D02*
X144597857Y-123042478D01*
X144597857Y-123042478D02*
X144537380Y-122982002D01*
X144537380Y-122982002D02*
X144416428Y-122921526D01*
X144416428Y-122921526D02*
X144114047Y-122921526D01*
X144114047Y-122921526D02*
X143932618Y-122982002D01*
X143509285Y-122921526D02*
X143206904Y-124191526D01*
X143206904Y-124191526D02*
X142964999Y-123284383D01*
X142964999Y-123284383D02*
X142723094Y-124191526D01*
X142723094Y-124191526D02*
X142420714Y-122921526D01*
X141755475Y-123465811D02*
X141876427Y-123405335D01*
X141876427Y-123405335D02*
X141936904Y-123344859D01*
X141936904Y-123344859D02*
X141997380Y-123223907D01*
X141997380Y-123223907D02*
X141997380Y-123163430D01*
X141997380Y-123163430D02*
X141936904Y-123042478D01*
X141936904Y-123042478D02*
X141876427Y-122982002D01*
X141876427Y-122982002D02*
X141755475Y-122921526D01*
X141755475Y-122921526D02*
X141513570Y-122921526D01*
X141513570Y-122921526D02*
X141392618Y-122982002D01*
X141392618Y-122982002D02*
X141332142Y-123042478D01*
X141332142Y-123042478D02*
X141271665Y-123163430D01*
X141271665Y-123163430D02*
X141271665Y-123223907D01*
X141271665Y-123223907D02*
X141332142Y-123344859D01*
X141332142Y-123344859D02*
X141392618Y-123405335D01*
X141392618Y-123405335D02*
X141513570Y-123465811D01*
X141513570Y-123465811D02*
X141755475Y-123465811D01*
X141755475Y-123465811D02*
X141876427Y-123526288D01*
X141876427Y-123526288D02*
X141936904Y-123586764D01*
X141936904Y-123586764D02*
X141997380Y-123707716D01*
X141997380Y-123707716D02*
X141997380Y-123949621D01*
X141997380Y-123949621D02*
X141936904Y-124070573D01*
X141936904Y-124070573D02*
X141876427Y-124131050D01*
X141876427Y-124131050D02*
X141755475Y-124191526D01*
X141755475Y-124191526D02*
X141513570Y-124191526D01*
X141513570Y-124191526D02*
X141392618Y-124131050D01*
X141392618Y-124131050D02*
X141332142Y-124070573D01*
X141332142Y-124070573D02*
X141271665Y-123949621D01*
X141271665Y-123949621D02*
X141271665Y-123707716D01*
X141271665Y-123707716D02*
X141332142Y-123586764D01*
X141332142Y-123586764D02*
X141392618Y-123526288D01*
X141392618Y-123526288D02*
X141513570Y-123465811D01*
%TO.C,SW7*%
X131180358Y-124081050D02*
X130998929Y-124141526D01*
X130998929Y-124141526D02*
X130696548Y-124141526D01*
X130696548Y-124141526D02*
X130575596Y-124081050D01*
X130575596Y-124081050D02*
X130515120Y-124020573D01*
X130515120Y-124020573D02*
X130454643Y-123899621D01*
X130454643Y-123899621D02*
X130454643Y-123778669D01*
X130454643Y-123778669D02*
X130515120Y-123657716D01*
X130515120Y-123657716D02*
X130575596Y-123597240D01*
X130575596Y-123597240D02*
X130696548Y-123536764D01*
X130696548Y-123536764D02*
X130938453Y-123476288D01*
X130938453Y-123476288D02*
X131059405Y-123415811D01*
X131059405Y-123415811D02*
X131119882Y-123355335D01*
X131119882Y-123355335D02*
X131180358Y-123234383D01*
X131180358Y-123234383D02*
X131180358Y-123113430D01*
X131180358Y-123113430D02*
X131119882Y-122992478D01*
X131119882Y-122992478D02*
X131059405Y-122932002D01*
X131059405Y-122932002D02*
X130938453Y-122871526D01*
X130938453Y-122871526D02*
X130636072Y-122871526D01*
X130636072Y-122871526D02*
X130454643Y-122932002D01*
X130031310Y-122871526D02*
X129728929Y-124141526D01*
X129728929Y-124141526D02*
X129487024Y-123234383D01*
X129487024Y-123234383D02*
X129245119Y-124141526D01*
X129245119Y-124141526D02*
X128942739Y-122871526D01*
X128579881Y-122871526D02*
X127733214Y-122871526D01*
X127733214Y-122871526D02*
X128277500Y-124141526D01*
D10*
%TO.C,Q2*%
X157676190Y-79046285D02*
X157752380Y-79008190D01*
X157752380Y-79008190D02*
X157828571Y-78932000D01*
X157828571Y-78932000D02*
X157942857Y-78817714D01*
X157942857Y-78817714D02*
X158019047Y-78779619D01*
X158019047Y-78779619D02*
X158095238Y-78779619D01*
X158057142Y-78970095D02*
X158133333Y-78932000D01*
X158133333Y-78932000D02*
X158209523Y-78855809D01*
X158209523Y-78855809D02*
X158247619Y-78703428D01*
X158247619Y-78703428D02*
X158247619Y-78436761D01*
X158247619Y-78436761D02*
X158209523Y-78284380D01*
X158209523Y-78284380D02*
X158133333Y-78208190D01*
X158133333Y-78208190D02*
X158057142Y-78170095D01*
X158057142Y-78170095D02*
X157904761Y-78170095D01*
X157904761Y-78170095D02*
X157828571Y-78208190D01*
X157828571Y-78208190D02*
X157752380Y-78284380D01*
X157752380Y-78284380D02*
X157714285Y-78436761D01*
X157714285Y-78436761D02*
X157714285Y-78703428D01*
X157714285Y-78703428D02*
X157752380Y-78855809D01*
X157752380Y-78855809D02*
X157828571Y-78932000D01*
X157828571Y-78932000D02*
X157904761Y-78970095D01*
X157904761Y-78970095D02*
X158057142Y-78970095D01*
X157409524Y-78246285D02*
X157371428Y-78208190D01*
X157371428Y-78208190D02*
X157295238Y-78170095D01*
X157295238Y-78170095D02*
X157104762Y-78170095D01*
X157104762Y-78170095D02*
X157028571Y-78208190D01*
X157028571Y-78208190D02*
X156990476Y-78246285D01*
X156990476Y-78246285D02*
X156952381Y-78322476D01*
X156952381Y-78322476D02*
X156952381Y-78398666D01*
X156952381Y-78398666D02*
X156990476Y-78512952D01*
X156990476Y-78512952D02*
X157447619Y-78970095D01*
X157447619Y-78970095D02*
X156952381Y-78970095D01*
%TO.C,C29*%
X159214285Y-84968904D02*
X159252381Y-85007000D01*
X159252381Y-85007000D02*
X159366666Y-85045095D01*
X159366666Y-85045095D02*
X159442857Y-85045095D01*
X159442857Y-85045095D02*
X159557143Y-85007000D01*
X159557143Y-85007000D02*
X159633333Y-84930809D01*
X159633333Y-84930809D02*
X159671428Y-84854619D01*
X159671428Y-84854619D02*
X159709524Y-84702238D01*
X159709524Y-84702238D02*
X159709524Y-84587952D01*
X159709524Y-84587952D02*
X159671428Y-84435571D01*
X159671428Y-84435571D02*
X159633333Y-84359380D01*
X159633333Y-84359380D02*
X159557143Y-84283190D01*
X159557143Y-84283190D02*
X159442857Y-84245095D01*
X159442857Y-84245095D02*
X159366666Y-84245095D01*
X159366666Y-84245095D02*
X159252381Y-84283190D01*
X159252381Y-84283190D02*
X159214285Y-84321285D01*
X158909524Y-84321285D02*
X158871428Y-84283190D01*
X158871428Y-84283190D02*
X158795238Y-84245095D01*
X158795238Y-84245095D02*
X158604762Y-84245095D01*
X158604762Y-84245095D02*
X158528571Y-84283190D01*
X158528571Y-84283190D02*
X158490476Y-84321285D01*
X158490476Y-84321285D02*
X158452381Y-84397476D01*
X158452381Y-84397476D02*
X158452381Y-84473666D01*
X158452381Y-84473666D02*
X158490476Y-84587952D01*
X158490476Y-84587952D02*
X158947619Y-85045095D01*
X158947619Y-85045095D02*
X158452381Y-85045095D01*
X158071428Y-85045095D02*
X157919047Y-85045095D01*
X157919047Y-85045095D02*
X157842857Y-85007000D01*
X157842857Y-85007000D02*
X157804761Y-84968904D01*
X157804761Y-84968904D02*
X157728571Y-84854619D01*
X157728571Y-84854619D02*
X157690476Y-84702238D01*
X157690476Y-84702238D02*
X157690476Y-84397476D01*
X157690476Y-84397476D02*
X157728571Y-84321285D01*
X157728571Y-84321285D02*
X157766666Y-84283190D01*
X157766666Y-84283190D02*
X157842857Y-84245095D01*
X157842857Y-84245095D02*
X157995238Y-84245095D01*
X157995238Y-84245095D02*
X158071428Y-84283190D01*
X158071428Y-84283190D02*
X158109523Y-84321285D01*
X158109523Y-84321285D02*
X158147619Y-84397476D01*
X158147619Y-84397476D02*
X158147619Y-84587952D01*
X158147619Y-84587952D02*
X158109523Y-84664142D01*
X158109523Y-84664142D02*
X158071428Y-84702238D01*
X158071428Y-84702238D02*
X157995238Y-84740333D01*
X157995238Y-84740333D02*
X157842857Y-84740333D01*
X157842857Y-84740333D02*
X157766666Y-84702238D01*
X157766666Y-84702238D02*
X157728571Y-84664142D01*
X157728571Y-84664142D02*
X157690476Y-84587952D01*
D12*
%TO.C,SW5*%
X117858333Y-98131050D02*
X117676904Y-98191526D01*
X117676904Y-98191526D02*
X117374523Y-98191526D01*
X117374523Y-98191526D02*
X117253571Y-98131050D01*
X117253571Y-98131050D02*
X117193095Y-98070573D01*
X117193095Y-98070573D02*
X117132618Y-97949621D01*
X117132618Y-97949621D02*
X117132618Y-97828669D01*
X117132618Y-97828669D02*
X117193095Y-97707716D01*
X117193095Y-97707716D02*
X117253571Y-97647240D01*
X117253571Y-97647240D02*
X117374523Y-97586764D01*
X117374523Y-97586764D02*
X117616428Y-97526288D01*
X117616428Y-97526288D02*
X117737380Y-97465811D01*
X117737380Y-97465811D02*
X117797857Y-97405335D01*
X117797857Y-97405335D02*
X117858333Y-97284383D01*
X117858333Y-97284383D02*
X117858333Y-97163430D01*
X117858333Y-97163430D02*
X117797857Y-97042478D01*
X117797857Y-97042478D02*
X117737380Y-96982002D01*
X117737380Y-96982002D02*
X117616428Y-96921526D01*
X117616428Y-96921526D02*
X117314047Y-96921526D01*
X117314047Y-96921526D02*
X117132618Y-96982002D01*
X116709285Y-96921526D02*
X116406904Y-98191526D01*
X116406904Y-98191526D02*
X116164999Y-97284383D01*
X116164999Y-97284383D02*
X115923094Y-98191526D01*
X115923094Y-98191526D02*
X115620714Y-96921526D01*
X114532142Y-96921526D02*
X115136904Y-96921526D01*
X115136904Y-96921526D02*
X115197380Y-97526288D01*
X115197380Y-97526288D02*
X115136904Y-97465811D01*
X115136904Y-97465811D02*
X115015951Y-97405335D01*
X115015951Y-97405335D02*
X114713570Y-97405335D01*
X114713570Y-97405335D02*
X114592618Y-97465811D01*
X114592618Y-97465811D02*
X114532142Y-97526288D01*
X114532142Y-97526288D02*
X114471665Y-97647240D01*
X114471665Y-97647240D02*
X114471665Y-97949621D01*
X114471665Y-97949621D02*
X114532142Y-98070573D01*
X114532142Y-98070573D02*
X114592618Y-98131050D01*
X114592618Y-98131050D02*
X114713570Y-98191526D01*
X114713570Y-98191526D02*
X115015951Y-98191526D01*
X115015951Y-98191526D02*
X115136904Y-98131050D01*
X115136904Y-98131050D02*
X115197380Y-98070573D01*
D11*
%TO.C,C9*%
X135133690Y-114916666D02*
X135157500Y-114892857D01*
X135157500Y-114892857D02*
X135181309Y-114821428D01*
X135181309Y-114821428D02*
X135181309Y-114773809D01*
X135181309Y-114773809D02*
X135157500Y-114702381D01*
X135157500Y-114702381D02*
X135109880Y-114654762D01*
X135109880Y-114654762D02*
X135062261Y-114630952D01*
X135062261Y-114630952D02*
X134967023Y-114607143D01*
X134967023Y-114607143D02*
X134895595Y-114607143D01*
X134895595Y-114607143D02*
X134800357Y-114630952D01*
X134800357Y-114630952D02*
X134752738Y-114654762D01*
X134752738Y-114654762D02*
X134705119Y-114702381D01*
X134705119Y-114702381D02*
X134681309Y-114773809D01*
X134681309Y-114773809D02*
X134681309Y-114821428D01*
X134681309Y-114821428D02*
X134705119Y-114892857D01*
X134705119Y-114892857D02*
X134728928Y-114916666D01*
X135181309Y-115154762D02*
X135181309Y-115250000D01*
X135181309Y-115250000D02*
X135157500Y-115297619D01*
X135157500Y-115297619D02*
X135133690Y-115321428D01*
X135133690Y-115321428D02*
X135062261Y-115369047D01*
X135062261Y-115369047D02*
X134967023Y-115392857D01*
X134967023Y-115392857D02*
X134776547Y-115392857D01*
X134776547Y-115392857D02*
X134728928Y-115369047D01*
X134728928Y-115369047D02*
X134705119Y-115345238D01*
X134705119Y-115345238D02*
X134681309Y-115297619D01*
X134681309Y-115297619D02*
X134681309Y-115202381D01*
X134681309Y-115202381D02*
X134705119Y-115154762D01*
X134705119Y-115154762D02*
X134728928Y-115130952D01*
X134728928Y-115130952D02*
X134776547Y-115107143D01*
X134776547Y-115107143D02*
X134895595Y-115107143D01*
X134895595Y-115107143D02*
X134943214Y-115130952D01*
X134943214Y-115130952D02*
X134967023Y-115154762D01*
X134967023Y-115154762D02*
X134990833Y-115202381D01*
X134990833Y-115202381D02*
X134990833Y-115297619D01*
X134990833Y-115297619D02*
X134967023Y-115345238D01*
X134967023Y-115345238D02*
X134943214Y-115369047D01*
X134943214Y-115369047D02*
X134895595Y-115392857D01*
D10*
%TO.C,R17*%
X156964285Y-50545095D02*
X157230952Y-50164142D01*
X157421428Y-50545095D02*
X157421428Y-49745095D01*
X157421428Y-49745095D02*
X157116666Y-49745095D01*
X157116666Y-49745095D02*
X157040476Y-49783190D01*
X157040476Y-49783190D02*
X157002381Y-49821285D01*
X157002381Y-49821285D02*
X156964285Y-49897476D01*
X156964285Y-49897476D02*
X156964285Y-50011761D01*
X156964285Y-50011761D02*
X157002381Y-50087952D01*
X157002381Y-50087952D02*
X157040476Y-50126047D01*
X157040476Y-50126047D02*
X157116666Y-50164142D01*
X157116666Y-50164142D02*
X157421428Y-50164142D01*
X156202381Y-50545095D02*
X156659524Y-50545095D01*
X156430952Y-50545095D02*
X156430952Y-49745095D01*
X156430952Y-49745095D02*
X156507143Y-49859380D01*
X156507143Y-49859380D02*
X156583333Y-49935571D01*
X156583333Y-49935571D02*
X156659524Y-49973666D01*
X155935714Y-49745095D02*
X155402380Y-49745095D01*
X155402380Y-49745095D02*
X155745238Y-50545095D01*
D12*
%TO.C,SW2*%
X151263752Y-111002607D02*
X151092700Y-110917080D01*
X151092700Y-110917080D02*
X150878884Y-110703265D01*
X150878884Y-110703265D02*
X150836121Y-110574975D01*
X150836121Y-110574975D02*
X150836121Y-110489449D01*
X150836121Y-110489449D02*
X150878884Y-110361160D01*
X150878884Y-110361160D02*
X150964410Y-110275633D01*
X150964410Y-110275633D02*
X151092700Y-110232870D01*
X151092700Y-110232870D02*
X151178226Y-110232870D01*
X151178226Y-110232870D02*
X151306515Y-110275633D01*
X151306515Y-110275633D02*
X151520331Y-110403923D01*
X151520331Y-110403923D02*
X151648620Y-110446686D01*
X151648620Y-110446686D02*
X151734147Y-110446686D01*
X151734147Y-110446686D02*
X151862436Y-110403923D01*
X151862436Y-110403923D02*
X151947962Y-110318397D01*
X151947962Y-110318397D02*
X151990725Y-110190107D01*
X151990725Y-110190107D02*
X151990725Y-110104581D01*
X151990725Y-110104581D02*
X151947962Y-109976292D01*
X151947962Y-109976292D02*
X151734147Y-109762476D01*
X151734147Y-109762476D02*
X151563094Y-109676950D01*
X151306515Y-109334845D02*
X150194674Y-110019055D01*
X150194674Y-110019055D02*
X150665068Y-109206555D01*
X150665068Y-109206555D02*
X149852569Y-109676950D01*
X149852569Y-109676950D02*
X150536779Y-108565108D01*
X150151911Y-108351292D02*
X150151911Y-108265766D01*
X150151911Y-108265766D02*
X150109147Y-108137477D01*
X150109147Y-108137477D02*
X149895332Y-107923661D01*
X149895332Y-107923661D02*
X149767042Y-107880898D01*
X149767042Y-107880898D02*
X149681516Y-107880898D01*
X149681516Y-107880898D02*
X149553227Y-107923661D01*
X149553227Y-107923661D02*
X149467701Y-108009187D01*
X149467701Y-108009187D02*
X149382174Y-108180240D01*
X149382174Y-108180240D02*
X149382174Y-109206555D01*
X149382174Y-109206555D02*
X148826254Y-108650634D01*
D10*
%TO.C,IC2*%
X161255951Y-79045095D02*
X161255951Y-78245095D01*
X160417856Y-78968904D02*
X160455952Y-79007000D01*
X160455952Y-79007000D02*
X160570237Y-79045095D01*
X160570237Y-79045095D02*
X160646428Y-79045095D01*
X160646428Y-79045095D02*
X160760714Y-79007000D01*
X160760714Y-79007000D02*
X160836904Y-78930809D01*
X160836904Y-78930809D02*
X160874999Y-78854619D01*
X160874999Y-78854619D02*
X160913095Y-78702238D01*
X160913095Y-78702238D02*
X160913095Y-78587952D01*
X160913095Y-78587952D02*
X160874999Y-78435571D01*
X160874999Y-78435571D02*
X160836904Y-78359380D01*
X160836904Y-78359380D02*
X160760714Y-78283190D01*
X160760714Y-78283190D02*
X160646428Y-78245095D01*
X160646428Y-78245095D02*
X160570237Y-78245095D01*
X160570237Y-78245095D02*
X160455952Y-78283190D01*
X160455952Y-78283190D02*
X160417856Y-78321285D01*
X160113095Y-78321285D02*
X160074999Y-78283190D01*
X160074999Y-78283190D02*
X159998809Y-78245095D01*
X159998809Y-78245095D02*
X159808333Y-78245095D01*
X159808333Y-78245095D02*
X159732142Y-78283190D01*
X159732142Y-78283190D02*
X159694047Y-78321285D01*
X159694047Y-78321285D02*
X159655952Y-78397476D01*
X159655952Y-78397476D02*
X159655952Y-78473666D01*
X159655952Y-78473666D02*
X159694047Y-78587952D01*
X159694047Y-78587952D02*
X160151190Y-79045095D01*
X160151190Y-79045095D02*
X159655952Y-79045095D01*
%TO.C,R16*%
X149045095Y-119460714D02*
X148664142Y-119194047D01*
X149045095Y-119003571D02*
X148245095Y-119003571D01*
X148245095Y-119003571D02*
X148245095Y-119308333D01*
X148245095Y-119308333D02*
X148283190Y-119384523D01*
X148283190Y-119384523D02*
X148321285Y-119422618D01*
X148321285Y-119422618D02*
X148397476Y-119460714D01*
X148397476Y-119460714D02*
X148511761Y-119460714D01*
X148511761Y-119460714D02*
X148587952Y-119422618D01*
X148587952Y-119422618D02*
X148626047Y-119384523D01*
X148626047Y-119384523D02*
X148664142Y-119308333D01*
X148664142Y-119308333D02*
X148664142Y-119003571D01*
X149045095Y-120222618D02*
X149045095Y-119765475D01*
X149045095Y-119994047D02*
X148245095Y-119994047D01*
X148245095Y-119994047D02*
X148359380Y-119917856D01*
X148359380Y-119917856D02*
X148435571Y-119841666D01*
X148435571Y-119841666D02*
X148473666Y-119765475D01*
X148245095Y-120908333D02*
X148245095Y-120755952D01*
X148245095Y-120755952D02*
X148283190Y-120679761D01*
X148283190Y-120679761D02*
X148321285Y-120641666D01*
X148321285Y-120641666D02*
X148435571Y-120565476D01*
X148435571Y-120565476D02*
X148587952Y-120527380D01*
X148587952Y-120527380D02*
X148892714Y-120527380D01*
X148892714Y-120527380D02*
X148968904Y-120565476D01*
X148968904Y-120565476D02*
X149007000Y-120603571D01*
X149007000Y-120603571D02*
X149045095Y-120679761D01*
X149045095Y-120679761D02*
X149045095Y-120832142D01*
X149045095Y-120832142D02*
X149007000Y-120908333D01*
X149007000Y-120908333D02*
X148968904Y-120946428D01*
X148968904Y-120946428D02*
X148892714Y-120984523D01*
X148892714Y-120984523D02*
X148702238Y-120984523D01*
X148702238Y-120984523D02*
X148626047Y-120946428D01*
X148626047Y-120946428D02*
X148587952Y-120908333D01*
X148587952Y-120908333D02*
X148549857Y-120832142D01*
X148549857Y-120832142D02*
X148549857Y-120679761D01*
X148549857Y-120679761D02*
X148587952Y-120603571D01*
X148587952Y-120603571D02*
X148626047Y-120565476D01*
X148626047Y-120565476D02*
X148702238Y-120527380D01*
D12*
%TO.C,SW3*%
X151263752Y-97202607D02*
X151092700Y-97117080D01*
X151092700Y-97117080D02*
X150878884Y-96903265D01*
X150878884Y-96903265D02*
X150836121Y-96774975D01*
X150836121Y-96774975D02*
X150836121Y-96689449D01*
X150836121Y-96689449D02*
X150878884Y-96561160D01*
X150878884Y-96561160D02*
X150964410Y-96475633D01*
X150964410Y-96475633D02*
X151092700Y-96432870D01*
X151092700Y-96432870D02*
X151178226Y-96432870D01*
X151178226Y-96432870D02*
X151306515Y-96475633D01*
X151306515Y-96475633D02*
X151520331Y-96603923D01*
X151520331Y-96603923D02*
X151648620Y-96646686D01*
X151648620Y-96646686D02*
X151734147Y-96646686D01*
X151734147Y-96646686D02*
X151862436Y-96603923D01*
X151862436Y-96603923D02*
X151947962Y-96518397D01*
X151947962Y-96518397D02*
X151990725Y-96390107D01*
X151990725Y-96390107D02*
X151990725Y-96304581D01*
X151990725Y-96304581D02*
X151947962Y-96176292D01*
X151947962Y-96176292D02*
X151734147Y-95962476D01*
X151734147Y-95962476D02*
X151563094Y-95876950D01*
X151306515Y-95534845D02*
X150194674Y-96219055D01*
X150194674Y-96219055D02*
X150665068Y-95406555D01*
X150665068Y-95406555D02*
X149852569Y-95876950D01*
X149852569Y-95876950D02*
X150536779Y-94765108D01*
X150280200Y-94508529D02*
X149724279Y-93952609D01*
X149724279Y-93952609D02*
X149681516Y-94594056D01*
X149681516Y-94594056D02*
X149553227Y-94465766D01*
X149553227Y-94465766D02*
X149424938Y-94423003D01*
X149424938Y-94423003D02*
X149339411Y-94423003D01*
X149339411Y-94423003D02*
X149211122Y-94465766D01*
X149211122Y-94465766D02*
X148997306Y-94679582D01*
X148997306Y-94679582D02*
X148954543Y-94807871D01*
X148954543Y-94807871D02*
X148954543Y-94893397D01*
X148954543Y-94893397D02*
X148997306Y-95021687D01*
X148997306Y-95021687D02*
X149253885Y-95278266D01*
X149253885Y-95278266D02*
X149382174Y-95321029D01*
X149382174Y-95321029D02*
X149467701Y-95321029D01*
D10*
%TO.C,C2*%
X134368904Y-127766667D02*
X134407000Y-127728571D01*
X134407000Y-127728571D02*
X134445095Y-127614286D01*
X134445095Y-127614286D02*
X134445095Y-127538095D01*
X134445095Y-127538095D02*
X134407000Y-127423809D01*
X134407000Y-127423809D02*
X134330809Y-127347619D01*
X134330809Y-127347619D02*
X134254619Y-127309524D01*
X134254619Y-127309524D02*
X134102238Y-127271428D01*
X134102238Y-127271428D02*
X133987952Y-127271428D01*
X133987952Y-127271428D02*
X133835571Y-127309524D01*
X133835571Y-127309524D02*
X133759380Y-127347619D01*
X133759380Y-127347619D02*
X133683190Y-127423809D01*
X133683190Y-127423809D02*
X133645095Y-127538095D01*
X133645095Y-127538095D02*
X133645095Y-127614286D01*
X133645095Y-127614286D02*
X133683190Y-127728571D01*
X133683190Y-127728571D02*
X133721285Y-127766667D01*
X133721285Y-128071428D02*
X133683190Y-128109524D01*
X133683190Y-128109524D02*
X133645095Y-128185714D01*
X133645095Y-128185714D02*
X133645095Y-128376190D01*
X133645095Y-128376190D02*
X133683190Y-128452381D01*
X133683190Y-128452381D02*
X133721285Y-128490476D01*
X133721285Y-128490476D02*
X133797476Y-128528571D01*
X133797476Y-128528571D02*
X133873666Y-128528571D01*
X133873666Y-128528571D02*
X133987952Y-128490476D01*
X133987952Y-128490476D02*
X134445095Y-128033333D01*
X134445095Y-128033333D02*
X134445095Y-128528571D01*
D12*
%TO.C,SW1*%
X144363752Y-104102607D02*
X144192700Y-104017080D01*
X144192700Y-104017080D02*
X143978884Y-103803265D01*
X143978884Y-103803265D02*
X143936121Y-103674975D01*
X143936121Y-103674975D02*
X143936121Y-103589449D01*
X143936121Y-103589449D02*
X143978884Y-103461160D01*
X143978884Y-103461160D02*
X144064410Y-103375633D01*
X144064410Y-103375633D02*
X144192700Y-103332870D01*
X144192700Y-103332870D02*
X144278226Y-103332870D01*
X144278226Y-103332870D02*
X144406515Y-103375633D01*
X144406515Y-103375633D02*
X144620331Y-103503923D01*
X144620331Y-103503923D02*
X144748620Y-103546686D01*
X144748620Y-103546686D02*
X144834147Y-103546686D01*
X144834147Y-103546686D02*
X144962436Y-103503923D01*
X144962436Y-103503923D02*
X145047962Y-103418397D01*
X145047962Y-103418397D02*
X145090725Y-103290107D01*
X145090725Y-103290107D02*
X145090725Y-103204581D01*
X145090725Y-103204581D02*
X145047962Y-103076292D01*
X145047962Y-103076292D02*
X144834147Y-102862476D01*
X144834147Y-102862476D02*
X144663094Y-102776950D01*
X144406515Y-102434845D02*
X143294674Y-103119055D01*
X143294674Y-103119055D02*
X143765068Y-102306555D01*
X143765068Y-102306555D02*
X142952569Y-102776950D01*
X142952569Y-102776950D02*
X143636779Y-101665108D01*
X141926254Y-101750634D02*
X142439411Y-102263792D01*
X142182833Y-102007213D02*
X143080858Y-101109187D01*
X143080858Y-101109187D02*
X143038095Y-101323003D01*
X143038095Y-101323003D02*
X143038095Y-101494056D01*
X143038095Y-101494056D02*
X143080858Y-101622345D01*
D10*
%TO.C,R9*%
X160033332Y-49145095D02*
X160299999Y-48764142D01*
X160490475Y-49145095D02*
X160490475Y-48345095D01*
X160490475Y-48345095D02*
X160185713Y-48345095D01*
X160185713Y-48345095D02*
X160109523Y-48383190D01*
X160109523Y-48383190D02*
X160071428Y-48421285D01*
X160071428Y-48421285D02*
X160033332Y-48497476D01*
X160033332Y-48497476D02*
X160033332Y-48611761D01*
X160033332Y-48611761D02*
X160071428Y-48687952D01*
X160071428Y-48687952D02*
X160109523Y-48726047D01*
X160109523Y-48726047D02*
X160185713Y-48764142D01*
X160185713Y-48764142D02*
X160490475Y-48764142D01*
X159652380Y-49145095D02*
X159499999Y-49145095D01*
X159499999Y-49145095D02*
X159423809Y-49107000D01*
X159423809Y-49107000D02*
X159385713Y-49068904D01*
X159385713Y-49068904D02*
X159309523Y-48954619D01*
X159309523Y-48954619D02*
X159271428Y-48802238D01*
X159271428Y-48802238D02*
X159271428Y-48497476D01*
X159271428Y-48497476D02*
X159309523Y-48421285D01*
X159309523Y-48421285D02*
X159347618Y-48383190D01*
X159347618Y-48383190D02*
X159423809Y-48345095D01*
X159423809Y-48345095D02*
X159576190Y-48345095D01*
X159576190Y-48345095D02*
X159652380Y-48383190D01*
X159652380Y-48383190D02*
X159690475Y-48421285D01*
X159690475Y-48421285D02*
X159728571Y-48497476D01*
X159728571Y-48497476D02*
X159728571Y-48687952D01*
X159728571Y-48687952D02*
X159690475Y-48764142D01*
X159690475Y-48764142D02*
X159652380Y-48802238D01*
X159652380Y-48802238D02*
X159576190Y-48840333D01*
X159576190Y-48840333D02*
X159423809Y-48840333D01*
X159423809Y-48840333D02*
X159347618Y-48802238D01*
X159347618Y-48802238D02*
X159309523Y-48764142D01*
X159309523Y-48764142D02*
X159271428Y-48687952D01*
%TO.C,J3*%
X162470095Y-67733333D02*
X163041523Y-67733333D01*
X163041523Y-67733333D02*
X163155809Y-67695238D01*
X163155809Y-67695238D02*
X163232000Y-67619047D01*
X163232000Y-67619047D02*
X163270095Y-67504762D01*
X163270095Y-67504762D02*
X163270095Y-67428571D01*
X162470095Y-68038095D02*
X162470095Y-68533333D01*
X162470095Y-68533333D02*
X162774857Y-68266667D01*
X162774857Y-68266667D02*
X162774857Y-68380952D01*
X162774857Y-68380952D02*
X162812952Y-68457143D01*
X162812952Y-68457143D02*
X162851047Y-68495238D01*
X162851047Y-68495238D02*
X162927238Y-68533333D01*
X162927238Y-68533333D02*
X163117714Y-68533333D01*
X163117714Y-68533333D02*
X163193904Y-68495238D01*
X163193904Y-68495238D02*
X163232000Y-68457143D01*
X163232000Y-68457143D02*
X163270095Y-68380952D01*
X163270095Y-68380952D02*
X163270095Y-68152381D01*
X163270095Y-68152381D02*
X163232000Y-68076190D01*
X163232000Y-68076190D02*
X163193904Y-68038095D01*
%TO.C,IC1*%
X117955951Y-131595095D02*
X117955951Y-130795095D01*
X117117856Y-131518904D02*
X117155952Y-131557000D01*
X117155952Y-131557000D02*
X117270237Y-131595095D01*
X117270237Y-131595095D02*
X117346428Y-131595095D01*
X117346428Y-131595095D02*
X117460714Y-131557000D01*
X117460714Y-131557000D02*
X117536904Y-131480809D01*
X117536904Y-131480809D02*
X117574999Y-131404619D01*
X117574999Y-131404619D02*
X117613095Y-131252238D01*
X117613095Y-131252238D02*
X117613095Y-131137952D01*
X117613095Y-131137952D02*
X117574999Y-130985571D01*
X117574999Y-130985571D02*
X117536904Y-130909380D01*
X117536904Y-130909380D02*
X117460714Y-130833190D01*
X117460714Y-130833190D02*
X117346428Y-130795095D01*
X117346428Y-130795095D02*
X117270237Y-130795095D01*
X117270237Y-130795095D02*
X117155952Y-130833190D01*
X117155952Y-130833190D02*
X117117856Y-130871285D01*
X116355952Y-131595095D02*
X116813095Y-131595095D01*
X116584523Y-131595095D02*
X116584523Y-130795095D01*
X116584523Y-130795095D02*
X116660714Y-130909380D01*
X116660714Y-130909380D02*
X116736904Y-130985571D01*
X116736904Y-130985571D02*
X116813095Y-131023666D01*
D13*
%TO.C,C12*%
X162777836Y-78185000D02*
X162562164Y-78185000D01*
X162777836Y-77465000D02*
X162562164Y-77465000D01*
D12*
%TO.C,SW6*%
X129450000Y-111050000D02*
X121950000Y-111050000D01*
X129450000Y-104050000D02*
X129450000Y-111050000D01*
X121950000Y-111050000D02*
X121950000Y-104050000D01*
X121950000Y-104050000D02*
X129450000Y-104050000D01*
X130094050Y-105026000D02*
G75*
G03*
X130094050Y-105026000I-73050J0D01*
G01*
D13*
%TO.C,C27*%
X155690000Y-54967836D02*
X155690000Y-54752164D01*
X156410000Y-54967836D02*
X156410000Y-54752164D01*
%TO.C,TP3*%
X119400000Y-123475000D02*
G75*
G03*
X119400000Y-123475000I-700000J0D01*
G01*
%TO.C,C26*%
X155690000Y-56977836D02*
X155690000Y-56762164D01*
X156410000Y-56977836D02*
X156410000Y-56762164D01*
%TO.C,TP4*%
X113500000Y-108600000D02*
G75*
G03*
X113500000Y-108600000I-700000J0D01*
G01*
%TO.C,C16*%
X120265000Y-130352836D02*
X120265000Y-130137164D01*
X120985000Y-130352836D02*
X120985000Y-130137164D01*
%TO.C,D3*%
X158952500Y-52415000D02*
X161237500Y-52415000D01*
X158952500Y-53885000D02*
X158952500Y-52415000D01*
X161237500Y-53885000D02*
X158952500Y-53885000D01*
D11*
%TO.C,VR1*%
X152673000Y-118773000D02*
X152673000Y-118773000D01*
X152573000Y-118773000D02*
X152573000Y-118773000D01*
X152573000Y-118773000D02*
G75*
G03*
X152673000Y-118773000I50000J0D01*
G01*
X152673000Y-118773000D02*
G75*
G03*
X152573000Y-118773000I-50000J0D01*
G01*
D13*
%TO.C,R22*%
X117978641Y-126730000D02*
X117671359Y-126730000D01*
X117978641Y-125970000D02*
X117671359Y-125970000D01*
%TO.C,C30*%
X158662164Y-58240000D02*
X158877836Y-58240000D01*
X158662164Y-58960000D02*
X158877836Y-58960000D01*
%TO.C,TP2*%
X121925000Y-124600000D02*
G75*
G03*
X121925000Y-124600000I-700000J0D01*
G01*
%TO.C,R2*%
X136136359Y-125970000D02*
X136443641Y-125970000D01*
X136136359Y-126730000D02*
X136443641Y-126730000D01*
D14*
%TO.C,U9*%
X160460000Y-54500000D02*
X159260000Y-54500000D01*
X158910000Y-57450000D02*
X158910000Y-54550000D01*
X158910000Y-54550000D02*
X158310000Y-54550000D01*
X158310000Y-57450000D02*
X158910000Y-57450000D01*
X158310000Y-54550000D02*
X158310000Y-57450000D01*
D13*
%TO.C,RN1*%
X149700000Y-128330000D02*
X148900000Y-128330000D01*
X149700000Y-131770000D02*
X148900000Y-131770000D01*
D12*
%TO.C,SW4*%
X157417555Y-97596247D02*
X162720856Y-102899548D01*
X152467808Y-102545994D02*
X157417555Y-97596247D01*
X162720856Y-102899548D02*
X157771109Y-107849295D01*
X157771109Y-107849295D02*
X152467808Y-102545994D01*
X152827236Y-101452100D02*
G75*
G03*
X152827236Y-101452100I-73050J0D01*
G01*
D13*
%TO.C,C28*%
X161377836Y-58960000D02*
X161162164Y-58960000D01*
X161377836Y-58240000D02*
X161162164Y-58240000D01*
%TO.C,C10*%
X153477836Y-116360000D02*
X153262164Y-116360000D01*
X153477836Y-115640000D02*
X153262164Y-115640000D01*
%TO.C,R19*%
X161983641Y-56280000D02*
X161676359Y-56280000D01*
X161983641Y-55520000D02*
X161676359Y-55520000D01*
%TO.C,C6*%
X143777836Y-131710000D02*
X143562164Y-131710000D01*
X143777836Y-130990000D02*
X143562164Y-130990000D01*
%TO.C,R15*%
X158468641Y-112705000D02*
X158161359Y-112705000D01*
X158468641Y-111945000D02*
X158161359Y-111945000D01*
%TO.C,R21*%
X161993641Y-55080000D02*
X161686359Y-55080000D01*
X161993641Y-54320000D02*
X161686359Y-54320000D01*
%TO.C,TP1*%
X115725000Y-123025000D02*
G75*
G03*
X115725000Y-123025000I-700000J0D01*
G01*
%TO.C,C3*%
X140827836Y-131710000D02*
X140612164Y-131710000D01*
X140827836Y-130990000D02*
X140612164Y-130990000D01*
%TO.C,R12*%
X120103641Y-126730000D02*
X119796359Y-126730000D01*
X120103641Y-125970000D02*
X119796359Y-125970000D01*
%TO.C,C4*%
X137427836Y-131710000D02*
X137212164Y-131710000D01*
X137427836Y-130990000D02*
X137212164Y-130990000D01*
%TO.C,D2*%
X161922500Y-52185000D02*
X159637500Y-52185000D01*
X161922500Y-50715000D02*
X161922500Y-52185000D01*
X159637500Y-50715000D02*
X161922500Y-50715000D01*
%TO.C,D1*%
X162115000Y-53685000D02*
X162115000Y-51400000D01*
X163585000Y-53685000D02*
X162115000Y-53685000D01*
X163585000Y-51400000D02*
X163585000Y-53685000D01*
%TO.C,R20*%
X161993641Y-57430000D02*
X161686359Y-57430000D01*
X161993641Y-56670000D02*
X161686359Y-56670000D01*
%TO.C,R18*%
X156678641Y-53730000D02*
X156371359Y-53730000D01*
X156678641Y-52970000D02*
X156371359Y-52970000D01*
%TO.C,R5*%
X115655000Y-112121359D02*
X115655000Y-112428641D01*
X114895000Y-112121359D02*
X114895000Y-112428641D01*
D12*
%TO.C,SW8*%
X146400000Y-127150000D02*
X138900000Y-127150000D01*
X146400000Y-120150000D02*
X146400000Y-127150000D01*
X138900000Y-127150000D02*
X138900000Y-120150000D01*
X138900000Y-120150000D02*
X146400000Y-120150000D01*
X147044050Y-121126000D02*
G75*
G03*
X147044050Y-121126000I-73050J0D01*
G01*
%TO.C,SW7*%
X132922025Y-127100000D02*
X125422025Y-127100000D01*
X132922025Y-120100000D02*
X132922025Y-127100000D01*
X125422025Y-127100000D02*
X125422025Y-120100000D01*
X125422025Y-120100000D02*
X132922025Y-120100000D01*
X133566075Y-121076000D02*
G75*
G03*
X133566075Y-121076000I-73050J0D01*
G01*
D14*
%TO.C,Q2*%
X158700000Y-82575000D02*
X158700000Y-81425000D01*
X156525000Y-81075000D02*
X158525000Y-81075000D01*
X158525000Y-81075000D02*
X158525000Y-80925000D01*
X156525000Y-80925000D02*
X156525000Y-81075000D01*
X158525000Y-80925000D02*
X156525000Y-80925000D01*
D13*
%TO.C,C29*%
X158757836Y-83935000D02*
X158542164Y-83935000D01*
X158757836Y-83215000D02*
X158542164Y-83215000D01*
D12*
%TO.C,SW5*%
X119600000Y-101150000D02*
X112100000Y-101150000D01*
X119600000Y-94150000D02*
X119600000Y-101150000D01*
X112100000Y-101150000D02*
X112100000Y-94150000D01*
X112100000Y-94150000D02*
X119600000Y-94150000D01*
X120244050Y-95126000D02*
G75*
G03*
X120244050Y-95126000I-73050J0D01*
G01*
D13*
%TO.C,C9*%
X136210000Y-115042164D02*
X136210000Y-115257836D01*
X135490000Y-115042164D02*
X135490000Y-115257836D01*
%TO.C,R17*%
X156356359Y-50820000D02*
X156663641Y-50820000D01*
X156356359Y-51580000D02*
X156663641Y-51580000D01*
D12*
%TO.C,SW2*%
X150517555Y-104496247D02*
X155820856Y-109799548D01*
X145567808Y-109445994D02*
X150517555Y-104496247D01*
X155820856Y-109799548D02*
X150871109Y-114749295D01*
X150871109Y-114749295D02*
X145567808Y-109445994D01*
X145927236Y-108352100D02*
G75*
G03*
X145927236Y-108352100I-73050J0D01*
G01*
D14*
%TO.C,IC2*%
X161525000Y-82550000D02*
X161525000Y-81350000D01*
D13*
%TO.C,R16*%
X150180000Y-119786359D02*
X150180000Y-120093641D01*
X149420000Y-119786359D02*
X149420000Y-120093641D01*
D12*
%TO.C,SW3*%
X150517555Y-90696247D02*
X155820856Y-95999548D01*
X145567808Y-95645994D02*
X150517555Y-90696247D01*
X155820856Y-95999548D02*
X150871109Y-100949295D01*
X150871109Y-100949295D02*
X145567808Y-95645994D01*
X145927236Y-94552100D02*
G75*
G03*
X145927236Y-94552100I-73050J0D01*
G01*
D13*
%TO.C,C2*%
X135460000Y-127822164D02*
X135460000Y-128037836D01*
X134740000Y-127822164D02*
X134740000Y-128037836D01*
D12*
%TO.C,SW1*%
X143617555Y-97596247D02*
X148920856Y-102899548D01*
X138667808Y-102545994D02*
X143617555Y-97596247D01*
X148920856Y-102899548D02*
X143971109Y-107849295D01*
X143971109Y-107849295D02*
X138667808Y-102545994D01*
X139027236Y-101452100D02*
G75*
G03*
X139027236Y-101452100I-73050J0D01*
G01*
D13*
%TO.C,R9*%
X159686359Y-49395000D02*
X159993641Y-49395000D01*
X159686359Y-50155000D02*
X159993641Y-50155000D01*
D11*
%TO.C,J3*%
X157599000Y-76350000D02*
X157599000Y-60350000D01*
X159987000Y-76350000D02*
X160699000Y-76350000D01*
X160699000Y-76350000D02*
X160699000Y-75850000D01*
X159987000Y-60350000D02*
X160699000Y-60350000D01*
X160699000Y-60350000D02*
X160699000Y-60675000D01*
D14*
%TO.C,IC1*%
X115300000Y-130300000D02*
X116700000Y-130300000D01*
X117050000Y-127350000D02*
X117050000Y-130250000D01*
X117050000Y-130250000D02*
X117450000Y-130250000D01*
X117450000Y-127350000D02*
X117050000Y-127350000D01*
X117450000Y-130250000D02*
X117450000Y-127350000D01*
%TD*%
M02*
