M48
; DRILL file {KiCad 7.0.1} date Tue Jun 25 20:02:12 2024
; FORMAT={-:-/ absolute / inch / decimal}
; #@! TF.CreationDate,2024-06-25T20:02:12-07:00
; #@! TF.GenerationSoftware,Kicad,Pcbnew,7.0.1
; #@! TF.FileFunction,Plated,1,2,PTH
FMAT,2
INCH
; #@! TA.AperFunction,Plated,PTH,ViaDrill
T1C0.0118
%
G90
G05
T1
X4.5876Y-3.0571
X4.7146Y-3.061
X4.7146Y-3.0906
X4.7244Y-4.2323
X4.7244Y-4.3307
X4.7244Y-4.4291
X4.7441Y-3.061
X4.7441Y-3.0906
X4.8228Y-3.061
X4.8228Y-3.0906
X4.8228Y-4.2323
X4.8228Y-4.3307
X4.8228Y-4.4291
X4.8524Y-3.061
X4.8524Y-3.0906
X4.9311Y-4.2323
X4.9311Y-4.3307
X4.9311Y-4.4291
X5.2461Y-3.9665
X5.315Y-3.9075
X5.3937Y-3.9862
X5.3937Y-4.065
X5.4626Y-3.9862
X5.4626Y-4.065
X5.5315Y-3.9862
X5.5315Y-4.065
X5.5807Y-4.4586
X5.6004Y-3.9862
X5.6004Y-4.065
X5.6201Y-4.434
X5.6998Y-4.0138
T0
M30
