%TF.GenerationSoftware,KiCad,Pcbnew,7.0.1*%
%TF.CreationDate,2024-06-25T20:02:14-07:00*%
%TF.ProjectId,project,70726f6a-6563-4742-9e6b-696361645f70,rev?*%
%TF.SameCoordinates,Original*%
%TF.FileFunction,Other,Comment*%
%FSLAX46Y46*%
G04 Gerber Fmt 4.6, Leading zero omitted, Abs format (unit mm)*
G04 Created by KiCad (PCBNEW 7.0.1) date 2024-06-25 20:02:14*
%MOMM*%
%LPD*%
G01*
G04 APERTURE LIST*
%ADD10C,0.150000*%
G04 APERTURE END LIST*
D10*
X115500000Y-73500000D02*
X136000000Y-73500000D01*
X136000000Y-76500000D01*
X115500000Y-76500000D01*
X115500000Y-73500000D01*
X146000000Y-100500000D02*
X149000000Y-100500000D01*
X149000000Y-115000000D01*
X146000000Y-115000000D01*
X146000000Y-100500000D01*
X146178571Y-97007619D02*
X146273809Y-97007619D01*
X146273809Y-97007619D02*
X146369047Y-97055238D01*
X146369047Y-97055238D02*
X146416666Y-97102857D01*
X146416666Y-97102857D02*
X146464285Y-97198095D01*
X146464285Y-97198095D02*
X146511904Y-97388571D01*
X146511904Y-97388571D02*
X146511904Y-97626666D01*
X146511904Y-97626666D02*
X146464285Y-97817142D01*
X146464285Y-97817142D02*
X146416666Y-97912380D01*
X146416666Y-97912380D02*
X146369047Y-97960000D01*
X146369047Y-97960000D02*
X146273809Y-98007619D01*
X146273809Y-98007619D02*
X146178571Y-98007619D01*
X146178571Y-98007619D02*
X146083333Y-97960000D01*
X146083333Y-97960000D02*
X146035714Y-97912380D01*
X146035714Y-97912380D02*
X145988095Y-97817142D01*
X145988095Y-97817142D02*
X145940476Y-97626666D01*
X145940476Y-97626666D02*
X145940476Y-97388571D01*
X145940476Y-97388571D02*
X145988095Y-97198095D01*
X145988095Y-97198095D02*
X146035714Y-97102857D01*
X146035714Y-97102857D02*
X146083333Y-97055238D01*
X146083333Y-97055238D02*
X146178571Y-97007619D01*
X146940476Y-97912380D02*
X146988095Y-97960000D01*
X146988095Y-97960000D02*
X146940476Y-98007619D01*
X146940476Y-98007619D02*
X146892857Y-97960000D01*
X146892857Y-97960000D02*
X146940476Y-97912380D01*
X146940476Y-97912380D02*
X146940476Y-98007619D01*
X147369047Y-97102857D02*
X147416666Y-97055238D01*
X147416666Y-97055238D02*
X147511904Y-97007619D01*
X147511904Y-97007619D02*
X147749999Y-97007619D01*
X147749999Y-97007619D02*
X147845237Y-97055238D01*
X147845237Y-97055238D02*
X147892856Y-97102857D01*
X147892856Y-97102857D02*
X147940475Y-97198095D01*
X147940475Y-97198095D02*
X147940475Y-97293333D01*
X147940475Y-97293333D02*
X147892856Y-97436190D01*
X147892856Y-97436190D02*
X147321428Y-98007619D01*
X147321428Y-98007619D02*
X147940475Y-98007619D01*
X148369047Y-98007619D02*
X148369047Y-97340952D01*
X148369047Y-97436190D02*
X148416666Y-97388571D01*
X148416666Y-97388571D02*
X148511904Y-97340952D01*
X148511904Y-97340952D02*
X148654761Y-97340952D01*
X148654761Y-97340952D02*
X148749999Y-97388571D01*
X148749999Y-97388571D02*
X148797618Y-97483809D01*
X148797618Y-97483809D02*
X148797618Y-98007619D01*
X148797618Y-97483809D02*
X148845237Y-97388571D01*
X148845237Y-97388571D02*
X148940475Y-97340952D01*
X148940475Y-97340952D02*
X149083332Y-97340952D01*
X149083332Y-97340952D02*
X149178571Y-97388571D01*
X149178571Y-97388571D02*
X149226190Y-97483809D01*
X149226190Y-97483809D02*
X149226190Y-98007619D01*
X149702380Y-98007619D02*
X149702380Y-97340952D01*
X149702380Y-97436190D02*
X149749999Y-97388571D01*
X149749999Y-97388571D02*
X149845237Y-97340952D01*
X149845237Y-97340952D02*
X149988094Y-97340952D01*
X149988094Y-97340952D02*
X150083332Y-97388571D01*
X150083332Y-97388571D02*
X150130951Y-97483809D01*
X150130951Y-97483809D02*
X150130951Y-98007619D01*
X150130951Y-97483809D02*
X150178570Y-97388571D01*
X150178570Y-97388571D02*
X150273808Y-97340952D01*
X150273808Y-97340952D02*
X150416665Y-97340952D01*
X150416665Y-97340952D02*
X150511904Y-97388571D01*
X150511904Y-97388571D02*
X150559523Y-97483809D01*
X150559523Y-97483809D02*
X150559523Y-98007619D01*
X151797618Y-98007619D02*
X151797618Y-97007619D01*
X151797618Y-97007619D02*
X152178570Y-97007619D01*
X152178570Y-97007619D02*
X152273808Y-97055238D01*
X152273808Y-97055238D02*
X152321427Y-97102857D01*
X152321427Y-97102857D02*
X152369046Y-97198095D01*
X152369046Y-97198095D02*
X152369046Y-97340952D01*
X152369046Y-97340952D02*
X152321427Y-97436190D01*
X152321427Y-97436190D02*
X152273808Y-97483809D01*
X152273808Y-97483809D02*
X152178570Y-97531428D01*
X152178570Y-97531428D02*
X151797618Y-97531428D01*
X152797618Y-98007619D02*
X152797618Y-97007619D01*
X153988094Y-97960000D02*
X154083332Y-98007619D01*
X154083332Y-98007619D02*
X154273808Y-98007619D01*
X154273808Y-98007619D02*
X154369046Y-97960000D01*
X154369046Y-97960000D02*
X154416665Y-97864761D01*
X154416665Y-97864761D02*
X154416665Y-97817142D01*
X154416665Y-97817142D02*
X154369046Y-97721904D01*
X154369046Y-97721904D02*
X154273808Y-97674285D01*
X154273808Y-97674285D02*
X154130951Y-97674285D01*
X154130951Y-97674285D02*
X154035713Y-97626666D01*
X154035713Y-97626666D02*
X153988094Y-97531428D01*
X153988094Y-97531428D02*
X153988094Y-97483809D01*
X153988094Y-97483809D02*
X154035713Y-97388571D01*
X154035713Y-97388571D02*
X154130951Y-97340952D01*
X154130951Y-97340952D02*
X154273808Y-97340952D01*
X154273808Y-97340952D02*
X154369046Y-97388571D01*
X154702380Y-97340952D02*
X155083332Y-97340952D01*
X154845237Y-97007619D02*
X154845237Y-97864761D01*
X154845237Y-97864761D02*
X154892856Y-97960000D01*
X154892856Y-97960000D02*
X154988094Y-98007619D01*
X154988094Y-98007619D02*
X155083332Y-98007619D01*
X155416666Y-98007619D02*
X155416666Y-97340952D01*
X155416666Y-97007619D02*
X155369047Y-97055238D01*
X155369047Y-97055238D02*
X155416666Y-97102857D01*
X155416666Y-97102857D02*
X155464285Y-97055238D01*
X155464285Y-97055238D02*
X155416666Y-97007619D01*
X155416666Y-97007619D02*
X155416666Y-97102857D01*
X155749999Y-97340952D02*
X156130951Y-97340952D01*
X155892856Y-98007619D02*
X155892856Y-97150476D01*
X155892856Y-97150476D02*
X155940475Y-97055238D01*
X155940475Y-97055238D02*
X156035713Y-97007619D01*
X156035713Y-97007619D02*
X156130951Y-97007619D01*
X156321428Y-97340952D02*
X156702380Y-97340952D01*
X156464285Y-98007619D02*
X156464285Y-97150476D01*
X156464285Y-97150476D02*
X156511904Y-97055238D01*
X156511904Y-97055238D02*
X156607142Y-97007619D01*
X156607142Y-97007619D02*
X156702380Y-97007619D01*
X157416666Y-97960000D02*
X157321428Y-98007619D01*
X157321428Y-98007619D02*
X157130952Y-98007619D01*
X157130952Y-98007619D02*
X157035714Y-97960000D01*
X157035714Y-97960000D02*
X156988095Y-97864761D01*
X156988095Y-97864761D02*
X156988095Y-97483809D01*
X156988095Y-97483809D02*
X157035714Y-97388571D01*
X157035714Y-97388571D02*
X157130952Y-97340952D01*
X157130952Y-97340952D02*
X157321428Y-97340952D01*
X157321428Y-97340952D02*
X157416666Y-97388571D01*
X157416666Y-97388571D02*
X157464285Y-97483809D01*
X157464285Y-97483809D02*
X157464285Y-97579047D01*
X157464285Y-97579047D02*
X156988095Y-97674285D01*
X157892857Y-97340952D02*
X157892857Y-98007619D01*
X157892857Y-97436190D02*
X157940476Y-97388571D01*
X157940476Y-97388571D02*
X158035714Y-97340952D01*
X158035714Y-97340952D02*
X158178571Y-97340952D01*
X158178571Y-97340952D02*
X158273809Y-97388571D01*
X158273809Y-97388571D02*
X158321428Y-97483809D01*
X158321428Y-97483809D02*
X158321428Y-98007619D01*
X159178571Y-97960000D02*
X159083333Y-98007619D01*
X159083333Y-98007619D02*
X158892857Y-98007619D01*
X158892857Y-98007619D02*
X158797619Y-97960000D01*
X158797619Y-97960000D02*
X158750000Y-97864761D01*
X158750000Y-97864761D02*
X158750000Y-97483809D01*
X158750000Y-97483809D02*
X158797619Y-97388571D01*
X158797619Y-97388571D02*
X158892857Y-97340952D01*
X158892857Y-97340952D02*
X159083333Y-97340952D01*
X159083333Y-97340952D02*
X159178571Y-97388571D01*
X159178571Y-97388571D02*
X159226190Y-97483809D01*
X159226190Y-97483809D02*
X159226190Y-97579047D01*
X159226190Y-97579047D02*
X158750000Y-97674285D01*
X159654762Y-98007619D02*
X159654762Y-97340952D01*
X159654762Y-97531428D02*
X159702381Y-97436190D01*
X159702381Y-97436190D02*
X159750000Y-97388571D01*
X159750000Y-97388571D02*
X159845238Y-97340952D01*
X159845238Y-97340952D02*
X159940476Y-97340952D01*
X160559524Y-98388571D02*
X160511905Y-98340952D01*
X160511905Y-98340952D02*
X160416667Y-98198095D01*
X160416667Y-98198095D02*
X160369048Y-98102857D01*
X160369048Y-98102857D02*
X160321429Y-97960000D01*
X160321429Y-97960000D02*
X160273810Y-97721904D01*
X160273810Y-97721904D02*
X160273810Y-97531428D01*
X160273810Y-97531428D02*
X160321429Y-97293333D01*
X160321429Y-97293333D02*
X160369048Y-97150476D01*
X160369048Y-97150476D02*
X160416667Y-97055238D01*
X160416667Y-97055238D02*
X160511905Y-96912380D01*
X160511905Y-96912380D02*
X160559524Y-96864761D01*
X161273810Y-97483809D02*
X161416667Y-97531428D01*
X161416667Y-97531428D02*
X161464286Y-97579047D01*
X161464286Y-97579047D02*
X161511905Y-97674285D01*
X161511905Y-97674285D02*
X161511905Y-97817142D01*
X161511905Y-97817142D02*
X161464286Y-97912380D01*
X161464286Y-97912380D02*
X161416667Y-97960000D01*
X161416667Y-97960000D02*
X161321429Y-98007619D01*
X161321429Y-98007619D02*
X160940477Y-98007619D01*
X160940477Y-98007619D02*
X160940477Y-97007619D01*
X160940477Y-97007619D02*
X161273810Y-97007619D01*
X161273810Y-97007619D02*
X161369048Y-97055238D01*
X161369048Y-97055238D02*
X161416667Y-97102857D01*
X161416667Y-97102857D02*
X161464286Y-97198095D01*
X161464286Y-97198095D02*
X161464286Y-97293333D01*
X161464286Y-97293333D02*
X161416667Y-97388571D01*
X161416667Y-97388571D02*
X161369048Y-97436190D01*
X161369048Y-97436190D02*
X161273810Y-97483809D01*
X161273810Y-97483809D02*
X160940477Y-97483809D01*
X161892858Y-97721904D02*
X162369048Y-97721904D01*
X161797620Y-98007619D02*
X162130953Y-97007619D01*
X162130953Y-97007619D02*
X162464286Y-98007619D01*
X163369048Y-97912380D02*
X163321429Y-97960000D01*
X163321429Y-97960000D02*
X163178572Y-98007619D01*
X163178572Y-98007619D02*
X163083334Y-98007619D01*
X163083334Y-98007619D02*
X162940477Y-97960000D01*
X162940477Y-97960000D02*
X162845239Y-97864761D01*
X162845239Y-97864761D02*
X162797620Y-97769523D01*
X162797620Y-97769523D02*
X162750001Y-97579047D01*
X162750001Y-97579047D02*
X162750001Y-97436190D01*
X162750001Y-97436190D02*
X162797620Y-97245714D01*
X162797620Y-97245714D02*
X162845239Y-97150476D01*
X162845239Y-97150476D02*
X162940477Y-97055238D01*
X162940477Y-97055238D02*
X163083334Y-97007619D01*
X163083334Y-97007619D02*
X163178572Y-97007619D01*
X163178572Y-97007619D02*
X163321429Y-97055238D01*
X163321429Y-97055238D02*
X163369048Y-97102857D01*
X163797620Y-98007619D02*
X163797620Y-97007619D01*
X164369048Y-98007619D02*
X163940477Y-97436190D01*
X164369048Y-97007619D02*
X163797620Y-97579047D01*
X166035715Y-98007619D02*
X165559525Y-98007619D01*
X165559525Y-98007619D02*
X165559525Y-97007619D01*
X166321430Y-97721904D02*
X166797620Y-97721904D01*
X166226192Y-98007619D02*
X166559525Y-97007619D01*
X166559525Y-97007619D02*
X166892858Y-98007619D01*
X167416668Y-97531428D02*
X167416668Y-98007619D01*
X167083335Y-97007619D02*
X167416668Y-97531428D01*
X167416668Y-97531428D02*
X167750001Y-97007619D01*
X168083335Y-97483809D02*
X168416668Y-97483809D01*
X168559525Y-98007619D02*
X168083335Y-98007619D01*
X168083335Y-98007619D02*
X168083335Y-97007619D01*
X168083335Y-97007619D02*
X168559525Y-97007619D01*
X169559525Y-98007619D02*
X169226192Y-97531428D01*
X168988097Y-98007619D02*
X168988097Y-97007619D01*
X168988097Y-97007619D02*
X169369049Y-97007619D01*
X169369049Y-97007619D02*
X169464287Y-97055238D01*
X169464287Y-97055238D02*
X169511906Y-97102857D01*
X169511906Y-97102857D02*
X169559525Y-97198095D01*
X169559525Y-97198095D02*
X169559525Y-97340952D01*
X169559525Y-97340952D02*
X169511906Y-97436190D01*
X169511906Y-97436190D02*
X169464287Y-97483809D01*
X169464287Y-97483809D02*
X169369049Y-97531428D01*
X169369049Y-97531428D02*
X168988097Y-97531428D01*
X169892859Y-98388571D02*
X169940478Y-98340952D01*
X169940478Y-98340952D02*
X170035716Y-98198095D01*
X170035716Y-98198095D02*
X170083335Y-98102857D01*
X170083335Y-98102857D02*
X170130954Y-97960000D01*
X170130954Y-97960000D02*
X170178573Y-97721904D01*
X170178573Y-97721904D02*
X170178573Y-97531428D01*
X170178573Y-97531428D02*
X170130954Y-97293333D01*
X170130954Y-97293333D02*
X170083335Y-97150476D01*
X170083335Y-97150476D02*
X170035716Y-97055238D01*
X170035716Y-97055238D02*
X169940478Y-96912380D01*
X169940478Y-96912380D02*
X169892859Y-96864761D01*
X146178571Y-98627619D02*
X146273809Y-98627619D01*
X146273809Y-98627619D02*
X146369047Y-98675238D01*
X146369047Y-98675238D02*
X146416666Y-98722857D01*
X146416666Y-98722857D02*
X146464285Y-98818095D01*
X146464285Y-98818095D02*
X146511904Y-99008571D01*
X146511904Y-99008571D02*
X146511904Y-99246666D01*
X146511904Y-99246666D02*
X146464285Y-99437142D01*
X146464285Y-99437142D02*
X146416666Y-99532380D01*
X146416666Y-99532380D02*
X146369047Y-99580000D01*
X146369047Y-99580000D02*
X146273809Y-99627619D01*
X146273809Y-99627619D02*
X146178571Y-99627619D01*
X146178571Y-99627619D02*
X146083333Y-99580000D01*
X146083333Y-99580000D02*
X146035714Y-99532380D01*
X146035714Y-99532380D02*
X145988095Y-99437142D01*
X145988095Y-99437142D02*
X145940476Y-99246666D01*
X145940476Y-99246666D02*
X145940476Y-99008571D01*
X145940476Y-99008571D02*
X145988095Y-98818095D01*
X145988095Y-98818095D02*
X146035714Y-98722857D01*
X146035714Y-98722857D02*
X146083333Y-98675238D01*
X146083333Y-98675238D02*
X146178571Y-98627619D01*
X146940476Y-99532380D02*
X146988095Y-99580000D01*
X146988095Y-99580000D02*
X146940476Y-99627619D01*
X146940476Y-99627619D02*
X146892857Y-99580000D01*
X146892857Y-99580000D02*
X146940476Y-99532380D01*
X146940476Y-99532380D02*
X146940476Y-99627619D01*
X147321428Y-98627619D02*
X147940475Y-98627619D01*
X147940475Y-98627619D02*
X147607142Y-99008571D01*
X147607142Y-99008571D02*
X147749999Y-99008571D01*
X147749999Y-99008571D02*
X147845237Y-99056190D01*
X147845237Y-99056190D02*
X147892856Y-99103809D01*
X147892856Y-99103809D02*
X147940475Y-99199047D01*
X147940475Y-99199047D02*
X147940475Y-99437142D01*
X147940475Y-99437142D02*
X147892856Y-99532380D01*
X147892856Y-99532380D02*
X147845237Y-99580000D01*
X147845237Y-99580000D02*
X147749999Y-99627619D01*
X147749999Y-99627619D02*
X147464285Y-99627619D01*
X147464285Y-99627619D02*
X147369047Y-99580000D01*
X147369047Y-99580000D02*
X147321428Y-99532380D01*
X148892856Y-99627619D02*
X148321428Y-99627619D01*
X148607142Y-99627619D02*
X148607142Y-98627619D01*
X148607142Y-98627619D02*
X148511904Y-98770476D01*
X148511904Y-98770476D02*
X148416666Y-98865714D01*
X148416666Y-98865714D02*
X148321428Y-98913333D01*
X149321428Y-99627619D02*
X149321428Y-98960952D01*
X149321428Y-99056190D02*
X149369047Y-99008571D01*
X149369047Y-99008571D02*
X149464285Y-98960952D01*
X149464285Y-98960952D02*
X149607142Y-98960952D01*
X149607142Y-98960952D02*
X149702380Y-99008571D01*
X149702380Y-99008571D02*
X149749999Y-99103809D01*
X149749999Y-99103809D02*
X149749999Y-99627619D01*
X149749999Y-99103809D02*
X149797618Y-99008571D01*
X149797618Y-99008571D02*
X149892856Y-98960952D01*
X149892856Y-98960952D02*
X150035713Y-98960952D01*
X150035713Y-98960952D02*
X150130952Y-99008571D01*
X150130952Y-99008571D02*
X150178571Y-99103809D01*
X150178571Y-99103809D02*
X150178571Y-99627619D01*
X150654761Y-99627619D02*
X150654761Y-98960952D01*
X150654761Y-99056190D02*
X150702380Y-99008571D01*
X150702380Y-99008571D02*
X150797618Y-98960952D01*
X150797618Y-98960952D02*
X150940475Y-98960952D01*
X150940475Y-98960952D02*
X151035713Y-99008571D01*
X151035713Y-99008571D02*
X151083332Y-99103809D01*
X151083332Y-99103809D02*
X151083332Y-99627619D01*
X151083332Y-99103809D02*
X151130951Y-99008571D01*
X151130951Y-99008571D02*
X151226189Y-98960952D01*
X151226189Y-98960952D02*
X151369046Y-98960952D01*
X151369046Y-98960952D02*
X151464285Y-99008571D01*
X151464285Y-99008571D02*
X151511904Y-99103809D01*
X151511904Y-99103809D02*
X151511904Y-99627619D01*
X152607142Y-98960952D02*
X152988094Y-98960952D01*
X152749999Y-98627619D02*
X152749999Y-99484761D01*
X152749999Y-99484761D02*
X152797618Y-99580000D01*
X152797618Y-99580000D02*
X152892856Y-99627619D01*
X152892856Y-99627619D02*
X152988094Y-99627619D01*
X153464285Y-99627619D02*
X153369047Y-99580000D01*
X153369047Y-99580000D02*
X153321428Y-99532380D01*
X153321428Y-99532380D02*
X153273809Y-99437142D01*
X153273809Y-99437142D02*
X153273809Y-99151428D01*
X153273809Y-99151428D02*
X153321428Y-99056190D01*
X153321428Y-99056190D02*
X153369047Y-99008571D01*
X153369047Y-99008571D02*
X153464285Y-98960952D01*
X153464285Y-98960952D02*
X153607142Y-98960952D01*
X153607142Y-98960952D02*
X153702380Y-99008571D01*
X153702380Y-99008571D02*
X153749999Y-99056190D01*
X153749999Y-99056190D02*
X153797618Y-99151428D01*
X153797618Y-99151428D02*
X153797618Y-99437142D01*
X153797618Y-99437142D02*
X153749999Y-99532380D01*
X153749999Y-99532380D02*
X153702380Y-99580000D01*
X153702380Y-99580000D02*
X153607142Y-99627619D01*
X153607142Y-99627619D02*
X153464285Y-99627619D01*
X154083333Y-98960952D02*
X154464285Y-98960952D01*
X154226190Y-98627619D02*
X154226190Y-99484761D01*
X154226190Y-99484761D02*
X154273809Y-99580000D01*
X154273809Y-99580000D02*
X154369047Y-99627619D01*
X154369047Y-99627619D02*
X154464285Y-99627619D01*
X155226190Y-99627619D02*
X155226190Y-99103809D01*
X155226190Y-99103809D02*
X155178571Y-99008571D01*
X155178571Y-99008571D02*
X155083333Y-98960952D01*
X155083333Y-98960952D02*
X154892857Y-98960952D01*
X154892857Y-98960952D02*
X154797619Y-99008571D01*
X155226190Y-99580000D02*
X155130952Y-99627619D01*
X155130952Y-99627619D02*
X154892857Y-99627619D01*
X154892857Y-99627619D02*
X154797619Y-99580000D01*
X154797619Y-99580000D02*
X154750000Y-99484761D01*
X154750000Y-99484761D02*
X154750000Y-99389523D01*
X154750000Y-99389523D02*
X154797619Y-99294285D01*
X154797619Y-99294285D02*
X154892857Y-99246666D01*
X154892857Y-99246666D02*
X155130952Y-99246666D01*
X155130952Y-99246666D02*
X155226190Y-99199047D01*
X155845238Y-99627619D02*
X155750000Y-99580000D01*
X155750000Y-99580000D02*
X155702381Y-99484761D01*
X155702381Y-99484761D02*
X155702381Y-98627619D01*
X156845239Y-98960952D02*
X157226191Y-98960952D01*
X156988096Y-98627619D02*
X156988096Y-99484761D01*
X156988096Y-99484761D02*
X157035715Y-99580000D01*
X157035715Y-99580000D02*
X157130953Y-99627619D01*
X157130953Y-99627619D02*
X157226191Y-99627619D01*
X157559525Y-99627619D02*
X157559525Y-98627619D01*
X157988096Y-99627619D02*
X157988096Y-99103809D01*
X157988096Y-99103809D02*
X157940477Y-99008571D01*
X157940477Y-99008571D02*
X157845239Y-98960952D01*
X157845239Y-98960952D02*
X157702382Y-98960952D01*
X157702382Y-98960952D02*
X157607144Y-99008571D01*
X157607144Y-99008571D02*
X157559525Y-99056190D01*
X158464287Y-99627619D02*
X158464287Y-98960952D01*
X158464287Y-98627619D02*
X158416668Y-98675238D01*
X158416668Y-98675238D02*
X158464287Y-98722857D01*
X158464287Y-98722857D02*
X158511906Y-98675238D01*
X158511906Y-98675238D02*
X158464287Y-98627619D01*
X158464287Y-98627619D02*
X158464287Y-98722857D01*
X159369048Y-99580000D02*
X159273810Y-99627619D01*
X159273810Y-99627619D02*
X159083334Y-99627619D01*
X159083334Y-99627619D02*
X158988096Y-99580000D01*
X158988096Y-99580000D02*
X158940477Y-99532380D01*
X158940477Y-99532380D02*
X158892858Y-99437142D01*
X158892858Y-99437142D02*
X158892858Y-99151428D01*
X158892858Y-99151428D02*
X158940477Y-99056190D01*
X158940477Y-99056190D02*
X158988096Y-99008571D01*
X158988096Y-99008571D02*
X159083334Y-98960952D01*
X159083334Y-98960952D02*
X159273810Y-98960952D01*
X159273810Y-98960952D02*
X159369048Y-99008571D01*
X159797620Y-99627619D02*
X159797620Y-98627619D01*
X159892858Y-99246666D02*
X160178572Y-99627619D01*
X160178572Y-98960952D02*
X159797620Y-99341904D01*
X160607144Y-98960952D02*
X160607144Y-99627619D01*
X160607144Y-99056190D02*
X160654763Y-99008571D01*
X160654763Y-99008571D02*
X160750001Y-98960952D01*
X160750001Y-98960952D02*
X160892858Y-98960952D01*
X160892858Y-98960952D02*
X160988096Y-99008571D01*
X160988096Y-99008571D02*
X161035715Y-99103809D01*
X161035715Y-99103809D02*
X161035715Y-99627619D01*
X161892858Y-99580000D02*
X161797620Y-99627619D01*
X161797620Y-99627619D02*
X161607144Y-99627619D01*
X161607144Y-99627619D02*
X161511906Y-99580000D01*
X161511906Y-99580000D02*
X161464287Y-99484761D01*
X161464287Y-99484761D02*
X161464287Y-99103809D01*
X161464287Y-99103809D02*
X161511906Y-99008571D01*
X161511906Y-99008571D02*
X161607144Y-98960952D01*
X161607144Y-98960952D02*
X161797620Y-98960952D01*
X161797620Y-98960952D02*
X161892858Y-99008571D01*
X161892858Y-99008571D02*
X161940477Y-99103809D01*
X161940477Y-99103809D02*
X161940477Y-99199047D01*
X161940477Y-99199047D02*
X161464287Y-99294285D01*
X162321430Y-99580000D02*
X162416668Y-99627619D01*
X162416668Y-99627619D02*
X162607144Y-99627619D01*
X162607144Y-99627619D02*
X162702382Y-99580000D01*
X162702382Y-99580000D02*
X162750001Y-99484761D01*
X162750001Y-99484761D02*
X162750001Y-99437142D01*
X162750001Y-99437142D02*
X162702382Y-99341904D01*
X162702382Y-99341904D02*
X162607144Y-99294285D01*
X162607144Y-99294285D02*
X162464287Y-99294285D01*
X162464287Y-99294285D02*
X162369049Y-99246666D01*
X162369049Y-99246666D02*
X162321430Y-99151428D01*
X162321430Y-99151428D02*
X162321430Y-99103809D01*
X162321430Y-99103809D02*
X162369049Y-99008571D01*
X162369049Y-99008571D02*
X162464287Y-98960952D01*
X162464287Y-98960952D02*
X162607144Y-98960952D01*
X162607144Y-98960952D02*
X162702382Y-99008571D01*
X163130954Y-99580000D02*
X163226192Y-99627619D01*
X163226192Y-99627619D02*
X163416668Y-99627619D01*
X163416668Y-99627619D02*
X163511906Y-99580000D01*
X163511906Y-99580000D02*
X163559525Y-99484761D01*
X163559525Y-99484761D02*
X163559525Y-99437142D01*
X163559525Y-99437142D02*
X163511906Y-99341904D01*
X163511906Y-99341904D02*
X163416668Y-99294285D01*
X163416668Y-99294285D02*
X163273811Y-99294285D01*
X163273811Y-99294285D02*
X163178573Y-99246666D01*
X163178573Y-99246666D02*
X163130954Y-99151428D01*
X163130954Y-99151428D02*
X163130954Y-99103809D01*
X163130954Y-99103809D02*
X163178573Y-99008571D01*
X163178573Y-99008571D02*
X163273811Y-98960952D01*
X163273811Y-98960952D02*
X163416668Y-98960952D01*
X163416668Y-98960952D02*
X163511906Y-99008571D01*
X115928571Y-70007619D02*
X116023809Y-70007619D01*
X116023809Y-70007619D02*
X116119047Y-70055238D01*
X116119047Y-70055238D02*
X116166666Y-70102857D01*
X116166666Y-70102857D02*
X116214285Y-70198095D01*
X116214285Y-70198095D02*
X116261904Y-70388571D01*
X116261904Y-70388571D02*
X116261904Y-70626666D01*
X116261904Y-70626666D02*
X116214285Y-70817142D01*
X116214285Y-70817142D02*
X116166666Y-70912380D01*
X116166666Y-70912380D02*
X116119047Y-70960000D01*
X116119047Y-70960000D02*
X116023809Y-71007619D01*
X116023809Y-71007619D02*
X115928571Y-71007619D01*
X115928571Y-71007619D02*
X115833333Y-70960000D01*
X115833333Y-70960000D02*
X115785714Y-70912380D01*
X115785714Y-70912380D02*
X115738095Y-70817142D01*
X115738095Y-70817142D02*
X115690476Y-70626666D01*
X115690476Y-70626666D02*
X115690476Y-70388571D01*
X115690476Y-70388571D02*
X115738095Y-70198095D01*
X115738095Y-70198095D02*
X115785714Y-70102857D01*
X115785714Y-70102857D02*
X115833333Y-70055238D01*
X115833333Y-70055238D02*
X115928571Y-70007619D01*
X116690476Y-70912380D02*
X116738095Y-70960000D01*
X116738095Y-70960000D02*
X116690476Y-71007619D01*
X116690476Y-71007619D02*
X116642857Y-70960000D01*
X116642857Y-70960000D02*
X116690476Y-70912380D01*
X116690476Y-70912380D02*
X116690476Y-71007619D01*
X117119047Y-70102857D02*
X117166666Y-70055238D01*
X117166666Y-70055238D02*
X117261904Y-70007619D01*
X117261904Y-70007619D02*
X117499999Y-70007619D01*
X117499999Y-70007619D02*
X117595237Y-70055238D01*
X117595237Y-70055238D02*
X117642856Y-70102857D01*
X117642856Y-70102857D02*
X117690475Y-70198095D01*
X117690475Y-70198095D02*
X117690475Y-70293333D01*
X117690475Y-70293333D02*
X117642856Y-70436190D01*
X117642856Y-70436190D02*
X117071428Y-71007619D01*
X117071428Y-71007619D02*
X117690475Y-71007619D01*
X118119047Y-71007619D02*
X118119047Y-70340952D01*
X118119047Y-70436190D02*
X118166666Y-70388571D01*
X118166666Y-70388571D02*
X118261904Y-70340952D01*
X118261904Y-70340952D02*
X118404761Y-70340952D01*
X118404761Y-70340952D02*
X118499999Y-70388571D01*
X118499999Y-70388571D02*
X118547618Y-70483809D01*
X118547618Y-70483809D02*
X118547618Y-71007619D01*
X118547618Y-70483809D02*
X118595237Y-70388571D01*
X118595237Y-70388571D02*
X118690475Y-70340952D01*
X118690475Y-70340952D02*
X118833332Y-70340952D01*
X118833332Y-70340952D02*
X118928571Y-70388571D01*
X118928571Y-70388571D02*
X118976190Y-70483809D01*
X118976190Y-70483809D02*
X118976190Y-71007619D01*
X119452380Y-71007619D02*
X119452380Y-70340952D01*
X119452380Y-70436190D02*
X119499999Y-70388571D01*
X119499999Y-70388571D02*
X119595237Y-70340952D01*
X119595237Y-70340952D02*
X119738094Y-70340952D01*
X119738094Y-70340952D02*
X119833332Y-70388571D01*
X119833332Y-70388571D02*
X119880951Y-70483809D01*
X119880951Y-70483809D02*
X119880951Y-71007619D01*
X119880951Y-70483809D02*
X119928570Y-70388571D01*
X119928570Y-70388571D02*
X120023808Y-70340952D01*
X120023808Y-70340952D02*
X120166665Y-70340952D01*
X120166665Y-70340952D02*
X120261904Y-70388571D01*
X120261904Y-70388571D02*
X120309523Y-70483809D01*
X120309523Y-70483809D02*
X120309523Y-71007619D01*
X121547618Y-71007619D02*
X121547618Y-70007619D01*
X121547618Y-70007619D02*
X121928570Y-70007619D01*
X121928570Y-70007619D02*
X122023808Y-70055238D01*
X122023808Y-70055238D02*
X122071427Y-70102857D01*
X122071427Y-70102857D02*
X122119046Y-70198095D01*
X122119046Y-70198095D02*
X122119046Y-70340952D01*
X122119046Y-70340952D02*
X122071427Y-70436190D01*
X122071427Y-70436190D02*
X122023808Y-70483809D01*
X122023808Y-70483809D02*
X121928570Y-70531428D01*
X121928570Y-70531428D02*
X121547618Y-70531428D01*
X122547618Y-71007619D02*
X122547618Y-70007619D01*
X123738094Y-70960000D02*
X123833332Y-71007619D01*
X123833332Y-71007619D02*
X124023808Y-71007619D01*
X124023808Y-71007619D02*
X124119046Y-70960000D01*
X124119046Y-70960000D02*
X124166665Y-70864761D01*
X124166665Y-70864761D02*
X124166665Y-70817142D01*
X124166665Y-70817142D02*
X124119046Y-70721904D01*
X124119046Y-70721904D02*
X124023808Y-70674285D01*
X124023808Y-70674285D02*
X123880951Y-70674285D01*
X123880951Y-70674285D02*
X123785713Y-70626666D01*
X123785713Y-70626666D02*
X123738094Y-70531428D01*
X123738094Y-70531428D02*
X123738094Y-70483809D01*
X123738094Y-70483809D02*
X123785713Y-70388571D01*
X123785713Y-70388571D02*
X123880951Y-70340952D01*
X123880951Y-70340952D02*
X124023808Y-70340952D01*
X124023808Y-70340952D02*
X124119046Y-70388571D01*
X124452380Y-70340952D02*
X124833332Y-70340952D01*
X124595237Y-70007619D02*
X124595237Y-70864761D01*
X124595237Y-70864761D02*
X124642856Y-70960000D01*
X124642856Y-70960000D02*
X124738094Y-71007619D01*
X124738094Y-71007619D02*
X124833332Y-71007619D01*
X125166666Y-71007619D02*
X125166666Y-70340952D01*
X125166666Y-70007619D02*
X125119047Y-70055238D01*
X125119047Y-70055238D02*
X125166666Y-70102857D01*
X125166666Y-70102857D02*
X125214285Y-70055238D01*
X125214285Y-70055238D02*
X125166666Y-70007619D01*
X125166666Y-70007619D02*
X125166666Y-70102857D01*
X125499999Y-70340952D02*
X125880951Y-70340952D01*
X125642856Y-71007619D02*
X125642856Y-70150476D01*
X125642856Y-70150476D02*
X125690475Y-70055238D01*
X125690475Y-70055238D02*
X125785713Y-70007619D01*
X125785713Y-70007619D02*
X125880951Y-70007619D01*
X126071428Y-70340952D02*
X126452380Y-70340952D01*
X126214285Y-71007619D02*
X126214285Y-70150476D01*
X126214285Y-70150476D02*
X126261904Y-70055238D01*
X126261904Y-70055238D02*
X126357142Y-70007619D01*
X126357142Y-70007619D02*
X126452380Y-70007619D01*
X127166666Y-70960000D02*
X127071428Y-71007619D01*
X127071428Y-71007619D02*
X126880952Y-71007619D01*
X126880952Y-71007619D02*
X126785714Y-70960000D01*
X126785714Y-70960000D02*
X126738095Y-70864761D01*
X126738095Y-70864761D02*
X126738095Y-70483809D01*
X126738095Y-70483809D02*
X126785714Y-70388571D01*
X126785714Y-70388571D02*
X126880952Y-70340952D01*
X126880952Y-70340952D02*
X127071428Y-70340952D01*
X127071428Y-70340952D02*
X127166666Y-70388571D01*
X127166666Y-70388571D02*
X127214285Y-70483809D01*
X127214285Y-70483809D02*
X127214285Y-70579047D01*
X127214285Y-70579047D02*
X126738095Y-70674285D01*
X127642857Y-70340952D02*
X127642857Y-71007619D01*
X127642857Y-70436190D02*
X127690476Y-70388571D01*
X127690476Y-70388571D02*
X127785714Y-70340952D01*
X127785714Y-70340952D02*
X127928571Y-70340952D01*
X127928571Y-70340952D02*
X128023809Y-70388571D01*
X128023809Y-70388571D02*
X128071428Y-70483809D01*
X128071428Y-70483809D02*
X128071428Y-71007619D01*
X128928571Y-70960000D02*
X128833333Y-71007619D01*
X128833333Y-71007619D02*
X128642857Y-71007619D01*
X128642857Y-71007619D02*
X128547619Y-70960000D01*
X128547619Y-70960000D02*
X128500000Y-70864761D01*
X128500000Y-70864761D02*
X128500000Y-70483809D01*
X128500000Y-70483809D02*
X128547619Y-70388571D01*
X128547619Y-70388571D02*
X128642857Y-70340952D01*
X128642857Y-70340952D02*
X128833333Y-70340952D01*
X128833333Y-70340952D02*
X128928571Y-70388571D01*
X128928571Y-70388571D02*
X128976190Y-70483809D01*
X128976190Y-70483809D02*
X128976190Y-70579047D01*
X128976190Y-70579047D02*
X128500000Y-70674285D01*
X129404762Y-71007619D02*
X129404762Y-70340952D01*
X129404762Y-70531428D02*
X129452381Y-70436190D01*
X129452381Y-70436190D02*
X129500000Y-70388571D01*
X129500000Y-70388571D02*
X129595238Y-70340952D01*
X129595238Y-70340952D02*
X129690476Y-70340952D01*
X130309524Y-71388571D02*
X130261905Y-71340952D01*
X130261905Y-71340952D02*
X130166667Y-71198095D01*
X130166667Y-71198095D02*
X130119048Y-71102857D01*
X130119048Y-71102857D02*
X130071429Y-70960000D01*
X130071429Y-70960000D02*
X130023810Y-70721904D01*
X130023810Y-70721904D02*
X130023810Y-70531428D01*
X130023810Y-70531428D02*
X130071429Y-70293333D01*
X130071429Y-70293333D02*
X130119048Y-70150476D01*
X130119048Y-70150476D02*
X130166667Y-70055238D01*
X130166667Y-70055238D02*
X130261905Y-69912380D01*
X130261905Y-69912380D02*
X130309524Y-69864761D01*
X131023810Y-70483809D02*
X131166667Y-70531428D01*
X131166667Y-70531428D02*
X131214286Y-70579047D01*
X131214286Y-70579047D02*
X131261905Y-70674285D01*
X131261905Y-70674285D02*
X131261905Y-70817142D01*
X131261905Y-70817142D02*
X131214286Y-70912380D01*
X131214286Y-70912380D02*
X131166667Y-70960000D01*
X131166667Y-70960000D02*
X131071429Y-71007619D01*
X131071429Y-71007619D02*
X130690477Y-71007619D01*
X130690477Y-71007619D02*
X130690477Y-70007619D01*
X130690477Y-70007619D02*
X131023810Y-70007619D01*
X131023810Y-70007619D02*
X131119048Y-70055238D01*
X131119048Y-70055238D02*
X131166667Y-70102857D01*
X131166667Y-70102857D02*
X131214286Y-70198095D01*
X131214286Y-70198095D02*
X131214286Y-70293333D01*
X131214286Y-70293333D02*
X131166667Y-70388571D01*
X131166667Y-70388571D02*
X131119048Y-70436190D01*
X131119048Y-70436190D02*
X131023810Y-70483809D01*
X131023810Y-70483809D02*
X130690477Y-70483809D01*
X131642858Y-70721904D02*
X132119048Y-70721904D01*
X131547620Y-71007619D02*
X131880953Y-70007619D01*
X131880953Y-70007619D02*
X132214286Y-71007619D01*
X133119048Y-70912380D02*
X133071429Y-70960000D01*
X133071429Y-70960000D02*
X132928572Y-71007619D01*
X132928572Y-71007619D02*
X132833334Y-71007619D01*
X132833334Y-71007619D02*
X132690477Y-70960000D01*
X132690477Y-70960000D02*
X132595239Y-70864761D01*
X132595239Y-70864761D02*
X132547620Y-70769523D01*
X132547620Y-70769523D02*
X132500001Y-70579047D01*
X132500001Y-70579047D02*
X132500001Y-70436190D01*
X132500001Y-70436190D02*
X132547620Y-70245714D01*
X132547620Y-70245714D02*
X132595239Y-70150476D01*
X132595239Y-70150476D02*
X132690477Y-70055238D01*
X132690477Y-70055238D02*
X132833334Y-70007619D01*
X132833334Y-70007619D02*
X132928572Y-70007619D01*
X132928572Y-70007619D02*
X133071429Y-70055238D01*
X133071429Y-70055238D02*
X133119048Y-70102857D01*
X133547620Y-71007619D02*
X133547620Y-70007619D01*
X134119048Y-71007619D02*
X133690477Y-70436190D01*
X134119048Y-70007619D02*
X133547620Y-70579047D01*
X135785715Y-71007619D02*
X135309525Y-71007619D01*
X135309525Y-71007619D02*
X135309525Y-70007619D01*
X136071430Y-70721904D02*
X136547620Y-70721904D01*
X135976192Y-71007619D02*
X136309525Y-70007619D01*
X136309525Y-70007619D02*
X136642858Y-71007619D01*
X137166668Y-70531428D02*
X137166668Y-71007619D01*
X136833335Y-70007619D02*
X137166668Y-70531428D01*
X137166668Y-70531428D02*
X137500001Y-70007619D01*
X137833335Y-70483809D02*
X138166668Y-70483809D01*
X138309525Y-71007619D02*
X137833335Y-71007619D01*
X137833335Y-71007619D02*
X137833335Y-70007619D01*
X137833335Y-70007619D02*
X138309525Y-70007619D01*
X139309525Y-71007619D02*
X138976192Y-70531428D01*
X138738097Y-71007619D02*
X138738097Y-70007619D01*
X138738097Y-70007619D02*
X139119049Y-70007619D01*
X139119049Y-70007619D02*
X139214287Y-70055238D01*
X139214287Y-70055238D02*
X139261906Y-70102857D01*
X139261906Y-70102857D02*
X139309525Y-70198095D01*
X139309525Y-70198095D02*
X139309525Y-70340952D01*
X139309525Y-70340952D02*
X139261906Y-70436190D01*
X139261906Y-70436190D02*
X139214287Y-70483809D01*
X139214287Y-70483809D02*
X139119049Y-70531428D01*
X139119049Y-70531428D02*
X138738097Y-70531428D01*
X139642859Y-71388571D02*
X139690478Y-71340952D01*
X139690478Y-71340952D02*
X139785716Y-71198095D01*
X139785716Y-71198095D02*
X139833335Y-71102857D01*
X139833335Y-71102857D02*
X139880954Y-70960000D01*
X139880954Y-70960000D02*
X139928573Y-70721904D01*
X139928573Y-70721904D02*
X139928573Y-70531428D01*
X139928573Y-70531428D02*
X139880954Y-70293333D01*
X139880954Y-70293333D02*
X139833335Y-70150476D01*
X139833335Y-70150476D02*
X139785716Y-70055238D01*
X139785716Y-70055238D02*
X139690478Y-69912380D01*
X139690478Y-69912380D02*
X139642859Y-69864761D01*
X115928571Y-71627619D02*
X116023809Y-71627619D01*
X116023809Y-71627619D02*
X116119047Y-71675238D01*
X116119047Y-71675238D02*
X116166666Y-71722857D01*
X116166666Y-71722857D02*
X116214285Y-71818095D01*
X116214285Y-71818095D02*
X116261904Y-72008571D01*
X116261904Y-72008571D02*
X116261904Y-72246666D01*
X116261904Y-72246666D02*
X116214285Y-72437142D01*
X116214285Y-72437142D02*
X116166666Y-72532380D01*
X116166666Y-72532380D02*
X116119047Y-72580000D01*
X116119047Y-72580000D02*
X116023809Y-72627619D01*
X116023809Y-72627619D02*
X115928571Y-72627619D01*
X115928571Y-72627619D02*
X115833333Y-72580000D01*
X115833333Y-72580000D02*
X115785714Y-72532380D01*
X115785714Y-72532380D02*
X115738095Y-72437142D01*
X115738095Y-72437142D02*
X115690476Y-72246666D01*
X115690476Y-72246666D02*
X115690476Y-72008571D01*
X115690476Y-72008571D02*
X115738095Y-71818095D01*
X115738095Y-71818095D02*
X115785714Y-71722857D01*
X115785714Y-71722857D02*
X115833333Y-71675238D01*
X115833333Y-71675238D02*
X115928571Y-71627619D01*
X116690476Y-72532380D02*
X116738095Y-72580000D01*
X116738095Y-72580000D02*
X116690476Y-72627619D01*
X116690476Y-72627619D02*
X116642857Y-72580000D01*
X116642857Y-72580000D02*
X116690476Y-72532380D01*
X116690476Y-72532380D02*
X116690476Y-72627619D01*
X117071428Y-71627619D02*
X117690475Y-71627619D01*
X117690475Y-71627619D02*
X117357142Y-72008571D01*
X117357142Y-72008571D02*
X117499999Y-72008571D01*
X117499999Y-72008571D02*
X117595237Y-72056190D01*
X117595237Y-72056190D02*
X117642856Y-72103809D01*
X117642856Y-72103809D02*
X117690475Y-72199047D01*
X117690475Y-72199047D02*
X117690475Y-72437142D01*
X117690475Y-72437142D02*
X117642856Y-72532380D01*
X117642856Y-72532380D02*
X117595237Y-72580000D01*
X117595237Y-72580000D02*
X117499999Y-72627619D01*
X117499999Y-72627619D02*
X117214285Y-72627619D01*
X117214285Y-72627619D02*
X117119047Y-72580000D01*
X117119047Y-72580000D02*
X117071428Y-72532380D01*
X118642856Y-72627619D02*
X118071428Y-72627619D01*
X118357142Y-72627619D02*
X118357142Y-71627619D01*
X118357142Y-71627619D02*
X118261904Y-71770476D01*
X118261904Y-71770476D02*
X118166666Y-71865714D01*
X118166666Y-71865714D02*
X118071428Y-71913333D01*
X119071428Y-72627619D02*
X119071428Y-71960952D01*
X119071428Y-72056190D02*
X119119047Y-72008571D01*
X119119047Y-72008571D02*
X119214285Y-71960952D01*
X119214285Y-71960952D02*
X119357142Y-71960952D01*
X119357142Y-71960952D02*
X119452380Y-72008571D01*
X119452380Y-72008571D02*
X119499999Y-72103809D01*
X119499999Y-72103809D02*
X119499999Y-72627619D01*
X119499999Y-72103809D02*
X119547618Y-72008571D01*
X119547618Y-72008571D02*
X119642856Y-71960952D01*
X119642856Y-71960952D02*
X119785713Y-71960952D01*
X119785713Y-71960952D02*
X119880952Y-72008571D01*
X119880952Y-72008571D02*
X119928571Y-72103809D01*
X119928571Y-72103809D02*
X119928571Y-72627619D01*
X120404761Y-72627619D02*
X120404761Y-71960952D01*
X120404761Y-72056190D02*
X120452380Y-72008571D01*
X120452380Y-72008571D02*
X120547618Y-71960952D01*
X120547618Y-71960952D02*
X120690475Y-71960952D01*
X120690475Y-71960952D02*
X120785713Y-72008571D01*
X120785713Y-72008571D02*
X120833332Y-72103809D01*
X120833332Y-72103809D02*
X120833332Y-72627619D01*
X120833332Y-72103809D02*
X120880951Y-72008571D01*
X120880951Y-72008571D02*
X120976189Y-71960952D01*
X120976189Y-71960952D02*
X121119046Y-71960952D01*
X121119046Y-71960952D02*
X121214285Y-72008571D01*
X121214285Y-72008571D02*
X121261904Y-72103809D01*
X121261904Y-72103809D02*
X121261904Y-72627619D01*
X122357142Y-71960952D02*
X122738094Y-71960952D01*
X122499999Y-71627619D02*
X122499999Y-72484761D01*
X122499999Y-72484761D02*
X122547618Y-72580000D01*
X122547618Y-72580000D02*
X122642856Y-72627619D01*
X122642856Y-72627619D02*
X122738094Y-72627619D01*
X123214285Y-72627619D02*
X123119047Y-72580000D01*
X123119047Y-72580000D02*
X123071428Y-72532380D01*
X123071428Y-72532380D02*
X123023809Y-72437142D01*
X123023809Y-72437142D02*
X123023809Y-72151428D01*
X123023809Y-72151428D02*
X123071428Y-72056190D01*
X123071428Y-72056190D02*
X123119047Y-72008571D01*
X123119047Y-72008571D02*
X123214285Y-71960952D01*
X123214285Y-71960952D02*
X123357142Y-71960952D01*
X123357142Y-71960952D02*
X123452380Y-72008571D01*
X123452380Y-72008571D02*
X123499999Y-72056190D01*
X123499999Y-72056190D02*
X123547618Y-72151428D01*
X123547618Y-72151428D02*
X123547618Y-72437142D01*
X123547618Y-72437142D02*
X123499999Y-72532380D01*
X123499999Y-72532380D02*
X123452380Y-72580000D01*
X123452380Y-72580000D02*
X123357142Y-72627619D01*
X123357142Y-72627619D02*
X123214285Y-72627619D01*
X123833333Y-71960952D02*
X124214285Y-71960952D01*
X123976190Y-71627619D02*
X123976190Y-72484761D01*
X123976190Y-72484761D02*
X124023809Y-72580000D01*
X124023809Y-72580000D02*
X124119047Y-72627619D01*
X124119047Y-72627619D02*
X124214285Y-72627619D01*
X124976190Y-72627619D02*
X124976190Y-72103809D01*
X124976190Y-72103809D02*
X124928571Y-72008571D01*
X124928571Y-72008571D02*
X124833333Y-71960952D01*
X124833333Y-71960952D02*
X124642857Y-71960952D01*
X124642857Y-71960952D02*
X124547619Y-72008571D01*
X124976190Y-72580000D02*
X124880952Y-72627619D01*
X124880952Y-72627619D02*
X124642857Y-72627619D01*
X124642857Y-72627619D02*
X124547619Y-72580000D01*
X124547619Y-72580000D02*
X124500000Y-72484761D01*
X124500000Y-72484761D02*
X124500000Y-72389523D01*
X124500000Y-72389523D02*
X124547619Y-72294285D01*
X124547619Y-72294285D02*
X124642857Y-72246666D01*
X124642857Y-72246666D02*
X124880952Y-72246666D01*
X124880952Y-72246666D02*
X124976190Y-72199047D01*
X125595238Y-72627619D02*
X125500000Y-72580000D01*
X125500000Y-72580000D02*
X125452381Y-72484761D01*
X125452381Y-72484761D02*
X125452381Y-71627619D01*
X126595239Y-71960952D02*
X126976191Y-71960952D01*
X126738096Y-71627619D02*
X126738096Y-72484761D01*
X126738096Y-72484761D02*
X126785715Y-72580000D01*
X126785715Y-72580000D02*
X126880953Y-72627619D01*
X126880953Y-72627619D02*
X126976191Y-72627619D01*
X127309525Y-72627619D02*
X127309525Y-71627619D01*
X127738096Y-72627619D02*
X127738096Y-72103809D01*
X127738096Y-72103809D02*
X127690477Y-72008571D01*
X127690477Y-72008571D02*
X127595239Y-71960952D01*
X127595239Y-71960952D02*
X127452382Y-71960952D01*
X127452382Y-71960952D02*
X127357144Y-72008571D01*
X127357144Y-72008571D02*
X127309525Y-72056190D01*
X128214287Y-72627619D02*
X128214287Y-71960952D01*
X128214287Y-71627619D02*
X128166668Y-71675238D01*
X128166668Y-71675238D02*
X128214287Y-71722857D01*
X128214287Y-71722857D02*
X128261906Y-71675238D01*
X128261906Y-71675238D02*
X128214287Y-71627619D01*
X128214287Y-71627619D02*
X128214287Y-71722857D01*
X129119048Y-72580000D02*
X129023810Y-72627619D01*
X129023810Y-72627619D02*
X128833334Y-72627619D01*
X128833334Y-72627619D02*
X128738096Y-72580000D01*
X128738096Y-72580000D02*
X128690477Y-72532380D01*
X128690477Y-72532380D02*
X128642858Y-72437142D01*
X128642858Y-72437142D02*
X128642858Y-72151428D01*
X128642858Y-72151428D02*
X128690477Y-72056190D01*
X128690477Y-72056190D02*
X128738096Y-72008571D01*
X128738096Y-72008571D02*
X128833334Y-71960952D01*
X128833334Y-71960952D02*
X129023810Y-71960952D01*
X129023810Y-71960952D02*
X129119048Y-72008571D01*
X129547620Y-72627619D02*
X129547620Y-71627619D01*
X129642858Y-72246666D02*
X129928572Y-72627619D01*
X129928572Y-71960952D02*
X129547620Y-72341904D01*
X130357144Y-71960952D02*
X130357144Y-72627619D01*
X130357144Y-72056190D02*
X130404763Y-72008571D01*
X130404763Y-72008571D02*
X130500001Y-71960952D01*
X130500001Y-71960952D02*
X130642858Y-71960952D01*
X130642858Y-71960952D02*
X130738096Y-72008571D01*
X130738096Y-72008571D02*
X130785715Y-72103809D01*
X130785715Y-72103809D02*
X130785715Y-72627619D01*
X131642858Y-72580000D02*
X131547620Y-72627619D01*
X131547620Y-72627619D02*
X131357144Y-72627619D01*
X131357144Y-72627619D02*
X131261906Y-72580000D01*
X131261906Y-72580000D02*
X131214287Y-72484761D01*
X131214287Y-72484761D02*
X131214287Y-72103809D01*
X131214287Y-72103809D02*
X131261906Y-72008571D01*
X131261906Y-72008571D02*
X131357144Y-71960952D01*
X131357144Y-71960952D02*
X131547620Y-71960952D01*
X131547620Y-71960952D02*
X131642858Y-72008571D01*
X131642858Y-72008571D02*
X131690477Y-72103809D01*
X131690477Y-72103809D02*
X131690477Y-72199047D01*
X131690477Y-72199047D02*
X131214287Y-72294285D01*
X132071430Y-72580000D02*
X132166668Y-72627619D01*
X132166668Y-72627619D02*
X132357144Y-72627619D01*
X132357144Y-72627619D02*
X132452382Y-72580000D01*
X132452382Y-72580000D02*
X132500001Y-72484761D01*
X132500001Y-72484761D02*
X132500001Y-72437142D01*
X132500001Y-72437142D02*
X132452382Y-72341904D01*
X132452382Y-72341904D02*
X132357144Y-72294285D01*
X132357144Y-72294285D02*
X132214287Y-72294285D01*
X132214287Y-72294285D02*
X132119049Y-72246666D01*
X132119049Y-72246666D02*
X132071430Y-72151428D01*
X132071430Y-72151428D02*
X132071430Y-72103809D01*
X132071430Y-72103809D02*
X132119049Y-72008571D01*
X132119049Y-72008571D02*
X132214287Y-71960952D01*
X132214287Y-71960952D02*
X132357144Y-71960952D01*
X132357144Y-71960952D02*
X132452382Y-72008571D01*
X132880954Y-72580000D02*
X132976192Y-72627619D01*
X132976192Y-72627619D02*
X133166668Y-72627619D01*
X133166668Y-72627619D02*
X133261906Y-72580000D01*
X133261906Y-72580000D02*
X133309525Y-72484761D01*
X133309525Y-72484761D02*
X133309525Y-72437142D01*
X133309525Y-72437142D02*
X133261906Y-72341904D01*
X133261906Y-72341904D02*
X133166668Y-72294285D01*
X133166668Y-72294285D02*
X133023811Y-72294285D01*
X133023811Y-72294285D02*
X132928573Y-72246666D01*
X132928573Y-72246666D02*
X132880954Y-72151428D01*
X132880954Y-72151428D02*
X132880954Y-72103809D01*
X132880954Y-72103809D02*
X132928573Y-72008571D01*
X132928573Y-72008571D02*
X133023811Y-71960952D01*
X133023811Y-71960952D02*
X133166668Y-71960952D01*
X133166668Y-71960952D02*
X133261906Y-72008571D01*
M02*
